<svg width="24" height="17" viewBox="0 0 24 17" fill="none" xmlns="http://www.w3.org/2000/svg">
<path fill-rule="evenodd" clip-rule="evenodd" d="M20.5981 1.29458C21.5937 1.5611 22.3762 2.34352 22.6427 3.33916C23.1243 5.14197 23.1262 8.9056 23.1262 8.9056C23.1262 8.9056 23.1262 12.6692 22.6427 14.4721C22.3762 15.4677 21.5937 16.2501 20.5981 16.5166C18.7953 17.0002 11.5631 17.0002 11.5631 17.0002C11.5631 17.0002 4.33093 17.0002 2.52812 16.5166C1.53249 16.2501 0.750061 15.4677 0.483542 14.4721C0 12.6692 0 8.9056 0 8.9056C0 8.9056 0 5.14197 0.483542 3.33916C0.750061 2.34352 1.53249 1.5611 2.52812 1.29458C4.33093 0.811035 11.5631 0.811035 11.5631 0.811035C11.5631 0.811035 18.7953 0.811035 20.5981 1.29458ZM15.2563 8.90559L9.24823 12.3741V5.43701L15.2563 8.90559Z" fill="#F5F5F5"/>
</svg>
