<svg width="20" height="20" viewBox="0 0 20 20" fill="none" xmlns="http://www.w3.org/2000/svg">
<path fill-rule="evenodd" clip-rule="evenodd" d="M19.5476 19.249H15.5926V12.5126C15.5926 10.6657 14.8908 9.63358 13.4289 9.63358C11.8386 9.63358 11.0078 10.7077 11.0078 12.5126V19.249H7.1962V6.41634H11.0078V8.14489C11.0078 8.14489 12.1538 6.02428 14.877 6.02428C17.5989 6.02428 19.5476 7.68645 19.5476 11.1242V19.249ZM2.649 4.736C1.3507 4.736 0.298645 3.67569 0.298645 2.368C0.298645 1.06031 1.3507 0 2.649 0C3.94731 0 4.99873 1.06031 4.99873 2.368C4.99873 3.67569 3.94731 4.736 2.649 4.736ZM0.680868 19.249H4.65536V6.41634H0.680868V19.249Z" fill="white"/>
</svg>
