<svg width="159" height="146" viewBox="0 0 159 146" fill="none" xmlns="http://www.w3.org/2000/svg">
<path d="M41.7209 142.994C41.6633 143.206 41.5518 143.368 41.3899 143.483C41.2281 143.598 41.0374 143.656 40.8288 143.656H36.2463C36.0341 143.656 35.847 143.595 35.6852 143.469C35.5233 143.343 35.419 143.185 35.383 142.994L29.4156 121.833C29.3761 121.679 29.412 121.531 29.5164 121.387C29.6207 121.243 29.7609 121.171 29.9336 121.171H34.6924C34.9046 121.171 35.0917 121.233 35.2535 121.358C35.4154 121.484 35.5161 121.643 35.5557 121.833L38.8721 134.027C38.8901 134.102 38.9404 134.146 39.016 134.156C39.0915 134.167 39.149 134.124 39.1886 134.027L43.023 121.833C43.0805 121.621 43.192 121.459 43.3539 121.344C43.5158 121.229 43.7028 121.171 43.915 121.171H47.6631C47.8753 121.171 48.0623 121.229 48.2242 121.344C48.3861 121.459 48.4976 121.625 48.5551 121.833L52.3895 133.998C52.429 134.095 52.4866 134.138 52.5621 134.128C52.6377 134.117 52.688 134.074 52.706 133.998L56.0224 121.833C56.062 121.643 56.1627 121.484 56.3246 121.358C56.4864 121.233 56.6735 121.171 56.8857 121.171H61.6733C61.8459 121.171 61.9862 121.243 62.0905 121.387C62.1948 121.531 62.2308 121.682 62.1912 121.833L56.2238 142.994C56.1843 143.185 56.0836 143.347 55.9217 143.469C55.7598 143.595 55.5692 143.656 55.3606 143.656H50.778C50.5658 143.656 50.3788 143.598 50.2169 143.483C50.055 143.368 49.9435 143.206 49.886 142.994L45.9653 131.146C45.9257 131.049 45.8682 131.002 45.7926 131.002C45.7171 131.002 45.6596 131.049 45.62 131.146L41.7281 142.994H41.7209Z" fill="#F5F5F5"/>
<path d="M69.9426 143.656C69.752 143.656 69.5865 143.588 69.4534 143.455C69.3204 143.322 69.252 143.156 69.252 142.965V121.862C69.252 121.671 69.3204 121.506 69.4534 121.373C69.5865 121.24 69.752 121.171 69.9426 121.171H85.8268C86.0175 121.171 86.1829 121.24 86.316 121.373C86.4491 121.506 86.5175 121.671 86.5175 121.862V126.07C86.5175 126.261 86.4491 126.427 86.316 126.56C86.1829 126.693 86.0175 126.761 85.8268 126.761H75.5935C75.4388 126.761 75.3057 126.819 75.1906 126.934C75.0755 127.049 75.018 127.186 75.018 127.337V129.412C75.018 129.567 75.0755 129.7 75.1906 129.815C75.3057 129.93 75.4388 129.988 75.5935 129.988H83.7802C83.9708 129.988 84.1363 130.056 84.2694 130.189C84.4024 130.322 84.4708 130.488 84.4708 130.678V134.513C84.4708 134.703 84.4024 134.869 84.2694 135.002C84.1363 135.135 83.9708 135.203 83.7802 135.203H75.5935C75.4388 135.203 75.3057 135.261 75.1906 135.376C75.0755 135.491 75.018 135.628 75.018 135.779V137.509C75.018 137.663 75.0755 137.797 75.1906 137.912C75.3057 138.027 75.4388 138.084 75.5935 138.084H85.8268C86.0175 138.084 86.1829 138.153 86.316 138.286C86.4491 138.419 86.5175 138.584 86.5175 138.775V142.955C86.5175 143.145 86.4491 143.311 86.316 143.444C86.1829 143.577 86.0175 143.645 85.8268 143.645H69.9426V143.656Z" fill="#F5F5F5"/>
<path d="M94.5064 121.862C94.5064 121.671 94.5748 121.506 94.7078 121.373C94.8409 121.24 95.0064 121.171 95.197 121.171H105.488C106.93 121.171 108.178 121.387 109.236 121.819C110.293 122.25 111.168 122.844 111.858 123.592C112.549 124.34 113.063 125.218 113.401 126.214C113.736 127.214 113.905 128.272 113.905 129.387C113.905 130.869 113.588 132.254 112.955 133.552C112.322 134.851 111.329 135.865 109.984 136.595C109.829 136.671 109.74 136.782 109.711 136.926C109.682 137.07 109.714 137.21 109.812 137.343L113.934 143.081C114.031 143.214 114.045 143.347 113.977 143.469C113.908 143.595 113.801 143.656 113.646 143.656H108.139C107.696 143.656 107.333 143.465 107.042 143.081L103.524 138.092C103.427 137.937 103.294 137.822 103.121 137.746C102.948 137.671 102.776 137.631 102.603 137.631H100.815C100.661 137.631 100.528 137.689 100.413 137.804C100.298 137.919 100.24 138.056 100.24 138.207V142.962C100.24 143.152 100.172 143.318 100.039 143.451C99.9055 143.584 99.74 143.652 99.5494 143.652H95.197C95.0064 143.652 94.8409 143.584 94.7078 143.451C94.5748 143.318 94.5064 143.152 94.5064 142.962V121.858V121.862ZM108.348 129.441C108.348 128.578 108.107 127.855 107.628 127.279C107.146 126.704 106.33 126.416 105.179 126.416H100.826C100.672 126.416 100.539 126.473 100.423 126.588C100.308 126.704 100.251 126.84 100.251 126.991V131.836C100.251 131.991 100.308 132.124 100.423 132.239C100.539 132.354 100.672 132.412 100.826 132.412H105.179C105.754 132.412 106.247 132.329 106.65 132.167C107.053 132.005 107.38 131.79 107.628 131.52C107.876 131.25 108.06 130.934 108.175 130.57C108.29 130.207 108.348 129.829 108.348 129.444V129.441Z" fill="#F5F5F5"/>
<path d="M121.779 121.862C121.779 121.671 121.847 121.506 121.98 121.373C122.113 121.24 122.279 121.171 122.469 121.171H126.85C127.041 121.171 127.206 121.24 127.34 121.373C127.473 121.506 127.541 121.671 127.541 121.862V142.965C127.541 143.156 127.473 143.322 127.34 143.455C127.206 143.588 127.041 143.656 126.85 143.656H122.469C122.279 143.656 122.113 143.588 121.98 143.455C121.847 143.322 121.779 143.156 121.779 142.965V121.862Z" fill="#F5F5F5"/>
<path d="M147.065 144.087C145.45 144.087 143.918 143.778 142.468 143.163C141.015 142.548 139.749 141.713 138.663 140.656C137.576 139.598 136.717 138.365 136.084 136.951C135.451 135.537 135.134 134.023 135.134 132.412C135.134 130.8 135.451 129.282 136.084 127.872C136.717 126.459 137.576 125.225 138.663 124.167C139.749 123.11 141.015 122.275 142.468 121.66C143.918 121.045 145.454 120.736 147.065 120.736C148.677 120.736 150.241 121.045 151.691 121.66C153.141 122.275 154.41 123.11 155.497 124.167C156.583 125.225 157.439 126.459 158.061 127.872C158.687 129.286 159 130.8 159 132.412C159 134.023 158.687 135.541 158.061 136.951C157.435 138.365 156.579 139.598 155.497 140.656C154.41 141.713 153.141 142.548 151.691 143.163C150.238 143.778 148.698 144.087 147.065 144.087ZM147.065 126.3C146.22 126.3 145.425 126.459 144.688 126.775C143.947 127.092 143.299 127.523 142.742 128.074C142.184 128.62 141.749 129.271 141.429 130.02C141.112 130.768 140.954 131.566 140.954 132.412C140.954 133.257 141.112 134.055 141.429 134.804C141.745 135.552 142.184 136.203 142.742 136.75C143.299 137.296 143.947 137.728 144.688 138.048C145.429 138.365 146.22 138.523 147.065 138.523C147.911 138.523 148.734 138.365 149.472 138.048C150.213 137.732 150.856 137.3 151.403 136.75C151.95 136.203 152.382 135.552 152.702 134.804C153.018 134.055 153.177 133.257 153.177 132.412C153.177 131.566 153.018 130.768 152.702 130.02C152.385 129.271 151.954 128.62 151.403 128.074C150.856 127.527 150.213 127.095 149.472 126.775C148.731 126.459 147.929 126.3 147.065 126.3Z" fill="#F5F5F5"/>
<path d="M23.6605 140.602C23.5561 140.444 23.4339 140.296 23.2972 140.156L23.1929 140.052C22.6677 139.397 22.5454 138.494 22.9123 137.724C23.7468 135.987 24.1712 134.019 24.0669 131.94C23.754 125.757 18.6751 120.783 12.4883 120.592C5.5749 120.376 -0.0759392 126.023 0.136282 132.937C0.330518 139.296 5.56771 144.447 11.9307 144.541C13.6573 144.566 15.2975 144.224 16.7867 143.591C17.4989 143.289 18.3046 143.372 18.9268 143.792L19.2937 144.159C19.5923 144.458 19.9412 144.674 20.3117 144.81C21.326 145.224 22.531 145.023 23.3547 144.199C24.3331 143.22 24.4338 141.695 23.6605 140.602ZM18.0384 134.897L17.6499 134.509C16.5457 133.404 14.7544 133.404 13.6465 134.509C12.5422 135.613 12.5422 137.404 13.6465 138.512L13.8335 138.699C13.2832 138.854 12.7041 138.936 12.107 138.936C8.58556 138.936 5.73317 136.084 5.73317 132.563C5.73317 129.041 8.58556 126.189 12.107 126.189C15.6284 126.189 18.4808 129.041 18.4808 132.563C18.4808 133.386 18.3226 134.174 18.0384 134.897Z" fill="#F5F5F5"/>
<path d="M125.433 88.0682C122.037 86.6546 118.682 85.6438 115.383 84.9244C116.063 84.1223 116.721 83.2986 117.354 82.4569C124.063 73.4861 127.609 62.8139 127.609 51.5877C127.609 37.8077 122.243 24.8551 112.498 15.1109C102.751 5.36668 89.7978 0 76.0179 0C62.2379 0 49.2852 5.36668 39.541 15.1109C29.7968 24.8551 24.4301 37.8077 24.4301 51.5877C24.4301 63.3067 28.4695 74.781 35.8001 83.8993C40.3251 89.525 45.9939 94.1291 52.3462 97.4203C65.6981 104.478 78.7803 104.125 90.5388 103.809C100.01 103.553 108.955 103.312 117.584 106.906C118.865 107.438 120.196 107.693 121.502 107.693C125.498 107.693 129.293 105.33 130.926 101.409C133.091 96.2081 130.631 90.2336 125.429 88.0682H125.433ZM76.0179 20.4056C93.2114 20.4056 107.2 34.3942 107.2 51.5877C107.2 58.3752 105.06 64.8246 101.01 70.238C97.0853 75.4824 91.5064 79.4355 85.2944 81.3706C83.8521 81.8203 82.3629 82.1656 80.8666 82.3994C78.1976 82.813 75.4136 82.8814 72.7158 82.6008L72.4065 82.5684C71.2375 82.4353 70.0685 82.2303 68.9282 81.9677C66.6549 81.439 64.4536 80.6512 62.3674 79.6297C60.6156 78.7412 58.8711 77.6622 57.123 76.3457C56.9503 76.2162 56.7741 76.0975 56.5978 75.9788C54.8029 74.5472 53.1555 72.9214 51.7059 71.1157C47.2133 65.5296 44.8393 58.7781 44.8393 51.5913C44.8393 34.3978 58.8279 20.4092 76.0215 20.4092L76.0179 20.4056Z" fill="#F5F5F5"/>
<path d="M89.9922 83.4101C97.8048 83.1979 106.38 82.9677 115.38 84.9244C119.861 77.5111 124.948 59.9578 114.311 41.6673C105.639 26.7506 90.3195 18.715 75.9209 20.3912C104.193 21.9523 107.193 48.6526 107.193 51.5841C107.193 58.3716 105.053 64.8209 101.003 70.2344C97.0782 75.4788 91.4993 79.4318 85.2874 81.367C83.845 81.8166 82.3558 82.1619 80.8595 82.3957C78.1905 82.8094 75.4065 82.8777 72.7088 82.5972L72.3994 82.5648C71.3635 82.4461 70.3276 82.2698 69.3096 82.0468V82.2051C75.6547 83.7949 82.3343 83.6187 89.9886 83.4101H89.9922Z" fill="#F5F5F5"/>
<path d="M75.9964 20.5204C78.4639 20.5204 80.8631 20.8189 83.1688 21.362C82.8846 21.2865 82.6004 21.2146 82.3091 21.1426C94.9201 22.0599 105.373 27.2251 114.315 41.6669C124.034 57.3677 120.854 76.3237 115.354 84.9133C124.372 74.7375 127.581 62.5869 127.581 51.6989C127.581 37.9189 122.214 24.9662 112.47 15.222C102.729 5.48142 89.7764 0.114746 75.9964 0.114746" fill="#F5F5F5"/>
</svg>
