<svg width="102" height="16" viewBox="0 0 102 16" fill="none" xmlns="http://www.w3.org/2000/svg">
<g clip-path="url(#clip0_1252_2724)">
<path d="M14.9463 13.0832C14.5261 12.9067 14.1099 12.7748 13.7018 12.6734C12.5785 12.4929 11.1865 12.4179 10.3016 12.4422C9.3056 12.4686 7.29942 12.286 7.14588 12.2698L7.09941 12.2657C6.92566 12.2454 6.75394 12.215 6.58423 12.1765C6.24886 12.0974 5.92156 11.9817 5.61448 11.8296C5.35587 11.6978 5.09727 11.5375 4.83867 11.3428C4.81241 11.3245 4.78816 11.3063 4.7619 11.288C4.49522 11.0751 4.25278 10.8337 4.03862 10.5659C3.37394 9.73631 3.0224 8.73225 3.0224 7.66531C3.0224 5.11156 5.09323 3.03245 7.63682 3.03245C10.1804 3.03245 12.2512 5.11156 12.2512 7.66531C12.2512 8.67343 11.934 9.63083 11.336 10.4361C10.7562 11.215 9.92988 11.8032 9.01064 12.0892C8.85103 12.1379 8.68941 12.1805 8.52576 12.213C9.07731 12.2556 9.66118 12.2414 10.2996 12.2231C11.1603 12.2008 12.4957 12.2698 13.6089 12.4361C13.6109 12.4361 13.6129 12.4361 13.615 12.4341C13.6634 12.3732 13.7099 12.3124 13.7544 12.2515C14.7463 10.9189 15.2716 9.33266 15.2716 7.66531C15.2716 5.61866 14.4776 3.69371 13.0351 2.24544C11.5886 0.79716 9.6733 0 7.63278 0C5.59225 0 3.67699 0.79716 2.2365 2.24544C0.793987 3.69168 0 5.61663 0 7.66329C0 9.40365 0.598015 11.1095 1.68293 12.4645C2.35166 13.3002 3.19211 13.9838 4.13156 14.4726C6.10743 15.5213 8.0429 15.4686 9.7824 15.4219C11.1845 15.3834 12.5078 15.3489 13.7847 15.8824C13.9746 15.9615 14.1705 16 14.3645 16C14.9564 16 15.5181 15.6491 15.7585 15.0669C16.0797 14.2941 15.7141 13.4077 14.9443 13.0852L14.9463 13.0832Z" fill="black"/>
<path d="M40.4205 0.537752C40.3862 0.491099 40.3559 0.480957 40.3175 0.480957H37.2749C37.1839 0.480957 37.1072 0.507326 37.0405 0.560065C36.9738 0.608746 36.9375 0.66757 36.9233 0.74262L34.8121 8.52153C34.7798 8.64931 34.6808 8.73654 34.5494 8.75276C34.4403 8.76696 34.2969 8.72031 34.2262 8.54384L31.7836 0.762904C31.7574 0.66757 31.7149 0.600633 31.6483 0.556008C31.5796 0.505298 31.5008 0.480957 31.4078 0.480957H29.0259C28.933 0.480957 28.8542 0.505298 28.7835 0.556008C28.7188 0.600633 28.6764 0.66757 28.6521 0.754791L26.2116 8.54789C26.1368 8.73856 25.9934 8.78522 25.8823 8.77102C25.753 8.75479 25.654 8.66757 25.6216 8.53572L23.5144 0.754791C23.4963 0.66757 23.4579 0.608746 23.3932 0.560065C23.3266 0.507326 23.2498 0.480957 23.1589 0.480957H20.1345C20.0961 0.480957 20.0658 0.491099 20.0314 0.535724C19.993 0.590491 19.993 0.624973 20.0011 0.653371L23.7933 14.1564C23.8114 14.2457 23.8498 14.3045 23.9145 14.3532C23.9832 14.4059 24.0599 14.4323 24.1488 14.4323H27.0642C27.1571 14.4323 27.2359 14.4079 27.3046 14.3572C27.3692 14.3126 27.4137 14.2457 27.4379 14.1584V14.1483L29.9148 6.58441C29.9977 6.37345 30.1532 6.35114 30.2159 6.35114C30.2785 6.35114 30.4341 6.37345 30.5149 6.57021L33.012 14.1483C33.0403 14.2477 33.0807 14.3126 33.1473 14.3593C33.216 14.4079 33.2948 14.4323 33.3878 14.4323H36.3031C36.392 14.4323 36.4688 14.4059 36.5374 14.3532C36.6021 14.3045 36.6405 14.2457 36.6546 14.1706L40.4528 0.647286C40.4589 0.624973 40.4589 0.590491 40.4205 0.537752Z" fill="black"/>
<path d="M48.7726 3.81564C48.8817 3.70611 49.0211 3.64729 49.1706 3.64729H55.6781C55.7468 3.64729 55.7993 3.62497 55.8478 3.57629C55.8963 3.52964 55.9165 3.4769 55.9165 3.40793V0.720308C55.9165 0.651342 55.8942 0.598604 55.8478 0.549923C55.7993 0.503269 55.7468 0.480957 55.6781 0.480957H45.5785C45.5098 0.480957 45.4573 0.503269 45.4088 0.551951C45.3603 0.600633 45.3401 0.651342 45.3401 0.720308V14.1929C45.3401 14.2619 45.3623 14.3146 45.4088 14.3613C45.4552 14.4079 45.5098 14.4323 45.5785 14.4323H55.6781C55.7468 14.4323 55.7993 14.41 55.8478 14.3613C55.8963 14.3146 55.9165 14.2619 55.9165 14.1929V11.5236C55.9165 11.4546 55.8942 11.4018 55.8478 11.3552C55.8013 11.3085 55.7468 11.2842 55.6781 11.2842H49.1706C49.0211 11.2842 48.8817 11.2274 48.7726 11.1158C48.6615 11.0043 48.6029 10.8664 48.6029 10.7142V9.61077C48.6029 9.45864 48.6615 9.32071 48.7706 9.20915C48.8817 9.09759 49.0211 9.03877 49.1706 9.03877H54.377C54.4457 9.03877 54.4982 9.01848 54.5447 8.9698C54.5932 8.92112 54.6154 8.86838 54.6154 8.79942V6.35317C54.6154 6.2842 54.5932 6.23146 54.5467 6.18278C54.4982 6.1341 54.4457 6.11382 54.377 6.11382H49.1706C49.0211 6.11382 48.8817 6.05499 48.7706 5.94343C48.6615 5.83187 48.6029 5.69394 48.6029 5.54181V4.21727C48.6029 4.06514 48.6615 3.9272 48.7726 3.81564Z" fill="black"/>
<path d="M73.3861 14.3836L70.7657 10.7223C70.6728 10.5905 70.6384 10.4444 70.6687 10.2964C70.6889 10.1889 70.7556 10.0408 70.9495 9.94343C71.7577 9.50327 72.3638 8.88055 72.7476 8.09353C73.1335 7.2984 73.3315 6.43228 73.3315 5.52355C73.3315 4.83796 73.2264 4.17873 73.0204 3.56412C72.8163 2.9556 72.5012 2.41808 72.0829 1.96169C71.6647 1.50733 71.1294 1.14424 70.4869 0.880551C69.8424 0.61686 69.0666 0.480957 68.1797 0.480957H61.6359C61.5672 0.480957 61.5146 0.503269 61.4682 0.551951C61.4197 0.598604 61.3975 0.651342 61.3975 0.720308V14.1929C61.3975 14.2619 61.4197 14.3146 61.4662 14.3613C61.5126 14.4079 61.5672 14.4323 61.6359 14.4323H64.4037C64.4724 14.4323 64.5249 14.41 64.5734 14.3613C64.6219 14.3126 64.6421 14.2619 64.6421 14.1929V11.1564C64.6421 11.0043 64.7007 10.8664 64.8118 10.7548C64.9209 10.6432 65.0603 10.5844 65.2098 10.5844H66.3472C66.4846 10.5844 66.624 10.6148 66.7594 10.6757C66.9069 10.7426 67.022 10.842 67.1049 10.9739L69.3353 14.1483C69.4767 14.3369 69.6505 14.4323 69.8667 14.4323H73.3679C73.384 14.4323 73.3921 14.4282 73.3941 14.4282C73.4042 14.416 73.4022 14.4039 73.3861 14.3836ZM70.0768 6.33897C69.996 6.60063 69.8646 6.82984 69.6848 7.02457C69.507 7.21727 69.2727 7.37345 68.9898 7.48907C68.711 7.60266 68.3696 7.65946 67.9797 7.65946H65.2098C65.0603 7.65946 64.9209 7.60063 64.8118 7.48907C64.7007 7.37751 64.6421 7.23958 64.6421 7.08948V3.99617C64.6421 3.84607 64.7007 3.70611 64.8118 3.59455C64.9229 3.48501 65.0603 3.42619 65.2098 3.42619H67.9797C68.7716 3.42619 69.3474 3.63511 69.6929 4.05094C70.0263 4.45459 70.198 4.96372 70.198 5.56006C70.198 5.82578 70.1576 6.08745 70.0768 6.33897Z" fill="black"/>
<path d="M81.9321 0.549923C81.8836 0.503269 81.8331 0.480957 81.7644 0.480957H78.9764C78.9077 0.480957 78.8572 0.503269 78.8087 0.551951C78.7602 0.598604 78.74 0.651342 78.74 0.720308V14.1929C78.74 14.2619 78.7602 14.3146 78.8087 14.3613C78.8572 14.41 78.9077 14.4323 78.9764 14.4323H81.7644C81.8331 14.4323 81.8836 14.41 81.9321 14.3613C81.9806 14.3146 82.0008 14.2619 82.0008 14.1929V0.720308C82.0008 0.651342 81.9806 0.598604 81.9321 0.549923Z" fill="black"/>
<path d="M101.422 4.63916C101.038 3.76694 100.503 2.9921 99.8341 2.33895C99.1654 1.68378 98.3714 1.15842 97.4764 0.779115C96.5834 0.397776 95.6197 0.205078 94.6136 0.205078C93.6075 0.205078 92.662 0.397776 91.769 0.779115C90.874 1.15842 90.08 1.68378 89.4113 2.33895C88.7425 2.9921 88.2051 3.76694 87.8132 4.64118C87.4233 5.51137 87.2273 6.45863 87.2273 7.4566C87.2273 8.45457 87.4233 9.40183 87.8132 10.272C88.2051 11.1463 88.7425 11.9211 89.4113 12.5742C90.08 13.2294 90.874 13.7548 91.769 14.1341C92.662 14.5154 93.6196 14.7081 94.6136 14.7081C95.6076 14.7081 96.5834 14.5154 97.4764 14.1341C98.3714 13.7527 99.1654 13.2294 99.8341 12.5742C100.503 11.9211 101.036 11.1483 101.422 10.274C101.806 9.40183 102 8.45254 102 7.4566C102 6.46066 101.806 5.51137 101.422 4.63916ZM98.3835 9.06309C98.1734 9.56411 97.8805 10.0043 97.5148 10.3694C97.1511 10.7365 96.7167 11.0286 96.2238 11.2416C95.7308 11.4525 95.1894 11.5621 94.6136 11.5621C94.0378 11.5621 93.5145 11.4525 93.0216 11.2416C92.5306 11.0306 92.0922 10.7365 91.7225 10.3714C91.3508 10.0043 91.0558 9.56411 90.8437 9.06309C90.6315 8.56208 90.5245 8.02049 90.5245 7.4566C90.5245 6.8927 90.6315 6.35112 90.8437 5.85011C91.0558 5.34909 91.3508 4.90893 91.7225 4.54179C92.0922 4.17668 92.5306 3.88256 93.0216 3.67161C93.5145 3.46066 94.0499 3.35112 94.6136 3.35112C95.1773 3.35112 95.7308 3.46066 96.2238 3.67161C96.7167 3.88459 97.1511 4.17668 97.5148 4.54382C97.8805 4.90893 98.1734 5.34909 98.3835 5.85011C98.5956 6.35112 98.7027 6.8927 98.7027 7.4566C98.7027 8.02049 98.5956 8.56208 98.3835 9.06309Z" fill="black"/>
</g>
<defs>
<clipPath id="clip0_1252_2724">
<rect width="102" height="16" fill="white"/>
</clipPath>
</defs>
</svg>
