<svg width="601" height="313" viewBox="0 0 601 313" fill="none" xmlns="http://www.w3.org/2000/svg">
<g clip-path="url(#clip0_272_7)">
<rect width="600" height="313" transform="translate(0.705078)" fill="url(#paint0_radial_272_7)"/>
<g style="mix-blend-mode:soft-light" opacity="0.5">
<path d="M13.0476 -51.7236V494.276" stroke="#F1F1F1" stroke-width="0.25"/>
<path d="M39.5886 -51.7236V494.276" stroke="#F1F1F1" stroke-width="0.25"/>
<path d="M66.1298 -51.7236V494.276" stroke="#F1F1F1" stroke-width="0.25"/>
<path d="M92.6709 -51.7236V494.276" stroke="#F1F1F1" stroke-width="0.25"/>
<path d="M119.212 -51.7236V494.276" stroke="#F1F1F1" stroke-width="0.25"/>
<path d="M145.753 -51.7236V494.276" stroke="#F1F1F1" stroke-width="0.25"/>
<path d="M172.294 -51.7236V494.276" stroke="#F1F1F1" stroke-width="0.25"/>
<path d="M198.835 -51.7236V494.276" stroke="#F1F1F1" stroke-width="0.25"/>
<path d="M225.376 -51.7236V494.276" stroke="#F1F1F1" stroke-width="0.25"/>
<path d="M251.917 -51.7236V494.276" stroke="#F1F1F1" stroke-width="0.25"/>
<path d="M278.458 -51.7236V494.276" stroke="#F1F1F1" stroke-width="0.25"/>
<path d="M305 -51.7236V494.276" stroke="#F1F1F1" stroke-width="0.25"/>
<path d="M331.541 -51.7236V494.276" stroke="#F1F1F1" stroke-width="0.25"/>
<path d="M358.082 -51.7236V494.276" stroke="#F1F1F1" stroke-width="0.25"/>
<path d="M384.623 -51.7236V494.276" stroke="#F1F1F1" stroke-width="0.25"/>
<path d="M411.164 -51.7236V494.276" stroke="#F1F1F1" stroke-width="0.25"/>
<path d="M437.705 -51.7236V494.276" stroke="#F1F1F1" stroke-width="0.25"/>
<path d="M464.246 -51.7236V494.276" stroke="#F1F1F1" stroke-width="0.25"/>
<path d="M490.787 -51.7236V494.276" stroke="#F1F1F1" stroke-width="0.25"/>
<path d="M517.328 -51.7236V494.276" stroke="#F1F1F1" stroke-width="0.25"/>
<path d="M543.869 -51.7236V494.276" stroke="#F1F1F1" stroke-width="0.25"/>
<path d="M570.41 -51.7236V494.276" stroke="#F1F1F1" stroke-width="0.25"/>
<path d="M596.951 -51.7236V494.276" stroke="#F1F1F1" stroke-width="0.25"/>
<path d="M-93.1638 28.6279H785.836" stroke="#F1F1F1" stroke-width="0.25"/>
<path d="M-93.1638 55.7773H785.836" stroke="#F1F1F1" stroke-width="0.25"/>
<path d="M-93.1638 82.9268H785.836" stroke="#F1F1F1" stroke-width="0.25"/>
<path d="M-93.1638 110.076H785.836" stroke="#F1F1F1" stroke-width="0.25"/>
<path d="M-93.1638 137.226H785.836" stroke="#F1F1F1" stroke-width="0.25"/>
<path d="M-93.1638 164.375H785.836" stroke="#F1F1F1" stroke-width="0.25"/>
<path d="M-93.1638 191.524H785.836" stroke="#F1F1F1" stroke-width="0.25"/>
<path d="M-93.1638 218.674H785.836" stroke="#F1F1F1" stroke-width="0.25"/>
<path d="M-93.1638 245.823H785.836" stroke="#F1F1F1" stroke-width="0.25"/>
<path d="M-93.1638 272.973H785.836" stroke="#F1F1F1" stroke-width="0.25"/>
<path d="M-93.1638 300.122H785.836" stroke="#F1F1F1" stroke-width="0.25"/>
</g>
<g opacity="0.4">
<path d="M298.931 141.5V156.5M306.431 149H291.431" stroke="white" stroke-width="1.5" stroke-linecap="round" stroke-linejoin="round"/>
</g>
<g clip-path="url(#clip1_272_7)">
<path d="M146.803 149.043C146.803 143.507 139.875 138.261 129.253 135.007C131.704 124.174 130.614 115.555 125.814 112.796C124.708 112.149 123.414 111.842 122.001 111.842V115.64C122.784 115.64 123.414 115.794 123.942 116.083C126.257 117.412 127.261 122.471 126.478 128.978C126.291 130.579 125.984 132.265 125.61 133.985C122.273 133.168 118.631 132.538 114.801 132.129C112.503 128.978 110.119 126.116 107.719 123.612C113.269 118.451 118.477 115.623 122.018 115.623V111.825C117.337 111.825 111.209 115.163 105.013 120.955C98.8165 115.198 92.6884 111.893 88.0073 111.893V115.691C91.5309 115.691 96.7568 118.502 102.306 123.629C99.923 126.133 97.5398 128.978 95.2758 132.129C91.4288 132.538 87.786 133.168 84.4496 134.002C84.058 132.299 83.7687 130.647 83.5644 129.063C82.7643 122.556 83.7516 117.497 86.0497 116.151C86.5603 115.845 87.2242 115.709 88.0073 115.709V111.91C86.5774 111.91 85.2837 112.217 84.1602 112.864C79.3769 115.623 78.3045 124.225 80.7727 135.024C70.1847 138.295 63.2906 143.524 63.2906 149.043C63.2906 154.579 70.2188 159.825 80.8408 163.079C78.3896 173.912 79.479 182.531 84.2793 185.29C85.3858 185.937 86.6795 186.244 88.1094 186.244C92.7906 186.244 98.9186 182.905 105.115 177.114C111.311 182.871 117.439 186.176 122.12 186.176C123.55 186.176 124.844 185.869 125.967 185.222C130.751 182.463 131.823 173.861 129.355 163.061C139.909 159.808 146.803 154.562 146.803 149.043ZM124.64 137.682C124.01 139.879 123.227 142.144 122.342 144.41C121.644 143.047 120.912 141.685 120.112 140.322C119.329 138.959 118.494 137.631 117.66 136.336C120.078 136.694 122.41 137.137 124.64 137.682ZM116.843 155.822C115.516 158.122 114.154 160.302 112.741 162.329C110.205 162.55 107.634 162.67 105.047 162.67C102.476 162.67 99.906 162.55 97.3866 162.346C95.9738 160.319 94.5949 158.156 93.2672 155.873C91.9735 153.642 90.7989 151.377 89.7265 149.094C90.7819 146.812 91.9735 144.529 93.2502 142.298C94.5779 139.998 95.9397 137.818 97.3526 135.791C99.8889 135.57 102.459 135.45 105.047 135.45C107.617 135.45 110.188 135.57 112.707 135.774C114.12 137.801 115.499 139.964 116.826 142.247C118.12 144.478 119.295 146.743 120.367 149.026C119.295 151.308 118.12 153.591 116.843 155.822ZM122.342 153.608C123.261 155.89 124.044 158.173 124.691 160.387C122.461 160.932 120.112 161.392 117.677 161.75C118.511 160.438 119.346 159.093 120.129 157.713C120.912 156.35 121.644 154.971 122.342 153.608ZM105.081 171.783C103.498 170.147 101.915 168.325 100.349 166.332C101.881 166.4 103.447 166.451 105.03 166.451C106.63 166.451 108.213 166.417 109.762 166.332C108.23 168.325 106.647 170.147 105.081 171.783ZM92.4161 161.75C89.9989 161.392 87.6668 160.949 85.4369 160.404C86.0667 158.207 86.8497 155.942 87.7349 153.676C88.4328 155.039 89.1648 156.401 89.9648 157.764C90.7649 159.127 91.582 160.455 92.4161 161.75ZM104.996 126.303C106.579 127.939 108.162 129.761 109.728 131.754C108.196 131.686 106.63 131.635 105.047 131.635C103.447 131.635 101.864 131.669 100.314 131.754C101.847 129.761 103.43 127.939 104.996 126.303ZM92.399 136.336C91.5649 137.648 90.7308 138.993 89.9478 140.373C89.1648 141.736 88.4328 143.098 87.7349 144.461C86.8157 142.178 86.0326 139.896 85.3858 137.682C87.6157 137.154 89.9648 136.694 92.399 136.336ZM76.9937 157.662C70.9678 155.09 67.0696 151.717 67.0696 149.043C67.0696 146.369 70.9678 142.979 76.9937 140.424C78.4577 139.794 80.0578 139.232 81.7089 138.704C82.6792 142.042 83.9559 145.517 85.539 149.077C83.9729 152.62 82.7133 156.078 81.76 159.399C80.0748 158.871 78.4747 158.292 76.9937 157.662ZM86.1518 182.003C83.8368 180.674 82.8324 175.615 83.6155 169.108C83.8027 167.507 84.1091 165.821 84.4836 164.101C87.82 164.918 91.4628 165.548 95.2929 165.957C97.5909 169.108 99.974 171.97 102.374 174.474C96.8249 179.635 91.616 182.463 88.0753 182.463C87.3093 182.446 86.6625 182.292 86.1518 182.003ZM126.529 169.023C127.329 175.53 126.342 180.589 124.044 181.935C123.533 182.241 122.869 182.377 122.086 182.377C118.563 182.377 113.337 179.567 107.787 174.44C110.17 171.936 112.554 169.091 114.818 165.94C118.665 165.531 122.307 164.901 125.644 164.066C126.035 165.787 126.342 167.439 126.529 169.023ZM133.083 157.662C131.619 158.292 130.019 158.854 128.367 159.382C127.397 156.044 126.121 152.569 124.537 149.009C126.104 145.466 127.363 142.008 128.316 138.687C130.002 139.215 131.602 139.794 133.1 140.424C139.126 142.996 143.024 146.369 143.024 149.043C143.007 151.717 139.109 155.107 133.083 157.662Z" fill="#61DAFB"/>
<path d="M105.03 156.827C109.326 156.827 112.809 153.342 112.809 149.043C112.809 144.744 109.326 141.259 105.03 141.259C100.733 141.259 97.2505 144.744 97.2505 149.043C97.2505 153.342 100.733 156.827 105.03 156.827Z" fill="#61DAFB"/>
</g>
<path d="M95.3002 213.5H94.4422L91.5432 209.73H88.5662V213.5H87.8902V204.4H91.7122C92.2062 204.4 92.6525 204.465 93.0512 204.595C93.4499 204.716 93.7879 204.894 94.0652 205.128C94.3512 205.353 94.5722 205.626 94.7282 205.947C94.8842 206.259 94.9622 206.606 94.9622 206.987V207.013C94.9622 207.394 94.8929 207.737 94.7542 208.04C94.6242 208.335 94.4379 208.59 94.1952 208.807C93.9612 209.024 93.6795 209.201 93.3502 209.34C93.0295 209.47 92.6785 209.561 92.2972 209.613L95.3002 213.5ZM94.2862 207.039V207.013C94.2862 206.398 94.0565 205.912 93.5972 205.557C93.1465 205.202 92.5052 205.024 91.6732 205.024H88.5662V209.119H91.6342C92.0155 209.119 92.3665 209.071 92.6872 208.976C93.0165 208.881 93.2982 208.746 93.5322 208.573C93.7662 208.391 93.9482 208.174 94.0782 207.923C94.2169 207.663 94.2862 207.368 94.2862 207.039ZM97.2358 210.445C97.2618 210.861 97.3528 211.229 97.5088 211.55C97.6648 211.871 97.8598 212.144 98.0938 212.369C98.3278 212.594 98.5921 212.768 98.8868 212.889C99.1901 213.002 99.5065 213.058 99.8358 213.058C100.356 213.058 100.793 212.958 101.149 212.759C101.513 212.56 101.833 212.313 102.111 212.018L102.553 212.408C102.215 212.772 101.829 213.071 101.396 213.305C100.971 213.539 100.442 213.656 99.8098 213.656C99.3765 213.656 98.9605 213.574 98.5618 213.409C98.1718 213.244 97.8251 213.01 97.5218 212.707C97.2271 212.404 96.9931 212.04 96.8198 211.615C96.6465 211.19 96.5598 210.718 96.5598 210.198V210.172C96.5598 209.695 96.6378 209.249 96.7938 208.833C96.9585 208.408 97.1795 208.04 97.4568 207.728C97.7428 207.416 98.0765 207.169 98.4578 206.987C98.8391 206.805 99.2551 206.714 99.7058 206.714C100.174 206.714 100.594 206.805 100.967 206.987C101.339 207.16 101.656 207.403 101.916 207.715C102.184 208.027 102.388 208.395 102.527 208.82C102.674 209.236 102.748 209.691 102.748 210.185V210.211C102.748 210.254 102.748 210.293 102.748 210.328C102.748 210.354 102.743 210.393 102.735 210.445H97.2358ZM97.2358 209.873H102.059C102.033 209.535 101.963 209.214 101.851 208.911C101.747 208.599 101.595 208.326 101.396 208.092C101.205 207.849 100.967 207.659 100.681 207.52C100.395 207.373 100.061 207.299 99.6798 207.299C99.3505 207.299 99.0428 207.364 98.7568 207.494C98.4708 207.624 98.2195 207.806 98.0028 208.04C97.7948 208.265 97.6215 208.538 97.4828 208.859C97.3441 209.171 97.2618 209.509 97.2358 209.873ZM109.781 213.5H109.157V212.395C109.044 212.551 108.905 212.707 108.741 212.863C108.585 213.01 108.403 213.145 108.195 213.266C107.987 213.379 107.748 213.47 107.48 213.539C107.22 213.617 106.934 213.656 106.622 213.656C106.31 213.656 106.002 213.613 105.699 213.526C105.395 213.439 105.122 213.309 104.88 213.136C104.637 212.963 104.438 212.746 104.282 212.486C104.134 212.226 104.061 211.923 104.061 211.576V211.55C104.061 211.203 104.13 210.896 104.269 210.627C104.416 210.358 104.615 210.133 104.867 209.951C105.118 209.769 105.421 209.63 105.777 209.535C106.132 209.44 106.526 209.392 106.96 209.392C107.428 209.392 107.831 209.418 108.169 209.47C108.507 209.522 108.836 209.591 109.157 209.678V209.392C109.157 208.716 108.962 208.209 108.572 207.871C108.19 207.533 107.657 207.364 106.973 207.364C106.565 207.364 106.193 207.416 105.855 207.52C105.517 207.615 105.196 207.741 104.893 207.897L104.659 207.338C105.023 207.165 105.391 207.026 105.764 206.922C106.136 206.818 106.552 206.766 107.012 206.766C107.87 206.766 108.546 206.983 109.04 207.416C109.534 207.849 109.781 208.499 109.781 209.366V213.5ZM109.17 211.017V210.263C108.892 210.194 108.567 210.129 108.195 210.068C107.822 209.999 107.397 209.964 106.921 209.964C106.219 209.964 105.677 210.107 105.296 210.393C104.923 210.67 104.737 211.043 104.737 211.511V211.537C104.737 211.78 104.789 211.996 104.893 212.187C104.997 212.369 105.135 212.525 105.309 212.655C105.491 212.785 105.699 212.885 105.933 212.954C106.167 213.023 106.409 213.058 106.661 213.058C106.999 213.058 107.319 213.01 107.623 212.915C107.926 212.811 108.19 212.672 108.416 212.499C108.65 212.317 108.832 212.1 108.962 211.849C109.1 211.598 109.17 211.32 109.17 211.017ZM117.7 212.343C117.362 212.724 116.977 213.041 116.543 213.292C116.119 213.535 115.603 213.656 114.996 213.656C114.52 213.656 114.073 213.565 113.657 213.383C113.25 213.192 112.895 212.941 112.591 212.629C112.288 212.317 112.05 211.953 111.876 211.537C111.703 211.121 111.616 210.679 111.616 210.211V210.185C111.616 209.717 111.703 209.275 111.876 208.859C112.05 208.443 112.288 208.075 112.591 207.754C112.895 207.433 113.25 207.182 113.657 207C114.073 206.809 114.52 206.714 114.996 206.714C115.308 206.714 115.59 206.749 115.841 206.818C116.101 206.879 116.34 206.965 116.556 207.078C116.773 207.191 116.968 207.321 117.141 207.468C117.323 207.615 117.492 207.771 117.648 207.936L117.193 208.404C116.907 208.109 116.591 207.854 116.244 207.637C115.898 207.42 115.477 207.312 114.983 207.312C114.602 207.312 114.247 207.386 113.917 207.533C113.597 207.68 113.315 207.884 113.072 208.144C112.838 208.395 112.652 208.694 112.513 209.041C112.375 209.388 112.305 209.76 112.305 210.159V210.185C112.305 210.584 112.375 210.961 112.513 211.316C112.661 211.663 112.856 211.966 113.098 212.226C113.35 212.486 113.64 212.69 113.969 212.837C114.299 212.984 114.654 213.058 115.035 213.058C115.503 213.058 115.919 212.954 116.283 212.746C116.656 212.529 116.981 212.265 117.258 211.953L117.7 212.343ZM122.787 213.383C122.614 213.461 122.441 213.517 122.267 213.552C122.103 213.595 121.916 213.617 121.708 213.617C121.448 213.617 121.206 213.582 120.98 213.513C120.755 213.444 120.556 213.335 120.382 213.188C120.218 213.032 120.088 212.841 119.992 212.616C119.897 212.382 119.849 212.109 119.849 211.797V207.455H118.887V206.87H119.849V204.751H120.486V206.87H122.813V207.455H120.486V211.732C120.486 212.209 120.608 212.542 120.85 212.733C121.102 212.924 121.422 213.019 121.812 213.019C121.977 213.019 122.133 213.002 122.28 212.967C122.428 212.932 122.597 212.872 122.787 212.785V213.383Z" fill="white"/>
<g opacity="0.4">
<path d="M180.931 141.5V156.5M188.431 149H173.431" stroke="white" stroke-width="1.5" stroke-linecap="round" stroke-linejoin="round"/>
</g>
<g clip-path="url(#clip2_272_7)">
<path d="M240.061 111.704L242.062 115.463C242.512 116.157 243 116.771 243.574 117.343C245.25 119.019 246.841 120.774 248.271 122.654C251.662 127.107 253.95 132.052 255.583 137.401C256.563 140.668 257.095 144.02 257.135 147.409C257.299 157.541 253.826 166.241 246.822 173.471C245.679 174.615 244.455 175.674 243.143 176.616C242.449 176.616 242.121 176.084 241.835 175.595C241.303 174.697 240.977 173.673 240.813 172.653C240.567 171.427 240.405 170.202 240.485 168.936V168.364C240.429 168.242 239.817 111.992 240.061 111.704Z" fill="#599636"/>
<path d="M240.061 111.58C239.979 111.416 239.897 111.54 239.815 111.62C239.854 112.44 239.568 113.171 239.121 113.87C238.629 114.563 237.977 115.095 237.323 115.667C233.69 118.812 230.831 122.612 228.541 126.861C225.494 132.58 223.924 138.709 223.479 145.161C223.275 147.488 224.215 155.701 224.948 158.07C226.95 164.361 230.545 169.632 235.202 174.207C236.346 175.309 237.569 176.33 238.835 177.312C239.203 177.312 239.243 176.984 239.327 176.741C239.488 176.219 239.611 175.686 239.695 175.147L240.515 169.02L240.061 111.58Z" fill="#6CAC48"/>
<path d="M242.062 179.105C242.144 178.168 242.594 177.39 243.084 176.614C242.592 176.41 242.226 176.005 241.94 175.552C241.694 175.145 241.49 174.655 241.331 174.205C240.759 172.489 240.637 170.689 240.473 168.936V167.874C240.269 168.038 240.227 169.426 240.227 169.632C240.108 171.485 239.862 173.328 239.491 175.147C239.369 175.883 239.287 176.616 238.835 177.27C238.835 177.352 238.835 177.434 238.875 177.556C239.611 179.722 239.812 181.927 239.936 184.175V184.995C239.936 185.975 239.897 185.769 240.71 186.097C241.038 186.219 241.404 186.261 241.732 186.505C241.978 186.505 242.018 186.301 242.018 186.137L241.896 184.789V181.03C241.856 180.373 241.978 179.722 242.06 179.108L242.062 179.105Z" fill="#C2BFBF"/>
</g>
<path d="M217.863 214H217.187V206.096L213.586 211.335H213.534L209.933 206.096V214H209.283V204.9H209.92L213.573 210.282L217.226 204.9H217.863V214ZM226.784 210.685C226.784 211.153 226.697 211.595 226.524 212.011C226.359 212.427 226.121 212.795 225.809 213.116C225.505 213.437 225.146 213.692 224.73 213.883C224.314 214.065 223.859 214.156 223.365 214.156C222.871 214.156 222.416 214.065 222 213.883C221.592 213.692 221.237 213.441 220.934 213.129C220.63 212.817 220.392 212.453 220.219 212.037C220.054 211.621 219.972 211.179 219.972 210.711V210.685C219.972 210.217 220.054 209.775 220.219 209.359C220.392 208.943 220.63 208.575 220.934 208.254C221.246 207.933 221.61 207.682 222.026 207.5C222.442 207.309 222.897 207.214 223.391 207.214C223.885 207.214 224.335 207.309 224.743 207.5C225.159 207.682 225.518 207.929 225.822 208.241C226.125 208.553 226.359 208.917 226.524 209.333C226.697 209.749 226.784 210.191 226.784 210.659V210.685ZM226.095 210.711V210.685C226.095 210.286 226.025 209.914 225.887 209.567C225.748 209.212 225.553 208.904 225.302 208.644C225.059 208.384 224.769 208.18 224.431 208.033C224.101 207.886 223.746 207.812 223.365 207.812C222.975 207.812 222.611 207.89 222.273 208.046C221.943 208.193 221.657 208.397 221.415 208.657C221.181 208.908 220.994 209.207 220.856 209.554C220.726 209.901 220.661 210.269 220.661 210.659V210.685C220.661 211.084 220.73 211.461 220.869 211.816C221.007 212.163 221.198 212.466 221.441 212.726C221.692 212.986 221.982 213.19 222.312 213.337C222.65 213.484 223.009 213.558 223.391 213.558C223.781 213.558 224.14 213.484 224.47 213.337C224.808 213.181 225.094 212.977 225.328 212.726C225.57 212.466 225.757 212.163 225.887 211.816C226.025 211.469 226.095 211.101 226.095 210.711ZM234.423 214H233.786V210.061C233.786 209.376 233.604 208.83 233.24 208.423C232.876 208.007 232.356 207.799 231.68 207.799C231.351 207.799 231.047 207.86 230.77 207.981C230.493 208.094 230.25 208.254 230.042 208.462C229.834 208.67 229.669 208.921 229.548 209.216C229.435 209.502 229.379 209.818 229.379 210.165V214H228.742V207.37H229.379V208.605C229.604 208.215 229.908 207.886 230.289 207.617C230.67 207.348 231.164 207.214 231.771 207.214C232.187 207.214 232.56 207.283 232.889 207.422C233.218 207.552 233.496 207.738 233.721 207.981C233.955 208.224 234.128 208.514 234.241 208.852C234.362 209.181 234.423 209.545 234.423 209.944V214ZM242.877 212.973C242.877 213.476 242.794 213.922 242.63 214.312C242.474 214.702 242.248 215.027 241.954 215.287C241.668 215.556 241.325 215.759 240.927 215.898C240.528 216.037 240.095 216.106 239.627 216.106C238.509 216.106 237.495 215.768 236.585 215.092L236.962 214.572C237.768 215.196 238.66 215.508 239.64 215.508C240.021 215.508 240.368 215.452 240.68 215.339C241 215.235 241.273 215.075 241.499 214.858C241.733 214.641 241.915 214.373 242.045 214.052C242.175 213.731 242.24 213.359 242.24 212.934V211.972C242.092 212.18 241.928 212.375 241.746 212.557C241.564 212.739 241.36 212.904 241.135 213.051C240.909 213.19 240.658 213.302 240.381 213.389C240.103 213.467 239.8 213.506 239.471 213.506C239.072 213.506 238.682 213.432 238.301 213.285C237.919 213.138 237.577 212.93 237.274 212.661C236.979 212.384 236.741 212.054 236.559 211.673C236.377 211.292 236.286 210.863 236.286 210.386V210.36C236.286 209.883 236.377 209.45 236.559 209.06C236.741 208.67 236.979 208.341 237.274 208.072C237.577 207.795 237.919 207.582 238.301 207.435C238.682 207.288 239.072 207.214 239.471 207.214C239.8 207.214 240.103 207.257 240.381 207.344C240.667 207.422 240.922 207.53 241.148 207.669C241.373 207.799 241.577 207.955 241.759 208.137C241.941 208.319 242.101 208.505 242.24 208.696V207.37H242.877V212.973ZM242.279 210.373V210.347C242.279 209.966 242.201 209.619 242.045 209.307C241.889 208.995 241.681 208.731 241.421 208.514C241.169 208.289 240.879 208.12 240.55 208.007C240.22 207.886 239.882 207.825 239.536 207.825C239.189 207.825 238.86 207.886 238.548 208.007C238.236 208.12 237.963 208.284 237.729 208.501C237.495 208.718 237.308 208.982 237.17 209.294C237.04 209.597 236.975 209.944 236.975 210.334V210.36C236.975 210.733 237.044 211.075 237.183 211.387C237.321 211.699 237.508 211.968 237.742 212.193C237.976 212.41 238.249 212.583 238.561 212.713C238.873 212.834 239.198 212.895 239.536 212.895C239.882 212.895 240.22 212.834 240.55 212.713C240.879 212.592 241.169 212.423 241.421 212.206C241.681 211.981 241.889 211.716 242.045 211.413C242.201 211.101 242.279 210.754 242.279 210.373ZM251.654 210.685C251.654 211.153 251.567 211.595 251.394 212.011C251.229 212.427 250.991 212.795 250.679 213.116C250.375 213.437 250.016 213.692 249.6 213.883C249.184 214.065 248.729 214.156 248.235 214.156C247.741 214.156 247.286 214.065 246.87 213.883C246.462 213.692 246.107 213.441 245.804 213.129C245.5 212.817 245.262 212.453 245.089 212.037C244.924 211.621 244.842 211.179 244.842 210.711V210.685C244.842 210.217 244.924 209.775 245.089 209.359C245.262 208.943 245.5 208.575 245.804 208.254C246.116 207.933 246.48 207.682 246.896 207.5C247.312 207.309 247.767 207.214 248.261 207.214C248.755 207.214 249.205 207.309 249.613 207.5C250.029 207.682 250.388 207.929 250.692 208.241C250.995 208.553 251.229 208.917 251.394 209.333C251.567 209.749 251.654 210.191 251.654 210.659V210.685ZM250.965 210.711V210.685C250.965 210.286 250.895 209.914 250.757 209.567C250.618 209.212 250.423 208.904 250.172 208.644C249.929 208.384 249.639 208.18 249.301 208.033C248.971 207.886 248.616 207.812 248.235 207.812C247.845 207.812 247.481 207.89 247.143 208.046C246.813 208.193 246.527 208.397 246.285 208.657C246.051 208.908 245.864 209.207 245.726 209.554C245.596 209.901 245.531 210.269 245.531 210.659V210.685C245.531 211.084 245.6 211.461 245.739 211.816C245.877 212.163 246.068 212.466 246.311 212.726C246.562 212.986 246.852 213.19 247.182 213.337C247.52 213.484 247.879 213.558 248.261 213.558C248.651 213.558 249.01 213.484 249.34 213.337C249.678 213.181 249.964 212.977 250.198 212.726C250.44 212.466 250.627 212.163 250.757 211.816C250.895 211.469 250.965 211.101 250.965 210.711ZM261.62 209.45C261.62 210.091 261.503 210.689 261.269 211.244C261.035 211.799 260.701 212.28 260.268 212.687C259.843 213.094 259.332 213.415 258.734 213.649C258.145 213.883 257.495 214 256.784 214H253.755V204.9H256.784C257.495 204.9 258.145 205.017 258.734 205.251C259.332 205.476 259.843 205.793 260.268 206.2C260.701 206.607 261.035 207.088 261.269 207.643C261.503 208.189 261.62 208.783 261.62 209.424V209.45ZM260.918 209.476V209.45C260.918 208.913 260.818 208.406 260.619 207.929C260.428 207.452 260.155 207.036 259.8 206.681C259.445 206.326 259.011 206.044 258.5 205.836C257.989 205.628 257.417 205.524 256.784 205.524H254.431V213.376H256.784C257.417 213.376 257.989 213.276 258.5 213.077C259.011 212.869 259.445 212.592 259.8 212.245C260.155 211.89 260.428 211.478 260.619 211.01C260.818 210.533 260.918 210.022 260.918 209.476ZM271.139 211.517C271.139 211.898 271.061 212.245 270.905 212.557C270.749 212.86 270.528 213.12 270.242 213.337C269.956 213.545 269.614 213.71 269.215 213.831C268.816 213.944 268.37 214 267.876 214H263.924V204.9H267.681C268.123 204.9 268.526 204.952 268.89 205.056C269.254 205.16 269.562 205.312 269.813 205.511C270.073 205.702 270.272 205.936 270.411 206.213C270.558 206.49 270.632 206.798 270.632 207.136V207.162C270.632 207.474 270.584 207.747 270.489 207.981C270.402 208.215 270.285 208.419 270.138 208.592C269.991 208.765 269.822 208.913 269.631 209.034C269.449 209.147 269.267 209.242 269.085 209.32C269.354 209.389 269.614 209.485 269.865 209.606C270.116 209.719 270.333 209.866 270.515 210.048C270.706 210.221 270.857 210.429 270.97 210.672C271.083 210.906 271.139 211.179 271.139 211.491V211.517ZM269.943 207.227V207.201C269.943 206.698 269.748 206.295 269.358 205.992C268.968 205.68 268.405 205.524 267.668 205.524H264.6V209.099H267.603C267.941 209.099 268.253 209.06 268.539 208.982C268.825 208.895 269.072 208.774 269.28 208.618C269.488 208.462 269.648 208.267 269.761 208.033C269.882 207.799 269.943 207.53 269.943 207.227ZM270.45 211.517V211.491C270.45 210.928 270.212 210.494 269.735 210.191C269.267 209.879 268.582 209.723 267.681 209.723H264.6V213.376H267.902C268.682 213.376 269.302 213.211 269.761 212.882C270.22 212.544 270.45 212.089 270.45 211.517Z" fill="white"/>
<g clip-path="url(#clip3_272_7)">
<path d="M369.33 185.51C368.351 185.51 367.381 185.254 366.524 184.76L357.592 179.47C356.258 178.724 356.909 178.46 357.348 178.308C359.128 177.686 359.488 177.544 361.387 176.465C361.586 176.351 361.847 176.392 362.051 176.513L368.914 180.585C369.161 180.72 369.514 180.72 369.742 180.585L396.498 165.14C396.746 164.999 396.908 164.712 396.908 164.418V133.543C396.908 133.235 396.747 132.96 396.493 132.807L369.749 117.374C369.502 117.227 369.173 117.227 368.926 117.374L342.185 132.805C341.926 132.952 341.76 133.24 341.76 133.535V164.411C341.76 164.706 341.921 164.987 342.176 165.127L349.504 169.359C353.483 171.348 355.913 169.005 355.913 166.647V136.175C355.913 135.74 356.254 135.405 356.69 135.405H360.079C360.502 135.405 360.85 135.739 360.85 136.175V166.662C360.85 171.967 357.957 175.015 352.927 175.015C351.379 175.015 350.16 175.015 346.758 173.341L339.739 169.296C338.004 168.29 336.931 166.414 336.931 164.412V133.536C336.931 131.527 338.004 129.652 339.737 128.66L366.522 113.208C368.217 112.25 370.467 112.25 372.149 113.208L398.9 128.666C400.625 129.664 401.704 131.534 401.704 133.543V164.419C401.704 166.422 400.625 168.29 398.898 169.296L372.147 184.746C371.29 185.242 370.318 185.496 369.328 185.496" fill="#21A366"/>
<path d="M377.595 164.234C365.888 164.234 363.434 158.859 363.434 154.352C363.434 153.924 363.78 153.582 364.209 153.582H367.666C368.048 153.582 368.37 153.86 368.43 154.236C368.951 157.758 370.506 159.534 377.585 159.534C383.223 159.534 385.622 158.261 385.622 155.269C385.622 153.548 384.938 152.269 376.179 151.412C368.851 150.689 364.323 149.075 364.323 143.215C364.323 137.816 368.878 134.602 376.506 134.602C385.073 134.602 389.319 137.576 389.854 143.965C389.875 144.186 389.795 144.399 389.646 144.561C389.5 144.715 389.292 144.809 389.077 144.809H385.601C385.24 144.809 384.925 144.555 384.851 144.205C384.014 140.501 381.991 139.316 376.492 139.316C370.337 139.316 369.621 141.459 369.621 143.066C369.621 145.015 370.465 145.584 378.77 146.684C386.994 147.774 390.899 149.315 390.899 155.095C390.899 160.922 386.036 164.264 377.558 164.264" fill="#21A366"/>
</g>
<path d="M352.736 213.5H352.229L345.82 205.414V213.5H345.17V204.4H345.807L352.086 212.317V204.4H352.736V213.5ZM361.654 210.185C361.654 210.653 361.568 211.095 361.394 211.511C361.23 211.927 360.991 212.295 360.679 212.616C360.376 212.937 360.016 213.192 359.6 213.383C359.184 213.565 358.729 213.656 358.235 213.656C357.741 213.656 357.286 213.565 356.87 213.383C356.463 213.192 356.108 212.941 355.804 212.629C355.501 212.317 355.263 211.953 355.089 211.537C354.925 211.121 354.842 210.679 354.842 210.211V210.185C354.842 209.717 354.925 209.275 355.089 208.859C355.263 208.443 355.501 208.075 355.804 207.754C356.116 207.433 356.48 207.182 356.896 207C357.312 206.809 357.767 206.714 358.261 206.714C358.755 206.714 359.206 206.809 359.613 207C360.029 207.182 360.389 207.429 360.692 207.741C360.996 208.053 361.23 208.417 361.394 208.833C361.568 209.249 361.654 209.691 361.654 210.159V210.185ZM360.965 210.211V210.185C360.965 209.786 360.896 209.414 360.757 209.067C360.619 208.712 360.424 208.404 360.172 208.144C359.93 207.884 359.639 207.68 359.301 207.533C358.972 207.386 358.617 207.312 358.235 207.312C357.845 207.312 357.481 207.39 357.143 207.546C356.814 207.693 356.528 207.897 356.285 208.157C356.051 208.408 355.865 208.707 355.726 209.054C355.596 209.401 355.531 209.769 355.531 210.159V210.185C355.531 210.584 355.601 210.961 355.739 211.316C355.878 211.663 356.069 211.966 356.311 212.226C356.563 212.486 356.853 212.69 357.182 212.837C357.52 212.984 357.88 213.058 358.261 213.058C358.651 213.058 359.011 212.984 359.34 212.837C359.678 212.681 359.964 212.477 360.198 212.226C360.441 211.966 360.627 211.663 360.757 211.316C360.896 210.969 360.965 210.601 360.965 210.211ZM369.775 213.5H369.138V212.018C368.99 212.235 368.826 212.443 368.644 212.642C368.47 212.841 368.271 213.015 368.046 213.162C367.829 213.309 367.582 213.426 367.305 213.513C367.036 213.608 366.737 213.656 366.408 213.656C366.009 213.656 365.615 213.578 365.225 213.422C364.843 213.266 364.501 213.041 364.198 212.746C363.894 212.451 363.647 212.092 363.457 211.667C363.275 211.234 363.184 210.748 363.184 210.211V210.185C363.184 209.648 363.275 209.167 363.457 208.742C363.647 208.309 363.894 207.945 364.198 207.65C364.501 207.347 364.843 207.117 365.225 206.961C365.615 206.796 366.009 206.714 366.408 206.714C366.737 206.714 367.04 206.757 367.318 206.844C367.595 206.931 367.842 207.048 368.059 207.195C368.284 207.342 368.483 207.511 368.657 207.702C368.839 207.893 368.999 208.092 369.138 208.3V204.01H369.775V213.5ZM369.177 210.198V210.172C369.177 209.747 369.099 209.362 368.943 209.015C368.795 208.66 368.596 208.361 368.345 208.118C368.093 207.867 367.803 207.672 367.474 207.533C367.153 207.394 366.819 207.325 366.473 207.325C366.109 207.325 365.766 207.39 365.446 207.52C365.134 207.65 364.861 207.836 364.627 208.079C364.393 208.322 364.206 208.621 364.068 208.976C363.938 209.323 363.873 209.717 363.873 210.159V210.185C363.873 210.618 363.942 211.013 364.081 211.368C364.219 211.723 364.406 212.027 364.64 212.278C364.882 212.521 365.16 212.711 365.472 212.85C365.792 212.98 366.126 213.045 366.473 213.045C366.819 213.045 367.153 212.976 367.474 212.837C367.803 212.698 368.093 212.503 368.345 212.252C368.596 212.001 368.795 211.702 368.943 211.355C369.099 211.008 369.177 210.623 369.177 210.198ZM372.416 210.445C372.442 210.861 372.533 211.229 372.689 211.55C372.845 211.871 373.04 212.144 373.274 212.369C373.508 212.594 373.772 212.768 374.067 212.889C374.37 213.002 374.687 213.058 375.016 213.058C375.536 213.058 375.974 212.958 376.329 212.759C376.693 212.56 377.014 212.313 377.291 212.018L377.733 212.408C377.395 212.772 377.009 213.071 376.576 213.305C376.151 213.539 375.623 213.656 374.99 213.656C374.557 213.656 374.141 213.574 373.742 213.409C373.352 213.244 373.005 213.01 372.702 212.707C372.407 212.404 372.173 212.04 372 211.615C371.827 211.19 371.74 210.718 371.74 210.198V210.172C371.74 209.695 371.818 209.249 371.974 208.833C372.139 208.408 372.36 208.04 372.637 207.728C372.923 207.416 373.257 207.169 373.638 206.987C374.019 206.805 374.435 206.714 374.886 206.714C375.354 206.714 375.774 206.805 376.147 206.987C376.52 207.16 376.836 207.403 377.096 207.715C377.365 208.027 377.568 208.395 377.707 208.82C377.854 209.236 377.928 209.691 377.928 210.185V210.211C377.928 210.254 377.928 210.293 377.928 210.328C377.928 210.354 377.924 210.393 377.915 210.445H372.416ZM372.416 209.873H377.239C377.213 209.535 377.144 209.214 377.031 208.911C376.927 208.599 376.775 208.326 376.576 208.092C376.385 207.849 376.147 207.659 375.861 207.52C375.575 207.373 375.241 207.299 374.86 207.299C374.531 207.299 374.223 207.364 373.937 207.494C373.651 207.624 373.4 207.806 373.183 208.04C372.975 208.265 372.802 208.538 372.663 208.859C372.524 209.171 372.442 209.509 372.416 209.873ZM384.506 210.536C384.506 211.047 384.436 211.498 384.298 211.888C384.159 212.269 383.968 212.59 383.726 212.85C383.483 213.11 383.197 213.305 382.868 213.435C382.538 213.565 382.187 213.63 381.815 213.63C381.139 213.63 380.58 213.474 380.138 213.162C379.696 212.841 379.336 212.43 379.059 211.927L379.618 211.576C379.756 211.81 379.899 212.018 380.047 212.2C380.203 212.382 380.367 212.534 380.541 212.655C380.723 212.776 380.918 212.867 381.126 212.928C381.342 212.989 381.585 213.019 381.854 213.019C382.131 213.019 382.391 212.967 382.634 212.863C382.876 212.759 383.084 212.607 383.258 212.408C383.44 212.2 383.578 211.944 383.674 211.641C383.778 211.338 383.83 210.987 383.83 210.588V204.4H384.506V210.536ZM393.161 211.147C393.161 211.511 393.083 211.849 392.927 212.161C392.78 212.464 392.572 212.724 392.303 212.941C392.043 213.158 391.727 213.327 391.354 213.448C390.99 213.569 390.587 213.63 390.145 213.63C389.417 213.63 388.759 213.509 388.169 213.266C387.589 213.023 387.025 212.659 386.479 212.174L386.921 211.667C387.173 211.901 387.42 212.105 387.662 212.278C387.914 212.443 388.169 212.581 388.429 212.694C388.689 212.798 388.962 212.88 389.248 212.941C389.534 212.993 389.846 213.019 390.184 213.019C390.522 213.019 390.834 212.976 391.12 212.889C391.406 212.794 391.649 212.668 391.848 212.512C392.048 212.347 392.204 212.157 392.316 211.94C392.429 211.715 392.485 211.472 392.485 211.212V211.186C392.485 210.943 392.446 210.727 392.368 210.536C392.299 210.345 392.165 210.172 391.965 210.016C391.775 209.86 391.515 209.721 391.185 209.6C390.856 209.47 390.431 209.353 389.911 209.249C389.365 209.136 388.897 209.006 388.507 208.859C388.117 208.703 387.797 208.525 387.545 208.326C387.303 208.118 387.125 207.88 387.012 207.611C386.9 207.342 386.843 207.035 386.843 206.688V206.662C386.843 206.324 386.917 206.012 387.064 205.726C387.212 205.431 387.415 205.176 387.675 204.959C387.935 204.742 388.243 204.573 388.598 204.452C388.954 204.331 389.344 204.27 389.768 204.27C390.427 204.27 390.995 204.361 391.471 204.543C391.957 204.725 392.429 205.002 392.888 205.375L392.459 205.908C392.026 205.535 391.588 205.271 391.146 205.115C390.713 204.959 390.245 204.881 389.742 204.881C389.404 204.881 389.097 204.929 388.819 205.024C388.551 205.111 388.317 205.232 388.117 205.388C387.927 205.544 387.779 205.726 387.675 205.934C387.571 206.142 387.519 206.363 387.519 206.597V206.623C387.519 206.866 387.554 207.087 387.623 207.286C387.701 207.477 387.836 207.654 388.026 207.819C388.226 207.975 388.499 208.118 388.845 208.248C389.192 208.378 389.634 208.499 390.171 208.612C391.229 208.829 391.991 209.136 392.459 209.535C392.927 209.925 393.161 210.454 393.161 211.121V211.147Z" fill="white"/>
<g opacity="0.4">
<path d="M433.931 141.5V156.5M441.431 149H426.431" stroke="white" stroke-width="1.5" stroke-linecap="round" stroke-linejoin="round"/>
</g>
<g clip-path="url(#clip4_272_7)">
<path d="M540.525 128H539.25C537.673 128 536.188 128.735 535.23 129.986L522.18 147.052L509.13 129.986C508.174 128.735 506.688 128 505.113 128H503.838L520.294 149.519L503.485 171.5H504.76C506.337 171.5 507.822 170.765 508.779 169.514L522.181 151.988L535.584 169.514C536.541 170.765 538.026 171.5 539.602 171.5H540.877L524.068 149.519L540.525 128ZM497.865 162.863C494.034 168.685 486.492 171.668 479.281 169.037C472.938 166.723 468.931 160.417 468.931 153.664V152H486.931H503.431V145.799C503.431 136.042 496.204 127.499 486.489 126.586C475.341 125.537 465.931 134.315 465.931 145.25V153.61C465.931 161.666 470.754 169.156 478.335 171.884C488.239 175.448 498.657 170.129 502.179 161H501.222C499.855 161 498.615 161.722 497.865 162.863ZM468.931 145.25C468.931 136.565 475.996 129.5 484.681 129.5C493.366 129.5 500.431 136.565 500.431 145.25V149H468.931V145.25Z" fill="#D0D0D0"/>
</g>
<path d="M486.322 213.5H479.783V204.4H486.257V205.024H480.459V208.599H485.672V209.223H480.459V212.876H486.322V213.5ZM493.965 213.5H493.172L490.832 210.549L488.492 213.5H487.725L490.442 210.12L487.829 206.87H488.622L490.858 209.678L493.094 206.87H493.861L491.248 210.107L493.965 213.5ZM502.354 210.185C502.354 210.722 502.259 211.208 502.068 211.641C501.886 212.066 501.644 212.43 501.34 212.733C501.037 213.028 500.69 213.257 500.3 213.422C499.919 213.578 499.529 213.656 499.13 213.656C498.801 213.656 498.498 213.613 498.22 213.526C497.943 213.439 497.692 213.322 497.466 213.175C497.25 213.028 497.05 212.859 496.868 212.668C496.695 212.477 496.539 212.278 496.4 212.07V215.58H495.763V206.87H496.4V208.352C496.539 208.135 496.699 207.927 496.881 207.728C497.063 207.529 497.263 207.355 497.479 207.208C497.705 207.061 497.952 206.944 498.22 206.857C498.498 206.762 498.801 206.714 499.13 206.714C499.529 206.714 499.919 206.792 500.3 206.948C500.69 207.104 501.037 207.329 501.34 207.624C501.644 207.919 501.886 208.283 502.068 208.716C502.259 209.141 502.354 209.622 502.354 210.159V210.185ZM501.665 210.211V210.185C501.665 209.752 501.596 209.357 501.457 209.002C501.319 208.647 501.128 208.348 500.885 208.105C500.651 207.854 500.374 207.663 500.053 207.533C499.741 207.394 499.412 207.325 499.065 207.325C498.719 207.325 498.381 207.394 498.051 207.533C497.731 207.672 497.445 207.867 497.193 208.118C496.942 208.369 496.738 208.668 496.582 209.015C496.435 209.362 496.361 209.747 496.361 210.172V210.198C496.361 210.623 496.435 211.013 496.582 211.368C496.738 211.715 496.942 212.014 497.193 212.265C497.445 212.508 497.731 212.698 498.051 212.837C498.381 212.976 498.719 213.045 499.065 213.045C499.429 213.045 499.767 212.98 500.079 212.85C500.4 212.72 500.677 212.534 500.911 212.291C501.145 212.048 501.327 211.754 501.457 211.407C501.596 211.052 501.665 210.653 501.665 210.211ZM507.92 207.468H507.855C507.474 207.468 507.11 207.542 506.763 207.689C506.417 207.828 506.109 208.04 505.84 208.326C505.58 208.603 505.372 208.95 505.216 209.366C505.06 209.773 504.982 210.246 504.982 210.783V213.5H504.345V206.87H504.982V208.755C505.112 208.46 505.277 208.187 505.476 207.936C505.676 207.685 505.901 207.472 506.152 207.299C506.404 207.117 506.677 206.983 506.971 206.896C507.275 206.801 507.591 206.757 507.92 206.766V207.468ZM509.441 210.445C509.467 210.861 509.558 211.229 509.714 211.55C509.87 211.871 510.065 212.144 510.299 212.369C510.533 212.594 510.798 212.768 511.092 212.889C511.396 213.002 511.712 213.058 512.041 213.058C512.561 213.058 512.999 212.958 513.354 212.759C513.718 212.56 514.039 212.313 514.316 212.018L514.758 212.408C514.42 212.772 514.035 213.071 513.601 213.305C513.177 213.539 512.648 213.656 512.015 213.656C511.582 213.656 511.166 213.574 510.767 213.409C510.377 213.244 510.031 213.01 509.727 212.707C509.433 212.404 509.199 212.04 509.025 211.615C508.852 211.19 508.765 210.718 508.765 210.198V210.172C508.765 209.695 508.843 209.249 508.999 208.833C509.164 208.408 509.385 208.04 509.662 207.728C509.948 207.416 510.282 207.169 510.663 206.987C511.045 206.805 511.461 206.714 511.911 206.714C512.379 206.714 512.8 206.805 513.172 206.987C513.545 207.16 513.861 207.403 514.121 207.715C514.39 208.027 514.594 208.395 514.732 208.82C514.88 209.236 514.953 209.691 514.953 210.185V210.211C514.953 210.254 514.953 210.293 514.953 210.328C514.953 210.354 514.949 210.393 514.94 210.445H509.441ZM509.441 209.873H514.264C514.238 209.535 514.169 209.214 514.056 208.911C513.952 208.599 513.801 208.326 513.601 208.092C513.411 207.849 513.172 207.659 512.886 207.52C512.6 207.373 512.267 207.299 511.885 207.299C511.556 207.299 511.248 207.364 510.962 207.494C510.676 207.624 510.425 207.806 510.208 208.04C510 208.265 509.827 208.538 509.688 208.859C509.55 209.171 509.467 209.509 509.441 209.873ZM521.245 211.693C521.245 211.988 521.185 212.256 521.063 212.499C520.951 212.733 520.79 212.937 520.582 213.11C520.374 213.275 520.132 213.405 519.854 213.5C519.577 213.587 519.278 213.63 518.957 213.63C518.472 213.63 517.987 213.543 517.501 213.37C517.016 213.188 516.596 212.954 516.24 212.668L516.617 212.161C516.981 212.438 517.363 212.655 517.761 212.811C518.16 212.958 518.572 213.032 518.996 213.032C519.447 213.032 519.824 212.919 520.127 212.694C520.439 212.469 520.595 212.161 520.595 211.771V211.745C520.595 211.554 520.548 211.39 520.452 211.251C520.357 211.112 520.227 210.991 520.062 210.887C519.898 210.783 519.711 210.696 519.503 210.627C519.295 210.558 519.074 210.488 518.84 210.419C518.572 210.341 518.299 210.259 518.021 210.172C517.753 210.085 517.51 209.977 517.293 209.847C517.077 209.708 516.899 209.539 516.76 209.34C516.63 209.141 516.565 208.894 516.565 208.599V208.573C516.565 208.304 516.617 208.062 516.721 207.845C516.834 207.62 516.986 207.425 517.176 207.26C517.367 207.095 517.597 206.97 517.865 206.883C518.134 206.788 518.429 206.74 518.749 206.74C519.148 206.74 519.555 206.805 519.971 206.935C520.396 207.065 520.773 207.243 521.102 207.468L520.764 208.001C520.461 207.802 520.132 207.641 519.776 207.52C519.43 207.399 519.079 207.338 518.723 207.338C518.264 207.338 517.896 207.451 517.618 207.676C517.35 207.893 517.215 208.166 517.215 208.495V208.521C517.215 208.703 517.267 208.863 517.371 209.002C517.475 209.132 517.61 209.245 517.774 209.34C517.948 209.435 518.147 209.522 518.372 209.6C518.598 209.669 518.827 209.739 519.061 209.808C519.33 209.886 519.594 209.973 519.854 210.068C520.114 210.155 520.348 210.272 520.556 210.419C520.764 210.558 520.929 210.727 521.05 210.926C521.18 211.125 521.245 211.372 521.245 211.667V211.693ZM527.58 211.693C527.58 211.988 527.52 212.256 527.398 212.499C527.286 212.733 527.125 212.937 526.917 213.11C526.709 213.275 526.467 213.405 526.189 213.5C525.912 213.587 525.613 213.63 525.292 213.63C524.807 213.63 524.322 213.543 523.836 213.37C523.351 213.188 522.931 212.954 522.575 212.668L522.952 212.161C523.316 212.438 523.698 212.655 524.096 212.811C524.495 212.958 524.907 213.032 525.331 213.032C525.782 213.032 526.159 212.919 526.462 212.694C526.774 212.469 526.93 212.161 526.93 211.771V211.745C526.93 211.554 526.883 211.39 526.787 211.251C526.692 211.112 526.562 210.991 526.397 210.887C526.233 210.783 526.046 210.696 525.838 210.627C525.63 210.558 525.409 210.488 525.175 210.419C524.907 210.341 524.634 210.259 524.356 210.172C524.088 210.085 523.845 209.977 523.628 209.847C523.412 209.708 523.234 209.539 523.095 209.34C522.965 209.141 522.9 208.894 522.9 208.599V208.573C522.9 208.304 522.952 208.062 523.056 207.845C523.169 207.62 523.321 207.425 523.511 207.26C523.702 207.095 523.932 206.97 524.2 206.883C524.469 206.788 524.764 206.74 525.084 206.74C525.483 206.74 525.89 206.805 526.306 206.935C526.731 207.065 527.108 207.243 527.437 207.468L527.099 208.001C526.796 207.802 526.467 207.641 526.111 207.52C525.765 207.399 525.414 207.338 525.058 207.338C524.599 207.338 524.231 207.451 523.953 207.676C523.685 207.893 523.55 208.166 523.55 208.495V208.521C523.55 208.703 523.602 208.863 523.706 209.002C523.81 209.132 523.945 209.245 524.109 209.34C524.283 209.435 524.482 209.522 524.707 209.6C524.933 209.669 525.162 209.739 525.396 209.808C525.665 209.886 525.929 209.973 526.189 210.068C526.449 210.155 526.683 210.272 526.891 210.419C527.099 210.558 527.264 210.727 527.385 210.926C527.515 211.125 527.58 211.372 527.58 211.667V211.693Z" fill="white"/>
<path d="M19.7489 48H19.4069L18.8729 46.824H16.3949L15.8609 48H15.5369L17.4929 43.77H17.7929L19.7489 48ZM18.7409 46.542L17.6369 44.112L16.5269 46.542H18.7409ZM25.3172 48H25.0232V46.182C25.0232 45.85 24.9432 45.594 24.7832 45.414C24.6232 45.23 24.4012 45.138 24.1172 45.138C23.9892 45.138 23.8652 45.162 23.7452 45.21C23.6292 45.258 23.5272 45.328 23.4392 45.42C23.3512 45.512 23.2812 45.626 23.2292 45.762C23.1772 45.894 23.1512 46.046 23.1512 46.218V48H22.8572V46.164C22.8572 45.844 22.7772 45.594 22.6172 45.414C22.4572 45.23 22.2392 45.138 21.9632 45.138C21.8272 45.138 21.6992 45.166 21.5792 45.222C21.4592 45.278 21.3552 45.356 21.2672 45.456C21.1792 45.556 21.1092 45.672 21.0572 45.804C21.0092 45.936 20.9852 46.08 20.9852 46.236V48H20.6912V44.94H20.9852V45.486C21.0332 45.406 21.0872 45.33 21.1472 45.258C21.2112 45.182 21.2832 45.116 21.3632 45.06C21.4432 45 21.5352 44.954 21.6392 44.922C21.7472 44.886 21.8692 44.868 22.0052 44.868C22.1372 44.868 22.2572 44.886 22.3652 44.922C22.4772 44.958 22.5752 45.006 22.6592 45.066C22.7432 45.126 22.8152 45.196 22.8752 45.276C22.9392 45.356 22.9932 45.44 23.0372 45.528C23.0852 45.444 23.1432 45.362 23.2112 45.282C23.2792 45.202 23.3572 45.132 23.4452 45.072C23.5372 45.008 23.6392 44.958 23.7512 44.922C23.8672 44.886 23.9972 44.868 24.1412 44.868C24.3212 44.868 24.4832 44.9 24.6272 44.964C24.7752 45.024 24.8992 45.11 24.9992 45.222C25.1032 45.33 25.1812 45.464 25.2332 45.624C25.2892 45.78 25.3172 45.954 25.3172 46.146V48ZM28.9062 48H28.6182V47.49C28.5662 47.562 28.5022 47.634 28.4262 47.706C28.3542 47.774 28.2702 47.836 28.1742 47.892C28.0782 47.944 27.9682 47.986 27.8442 48.018C27.7242 48.054 27.5922 48.072 27.4482 48.072C27.3042 48.072 27.1622 48.052 27.0222 48.012C26.8822 47.972 26.7562 47.912 26.6442 47.832C26.5322 47.752 26.4402 47.652 26.3682 47.532C26.3002 47.412 26.2662 47.272 26.2662 47.112V47.1C26.2662 46.94 26.2982 46.798 26.3622 46.674C26.4302 46.55 26.5222 46.446 26.6382 46.362C26.7542 46.278 26.8942 46.214 27.0582 46.17C27.2222 46.126 27.4042 46.104 27.6042 46.104C27.8202 46.104 28.0062 46.116 28.1622 46.14C28.3182 46.164 28.4702 46.196 28.6182 46.236V46.104C28.6182 45.792 28.5282 45.558 28.3482 45.402C28.1722 45.246 27.9262 45.168 27.6102 45.168C27.4222 45.168 27.2502 45.192 27.0942 45.24C26.9382 45.284 26.7902 45.342 26.6502 45.414L26.5422 45.156C26.7102 45.076 26.8802 45.012 27.0522 44.964C27.2242 44.916 27.4162 44.892 27.6282 44.892C28.0242 44.892 28.3362 44.992 28.5642 45.192C28.7922 45.392 28.9062 45.692 28.9062 46.092V48ZM28.6242 46.854V46.506C28.4962 46.474 28.3462 46.444 28.1742 46.416C28.0022 46.384 27.8062 46.368 27.5862 46.368C27.2622 46.368 27.0122 46.434 26.8362 46.566C26.6642 46.694 26.5782 46.866 26.5782 47.082V47.094C26.5782 47.206 26.6022 47.306 26.6502 47.394C26.6982 47.478 26.7622 47.55 26.8422 47.61C26.9262 47.67 27.0222 47.716 27.1302 47.748C27.2382 47.78 27.3502 47.796 27.4662 47.796C27.6222 47.796 27.7702 47.774 27.9102 47.73C28.0502 47.682 28.1722 47.618 28.2762 47.538C28.3842 47.454 28.4682 47.354 28.5282 47.238C28.5922 47.122 28.6242 46.994 28.6242 46.854ZM32.5195 48H29.8735V47.832L32.0815 45.204H29.9575V44.94H32.5195V45.108L30.3115 47.736H32.5195V48ZM36.3719 46.47C36.3719 46.686 36.3319 46.89 36.2519 47.082C36.1759 47.274 36.0659 47.444 35.9219 47.592C35.7819 47.74 35.6159 47.858 35.4239 47.946C35.2319 48.03 35.0219 48.072 34.7939 48.072C34.5659 48.072 34.3559 48.03 34.1639 47.946C33.9759 47.858 33.8119 47.742 33.6719 47.598C33.5319 47.454 33.4219 47.286 33.3419 47.094C33.2659 46.902 33.2279 46.698 33.2279 46.482V46.47C33.2279 46.254 33.2659 46.05 33.3419 45.858C33.4219 45.666 33.5319 45.496 33.6719 45.348C33.8159 45.2 33.9839 45.084 34.1759 45C34.3679 44.912 34.5779 44.868 34.8059 44.868C35.0339 44.868 35.2419 44.912 35.4299 45C35.6219 45.084 35.7879 45.198 35.9279 45.342C36.0679 45.486 36.1759 45.654 36.2519 45.846C36.3319 46.038 36.3719 46.242 36.3719 46.458V46.47ZM36.0539 46.482V46.47C36.0539 46.286 36.0219 46.114 35.9579 45.954C35.8939 45.79 35.8039 45.648 35.6879 45.528C35.5759 45.408 35.4419 45.314 35.2859 45.246C35.1339 45.178 34.9699 45.144 34.7939 45.144C34.6139 45.144 34.4459 45.18 34.2899 45.252C34.1379 45.32 34.0059 45.414 33.8939 45.534C33.7859 45.65 33.6999 45.788 33.6359 45.948C33.5759 46.108 33.5459 46.278 33.5459 46.458V46.47C33.5459 46.654 33.5779 46.828 33.6419 46.992C33.7059 47.152 33.7939 47.292 33.9059 47.412C34.0219 47.532 34.1559 47.626 34.3079 47.694C34.4639 47.762 34.6299 47.796 34.8059 47.796C34.9859 47.796 35.1519 47.762 35.3039 47.694C35.4599 47.622 35.5919 47.528 35.6999 47.412C35.8119 47.292 35.8979 47.152 35.9579 46.992C36.0219 46.832 36.0539 46.662 36.0539 46.482ZM40.0178 48H39.7238V46.182C39.7238 45.866 39.6398 45.614 39.4718 45.426C39.3038 45.234 39.0638 45.138 38.7518 45.138C38.5998 45.138 38.4598 45.166 38.3318 45.222C38.2038 45.274 38.0918 45.348 37.9958 45.444C37.8998 45.54 37.8238 45.656 37.7678 45.792C37.7158 45.924 37.6898 46.07 37.6898 46.23V48H37.3958V44.94H37.6898V45.51C37.7938 45.33 37.9338 45.178 38.1098 45.054C38.2858 44.93 38.5138 44.868 38.7938 44.868C38.9858 44.868 39.1578 44.9 39.3098 44.964C39.4618 45.024 39.5898 45.11 39.6938 45.222C39.8018 45.334 39.8818 45.468 39.9338 45.624C39.9898 45.776 40.0178 45.944 40.0178 46.128V48ZM48.8683 43.8L47.3443 48.03H47.0923L45.8623 44.382L44.6323 48.03H44.3803L42.8563 43.8H43.2043L44.5243 47.538L45.7543 43.788H45.9943L47.2243 47.538L48.5443 43.8H48.8683ZM49.5531 46.59C49.5651 46.782 49.6071 46.952 49.6791 47.1C49.7511 47.248 49.8411 47.374 49.9491 47.478C50.0571 47.582 50.1791 47.662 50.3151 47.718C50.4551 47.77 50.6011 47.796 50.7531 47.796C50.9931 47.796 51.1951 47.75 51.3591 47.658C51.5271 47.566 51.6751 47.452 51.8031 47.316L52.0071 47.496C51.8511 47.664 51.6731 47.802 51.4731 47.91C51.2771 48.018 51.0331 48.072 50.7411 48.072C50.5411 48.072 50.3491 48.034 50.1651 47.958C49.9851 47.882 49.8251 47.774 49.6851 47.634C49.5491 47.494 49.4411 47.326 49.3611 47.13C49.2811 46.934 49.2411 46.716 49.2411 46.476V46.464C49.2411 46.244 49.2771 46.038 49.3491 45.846C49.4251 45.65 49.5271 45.48 49.6551 45.336C49.7871 45.192 49.9411 45.078 50.1171 44.994C50.2931 44.91 50.4851 44.868 50.6931 44.868C50.9091 44.868 51.1031 44.91 51.2751 44.994C51.4471 45.074 51.5931 45.186 51.7131 45.33C51.8371 45.474 51.9311 45.644 51.9951 45.84C52.0631 46.032 52.0971 46.242 52.0971 46.47V46.482C52.0971 46.502 52.0971 46.52 52.0971 46.536C52.0971 46.548 52.0951 46.566 52.0911 46.59H49.5531ZM49.5531 46.326H51.7791C51.7671 46.17 51.7351 46.022 51.6831 45.882C51.6351 45.738 51.5651 45.612 51.4731 45.504C51.3851 45.392 51.2751 45.304 51.1431 45.24C51.0111 45.172 50.8571 45.138 50.6811 45.138C50.5291 45.138 50.3871 45.168 50.2551 45.228C50.1231 45.288 50.0071 45.372 49.9071 45.48C49.8111 45.584 49.7311 45.71 49.6671 45.858C49.6031 46.002 49.5651 46.158 49.5531 46.326ZM56.117 46.47C56.117 46.718 56.073 46.942 55.985 47.142C55.901 47.338 55.789 47.506 55.649 47.646C55.509 47.782 55.349 47.888 55.169 47.964C54.993 48.036 54.813 48.072 54.629 48.072C54.477 48.072 54.337 48.052 54.209 48.012C54.081 47.972 53.965 47.918 53.861 47.85C53.761 47.782 53.669 47.704 53.585 47.616C53.505 47.528 53.433 47.436 53.369 47.34V48H53.075V43.62H53.369V45.624C53.433 45.524 53.507 45.428 53.591 45.336C53.675 45.244 53.767 45.164 53.867 45.096C53.971 45.028 54.085 44.974 54.209 44.934C54.337 44.89 54.477 44.868 54.629 44.868C54.813 44.868 54.993 44.904 55.169 44.976C55.349 45.048 55.509 45.152 55.649 45.288C55.789 45.424 55.901 45.592 55.985 45.792C56.073 45.988 56.117 46.21 56.117 46.458V46.47ZM55.799 46.482V46.47C55.799 46.27 55.767 46.088 55.703 45.924C55.639 45.76 55.551 45.622 55.439 45.51C55.331 45.394 55.203 45.306 55.055 45.246C54.911 45.182 54.759 45.15 54.599 45.15C54.439 45.15 54.283 45.182 54.131 45.246C53.983 45.31 53.851 45.4 53.735 45.516C53.619 45.632 53.525 45.77 53.453 45.93C53.385 46.09 53.351 46.268 53.351 46.464V46.476C53.351 46.672 53.385 46.852 53.453 47.016C53.525 47.176 53.619 47.314 53.735 47.43C53.851 47.542 53.983 47.63 54.131 47.694C54.283 47.758 54.439 47.79 54.599 47.79C54.767 47.79 54.923 47.76 55.067 47.7C55.215 47.64 55.343 47.554 55.451 47.442C55.559 47.33 55.643 47.194 55.703 47.034C55.767 46.87 55.799 46.686 55.799 46.482ZM27.5745 53.914C27.5745 54.082 27.5385 54.238 27.4665 54.382C27.3985 54.522 27.3025 54.642 27.1785 54.742C27.0585 54.842 26.9125 54.92 26.7405 54.976C26.5725 55.032 26.3865 55.06 26.1825 55.06C25.8465 55.06 25.5425 55.004 25.2705 54.892C25.0025 54.78 24.7425 54.612 24.4905 54.388L24.6945 54.154C24.8105 54.262 24.9245 54.356 25.0365 54.436C25.1525 54.512 25.2705 54.576 25.3905 54.628C25.5105 54.676 25.6365 54.714 25.7685 54.742C25.9005 54.766 26.0445 54.778 26.2005 54.778C26.3565 54.778 26.5005 54.758 26.6325 54.718C26.7645 54.674 26.8765 54.616 26.9685 54.544C27.0605 54.468 27.1325 54.38 27.1845 54.28C27.2365 54.176 27.2625 54.064 27.2625 53.944V53.932C27.2625 53.82 27.2445 53.72 27.2085 53.632C27.1765 53.544 27.1145 53.464 27.0225 53.392C26.9345 53.32 26.8145 53.256 26.6625 53.2C26.5105 53.14 26.3145 53.086 26.0745 53.038C25.8225 52.986 25.6065 52.926 25.4265 52.858C25.2465 52.786 25.0985 52.704 24.9825 52.612C24.8705 52.516 24.7885 52.406 24.7365 52.282C24.6845 52.158 24.6585 52.016 24.6585 51.856V51.844C24.6585 51.688 24.6925 51.544 24.7605 51.412C24.8285 51.276 24.9225 51.158 25.0425 51.058C25.1625 50.958 25.3045 50.88 25.4685 50.824C25.6325 50.768 25.8125 50.74 26.0085 50.74C26.3125 50.74 26.5745 50.782 26.7945 50.866C27.0185 50.95 27.2365 51.078 27.4485 51.25L27.2505 51.496C27.0505 51.324 26.8485 51.202 26.6445 51.13C26.4445 51.058 26.2285 51.022 25.9965 51.022C25.8405 51.022 25.6985 51.044 25.5705 51.088C25.4465 51.128 25.3385 51.184 25.2465 51.256C25.1585 51.328 25.0905 51.412 25.0425 51.508C24.9945 51.604 24.9705 51.706 24.9705 51.814V51.826C24.9705 51.938 24.9865 52.04 25.0185 52.132C25.0545 52.22 25.1165 52.302 25.2045 52.378C25.2965 52.45 25.4225 52.516 25.5825 52.576C25.7425 52.636 25.9465 52.692 26.1945 52.744C26.6825 52.844 27.0345 52.986 27.2505 53.17C27.4665 53.35 27.5745 53.594 27.5745 53.902V53.914ZM28.7544 53.59C28.7664 53.782 28.8084 53.952 28.8804 54.1C28.9524 54.248 29.0424 54.374 29.1504 54.478C29.2584 54.582 29.3804 54.662 29.5164 54.718C29.6564 54.77 29.8024 54.796 29.9544 54.796C30.1944 54.796 30.3964 54.75 30.5604 54.658C30.7284 54.566 30.8764 54.452 31.0044 54.316L31.2084 54.496C31.0524 54.664 30.8744 54.802 30.6744 54.91C30.4784 55.018 30.2344 55.072 29.9424 55.072C29.7424 55.072 29.5504 55.034 29.3664 54.958C29.1864 54.882 29.0264 54.774 28.8864 54.634C28.7504 54.494 28.6424 54.326 28.5624 54.13C28.4824 53.934 28.4424 53.716 28.4424 53.476V53.464C28.4424 53.244 28.4784 53.038 28.5504 52.846C28.6264 52.65 28.7284 52.48 28.8564 52.336C28.9884 52.192 29.1424 52.078 29.3184 51.994C29.4944 51.91 29.6864 51.868 29.8944 51.868C30.1104 51.868 30.3044 51.91 30.4764 51.994C30.6484 52.074 30.7944 52.186 30.9144 52.33C31.0384 52.474 31.1324 52.644 31.1964 52.84C31.2644 53.032 31.2984 53.242 31.2984 53.47V53.482C31.2984 53.502 31.2984 53.52 31.2984 53.536C31.2984 53.548 31.2964 53.566 31.2924 53.59H28.7544ZM28.7544 53.326H30.9804C30.9684 53.17 30.9364 53.022 30.8844 52.882C30.8364 52.738 30.7664 52.612 30.6744 52.504C30.5864 52.392 30.4764 52.304 30.3444 52.24C30.2124 52.172 30.0584 52.138 29.8824 52.138C29.7304 52.138 29.5884 52.168 29.4564 52.228C29.3244 52.288 29.2084 52.372 29.1084 52.48C29.0124 52.584 28.9324 52.71 28.8684 52.858C28.8044 53.002 28.7664 53.158 28.7544 53.326ZM33.9263 52.216H33.8963C33.7203 52.216 33.5523 52.25 33.3923 52.318C33.2323 52.382 33.0903 52.48 32.9663 52.612C32.8463 52.74 32.7503 52.9 32.6783 53.092C32.6063 53.28 32.5703 53.498 32.5703 53.746V55H32.2763V51.94H32.5703V52.81C32.6303 52.674 32.7063 52.548 32.7983 52.432C32.8903 52.316 32.9943 52.218 33.1103 52.138C33.2263 52.054 33.3523 51.992 33.4883 51.952C33.6283 51.908 33.7743 51.888 33.9263 51.892V52.216ZM37.4867 51.94L36.1127 55.024H35.8607L34.4867 51.94H34.8287L35.9867 54.67L37.1567 51.94H37.4867ZM38.7828 51.142H38.4168V50.74H38.7828V51.142ZM38.7468 55H38.4528V51.94H38.7468V55ZM42.623 54.466C42.467 54.642 42.289 54.788 42.089 54.904C41.893 55.016 41.655 55.072 41.375 55.072C41.155 55.072 40.949 55.03 40.757 54.946C40.569 54.858 40.405 54.742 40.265 54.598C40.125 54.454 40.015 54.286 39.935 54.094C39.855 53.902 39.815 53.698 39.815 53.482V53.47C39.815 53.254 39.855 53.05 39.935 52.858C40.015 52.666 40.125 52.496 40.265 52.348C40.405 52.2 40.569 52.084 40.757 52C40.949 51.912 41.155 51.868 41.375 51.868C41.519 51.868 41.649 51.884 41.765 51.916C41.885 51.944 41.995 51.984 42.095 52.036C42.195 52.088 42.285 52.148 42.365 52.216C42.449 52.284 42.527 52.356 42.599 52.432L42.389 52.648C42.257 52.512 42.111 52.394 41.951 52.294C41.791 52.194 41.597 52.144 41.369 52.144C41.193 52.144 41.029 52.178 40.877 52.246C40.729 52.314 40.599 52.408 40.487 52.528C40.379 52.644 40.293 52.782 40.229 52.942C40.165 53.102 40.133 53.274 40.133 53.458V53.47C40.133 53.654 40.165 53.828 40.229 53.992C40.297 54.152 40.387 54.292 40.499 54.412C40.615 54.532 40.749 54.626 40.901 54.694C41.053 54.762 41.217 54.796 41.393 54.796C41.609 54.796 41.801 54.748 41.969 54.652C42.141 54.552 42.291 54.43 42.419 54.286L42.623 54.466ZM43.5868 53.59C43.5988 53.782 43.6408 53.952 43.7128 54.1C43.7848 54.248 43.8748 54.374 43.9828 54.478C44.0908 54.582 44.2128 54.662 44.3488 54.718C44.4888 54.77 44.6348 54.796 44.7868 54.796C45.0268 54.796 45.2288 54.75 45.3928 54.658C45.5608 54.566 45.7088 54.452 45.8368 54.316L46.0408 54.496C45.8848 54.664 45.7068 54.802 45.5068 54.91C45.3108 55.018 45.0668 55.072 44.7748 55.072C44.5748 55.072 44.3828 55.034 44.1988 54.958C44.0188 54.882 43.8588 54.774 43.7188 54.634C43.5828 54.494 43.4748 54.326 43.3948 54.13C43.3148 53.934 43.2748 53.716 43.2748 53.476V53.464C43.2748 53.244 43.3108 53.038 43.3828 52.846C43.4588 52.65 43.5608 52.48 43.6888 52.336C43.8208 52.192 43.9748 52.078 44.1508 51.994C44.3268 51.91 44.5188 51.868 44.7268 51.868C44.9428 51.868 45.1368 51.91 45.3088 51.994C45.4808 52.074 45.6268 52.186 45.7468 52.33C45.8708 52.474 45.9648 52.644 46.0288 52.84C46.0968 53.032 46.1308 53.242 46.1308 53.47V53.482C46.1308 53.502 46.1308 53.52 46.1308 53.536C46.1308 53.548 46.1288 53.566 46.1248 53.59H43.5868ZM43.5868 53.326H45.8128C45.8008 53.17 45.7688 53.022 45.7168 52.882C45.6688 52.738 45.5988 52.612 45.5068 52.504C45.4188 52.392 45.3088 52.304 45.1768 52.24C45.0448 52.172 44.8908 52.138 44.7148 52.138C44.5628 52.138 44.4208 52.168 44.2888 52.228C44.1568 52.288 44.0408 52.372 43.9408 52.48C43.8448 52.584 43.7648 52.71 43.7008 52.858C43.6368 53.002 43.5988 53.158 43.5868 53.326ZM49.1547 54.166C49.1547 54.302 49.1267 54.426 49.0707 54.538C49.0187 54.646 48.9447 54.74 48.8487 54.82C48.7527 54.896 48.6407 54.956 48.5127 55C48.3847 55.04 48.2467 55.06 48.0987 55.06C47.8747 55.06 47.6507 55.02 47.4267 54.94C47.2027 54.856 47.0087 54.748 46.8447 54.616L47.0187 54.382C47.1867 54.51 47.3627 54.61 47.5467 54.682C47.7307 54.75 47.9207 54.784 48.1167 54.784C48.3247 54.784 48.4987 54.732 48.6387 54.628C48.7827 54.524 48.8547 54.382 48.8547 54.202V54.19C48.8547 54.102 48.8327 54.026 48.7887 53.962C48.7447 53.898 48.6847 53.842 48.6087 53.794C48.5327 53.746 48.4467 53.706 48.3507 53.674C48.2547 53.642 48.1527 53.61 48.0447 53.578C47.9207 53.542 47.7947 53.504 47.6667 53.464C47.5427 53.424 47.4307 53.374 47.3307 53.314C47.2307 53.25 47.1487 53.172 47.0847 53.08C47.0247 52.988 46.9947 52.874 46.9947 52.738V52.726C46.9947 52.602 47.0187 52.49 47.0667 52.39C47.1187 52.286 47.1887 52.196 47.2767 52.12C47.3647 52.044 47.4707 51.986 47.5947 51.946C47.7187 51.902 47.8547 51.88 48.0027 51.88C48.1867 51.88 48.3747 51.91 48.5667 51.97C48.7627 52.03 48.9367 52.112 49.0887 52.216L48.9327 52.462C48.7927 52.37 48.6407 52.296 48.4767 52.24C48.3167 52.184 48.1547 52.156 47.9907 52.156C47.7787 52.156 47.6087 52.208 47.4807 52.312C47.3567 52.412 47.2947 52.538 47.2947 52.69V52.702C47.2947 52.786 47.3187 52.86 47.3667 52.924C47.4147 52.984 47.4767 53.036 47.5527 53.08C47.6327 53.124 47.7247 53.164 47.8287 53.2C47.9327 53.232 48.0387 53.264 48.1467 53.296C48.2707 53.332 48.3927 53.372 48.5127 53.416C48.6327 53.456 48.7407 53.51 48.8367 53.578C48.9327 53.642 49.0087 53.72 49.0647 53.812C49.1247 53.904 49.1547 54.018 49.1547 54.154V54.166Z" fill="white"/>
<g clip-path="url(#clip5_272_7)">
<path d="M28.8395 22.9221C28.8395 23.3636 28.8868 23.7208 28.9697 23.9834C29.0643 24.2459 29.1819 24.5321 29.3476 24.842C29.4068 24.9374 29.4304 25.0328 29.4304 25.1164C29.4304 25.2355 29.3594 25.3546 29.2063 25.4744L28.4623 25.9751C28.3558 26.0468 28.25 26.0823 28.1554 26.0823C28.037 26.0823 27.9195 26.0224 27.8011 25.9152C27.6355 25.7362 27.4942 25.5454 27.3759 25.3546C27.2575 25.1519 27.1399 24.9256 27.0098 24.6512C26.089 25.748 24.9315 26.2968 23.5382 26.2968C22.5464 26.2968 21.755 26.0106 21.1767 25.4381C20.5983 24.8657 20.3032 24.1024 20.3032 23.1484C20.3032 22.1352 20.6575 21.312 21.3778 20.6922C22.0982 20.0725 23.0545 19.7618 24.2703 19.7618C24.6719 19.7618 25.0854 19.7973 25.5217 19.8572C25.9581 19.9171 26.407 20.0125 26.8796 20.1198V19.2493C26.8796 18.3433 26.691 17.711 26.3249 17.3412C25.947 16.9714 25.3095 16.7924 24.4005 16.7924C23.9871 16.7924 23.5626 16.8397 23.1255 16.9477C22.6884 17.055 22.2639 17.1859 21.8504 17.353C21.6618 17.4366 21.5198 17.4839 21.437 17.5083C21.3542 17.532 21.295 17.5438 21.2484 17.5438C21.0827 17.5438 21.0006 17.4247 21.0006 17.174V16.5898C21.0006 16.3989 21.0243 16.2562 21.0835 16.1726C21.1426 16.0891 21.2491 16.0055 21.4141 15.9219C21.8275 15.7074 22.323 15.5285 22.9021 15.385C23.4805 15.2297 24.0943 15.1587 24.7437 15.1587C26.1489 15.1587 27.1762 15.4804 27.8374 16.1246C28.4867 16.7687 28.8173 17.7465 28.8173 19.0577V22.9213L28.8395 22.9221ZM24.0455 24.734C24.4353 24.734 24.8369 24.6623 25.2614 24.5196C25.6867 24.3768 26.0646 24.1143 26.3833 23.7563C26.5719 23.53 26.7139 23.2793 26.7849 22.9931C26.8559 22.7068 26.9033 22.3607 26.9033 21.9554V21.4547C26.5608 21.3712 26.1947 21.2994 25.8168 21.2521C25.4389 21.2048 25.0728 21.1803 24.7067 21.1803C23.9153 21.1803 23.337 21.3357 22.9472 21.6574C22.5575 21.9791 22.3689 22.4325 22.3689 23.0286C22.3689 23.5892 22.5109 24.0063 22.806 24.2925C23.0892 24.5913 23.5027 24.734 24.0455 24.734ZM33.527 26.0224C33.3147 26.0224 33.1727 25.9869 33.078 25.9033C32.9834 25.8316 32.9013 25.6652 32.8303 25.4381L30.0554 16.2207C29.9844 15.9826 29.9489 15.8272 29.9489 15.7437C29.9489 15.5529 30.0435 15.4456 30.2321 15.4456H31.3896C31.6137 15.4456 31.7675 15.4811 31.8503 15.5647C31.945 15.6364 32.0153 15.8028 32.0863 16.0299L34.0698 23.9242L35.9114 16.0299C35.9706 15.7917 36.0416 15.6364 36.1355 15.5647C36.2302 15.493 36.3951 15.4456 36.6081 15.4456H37.5525C37.7766 15.4456 37.9305 15.4811 38.0251 15.5647C38.1198 15.6364 38.2019 15.8028 38.2492 16.0299L40.1144 24.0196L42.1572 16.0299C42.2282 15.7917 42.311 15.6364 42.3931 15.5647C42.4878 15.493 42.6409 15.4456 42.8539 15.4456H43.9521C44.1407 15.4456 44.2472 15.541 44.2472 15.7437C44.2472 15.8036 44.2354 15.8627 44.2236 15.9345C44.2117 16.0062 44.1881 16.1016 44.1407 16.2325L41.2956 25.45C41.2246 25.6881 41.1417 25.8434 41.0478 25.9152C40.9539 25.9869 40.8 26.0342 40.5989 26.0342H39.5834C39.3593 26.0342 39.2055 25.9987 39.1108 25.9152C39.0162 25.8316 38.9341 25.677 38.8867 25.4381L37.057 17.7465L35.2391 25.4263C35.1799 25.6644 35.1089 25.8198 35.015 25.9033C34.9203 25.9869 34.7554 26.0224 34.5424 26.0224H33.527ZM48.6988 26.3441C48.0849 26.3441 47.4711 26.2724 46.8809 26.1296C46.2907 25.9869 45.8299 25.8316 45.523 25.6526C45.3344 25.5454 45.2043 25.4263 45.1569 25.3191C45.1096 25.2118 45.0859 25.0927 45.0859 24.9855V24.3776C45.0859 24.1268 45.1806 24.0078 45.3573 24.0078C45.4283 24.0078 45.4993 24.0196 45.5696 24.0433C45.6406 24.0669 45.7464 24.115 45.8647 24.1623C46.2663 24.3413 46.7027 24.4841 47.1634 24.5795C47.636 24.6749 48.096 24.7222 48.5686 24.7222C49.3126 24.7222 49.891 24.5913 50.2926 24.3288C50.6942 24.0662 50.9064 23.6846 50.9064 23.1957C50.9064 22.8622 50.7999 22.5878 50.5877 22.3607C50.3754 22.1344 49.9738 21.9318 49.3955 21.741L47.6833 21.204C46.8217 20.9296 46.1842 20.5243 45.7944 19.9874C45.4047 19.463 45.2043 18.8788 45.2043 18.2583C45.2043 17.7576 45.3108 17.316 45.523 16.9344C45.7353 16.5528 46.0193 16.2192 46.3728 15.9567C46.7271 15.6823 47.1287 15.4796 47.6005 15.3369C48.0731 15.1949 48.5686 15.135 49.0885 15.135C49.3481 15.135 49.6196 15.1468 49.8799 15.1823C50.1513 15.2178 50.3991 15.2659 50.6476 15.3132C50.8835 15.3731 51.1083 15.4323 51.3206 15.504C51.5329 15.5758 51.6985 15.6468 51.8169 15.7185C51.9825 15.8139 52.1001 15.9093 52.1711 16.0166C52.2421 16.112 52.2776 16.2429 52.2776 16.41V16.9706C52.2776 17.2214 52.183 17.3523 52.0062 17.3523C51.9115 17.3523 51.7584 17.3049 51.5573 17.2095C50.8843 16.8996 50.1284 16.7443 49.2905 16.7443C48.6174 16.7443 48.0864 16.8516 47.7203 17.0779C47.3542 17.3042 47.1656 17.6503 47.1656 18.1392C47.1656 18.4727 47.284 18.759 47.5199 18.986C47.7558 19.2123 48.1929 19.4394 48.8186 19.642L50.4952 20.179C51.345 20.4533 51.9596 20.835 52.325 21.3238C52.6903 21.8127 52.8678 22.3733 52.8678 22.9931C52.8678 23.5056 52.7613 23.9708 52.5609 24.3761C52.3486 24.7814 52.0646 25.1393 51.6993 25.4256C51.3332 25.7236 50.8961 25.9381 50.3887 26.0934C49.8555 26.2605 49.3008 26.3441 48.6988 26.3441Z" fill="white"/>
<path d="M50.9301 32.1395C47.0458 35.0372 41.402 36.5755 36.5489 36.5755C29.7484 36.5755 23.6202 34.0358 18.9919 29.8142C18.6258 29.4807 18.9564 29.0273 19.3935 29.2899C24.3997 32.2231 30.5745 34.0003 36.9623 34.0003C41.2719 34.0003 46.0067 33.0943 50.3628 31.2335C51.0129 30.9354 51.5676 31.6625 50.9301 32.1395ZM52.5475 30.2794C52.0513 29.6353 49.2653 29.9696 48.0021 30.1241C47.6241 30.1715 47.565 29.8379 47.9074 29.5872C50.1269 28.0134 53.7753 28.466 54.2005 28.9911C54.6258 29.528 54.0822 33.2126 52.0047 34.9773C51.6859 35.2517 51.379 35.1082 51.5203 34.751C51.9929 33.5706 53.0438 30.911 52.5475 30.2794Z" fill="#FF9900"/>
</g>
</g>
<defs>
<radialGradient id="paint0_radial_272_7" cx="0" cy="0" r="1" gradientUnits="userSpaceOnUse" gradientTransform="translate(286.5 145.25) rotate(-89.3625) scale(179.761 240.252)">
<stop stop-color="#012E48"/>
<stop offset="0.587122" stop-color="#10172A"/>
</radialGradient>
<clipPath id="clip0_272_7">
<rect width="600" height="313" fill="white" transform="translate(0.705078)"/>
</clipPath>
<clipPath id="clip1_272_7">
<rect width="84.0764" height="75" fill="white" transform="translate(63 111.5)"/>
</clipPath>
<clipPath id="clip2_272_7">
<rect width="34" height="76" fill="white" transform="translate(223.431 111)"/>
</clipPath>
<clipPath id="clip3_272_7">
<rect width="64.7727" height="75" fill="white" transform="translate(336.931 111.5)"/>
</clipPath>
<clipPath id="clip4_272_7">
<rect width="75" height="75" fill="white" transform="translate(465.931 111.5)"/>
</clipPath>
<clipPath id="clip5_272_7">
<rect width="36.0005" height="22" fill="white" transform="translate(18.8346 15)"/>
</clipPath>
</defs>
</svg>
