<svg width="16" height="16" viewBox="0 0 16 16" fill="none" xmlns="http://www.w3.org/2000/svg">
<path d="M14.9463 13.0832C14.5261 12.9067 14.1099 12.7748 13.7018 12.6734C12.5785 12.4929 11.1865 12.4179 10.3016 12.4422C9.3056 12.4686 7.29942 12.286 7.14588 12.2698L7.09941 12.2657C6.92566 12.2454 6.75394 12.215 6.58423 12.1765C6.24886 12.0974 5.92156 11.9817 5.61448 11.8296C5.35587 11.6978 5.09727 11.5375 4.83867 11.3428C4.81241 11.3245 4.78816 11.3063 4.7619 11.288C4.49522 11.0751 4.25278 10.8337 4.03862 10.5659C3.37394 9.73631 3.0224 8.73225 3.0224 7.66531C3.0224 5.11156 5.09323 3.03245 7.63682 3.03245C10.1804 3.03245 12.2512 5.11156 12.2512 7.66531C12.2512 8.67343 11.934 9.63083 11.336 10.4361C10.7562 11.215 9.92988 11.8032 9.01064 12.0892C8.85103 12.1379 8.68941 12.1805 8.52576 12.213C9.07731 12.2556 9.66118 12.2414 10.2996 12.2231C11.1603 12.2008 12.4957 12.2698 13.6089 12.4361C13.6109 12.4361 13.6129 12.4361 13.615 12.4341C13.6634 12.3732 13.7099 12.3124 13.7544 12.2515C14.7463 10.9189 15.2716 9.33266 15.2716 7.66531C15.2716 5.61866 14.4776 3.69371 13.0351 2.24544C11.5886 0.79716 9.6733 0 7.63278 0C5.59225 0 3.67699 0.79716 2.2365 2.24544C0.793987 3.69168 0 5.61663 0 7.66329C0 9.40365 0.598015 11.1095 1.68293 12.4645C2.35166 13.3002 3.19211 13.9838 4.13156 14.4726C6.10743 15.5213 8.0429 15.4686 9.7824 15.4219C11.1845 15.3834 12.5078 15.3489 13.7847 15.8824C13.9746 15.9615 14.1705 16 14.3645 16C14.9564 16 15.5181 15.6491 15.7585 15.0669C16.0797 14.2941 15.7141 13.4077 14.9443 13.0852L14.9463 13.0832Z" fill="white"/>
</svg>
