<svg width="1280" height="484" viewBox="0 0 1280 484" fill="none" xmlns="http://www.w3.org/2000/svg">
<rect x="1" y="21" width="1278" height="218" rx="39" stroke="#808080" stroke-width="2" stroke-dasharray="4 4"/>
<rect x="1" y="245" width="1278" height="218" rx="39" stroke="#808080" stroke-width="2" stroke-dasharray="4 4"/>
<rect x="46" y="232" width="1188" height="20" fill="black"/>
<path d="M306 146.268C306 145.716 305.552 145.268 305 145.268C304.448 145.268 304 145.716 304 146.268H306ZM548.293 310.319C548.683 310.709 549.317 310.709 549.707 310.319L556.071 303.955C556.462 303.564 556.462 302.931 556.071 302.541C555.681 302.15 555.047 302.15 554.657 302.541L549 308.197L543.343 302.541C542.953 302.15 542.319 302.15 541.929 302.541C541.538 302.931 541.538 303.564 541.929 303.955L548.293 310.319ZM304 146.268V148.196H306V146.268H304ZM304 152.05V155.905H306V152.05H304ZM304 159.759V163.614H306V159.759H304ZM304 167.468V171.322H306V167.468H304ZM304 175.177V179.031H306V175.177H304ZM304 182.886V186.74H306V182.886H304ZM304 190.595V194.449H306V190.595H304ZM304 198.304V202.158H306V198.304H304ZM304 206.013V207.94H306V206.013H304ZM304 207.94C304 208.634 304.034 209.321 304.1 209.998L306.09 209.804C306.031 209.191 306 208.569 306 207.94H304ZM304.899 214.038C305.302 215.366 305.832 216.639 306.477 217.842L308.24 216.897C307.657 215.81 307.177 214.659 306.813 213.458L304.899 214.038ZM308.767 221.263C309.639 222.325 310.615 223.301 311.677 224.173L312.947 222.628C311.985 221.838 311.102 220.955 310.312 219.993L308.767 221.263ZM315.098 226.464C316.301 227.108 317.574 227.638 318.902 228.041L319.482 226.127C318.281 225.763 317.13 225.283 316.043 224.701L315.098 226.464ZM322.942 228.84C323.619 228.906 324.306 228.94 325 228.94V226.94C324.371 226.94 323.749 226.909 323.136 226.85L322.942 228.84ZM325 228.94H326.962V226.94H325V228.94ZM330.885 228.94H334.808V226.94H330.885V228.94ZM338.731 228.94H342.654V226.94H338.731V228.94ZM346.577 228.94H350.5V226.94H346.577V228.94ZM354.423 228.94H358.346V226.94H354.423V228.94ZM362.269 228.94H366.192V226.94H362.269V228.94ZM370.115 228.94H374.038V226.94H370.115V228.94ZM377.962 228.94H381.885V226.94H377.962V228.94ZM385.808 228.94H389.731V226.94H385.808V228.94ZM393.654 228.94H397.577V226.94H393.654V228.94ZM401.5 228.94H405.423V226.94H401.5V228.94ZM409.346 228.94H413.269V226.94H409.346V228.94ZM417.192 228.94H421.115V226.94H417.192V228.94ZM425.038 228.94H428.962V226.94H425.038V228.94ZM432.885 228.94H436.808V226.94H432.885V228.94ZM440.731 228.94H444.654V226.94H440.731V228.94ZM448.577 228.94H452.5V226.94H448.577V228.94ZM456.423 228.94H460.346V226.94H456.423V228.94ZM464.269 228.94H468.192V226.94H464.269V228.94ZM472.115 228.94H476.039V226.94H472.115V228.94ZM479.962 228.94H483.885V226.94H479.962V228.94ZM487.808 228.94H491.731V226.94H487.808V228.94ZM495.654 228.94H499.577V226.94H495.654V228.94ZM503.5 228.94H507.423V226.94H503.5V228.94ZM511.346 228.94H515.269V226.94H511.346V228.94ZM519.192 228.94H523.115V226.94H519.192V228.94ZM527.039 228.94H529V226.94H527.039V228.94ZM529 228.94C529.629 228.94 530.251 228.971 530.864 229.03L531.058 227.04C530.381 226.974 529.694 226.94 529 226.94V228.94ZM534.518 229.753C535.719 230.117 536.87 230.597 537.957 231.18L538.902 229.417C537.699 228.772 536.426 228.242 535.098 227.839L534.518 229.753ZM541.053 233.252C542.015 234.042 542.898 234.925 543.688 235.887L545.233 234.617C544.361 233.555 543.385 232.58 542.323 231.707L541.053 233.252ZM545.76 238.983C546.343 240.07 546.823 241.221 547.187 242.422L549.101 241.842C548.698 240.514 548.168 239.241 547.523 238.038L545.76 238.983ZM547.91 246.076C547.969 246.689 548 247.311 548 247.94H550C550 247.246 549.966 246.559 549.9 245.882L547.91 246.076ZM548 247.94V249.867H550V247.94H548ZM548 253.722V257.576H550V253.722H548ZM548 261.431V265.285H550V261.431H548ZM548 269.14V272.994H550V269.14H548ZM548 276.849V280.703H550V276.849H548ZM548 284.558V288.412H550V284.558H548ZM548 292.267V296.121H550V292.267H548ZM548 299.975V303.83H550V299.975H548ZM548 307.684V309.612H550V307.684H548ZM303 146.268C303 146.147 303.037 146.018 303.132 145.88L301.484 144.747C301.184 145.183 301 145.702 301 146.268H303ZM304.236 145.211C304.469 145.153 304.726 145.119 305 145.119V143.119C304.564 143.119 304.142 143.172 303.746 143.273L304.236 145.211ZM305 145.119C305.274 145.119 305.531 145.153 305.764 145.211L306.254 143.273C305.858 143.172 305.436 143.119 305 143.119V145.119ZM306.868 145.88C306.963 146.018 307 146.147 307 146.268H309C309 145.702 308.816 145.183 308.516 144.747L306.868 145.88ZM307 146.268C307 146.389 306.963 146.519 306.868 146.657L308.516 147.79C308.816 147.354 309 146.835 309 146.268H307ZM305.764 147.325C305.531 147.384 305.274 147.418 305 147.418V149.418C305.436 149.418 305.858 149.365 306.254 149.264L305.764 147.325ZM305 147.418C304.726 147.418 304.469 147.384 304.236 147.325L303.746 149.264C304.142 149.365 304.564 149.418 305 149.418V147.418ZM303.132 146.657C303.037 146.519 303 146.389 303 146.268H301C301 146.835 301.184 147.354 301.484 147.79L303.132 146.657Z" fill="#808080"/>
<path d="M917 146.268C917 145.716 916.552 145.268 916 145.268C915.448 145.268 915 145.716 915 146.268H917ZM628.293 310.319C628.683 310.709 629.317 310.709 629.707 310.319L636.071 303.955C636.462 303.564 636.462 302.931 636.071 302.541C635.681 302.15 635.047 302.15 634.657 302.541L629 308.197L623.343 302.541C622.953 302.15 622.319 302.15 621.929 302.541C621.538 302.931 621.538 303.564 621.929 303.955L628.293 310.319ZM630 309.612V307.684H628V309.612H630ZM630 303.83V299.975H628V303.83H630ZM630 296.121V292.267H628V296.121H630ZM630 288.412V284.558H628V288.412H630ZM630 280.703V276.849H628V280.703H630ZM630 272.994V269.14H628V272.994H630ZM630 265.285V261.431H628V265.285H630ZM630 257.576V253.722H628V257.576H630ZM630 249.867V247.94H628V249.867H630ZM630 247.94C630 247.311 630.031 246.689 630.09 246.076L628.1 245.882C628.034 246.559 628 247.246 628 247.94H630ZM630.813 242.422C631.177 241.221 631.657 240.07 632.24 238.983L630.477 238.038C629.832 239.241 629.302 240.514 628.899 241.842L630.813 242.422ZM634.312 235.887C635.102 234.925 635.985 234.042 636.947 233.252L635.677 231.707C634.615 232.58 633.639 233.555 632.767 234.617L634.312 235.887ZM640.043 231.18C641.13 230.597 642.281 230.117 643.482 229.753L642.902 227.839C641.574 228.242 640.301 228.772 639.098 229.417L640.043 231.18ZM647.136 229.03C647.749 228.971 648.371 228.94 649 228.94V226.94C648.306 226.94 647.619 226.974 646.942 227.04L647.136 229.03ZM649 228.94H650.992V226.94H649V228.94ZM654.976 228.94H658.96V226.94H654.976V228.94ZM662.944 228.94H666.927V226.94H662.944V228.94ZM670.911 228.94H674.895V226.94H670.911V228.94ZM678.879 228.94H682.863V226.94H678.879V228.94ZM686.847 228.94H690.831V226.94H686.847V228.94ZM694.815 228.94H698.798V226.94H694.815V228.94ZM702.782 228.94H706.766V226.94H702.782V228.94ZM710.75 228.94H714.734V226.94H710.75V228.94ZM718.718 228.94H722.702V226.94H718.718V228.94ZM726.685 228.94H730.669V226.94H726.685V228.94ZM734.653 228.94H738.637V226.94H734.653V228.94ZM742.621 228.94H746.605V226.94H742.621V228.94ZM750.589 228.94H754.573V226.94H750.589V228.94ZM758.556 228.94H762.54V226.94H758.556V228.94ZM766.524 228.94H770.508V226.94H766.524V228.94ZM774.492 228.94H778.476V226.94H774.492V228.94ZM782.46 228.94H786.444V226.94H782.46V228.94ZM790.427 228.94H794.411V226.94H790.427V228.94ZM798.395 228.94H802.379V226.94H798.395V228.94ZM806.363 228.94H810.347V226.94H806.363V228.94ZM814.331 228.94H818.315V226.94H814.331V228.94ZM822.298 228.94H826.282V226.94H822.298V228.94ZM830.266 228.94H834.25V226.94H830.266V228.94ZM838.234 228.94H842.218V226.94H838.234V228.94ZM846.202 228.94H850.186V226.94H846.202V228.94ZM854.169 228.94H858.153V226.94H854.169V228.94ZM862.137 228.94H866.121V226.94H862.137V228.94ZM870.105 228.94H874.089V226.94H870.105V228.94ZM878.073 228.94H882.056V226.94H878.073V228.94ZM886.04 228.94H890.024V226.94H886.04V228.94ZM894.008 228.94H896V226.94H894.008V228.94ZM896 228.94C896.694 228.94 897.381 228.906 898.058 228.84L897.864 226.85C897.251 226.909 896.629 226.94 896 226.94V228.94ZM902.098 228.041C903.426 227.638 904.699 227.108 905.902 226.464L904.957 224.701C903.87 225.283 902.719 225.763 901.518 226.127L902.098 228.041ZM909.323 224.173C910.385 223.301 911.361 222.325 912.233 221.263L910.688 219.993C909.898 220.955 909.015 221.838 908.053 222.628L909.323 224.173ZM914.523 217.842C915.168 216.639 915.698 215.366 916.101 214.038L914.187 213.458C913.823 214.659 913.343 215.81 912.76 216.897L914.523 217.842ZM916.9 209.998C916.966 209.321 917 208.634 917 207.94H915C915 208.569 914.969 209.191 914.91 209.804L916.9 209.998ZM917 207.94V206.013H915V207.94H917ZM917 202.158V198.304H915V202.158H917ZM917 194.449V190.595H915V194.449H917ZM917 186.74V182.886H915V186.74H917ZM917 179.031V175.177H915V179.031H917ZM917 171.323V167.468H915V171.323H917ZM917 163.614V159.759H915V163.614H917ZM917 155.905V152.05H915V155.905H917ZM917 148.196V146.268H915V148.196H917ZM914 146.268C914 146.147 914.037 146.018 914.132 145.88L912.484 144.747C912.184 145.183 912 145.702 912 146.268H914ZM915.236 145.211C915.469 145.153 915.726 145.119 916 145.119V143.119C915.564 143.119 915.142 143.172 914.746 143.273L915.236 145.211ZM916 145.119C916.274 145.119 916.531 145.153 916.764 145.211L917.254 143.273C916.858 143.172 916.436 143.119 916 143.119V145.119ZM917.868 145.88C917.963 146.018 918 146.147 918 146.268H920C920 145.702 919.816 145.183 919.516 144.747L917.868 145.88ZM918 146.268C918 146.389 917.963 146.519 917.868 146.657L919.516 147.79C919.816 147.354 920 146.835 920 146.268H918ZM916.764 147.325C916.531 147.384 916.274 147.418 916 147.418V149.418C916.436 149.418 916.858 149.365 917.254 149.264L916.764 147.325ZM916 147.418C915.726 147.418 915.469 147.384 915.236 147.325L914.746 149.264C915.142 149.365 915.564 149.418 916 149.418V147.418ZM914.132 146.657C914.037 146.519 914 146.389 914 146.268H912C912 146.835 912.184 147.354 912.484 147.79L914.132 146.657Z" fill="#808080"/>
<path d="M218.53 113.147C219.082 113.147 219.53 112.699 219.53 112.147C219.53 111.595 219.082 111.147 218.53 111.147V113.147ZM292.707 344.707C293.098 344.317 293.098 343.683 292.707 343.293L286.343 336.929C285.953 336.538 285.319 336.538 284.929 336.929C284.538 337.319 284.538 337.953 284.929 338.343L290.586 344L284.929 349.657C284.538 350.047 284.538 350.681 284.929 351.071C285.319 351.462 285.953 351.462 286.343 351.071L292.707 344.707ZM218.53 111.147H216.685V113.147H218.53V111.147ZM212.993 111.147H209.302V113.147H212.993V111.147ZM205.611 111.147H201.919V113.147H205.611V111.147ZM198.228 111.147H194.537V113.147H198.228V111.147ZM190.846 111.147H189V113.147H190.846V111.147ZM189 111.147C188.306 111.147 187.619 111.18 186.942 111.246L187.136 113.237C187.749 113.177 188.371 113.147 189 113.147V111.147ZM182.902 112.046C181.574 112.449 180.301 112.979 179.098 113.623L180.043 115.386C181.13 114.804 182.281 114.324 183.482 113.96L182.902 112.046ZM175.677 115.913C174.615 116.786 173.639 117.761 172.767 118.824L174.312 120.094C175.102 119.132 175.985 118.249 176.947 117.459L175.677 115.913ZM170.477 122.245C169.832 123.448 169.302 124.721 168.899 126.049L170.813 126.629C171.177 125.428 171.657 124.277 172.24 123.189L170.477 122.245ZM168.1 130.089C168.034 130.766 168 131.453 168 132.147H170C170 131.517 170.031 130.896 170.09 130.283L168.1 130.089ZM168 132.147V134.145H170V132.147H168ZM168 138.142V142.139H170V138.142H168ZM168 146.136V150.133H170V146.136H168ZM168 154.13V158.127H170V154.13H168ZM168 162.124V166.121H170V162.124H168ZM168 170.118V174.115H170V170.118H168ZM168 178.112V182.109H170V178.112H168ZM168 186.105V190.102H170V186.105H168ZM168 194.099V198.096H170V194.099H168ZM168 202.093V206.09H170V202.093H168ZM168 210.087V214.084H170V210.087H168ZM168 218.081V222.078H170V218.081H168ZM168 226.075V230.072H170V226.075H168ZM168 234.069V238.066H170V234.069H168ZM168 242.063V246.06H170V242.063H168ZM168 250.057V254.053H170V250.057H168ZM168 258.05V262.047H170V258.05H168ZM168 266.044V270.041H170V266.044H168ZM168 274.038V278.035H170V274.038H168ZM168 282.032V286.029H170V282.032H168ZM168 290.026V294.023H170V290.026H168ZM168 298.02V302.017H170V298.02H168ZM168 306.014V310.011H170V306.014H168ZM168 314.008V318.005H170V314.008H168ZM168 322.002V324H170V322.002H168ZM168 324C168 324.694 168.034 325.381 168.1 326.058L170.09 325.864C170.031 325.251 170 324.629 170 324H168ZM168.899 330.098C169.302 331.426 169.832 332.699 170.477 333.902L172.24 332.957C171.657 331.87 171.177 330.719 170.813 329.518L168.899 330.098ZM172.767 337.323C173.639 338.385 174.615 339.361 175.677 340.233L176.947 338.688C175.985 337.898 175.102 337.015 174.312 336.053L172.767 337.323ZM179.098 342.523C180.301 343.168 181.574 343.698 182.902 344.101L183.482 342.187C182.281 341.823 181.13 341.343 180.043 340.76L179.098 342.523ZM186.942 344.9C187.619 344.966 188.306 345 189 345V343C188.371 343 187.749 342.969 187.136 342.91L186.942 344.9ZM189 345H190.981V343H189V345ZM194.942 345H198.904V343H194.942V345ZM202.865 345H206.827V343H202.865V345ZM210.788 345H214.75V343H210.788V345ZM218.712 345H222.673V343H218.712V345ZM226.635 345H230.596V343H226.635V345ZM234.558 345H238.519V343H234.558V345ZM242.481 345H246.442V343H242.481V345ZM250.404 345H254.365V343H250.404V345ZM258.327 345H262.288V343H258.327V345ZM266.25 345H270.212V343H266.25V345ZM274.173 345H278.135V343H274.173V345ZM282.096 345H286.058V343H282.096V345ZM290.019 345H292V343H290.019V345ZM214.577 112.147C214.577 112.165 214.569 112.151 214.607 112.094C214.65 112.031 214.742 111.932 214.913 111.815L213.788 110.162C213.175 110.579 212.577 111.24 212.577 112.147H214.577ZM217.213 111.083C217.626 111.029 218.068 111 218.53 111V109C217.984 109 217.455 109.035 216.954 109.1L217.213 111.083ZM218.53 111C218.992 111 219.435 111.029 219.847 111.083L220.106 109.1C219.605 109.035 219.076 109 218.53 109V111ZM222.147 111.815C222.319 111.932 222.41 112.031 222.453 112.094C222.492 112.151 222.483 112.165 222.483 112.147H224.483C224.483 111.24 223.885 110.579 223.272 110.162L222.147 111.815ZM222.483 112.147C222.483 112.129 222.492 112.143 222.453 112.199C222.41 112.263 222.319 112.362 222.147 112.478L223.272 114.132C223.885 113.715 224.483 113.054 224.483 112.147H222.483ZM219.847 113.21C219.435 113.264 218.992 113.294 218.53 113.294V115.294C219.076 115.294 219.605 115.259 220.106 115.194L219.847 113.21ZM218.53 113.294C218.068 113.294 217.626 113.264 217.213 113.21L216.954 115.194C217.455 115.259 217.984 115.294 218.53 115.294V113.294ZM214.913 112.478C214.742 112.362 214.65 112.263 214.607 112.199C214.569 112.143 214.577 112.129 214.577 112.147H212.577C212.577 113.054 213.175 113.715 213.788 114.132L214.913 112.478Z" fill="#808080"/>
<path d="M1075 110.881C1074.45 110.881 1074 111.328 1074 111.881C1074 112.433 1074.45 112.881 1075 112.881V110.881ZM975.793 343.293C975.402 343.684 975.402 344.317 975.793 344.707L982.157 351.071C982.547 351.462 983.181 351.462 983.571 351.071C983.962 350.681 983.962 350.047 983.571 349.657L977.914 344L983.571 338.343C983.962 337.953 983.962 337.32 983.571 336.929C983.181 336.538 982.547 336.538 982.157 336.929L975.793 343.293ZM976.5 345H978.438V343H976.5V345ZM982.312 345H986.188V343H982.312V345ZM990.062 345H993.938V343H990.062V345ZM997.812 345H1001.69V343H997.812V345ZM1005.56 345H1009.44V343H1005.56V345ZM1013.31 345H1017.19V343H1013.31V345ZM1021.06 345H1024.94V343H1021.06V345ZM1028.81 345H1032.69V343H1028.81V345ZM1036.56 345H1040.44V343H1036.56V345ZM1044.31 345H1048.19V343H1044.31V345ZM1052.06 345H1055.94V343H1052.06V345ZM1059.81 345H1063.69V343H1059.81V345ZM1067.56 345H1071.44V343H1067.56V345ZM1075.31 345H1079.19V343H1075.31V345ZM1083.06 345H1085V343H1083.06V345ZM1085 345C1085.69 345 1086.38 344.966 1087.06 344.9L1086.86 342.91C1086.25 342.97 1085.63 343 1085 343V345ZM1091.1 344.101C1092.43 343.698 1093.7 343.168 1094.9 342.524L1093.96 340.761C1092.87 341.343 1091.72 341.823 1090.52 342.187L1091.1 344.101ZM1098.32 340.234C1099.39 339.361 1100.36 338.385 1101.23 337.323L1099.69 336.053C1098.9 337.015 1098.02 337.898 1097.05 338.688L1098.32 340.234ZM1103.52 333.902C1104.17 332.699 1104.7 331.426 1105.1 330.098L1103.19 329.518C1102.82 330.719 1102.34 331.87 1101.76 332.958L1103.52 333.902ZM1105.9 326.058C1105.97 325.381 1106 324.694 1106 324H1104C1104 324.629 1103.97 325.251 1103.91 325.864L1105.9 326.058ZM1106 324V321.999H1104V324H1106ZM1106 317.996V313.994H1104V317.996H1106ZM1106 309.991V305.989H1104V309.991H1106ZM1106 301.986V297.984H1104V301.986H1106ZM1106 293.981V289.979H1104V293.981H1106ZM1106 285.976V281.974H1104V285.976H1106ZM1106 277.971V273.969H1104V277.971H1106ZM1106 269.966V265.964H1104V269.966H1106ZM1106 261.962V257.959H1104V261.962H1106ZM1106 253.957V249.954H1104V253.957H1106ZM1106 245.952V241.949H1104V245.952H1106ZM1106 237.947V233.944H1104V237.947H1106ZM1106 229.942V225.939H1104V229.942H1106ZM1106 221.937V217.934H1104V221.937H1106ZM1106 213.932V209.929H1104V213.932H1106ZM1106 205.927V201.924H1104V205.927H1106ZM1106 197.922V193.919H1104V197.922H1106ZM1106 189.917V185.914H1104V189.917H1106ZM1106 181.912V177.909H1104V181.912H1106ZM1106 173.907V169.904H1104V173.907H1106ZM1106 165.902V161.899H1104V165.902H1106ZM1106 157.897V153.894H1104V157.897H1106ZM1106 149.892V145.889H1104V149.892H1106ZM1106 141.887V137.884H1104V141.887H1106ZM1106 133.882V131.881H1104V133.882H1106ZM1106 131.881C1106 131.187 1105.97 130.5 1105.9 129.823L1103.91 130.016C1103.97 130.63 1104 131.251 1104 131.881H1106ZM1105.1 125.783C1104.7 124.454 1104.17 123.182 1103.52 121.979L1101.76 122.923C1102.34 124.011 1102.82 125.162 1103.19 126.363L1105.1 125.783ZM1101.23 118.558C1100.36 117.495 1099.39 116.52 1098.32 115.647L1097.05 117.193C1098.02 117.983 1098.9 118.866 1099.69 119.827L1101.23 118.558ZM1094.9 113.357C1093.7 112.713 1092.43 112.182 1091.1 111.78L1090.52 113.694C1091.72 114.058 1092.87 114.538 1093.96 115.12L1094.9 113.357ZM1087.06 110.98C1086.38 110.914 1085.69 110.881 1085 110.881V112.881C1085.63 112.881 1086.25 112.911 1086.86 112.971L1087.06 110.98ZM1085 110.881H1082.5V112.881H1085V110.881ZM1077.5 110.881H1075V112.881H1077.5V110.881ZM1073 111.881C1073 111.76 1073.04 111.63 1073.13 111.492L1071.48 110.359C1071.18 110.795 1071 111.314 1071 111.881H1073ZM1074.24 110.824C1074.47 110.765 1074.73 110.731 1075 110.731V108.731C1074.56 108.731 1074.14 108.785 1073.75 108.885L1074.24 110.824ZM1075 110.731C1075.27 110.731 1075.53 110.765 1075.76 110.824L1076.25 108.885C1075.86 108.785 1075.44 108.731 1075 108.731V110.731ZM1076.87 111.492C1076.96 111.63 1077 111.76 1077 111.881H1079C1079 111.314 1078.82 110.795 1078.52 110.359L1076.87 111.492ZM1077 111.881C1077 112.002 1076.96 112.131 1076.87 112.269L1078.52 113.402C1078.82 112.966 1079 112.447 1079 111.881H1077ZM1075.76 112.938C1075.53 112.997 1075.27 113.03 1075 113.03V115.03C1075.44 115.03 1075.86 114.977 1076.25 114.877L1075.76 112.938ZM1075 113.03C1074.73 113.03 1074.47 112.997 1074.24 112.938L1073.75 114.877C1074.14 114.977 1074.56 115.03 1075 115.03V113.03ZM1073.13 112.269C1073.04 112.131 1073 112.002 1073 111.881H1071C1071 112.447 1071.18 112.966 1071.48 113.402L1073.13 112.269Z" fill="#808080"/>
<path d="M344 77.4925C344 78.0448 344.448 78.4925 345 78.4925C345.552 78.4925 346 78.0448 346 77.4925H344ZM834.293 310.319C834.683 310.71 835.317 310.71 835.707 310.319L842.071 303.955C842.462 303.565 842.462 302.931 842.071 302.541C841.681 302.15 841.047 302.15 840.657 302.541L835 308.198L829.343 302.541C828.953 302.15 828.319 302.15 827.929 302.541C827.538 302.931 827.538 303.565 827.929 303.955L834.293 310.319ZM346 77.4925V77.1194H344V77.4925H346ZM346 76.3731V76H344V76.3731H346ZM346 76C346 75.3707 346.031 74.7488 346.09 74.1358L344.1 73.942C344.034 74.6194 344 75.3059 344 76H346ZM346.813 70.4823C347.177 69.2812 347.657 68.1303 348.24 67.0425L346.477 66.0982C345.832 67.3009 345.302 68.5737 344.899 69.9024L346.813 70.4823ZM350.312 63.9468C351.102 62.985 351.985 62.1021 352.947 61.3119L351.677 59.7665C350.615 60.6395 349.639 61.6147 348.767 62.6771L350.312 63.9468ZM356.043 59.2395C357.13 58.6569 358.281 58.1772 359.482 57.8133L358.902 55.8992C357.574 56.3018 356.301 56.8324 355.098 57.4765L356.043 59.2395ZM363.136 57.0902C363.749 57.0306 364.371 57 365 57V55C364.306 55 363.619 55.0337 362.942 55.0996L363.136 57.0902ZM365 57H367.009V55H365V57ZM371.027 57H375.045V55H371.027V57ZM379.062 57H383.08V55H379.062V57ZM387.098 57H391.116V55H387.098V57ZM395.134 57H399.152V55H395.134V57ZM403.17 57H407.188V55H403.17V57ZM411.205 57H415.223V55H411.205V57ZM419.241 57H423.259V55H419.241V57ZM427.277 57H431.295V55H427.277V57ZM435.312 57H439.33V55H435.312V57ZM443.348 57H447.366V55H443.348V57ZM451.384 57H455.402V55H451.384V57ZM459.42 57H463.438V55H459.42V57ZM467.455 57H471.473V55H467.455V57ZM475.491 57H479.509V55H475.491V57ZM483.527 57H487.545V55H483.527V57ZM491.563 57H495.58V55H491.563V57ZM499.598 57H503.616V55H499.598V57ZM507.634 57H511.652V55H507.634V57ZM515.67 57H519.688V55H515.67V57ZM523.705 57H527.723V55H523.705V57ZM531.741 57H535.759V55H531.741V57ZM539.777 57H543.795V55H539.777V57ZM547.812 57H551.83V55H547.812V57ZM555.848 57H559.866V55H555.848V57ZM563.884 57H567.902V55H563.884V57ZM571.92 57H575.937V55H571.92V57ZM579.955 57H583.973V55H579.955V57ZM587.991 57H592.009V55H587.991V57ZM596.027 57H600.045V55H596.027V57ZM604.062 57H608.08V55H604.062V57ZM612.098 57H616.116V55H612.098V57ZM620.134 57H624.152V55H620.134V57ZM628.17 57H632.187V55H628.17V57ZM636.205 57H640.223V55H636.205V57ZM644.241 57H648.259V55H644.241V57ZM652.277 57H656.295V55H652.277V57ZM660.312 57H664.33V55H660.312V57ZM668.348 57H672.366V55H668.348V57ZM676.384 57H680.402V55H676.384V57ZM684.419 57H688.437V55H684.419V57ZM692.455 57H696.473V55H692.455V57ZM700.491 57H704.509V55H700.491V57ZM708.527 57H712.544V55H708.527V57ZM716.562 57H720.58V55H716.562V57ZM724.598 57H728.616V55H724.598V57ZM732.634 57H736.652V55H732.634V57ZM740.669 57H744.687V55H740.669V57ZM748.705 57H752.723V55H748.705V57ZM756.741 57H760.759V55H756.741V57ZM764.777 57H768.794V55H764.777V57ZM772.812 57H776.83V55H772.812V57ZM780.848 57H784.866V55H780.848V57ZM788.884 57H792.902V55H788.884V57ZM796.919 57H800.937V55H796.919V57ZM804.955 57H808.973V55H804.955V57ZM812.991 57H815V55H812.991V57ZM815 57C815.629 57 816.251 57.0306 816.864 57.0902L817.058 55.0996C816.381 55.0337 815.694 55 815 55V57ZM820.518 57.8133C821.719 58.1772 822.87 58.6569 823.957 59.2395L824.902 57.4765C823.699 56.8324 822.426 56.3018 821.098 55.8992L820.518 57.8133ZM827.053 61.3119C828.015 62.1021 828.898 62.985 829.688 63.9468L831.233 62.6771C830.361 61.6147 829.385 60.6395 828.323 59.7665L827.053 61.3119ZM831.76 67.0425C832.343 68.1303 832.823 69.2812 833.187 70.4823L835.101 69.9024C834.698 68.5737 834.168 67.3009 833.523 66.0982L831.76 67.0425ZM833.91 74.1358C833.969 74.7488 834 75.3707 834 76H836C836 75.3059 835.966 74.6194 835.9 73.942L833.91 74.1358ZM834 76V78.0139H836V76H834ZM834 82.0417V86.0695H836V82.0417H834ZM834 90.0973V94.1251H836V90.0973H834ZM834 98.1529V102.181H836V98.1529H834ZM834 106.208V110.236H836V106.208H834ZM834 114.264V118.292H836V114.264H834ZM834 122.32V126.347H836V122.32H834ZM834 130.375V134.403H836V130.375H834ZM834 138.431V142.459H836V138.431H834ZM834 146.486V150.514H836V146.486H834ZM834 154.542V158.57H836V154.542H834ZM834 162.598V166.625H836V162.598H834ZM834 170.653V174.681H836V170.653H834ZM834 178.709V182.737H836V178.709H834ZM834 186.764V190.792H836V186.764H834ZM834 194.82V198.848H836V194.82H834ZM834 202.875V206.903H836V202.875H834ZM834 210.931V214.959H836V210.931H834ZM834 218.987V223.014H836V218.987H834ZM834 227.042V231.07H836V227.042H834ZM834 235.098V239.126H836V235.098H834ZM834 243.153V247.181H836V243.153H834ZM834 251.209V255.237H836V251.209H834ZM834 259.264V263.292H836V259.264H834ZM834 267.32V271.348H836V267.32H834ZM834 275.376V279.403H836V275.376H834ZM834 283.431V287.459H836V283.431H834ZM834 291.487V295.515H836V291.487H834ZM834 299.542V303.57H836V299.542H834ZM834 307.598V309.612H836V307.598H834ZM343 77.4925C343 77.3715 343.037 77.2421 343.132 77.1038L341.484 75.9713C341.184 76.4072 341 76.9259 341 77.4925H343ZM344.236 76.4356C344.469 76.3767 344.726 76.3433 345 76.3433V74.3433C344.564 74.3433 344.142 74.3964 343.746 74.4966L344.236 76.4356ZM345 76.3433C345.274 76.3433 345.531 76.3767 345.764 76.4356L346.254 74.4966C345.858 74.3964 345.436 74.3433 345 74.3433V76.3433ZM346.868 77.1038C346.963 77.2421 347 77.3715 347 77.4925H349C349 76.9259 348.816 76.4072 348.516 75.9713L346.868 77.1038ZM347 77.4925C347 77.6135 346.963 77.7429 346.868 77.8813L348.516 79.0137C348.816 78.5779 349 78.0592 349 77.4925H347ZM345.764 78.5494C345.531 78.6084 345.274 78.6418 345 78.6418V80.6418C345.436 80.6418 345.858 80.5887 346.254 80.4884L345.764 78.5494ZM345 78.6418C344.726 78.6418 344.469 78.6084 344.236 78.5494L343.746 80.4884C344.142 80.5887 344.564 80.6418 345 80.6418V78.6418ZM343.132 77.8813C343.037 77.7429 343 77.6135 343 77.4925H341C341 78.0592 341.184 78.5779 341.484 79.0137L343.132 77.8813Z" fill="#808080"/>
<path d="M572.286 146.156C572.286 145.604 571.838 145.156 571.286 145.156C570.733 145.156 570.286 145.604 570.286 146.156H572.286ZM588.293 310.707C588.683 311.098 589.317 311.098 589.707 310.707L596.071 304.343C596.462 303.953 596.462 303.319 596.071 302.929C595.681 302.538 595.047 302.538 594.657 302.929L589 308.586L583.343 302.929C582.953 302.538 582.319 302.538 581.929 302.929C581.538 303.319 581.538 303.953 581.929 304.343L588.293 310.707ZM580.143 227.078C579.591 227.078 579.143 227.526 579.143 228.078C579.143 228.63 579.591 229.078 580.143 229.078V227.078ZM580.143 229.078C580.695 229.078 581.143 228.63 581.143 228.078C581.143 227.526 580.695 227.078 580.143 227.078V229.078ZM570.286 146.156V148.185H572.286V146.156H570.286ZM570.286 152.245V156.304H572.286V152.245H570.286ZM570.286 160.363V164.422H572.286V160.363H570.286ZM570.286 168.481V172.54H572.286V168.481H570.286ZM570.286 176.6V180.659H572.286V176.6H570.286ZM570.286 184.718V188.777H572.286V184.718H570.286ZM570.286 192.836V196.895H572.286V192.836H570.286ZM570.286 200.955V205.014H572.286V200.955H570.286ZM570.286 209.073V213.132H572.286V209.073H570.286ZM570.286 217.191V219.221H572.286V217.191H570.286ZM570.286 219.221C570.286 219.878 570.35 220.521 570.473 221.143L572.435 220.755C572.337 220.26 572.286 219.747 572.286 219.221H570.286ZM571.947 224.698C572.666 225.773 573.591 226.698 574.665 227.417L575.778 225.755C574.921 225.181 574.182 224.443 573.609 223.586L571.947 224.698ZM578.22 228.89C578.843 229.013 579.486 229.078 580.143 229.078V227.078C579.617 227.078 579.104 227.026 578.608 226.928L578.22 228.89ZM580.143 229.078C580.669 229.078 581.182 229.129 581.677 229.227L582.066 227.266C581.443 227.142 580.8 227.078 580.143 227.078V229.078ZM584.508 230.401C585.365 230.975 586.103 231.713 586.677 232.57L588.339 231.458C587.62 230.383 586.695 229.458 585.62 228.739L584.508 230.401ZM587.85 235.401C587.948 235.896 588 236.409 588 236.935H590C590 236.278 589.936 235.635 589.812 235.012L587.85 235.401ZM588 236.935V238.965H590V236.935H588ZM588 243.024V247.083H590V243.024H588ZM588 251.142V255.201H590V251.142H588ZM588 259.26V263.32H590V259.26H588ZM588 267.379V271.438H590V267.379H588ZM588 275.497V279.556H590V275.497H588ZM588 283.615V287.675H590V283.615H588ZM588 291.734V295.793H590V291.734H588ZM588 299.852V303.911H590V299.852H588ZM588 307.97V310H590V307.97H588ZM559 146.156C559 146.318 558.94 146.432 558.905 146.481C558.876 146.522 558.866 146.517 558.92 146.48C559.033 146.401 559.263 146.286 559.653 146.155L559.021 144.258C558.554 144.414 558.116 144.602 557.774 144.841C557.466 145.056 557 145.483 557 146.156H559ZM562.837 145.496C563.831 145.36 564.961 145.248 566.194 145.164L566.059 143.169C564.788 143.255 563.612 143.372 562.566 143.515L562.837 145.496ZM569.584 145.017C570.141 145.006 570.709 145 571.286 145V143C570.695 143 570.113 143.006 569.543 143.018L569.584 145.017ZM571.286 145C571.863 145 572.431 145.006 572.987 145.017L573.028 143.018C572.458 143.006 571.876 143 571.286 143V145ZM576.377 145.164C577.611 145.248 578.741 145.36 579.735 145.496L580.006 143.515C578.959 143.372 577.783 143.255 576.512 143.169L576.377 145.164ZM582.918 146.155C583.309 146.286 583.539 146.401 583.651 146.48C583.705 146.517 583.695 146.522 583.666 146.481C583.632 146.432 583.571 146.318 583.571 146.156H585.571C585.571 145.483 585.105 145.056 584.798 144.841C584.456 144.602 584.017 144.414 583.551 144.258L582.918 146.155ZM583.571 146.156C583.571 145.993 583.632 145.88 583.666 145.831C583.695 145.79 583.705 145.794 583.651 145.832C583.539 145.911 583.309 146.026 582.918 146.156L583.551 148.054C584.017 147.898 584.456 147.71 584.798 147.471C585.105 147.255 585.571 146.829 585.571 146.156H583.571ZM579.735 146.815C578.741 146.951 577.611 147.064 576.377 147.148L576.512 149.143C577.783 149.057 578.959 148.94 580.006 148.797L579.735 146.815ZM572.987 147.294C572.431 147.306 571.863 147.312 571.286 147.312V149.312C571.876 149.312 572.458 149.306 573.028 149.294L572.987 147.294ZM571.286 147.312C570.709 147.312 570.141 147.306 569.584 147.294L569.543 149.294C570.113 149.306 570.695 149.312 571.286 149.312V147.312ZM566.194 147.148C564.961 147.064 563.831 146.951 562.837 146.815L562.566 148.797C563.612 148.94 564.788 149.057 566.059 149.143L566.194 147.148ZM559.653 146.156C559.263 146.026 559.033 145.911 558.92 145.832C558.866 145.794 558.876 145.79 558.905 145.831C558.94 145.88 559 145.993 559 146.156H557C557 146.829 557.466 147.255 557.774 147.471C558.116 147.71 558.554 147.898 559.021 148.054L559.653 146.156Z" fill="#808080"/>
<path d="M479 88.9551V179.283C479 190.329 470.046 199.283 459 199.283H399C387.954 199.283 379 208.238 379 219.283V309.612" stroke="#808080" stroke-width="2" stroke-dasharray="4 4"/>
<path d="M665 89V179.5C665 190.546 673.954 199.5 685 199.5H769C780.046 199.5 789 208.454 789 219.5V310" stroke="#808080" stroke-width="2" stroke-dasharray="4 4"/>
<rect x="138.5" y="75" width="296" height="110" rx="40" fill="#808080"/>
<path d="M169.228 115.352C169.228 128.672 198.316 118.736 198.316 139.112C198.316 147.104 190.972 152.432 180.1 152.432C168.508 152.432 161.524 147.176 161.524 137.816H167.788C167.788 143.432 172.252 146.816 180.604 146.816C187.66 146.816 191.98 144.008 191.908 139.112C191.908 125.144 162.82 135.296 162.82 115.496C162.82 107.36 169.876 102.176 180.46 102.176C191.044 102.176 197.74 107.432 197.668 116.432H191.404C191.404 110.456 187.012 107.792 180.244 107.792C172.612 107.792 169.228 110.528 169.228 115.352ZM224.064 145.952L224.352 151.496C223.2 152 221.04 152.36 218.808 152.36C210.6 152.36 205.704 147.752 205.704 140.408V122.192H200.376V116.72H206.064V106.208H212.04V116.72H223.488V122.048H212.04V140.408C212.04 143.936 213.696 146.816 219.456 146.816C221.04 146.816 222.552 146.6 224.064 145.952ZM243.295 116.36C244.231 116.36 244.879 116.504 245.311 116.576L245.239 122.84C244.951 122.696 244.303 122.552 242.863 122.552C238.399 122.552 234.223 126.296 234.223 133.424V152H227.887V116.72H233.863L234.007 122.408C235.735 118.952 238.687 116.36 243.295 116.36ZM280.32 146.24L280.824 151.784C279.6 152.144 278.304 152.36 276.792 152.36C273.12 152.36 270.672 150.056 270.24 146.6C268.944 148.616 265.704 152.36 257.856 152.36C249.864 152.36 245.904 148.4 245.904 142.784C245.904 135.152 252.96 131.984 262.752 131.984H270.168V129.68C270.168 124.784 267.144 121.76 261.456 121.76C256.416 121.76 253.32 124.136 252.888 128.384H246.696C247.272 120.752 253.248 116.36 261.888 116.36C271.176 116.36 276.504 121.328 276.504 129.824V144.224C276.504 145.736 277.368 146.6 278.52 146.6C279.168 146.6 279.6 146.528 280.32 146.24ZM259.152 147.248C266.28 147.248 270.168 142.28 270.168 139.04V136.592H262.392C255.768 136.592 252.384 138.608 252.384 142.496C252.384 145.448 254.4 147.248 259.152 147.248ZM304.088 145.952L304.376 151.496C303.224 152 301.064 152.36 298.832 152.36C290.624 152.36 285.728 147.752 285.728 140.408V122.192H280.4V116.72H286.088V106.208H292.064V116.72H303.512V122.048H292.064V140.408C292.064 143.936 293.72 146.816 299.48 146.816C301.064 146.816 302.576 146.6 304.088 145.952ZM338.092 134.432V136.016H311.74C312.244 142.712 316.06 146.96 322.252 146.96C328.444 146.96 330.82 143.72 331.468 140.84H337.876C336.508 147.248 331.612 152.36 322.18 152.36C311.164 152.36 305.188 144.8 305.188 134.432C305.188 123.848 312.172 116.36 322.036 116.36C331.9 116.36 338.092 123.056 338.092 134.432ZM322.108 121.76C316.708 121.76 312.892 125.432 311.884 131.336H331.684C330.892 125 327.436 121.76 322.108 121.76ZM369.554 116.72H375.53V152.72C375.53 160.928 369.554 167.12 358.538 167.12C348.962 167.12 343.49 163.232 342.626 155.816H348.962C349.754 160.064 352.778 161.72 358.466 161.72C365.882 161.72 369.194 157.616 369.194 152.72V146.6C367.106 149.984 363.434 152.36 357.746 152.36C348.026 152.36 341.402 145.16 341.402 134.288C341.402 123.56 348.026 116.36 357.746 116.36C363.506 116.36 367.178 118.808 369.266 122.264L369.554 116.72ZM358.178 146.96C365.738 146.96 369.194 140.408 369.194 135.08V133.64C369.194 128.312 365.738 121.76 358.178 121.76C351.986 121.76 347.882 126.8 347.882 134.288C347.882 141.92 351.986 146.96 358.178 146.96ZM406.623 116.72H413.103L399.711 152L398.199 155.96C395.103 164.168 391.719 166.76 385.743 166.76C383.727 166.76 381.639 166.4 380.487 165.896L380.991 160.28C382.215 160.784 383.079 161 384.375 161C387.687 161 390.207 160.28 392.223 155.384L393.087 153.368L379.191 116.72H386.319L395.247 141.776C395.751 143.072 396.039 144.08 396.399 145.52H396.543C396.831 144.08 397.119 143.072 397.551 141.776L406.623 116.72Z" fill="black"/>
<rect x="439.5" y="75" width="250" height="110" rx="40" fill="#808080"/>
<path d="M484.052 102.608C497.732 102.608 507.236 111.752 507.236 127.304C507.236 142.856 497.732 152 484.052 152H466.052V102.608H484.052ZM484.052 146.456C493.988 146.456 500.828 139.4 500.828 127.304C500.828 115.208 493.988 108.224 484.052 108.224H472.388V146.456H484.052ZM543.878 134.432V136.016H517.526C518.03 142.712 521.846 146.96 528.038 146.96C534.23 146.96 536.606 143.72 537.254 140.84H543.662C542.294 147.248 537.398 152.36 527.966 152.36C516.95 152.36 510.974 144.8 510.974 134.432C510.974 123.848 517.958 116.36 527.822 116.36C537.686 116.36 543.878 123.056 543.878 134.432ZM527.894 121.76C522.494 121.76 518.678 125.432 517.67 131.336H537.47C536.678 125 533.222 121.76 527.894 121.76ZM554.1 126.296C554.1 134.36 575.052 128.24 575.052 142.424C575.052 148.256 570.012 152.36 560.94 152.36C551.22 152.36 547.044 148.472 546.9 141.632L552.732 141.704C553.092 145.088 555.252 146.96 561.012 146.96C566.484 146.96 568.788 145.088 568.788 142.424C568.788 134.216 547.836 140.048 547.836 126.296C547.836 120.464 552.804 116.36 561.372 116.36C569.868 116.36 574.26 120.248 574.548 127.088L568.644 127.016C568.356 123.56 565.692 121.76 561.228 121.76C556.404 121.76 554.1 123.488 554.1 126.296ZM588.205 105.2C588.205 107.72 586.261 109.52 583.813 109.52C581.365 109.52 579.421 107.72 579.421 105.2C579.421 102.752 581.365 100.88 583.813 100.88C586.261 100.88 588.205 102.752 588.205 105.2ZM580.429 152V116.72H586.837V152H580.429ZM620.486 116.72H626.462V152.72C626.462 160.928 620.486 167.12 609.47 167.12C599.894 167.12 594.422 163.232 593.558 155.816H599.894C600.686 160.064 603.71 161.72 609.398 161.72C616.814 161.72 620.126 157.616 620.126 152.72V146.6C618.038 149.984 614.366 152.36 608.678 152.36C598.958 152.36 592.334 145.16 592.334 134.288C592.334 123.56 598.958 116.36 608.678 116.36C614.438 116.36 618.11 118.808 620.198 122.264L620.486 116.72ZM609.11 146.96C616.67 146.96 620.126 140.408 620.126 135.08V133.64C620.126 128.312 616.67 121.76 609.11 121.76C602.918 121.76 598.814 126.8 598.814 134.288C598.814 141.92 602.918 146.96 609.11 146.96ZM651.651 116.36C659.427 116.36 664.395 121.112 664.395 129.752V152H657.987V131.048C657.987 125.072 655.179 121.76 649.923 121.76C644.235 121.76 640.419 125.504 640.419 131.48V152H634.083V116.72H640.059L640.347 121.976C642.579 118.736 646.323 116.36 651.651 116.36Z" fill="black"/>
<rect x="694.5" y="75" width="447" height="110" rx="40" fill="#808080"/>
<path d="M739.052 102.608C752.732 102.608 762.236 111.752 762.236 127.304C762.236 142.856 752.732 152 739.052 152H721.052V102.608H739.052ZM739.052 146.456C748.988 146.456 755.828 139.4 755.828 127.304C755.828 115.208 748.988 108.224 739.052 108.224H727.388V146.456H739.052ZM798.878 134.432V136.016H772.526C773.03 142.712 776.846 146.96 783.038 146.96C789.23 146.96 791.606 143.72 792.254 140.84H798.662C797.294 147.248 792.398 152.36 782.966 152.36C771.95 152.36 765.974 144.8 765.974 134.432C765.974 123.848 772.958 116.36 782.822 116.36C792.686 116.36 798.878 123.056 798.878 134.432ZM782.894 121.76C777.494 121.76 773.678 125.432 772.67 131.336H792.47C791.678 125 788.222 121.76 782.894 121.76ZM827.048 116.72H833.528L819.992 152H813.08L799.328 116.72H806.456L815.528 141.776C816.032 143.072 816.32 144.08 816.68 145.52H816.824C817.112 144.08 817.4 143.072 817.832 141.776L827.048 116.72ZM866.876 134.432V136.016H840.524C841.028 142.712 844.844 146.96 851.036 146.96C857.228 146.96 859.604 143.72 860.252 140.84H866.66C865.292 147.248 860.396 152.36 850.964 152.36C839.948 152.36 833.972 144.8 833.972 134.432C833.972 123.848 840.956 116.36 850.82 116.36C860.684 116.36 866.876 123.056 866.876 134.432ZM850.892 121.76C845.492 121.76 841.676 125.432 840.668 131.336H860.468C859.676 125 856.22 121.76 850.892 121.76ZM882.281 146.24L882.785 151.784C881.561 152.144 880.265 152.36 878.753 152.36C874.649 152.36 872.129 149.552 872.129 145.448V100.88H878.465V144.224C878.465 145.736 879.401 146.6 880.625 146.6C881.201 146.6 881.561 146.528 882.281 146.24ZM902.378 116.36C912.962 116.36 919.874 123.56 919.874 134.288C919.874 144.944 912.962 152.36 902.378 152.36C891.938 152.36 884.954 145.376 884.954 134.72C884.954 123.992 891.938 116.36 902.378 116.36ZM902.378 121.76C895.826 121.76 891.434 127.016 891.434 134.504C891.434 141.92 895.826 146.96 902.378 146.96C909.074 146.96 913.394 141.92 913.394 134.504C913.394 127.016 909.074 121.76 902.378 121.76ZM943.727 116.36C953.303 116.36 959.783 123.2 959.783 133.928C959.783 144.8 953.159 152.36 943.295 152.36C937.535 152.36 933.791 149.984 931.703 146.6V166.4H925.367V116.72H931.559L931.703 122.624C933.935 119.024 937.967 116.36 943.727 116.36ZM942.863 146.96C949.199 146.96 953.303 141.704 953.303 134.072C953.303 126.584 949.343 121.76 943.007 121.76C935.303 121.76 931.703 128.312 931.703 133.496V135.08C931.703 140.408 935.159 146.96 942.863 146.96ZM1005.77 116.36C1013.62 116.36 1018.44 121.472 1018.44 129.536V152H1012.03V130.832C1012.03 124.928 1009.01 121.76 1004.04 121.76C998.643 121.76 995.043 125.36 995.043 131.48V152H988.635V130.832C988.635 124.928 985.611 121.76 980.643 121.76C975.243 121.76 971.643 125.36 971.643 131.48V152H965.307V116.72H971.283L971.571 121.832C973.731 118.664 977.331 116.36 982.371 116.36C988.059 116.36 992.091 119.024 993.963 123.56C995.907 119.456 999.867 116.36 1005.77 116.36ZM1056.45 134.432V136.016H1030.1C1030.6 142.712 1034.42 146.96 1040.61 146.96C1046.8 146.96 1049.18 143.72 1049.83 140.84H1056.24C1054.87 147.248 1049.97 152.36 1040.54 152.36C1029.52 152.36 1023.55 144.8 1023.55 134.432C1023.55 123.848 1030.53 116.36 1040.4 116.36C1050.26 116.36 1056.45 123.056 1056.45 134.432ZM1040.47 121.76C1035.07 121.76 1031.25 125.432 1030.24 131.336H1050.04C1049.25 125 1045.8 121.76 1040.47 121.76ZM1079.49 116.36C1087.27 116.36 1092.23 121.112 1092.23 129.752V152H1085.83V131.048C1085.83 125.072 1083.02 121.76 1077.76 121.76C1072.07 121.76 1068.26 125.504 1068.26 131.48V152H1061.92V116.72H1067.9L1068.19 121.976C1070.42 118.736 1074.16 116.36 1079.49 116.36ZM1119.07 145.952L1119.35 151.496C1118.2 152 1116.04 152.36 1113.81 152.36C1105.6 152.36 1100.71 147.752 1100.71 140.408V122.192H1095.38V116.72H1101.07V106.208H1107.04V116.72H1118.49V122.048H1107.04V140.408C1107.04 143.936 1108.7 146.816 1114.46 146.816C1116.04 146.816 1117.55 146.6 1119.07 145.952Z" fill="black"/>
<rect x="30" width="134" height="40" rx="16" fill="black"/>
<path d="M53.16 24.56C55.76 24.56 56.92 23.08 57.16 21.16H58.96C58.62 24.08 56.78 26.12 53.14 26.12C49.54 26.12 46.98 23.52 46.98 19.14C46.98 14.9 49.6 12.16 53.14 12.16C56.7 12.16 58.66 14.2 58.96 17.18H57.16C56.92 15.2 55.74 13.72 53.16 13.72C50.7 13.72 48.76 15.78 48.76 19.14C48.76 22.58 50.66 24.56 53.16 24.56ZM69.7295 24.4L69.8695 25.94C69.5295 26.04 69.1695 26.1 68.7495 26.1C67.7295 26.1 67.0495 25.46 66.9295 24.5C66.5695 25.06 65.6695 26.1 63.4895 26.1C61.2695 26.1 60.1695 25 60.1695 23.44C60.1695 21.32 62.1295 20.44 64.8495 20.44H66.9095V19.8C66.9095 18.44 66.0695 17.6 64.4895 17.6C63.0895 17.6 62.2295 18.26 62.1095 19.44H60.3895C60.5495 17.32 62.2095 16.1 64.6095 16.1C67.1895 16.1 68.6695 17.48 68.6695 19.84V23.84C68.6695 24.26 68.9095 24.5 69.2295 24.5C69.4095 24.5 69.5295 24.48 69.7295 24.4ZM63.8495 24.68C65.8295 24.68 66.9095 23.3 66.9095 22.4V21.72H64.7495C62.9095 21.72 61.9695 22.28 61.9695 23.36C61.9695 24.18 62.5295 24.68 63.8495 24.68ZM76.4475 16.1C79.1075 16.1 80.9075 18 80.9075 20.98C80.9075 24 79.0675 26.1 76.3275 26.1C74.7275 26.1 73.6875 25.44 73.1075 24.5V30H71.3475V16.2H73.0675L73.1075 17.84C73.7275 16.84 74.8475 16.1 76.4475 16.1ZM76.2075 24.6C77.9675 24.6 79.1075 23.14 79.1075 21.02C79.1075 18.94 78.0075 17.6 76.2475 17.6C74.1075 17.6 73.1075 19.42 73.1075 20.86V21.3C73.1075 22.78 74.0675 24.6 76.2075 24.6ZM91.742 24.4L91.882 25.94C91.542 26.04 91.182 26.1 90.762 26.1C89.742 26.1 89.062 25.46 88.942 24.5C88.582 25.06 87.682 26.1 85.502 26.1C83.282 26.1 82.182 25 82.182 23.44C82.182 21.32 84.142 20.44 86.862 20.44H88.922V19.8C88.922 18.44 88.082 17.6 86.502 17.6C85.102 17.6 84.242 18.26 84.122 19.44H82.402C82.562 17.32 84.222 16.1 86.622 16.1C89.202 16.1 90.682 17.48 90.682 19.84V23.84C90.682 24.26 90.922 24.5 91.242 24.5C91.422 24.5 91.542 24.48 91.742 24.4ZM85.862 24.68C87.842 24.68 88.922 23.3 88.922 22.4V21.72H86.762C84.922 21.72 83.982 22.28 83.982 23.36C83.982 24.18 84.542 24.68 85.862 24.68ZM98.46 16.1C101.12 16.1 102.92 18 102.92 20.98C102.92 24 101.08 26.1 98.34 26.1C96.74 26.1 95.7 25.44 95.12 24.5L95.08 26H93.36V11.8H95.12V17.84C95.74 16.84 96.86 16.1 98.46 16.1ZM98.22 24.6C99.98 24.6 101.12 23.14 101.12 21.02C101.12 18.94 100.02 17.6 98.26 17.6C96.12 17.6 95.12 19.42 95.12 20.86V21.3C95.12 22.78 96.08 24.6 98.22 24.6ZM107.015 13C107.015 13.7 106.475 14.2 105.795 14.2C105.115 14.2 104.575 13.7 104.575 13C104.575 12.32 105.115 11.8 105.795 11.8C106.475 11.8 107.015 12.32 107.015 13ZM104.855 26V16.2H106.635V26H104.855ZM111.922 24.4L112.062 25.94C111.722 26.04 111.362 26.1 110.942 26.1C109.802 26.1 109.102 25.32 109.102 24.18V11.8H110.862V23.84C110.862 24.26 111.122 24.5 111.462 24.5C111.622 24.5 111.722 24.48 111.922 24.4ZM115.922 13C115.922 13.7 115.382 14.2 114.702 14.2C114.022 14.2 113.482 13.7 113.482 13C113.482 12.32 114.022 11.8 114.702 11.8C115.382 11.8 115.922 12.32 115.922 13ZM113.762 26V16.2H115.542V26H113.762ZM123.629 24.32L123.709 25.86C123.389 26 122.789 26.1 122.169 26.1C119.889 26.1 118.529 24.82 118.529 22.78V17.72H117.049V16.2H118.629V13.28H120.289V16.2H123.469V17.68H120.289V22.78C120.289 23.76 120.749 24.56 122.349 24.56C122.789 24.56 123.209 24.5 123.629 24.32ZM127.25 13C127.25 13.7 126.71 14.2 126.03 14.2C125.35 14.2 124.81 13.7 124.81 13C124.81 12.32 125.35 11.8 126.03 11.8C126.71 11.8 127.25 12.32 127.25 13ZM125.09 26V16.2H126.87V26H125.09ZM137.938 21.12V21.56H130.618C130.758 23.42 131.818 24.6 133.538 24.6C135.258 24.6 135.918 23.7 136.098 22.9H137.878C137.498 24.68 136.138 26.1 133.518 26.1C130.458 26.1 128.798 24 128.798 21.12C128.798 18.18 130.738 16.1 133.478 16.1C136.218 16.1 137.938 17.96 137.938 21.12ZM133.498 17.6C131.998 17.6 130.938 18.62 130.658 20.26H136.158C135.938 18.5 134.978 17.6 133.498 17.6ZM141.177 18.86C141.177 21.1 146.997 19.4 146.997 23.34C146.997 24.96 145.597 26.1 143.077 26.1C140.377 26.1 139.217 25.02 139.177 23.12L140.797 23.14C140.897 24.08 141.497 24.6 143.097 24.6C144.617 24.6 145.257 24.08 145.257 23.34C145.257 21.06 139.437 22.68 139.437 18.86C139.437 17.24 140.817 16.1 143.197 16.1C145.557 16.1 146.777 17.18 146.857 19.08L145.217 19.06C145.137 18.1 144.397 17.6 143.157 17.6C141.817 17.6 141.177 18.08 141.177 18.86Z" fill="#808080"/>
<rect x="1102" y="444" width="148" height="40" rx="16" fill="black"/>
<path d="M1120.98 459.82C1120.98 463.52 1129.06 460.76 1129.06 466.42C1129.06 468.64 1127.02 470.12 1124 470.12C1120.78 470.12 1118.84 468.66 1118.84 466.06H1120.58C1120.58 467.62 1121.82 468.56 1124.14 468.56C1126.1 468.56 1127.3 467.78 1127.28 466.42C1127.28 462.54 1119.2 465.36 1119.2 459.86C1119.2 457.6 1121.16 456.16 1124.1 456.16C1127.04 456.16 1128.9 457.62 1128.88 460.12H1127.14C1127.14 458.46 1125.92 457.72 1124.04 457.72C1121.92 457.72 1120.98 458.48 1120.98 459.82ZM1139.59 465.12V465.56H1132.27C1132.41 467.42 1133.47 468.6 1135.19 468.6C1136.91 468.6 1137.57 467.7 1137.75 466.9H1139.53C1139.15 468.68 1137.79 470.1 1135.17 470.1C1132.11 470.1 1130.45 468 1130.45 465.12C1130.45 462.18 1132.39 460.1 1135.13 460.1C1137.87 460.1 1139.59 461.96 1139.59 465.12ZM1135.15 461.6C1133.65 461.6 1132.59 462.62 1132.31 464.26H1137.81C1137.59 462.5 1136.63 461.6 1135.15 461.6ZM1145.79 460.1C1146.05 460.1 1146.23 460.14 1146.35 460.16L1146.33 461.9C1146.25 461.86 1146.07 461.82 1145.67 461.82C1144.43 461.82 1143.27 462.86 1143.27 464.84V470H1141.51V460.2H1143.17L1143.21 461.78C1143.69 460.82 1144.51 460.1 1145.79 460.1ZM1154.33 460.2H1156.13L1152.37 470H1150.45L1146.63 460.2H1148.61L1151.13 467.16C1151.27 467.52 1151.35 467.8 1151.45 468.2H1151.49C1151.57 467.8 1151.65 467.52 1151.77 467.16L1154.33 460.2ZM1159.69 457C1159.69 457.7 1159.15 458.2 1158.47 458.2C1157.79 458.2 1157.25 457.7 1157.25 457C1157.25 456.32 1157.79 455.8 1158.47 455.8C1159.15 455.8 1159.69 456.32 1159.69 457ZM1157.53 470V460.2H1159.31V470H1157.53ZM1165.82 470.1C1162.84 470.1 1161.24 468.02 1161.24 465.14C1161.24 462.2 1163.14 460.1 1165.92 460.1C1168.48 460.1 1169.98 461.54 1170.24 463.78H1168.36C1168.16 462.56 1167.42 461.6 1165.94 461.6C1164.18 461.6 1163.04 462.98 1163.04 465.1C1163.04 467.2 1164.08 468.6 1165.9 468.6C1167.42 468.6 1168.16 467.64 1168.36 466.48H1170.24C1169.94 468.66 1168.42 470.1 1165.82 470.1ZM1180.58 465.12V465.56H1173.26C1173.4 467.42 1174.46 468.6 1176.18 468.6C1177.9 468.6 1178.56 467.7 1178.74 466.9H1180.52C1180.14 468.68 1178.78 470.1 1176.16 470.1C1173.1 470.1 1171.44 468 1171.44 465.12C1171.44 462.18 1173.38 460.1 1176.12 460.1C1178.86 460.1 1180.58 461.96 1180.58 465.12ZM1176.14 461.6C1174.64 461.6 1173.58 462.62 1173.3 464.26H1178.8C1178.58 462.5 1177.62 461.6 1176.14 461.6ZM1195.32 470L1194.06 466.52H1188L1186.74 470H1184.96L1190.02 456.28H1192.04L1197.1 470H1195.32ZM1188.58 464.96H1193.48L1191.04 458.24L1188.58 464.96ZM1202.7 460.1C1202.96 460.1 1203.14 460.14 1203.26 460.16L1203.24 461.9C1203.16 461.86 1202.98 461.82 1202.58 461.82C1201.34 461.82 1200.18 462.86 1200.18 464.84V470H1198.42V460.2H1200.08L1200.12 461.78C1200.6 460.82 1201.42 460.1 1202.7 460.1ZM1212.91 465.12V465.56H1205.59C1205.73 467.42 1206.79 468.6 1208.51 468.6C1210.23 468.6 1210.89 467.7 1211.07 466.9H1212.85C1212.47 468.68 1211.11 470.1 1208.49 470.1C1205.43 470.1 1203.77 468 1203.77 465.12C1203.77 462.18 1205.71 460.1 1208.45 460.1C1211.19 460.1 1212.91 461.96 1212.91 465.12ZM1208.47 461.6C1206.97 461.6 1205.91 462.62 1205.63 464.26H1211.13C1210.91 462.5 1209.95 461.6 1208.47 461.6ZM1223.73 468.4L1223.87 469.94C1223.53 470.04 1223.17 470.1 1222.75 470.1C1221.73 470.1 1221.05 469.46 1220.93 468.5C1220.57 469.06 1219.67 470.1 1217.49 470.1C1215.27 470.1 1214.17 469 1214.17 467.44C1214.17 465.32 1216.13 464.44 1218.85 464.44H1220.91V463.8C1220.91 462.44 1220.07 461.6 1218.49 461.6C1217.09 461.6 1216.23 462.26 1216.11 463.44H1214.39C1214.55 461.32 1216.21 460.1 1218.61 460.1C1221.19 460.1 1222.67 461.48 1222.67 463.84V467.84C1222.67 468.26 1222.91 468.5 1223.23 468.5C1223.41 468.5 1223.53 468.48 1223.73 468.4ZM1217.85 468.68C1219.83 468.68 1220.91 467.3 1220.91 466.4V465.72H1218.75C1216.91 465.72 1215.97 466.28 1215.97 467.36C1215.97 468.18 1216.53 468.68 1217.85 468.68ZM1226.66 462.86C1226.66 465.1 1232.48 463.4 1232.48 467.34C1232.48 468.96 1231.08 470.1 1228.56 470.1C1225.86 470.1 1224.7 469.02 1224.66 467.12L1226.28 467.14C1226.38 468.08 1226.98 468.6 1228.58 468.6C1230.1 468.6 1230.74 468.08 1230.74 467.34C1230.74 465.06 1224.92 466.68 1224.92 462.86C1224.92 461.24 1226.3 460.1 1228.68 460.1C1231.04 460.1 1232.26 461.18 1232.34 463.08L1230.7 463.06C1230.62 462.1 1229.88 461.6 1228.64 461.6C1227.3 461.6 1226.66 462.08 1226.66 462.86Z" fill="#808080"/>
<rect x="242.5" y="299" width="220" height="110" rx="40" fill="#808080"/>
<path d="M295.26 350.008C299.508 351.16 303.684 355.12 303.684 362.32C303.684 370.744 297.852 376 288.636 376H269.052V326.608H288.492C296.988 326.608 301.884 331.864 301.884 338.92C301.884 345.688 297.636 349 295.26 349.864V350.008ZM295.476 339.856C295.476 334.888 292.308 332.152 287.268 332.152H275.388V347.848H287.196C292.812 347.848 295.476 344.392 295.476 339.856ZM288.492 370.528C293.82 370.528 297.276 367.648 297.276 361.816C297.276 355.912 293.748 353.032 288.06 353.032H275.388V370.528H288.492ZM325.073 340.36C326.009 340.36 326.657 340.504 327.089 340.576L327.017 346.84C326.729 346.696 326.081 346.552 324.641 346.552C320.177 346.552 316.001 350.296 316.001 357.424V376H309.665V340.72H315.641L315.785 346.408C317.513 342.952 320.465 340.36 325.073 340.36ZM362.098 370.24L362.603 375.784C361.378 376.144 360.082 376.36 358.57 376.36C354.898 376.36 352.45 374.056 352.018 370.6C350.722 372.616 347.482 376.36 339.634 376.36C331.642 376.36 327.682 372.4 327.682 366.784C327.682 359.152 334.738 355.984 344.53 355.984H351.946V353.68C351.946 348.784 348.922 345.76 343.234 345.76C338.194 345.76 335.098 348.136 334.666 352.384H328.474C329.05 344.752 335.026 340.36 343.666 340.36C352.955 340.36 358.283 345.328 358.283 353.824V368.224C358.283 369.736 359.146 370.6 360.299 370.6C360.947 370.6 361.378 370.528 362.098 370.24ZM340.93 371.248C348.058 371.248 351.946 366.28 351.946 363.04V360.592H344.17C337.546 360.592 334.162 362.608 334.162 366.496C334.162 369.448 336.178 371.248 340.93 371.248ZM384.051 340.36C391.827 340.36 396.795 345.112 396.795 353.752V376H390.387V355.048C390.387 349.072 387.579 345.76 382.323 345.76C376.635 345.76 372.819 349.504 372.819 355.48V376H366.483V340.72H372.459L372.747 345.976C374.979 342.736 378.723 340.36 384.051 340.36ZM429.953 324.88H436.289V376H430.097L429.953 370.096C427.721 373.696 423.689 376.36 417.929 376.36C408.353 376.36 401.873 369.52 401.873 358.792C401.873 347.92 408.497 340.36 418.361 340.36C424.121 340.36 427.865 342.736 429.953 346.12V324.88ZM418.649 370.96C426.353 370.96 429.953 364.408 429.953 359.224V357.64C429.953 352.312 426.497 345.76 418.793 345.76C412.457 345.76 408.353 351.016 408.353 358.648C408.353 366.136 412.313 370.96 418.649 370.96Z" fill="black"/>
<rect x="467.5" y="299" width="287" height="110" rx="40" fill="#808080"/>
<path d="M547.476 326.608H553.884L539.412 376H532.716L521.34 334.744L509.964 376H503.196L488.724 326.608H495.132L506.508 368.944L518.028 326.608H524.58L536.1 368.944L547.476 326.608ZM585.87 358.432V360.016H559.518C560.022 366.712 563.838 370.96 570.03 370.96C576.222 370.96 578.598 367.72 579.246 364.84H585.654C584.286 371.248 579.39 376.36 569.958 376.36C558.942 376.36 552.966 368.8 552.966 358.432C552.966 347.848 559.95 340.36 569.814 340.36C579.678 340.36 585.87 347.056 585.87 358.432ZM569.886 345.76C564.486 345.76 560.67 349.432 559.662 355.336H579.462C578.67 349 575.214 345.76 569.886 345.76ZM609.7 340.36C619.276 340.36 625.756 347.2 625.756 357.928C625.756 368.8 619.132 376.36 609.268 376.36C603.508 376.36 599.764 373.984 597.676 370.6L597.532 376H591.34V324.88H597.676V346.624C599.908 343.024 603.94 340.36 609.7 340.36ZM608.836 370.96C615.172 370.96 619.276 365.704 619.276 358.072C619.276 350.584 615.316 345.76 608.98 345.76C601.276 345.76 597.676 352.312 597.676 357.496V359.08C597.676 364.408 601.132 370.96 608.836 370.96ZM636.032 350.296C636.032 358.36 656.984 352.24 656.984 366.424C656.984 372.256 651.944 376.36 642.872 376.36C633.152 376.36 628.976 372.472 628.832 365.632L634.664 365.704C635.024 369.088 637.184 370.96 642.944 370.96C648.416 370.96 650.72 369.088 650.72 366.424C650.72 358.216 629.768 364.048 629.768 350.296C629.768 344.464 634.736 340.36 643.304 340.36C651.8 340.36 656.192 344.248 656.48 351.088L650.576 351.016C650.288 347.56 647.624 345.76 643.16 345.76C638.336 345.76 636.032 347.488 636.032 350.296ZM670.137 329.2C670.137 331.72 668.193 333.52 665.745 333.52C663.297 333.52 661.353 331.72 661.353 329.2C661.353 326.752 663.297 324.88 665.745 324.88C668.193 324.88 670.137 326.752 670.137 329.2ZM662.361 376V340.72H668.769V376H662.361ZM696.442 369.952L696.73 375.496C695.578 376 693.418 376.36 691.186 376.36C682.978 376.36 678.082 371.752 678.082 364.408V346.192H672.754V340.72H678.442V330.208H684.418V340.72H695.866V346.048H684.418V364.408C684.418 367.936 686.074 370.816 691.834 370.816C693.418 370.816 694.93 370.6 696.442 369.952ZM730.447 358.432V360.016H704.095C704.599 366.712 708.415 370.96 714.607 370.96C720.799 370.96 723.175 367.72 723.823 364.84H730.231C728.863 371.248 723.967 376.36 714.535 376.36C703.519 376.36 697.543 368.8 697.543 358.432C697.543 347.848 704.527 340.36 714.391 340.36C724.255 340.36 730.447 347.056 730.447 358.432ZM714.463 345.76C709.063 345.76 705.247 349.432 704.239 355.336H724.039C723.247 349 719.791 345.76 714.463 345.76Z" fill="black"/>
<rect x="759.5" y="299" width="278" height="110" rx="40" fill="#808080"/>
<path d="M804.772 326.608C813.988 326.608 820.756 331.648 820.756 340.936C820.756 350.224 813.988 355.552 804.772 355.552H792.388V376H786.052V326.608H804.772ZM804.772 350.008C811.108 350.008 814.348 346.048 814.348 341.08C814.348 336.112 811.108 332.152 804.772 332.152H792.388V350.008H804.772ZM840.596 340.36C841.532 340.36 842.181 340.504 842.613 340.576L842.54 346.84C842.252 346.696 841.605 346.552 840.165 346.552C835.7 346.552 831.524 350.296 831.524 357.424V376H825.188V340.72H831.164L831.308 346.408C833.036 342.952 835.988 340.36 840.596 340.36ZM860.424 340.36C871.008 340.36 877.92 347.56 877.92 358.288C877.92 368.944 871.008 376.36 860.424 376.36C849.984 376.36 843 369.376 843 358.72C843 347.992 849.984 340.36 860.424 340.36ZM860.424 345.76C853.872 345.76 849.48 351.016 849.48 358.504C849.48 365.92 853.872 370.96 860.424 370.96C867.12 370.96 871.44 365.92 871.44 358.504C871.44 351.016 867.12 345.76 860.424 345.76ZM909.333 324.88H915.669V376H909.477L909.333 370.096C907.101 373.696 903.069 376.36 897.309 376.36C887.733 376.36 881.253 369.52 881.253 358.792C881.253 347.92 887.877 340.36 897.741 340.36C903.501 340.36 907.245 342.736 909.333 346.12V324.88ZM898.029 370.96C905.733 370.96 909.333 364.408 909.333 359.224V357.64C909.333 352.312 905.877 345.76 898.173 345.76C891.837 345.76 887.733 351.016 887.733 358.648C887.733 366.136 891.693 370.96 898.029 370.96ZM946.179 340.72H952.515V376H946.539L946.251 370.816C944.091 374.056 940.419 376.36 935.379 376.36C927.675 376.36 922.923 371.464 922.923 363.76V340.72H929.331V362.824C929.331 368.008 932.139 370.96 937.251 370.96C942.363 370.96 946.179 367.36 946.179 361.24V340.72ZM974.457 376.36C963.729 376.36 957.969 368.872 957.969 358.504C957.969 347.92 964.809 340.36 974.817 340.36C984.033 340.36 989.433 345.544 990.369 353.608H983.601C982.881 349.216 980.217 345.76 974.889 345.76C968.553 345.76 964.449 350.728 964.449 358.36C964.449 365.92 968.193 370.96 974.745 370.96C980.217 370.96 982.881 367.504 983.601 363.328H990.369C989.289 371.176 983.817 376.36 974.457 376.36ZM1015.09 369.952L1015.38 375.496C1014.23 376 1012.07 376.36 1009.84 376.36C1001.63 376.36 996.734 371.752 996.734 364.408V346.192H991.406V340.72H997.094V330.208H1003.07V340.72H1014.52V346.048H1003.07V364.408C1003.07 367.936 1004.73 370.816 1010.49 370.816C1012.07 370.816 1013.58 370.6 1015.09 369.952Z" fill="black"/>
</svg>
