<?xml version="1.0" encoding="UTF-8"?><svg xmlns="http://www.w3.org/2000/svg" viewBox="0 0 254.66 75.11"><g id="a"/><g id="b"><g id="c"><g><circle cx="36.31" cy="38.53" r="35.98" style="fill:#fff;"/><g><g><path d="M96.38,68.2v-.04c0-3.8,2.84-6.95,6.8-6.95,2.44,0,3.89,.86,5.24,2.13l-1.04,1.11c-1.13-1.07-2.4-1.84-4.22-1.84-2.97,0-5.2,2.42-5.2,5.51v.04c0,3.11,2.25,5.55,5.2,5.55,1.84,0,3.05-.71,4.34-1.94l1,.98c-1.4,1.42-2.94,2.36-5.37,2.36-3.88,0-6.74-3.05-6.74-6.91Z" style="fill:#004d34;"/><path d="M110.67,68.2v-.04c0-3.71,2.78-6.95,6.87-6.95s6.84,3.21,6.84,6.91t0,.04c0,3.7-2.78,6.95-6.87,6.95s-6.83-3.21-6.83-6.91Zm12.13,0v-.04c0-3.05-2.23-5.55-5.3-5.55s-5.26,2.46-5.26,5.51v.04c0,3.05,2.23,5.55,5.3,5.55s5.26-2.46,5.26-5.51Z" style="fill:#004d34;"/><path d="M127.33,61.44h1.42l8.46,10.77v-10.77h1.48v13.44h-1.21l-8.68-11.02v11.02h-1.48v-13.44Z" style="fill:#004d34;"/><path d="M141.61,72.92l.94-1.11c1.4,1.27,2.75,1.9,4.61,1.9s3-.96,3-2.29v-.04c0-1.25-.67-1.96-3.49-2.55-3.09-.67-4.51-1.67-4.51-3.88v-.04c0-2.11,1.86-3.67,4.41-3.67,1.96,0,3.36,.56,4.72,1.65l-.88,1.17c-1.25-1.02-2.5-1.46-3.88-1.46-1.75,0-2.86,.96-2.86,2.17v.04c0,1.27,.69,1.98,3.65,2.61,3,.65,4.38,1.75,4.38,3.8v.04c0,2.3-1.92,3.8-4.59,3.8-2.13,0-3.88-.71-5.49-2.15Z" style="fill:#004d34;"/><path d="M158.04,62.85h-4.51v-1.4h10.56v1.4h-4.51v12.04h-1.53v-12.04Z" style="fill:#004d34;"/><path d="M166.99,61.44h5.78c1.65,0,2.98,.5,3.82,1.34,.65,.65,1.04,1.59,1.04,2.65v.04c0,2.23-1.53,3.53-3.65,3.91l4.13,5.49h-1.86l-3.9-5.22h-3.84v5.22h-1.52v-13.44Zm5.64,6.85c2.02,0,3.45-1.04,3.45-2.76v-.04c0-1.65-1.27-2.65-3.44-2.65h-4.15v5.45h4.13Z" style="fill:#004d34;"/><path d="M180.59,69.26v-7.81h1.52v7.72c0,2.9,1.54,4.53,4.11,4.53s4.05-1.49,4.05-4.43v-7.81h1.52v7.7c0,3.92-2.25,5.95-5.6,5.95s-5.58-2.04-5.58-5.84Z" style="fill:#004d34;"/><path d="M194.52,68.2v-.04c0-3.8,2.84-6.95,6.79-6.95,2.44,0,3.9,.86,5.24,2.13l-1.04,1.11c-1.13-1.07-2.4-1.84-4.22-1.84-2.98,0-5.2,2.42-5.2,5.51v.04c0,3.11,2.25,5.55,5.2,5.55,1.84,0,3.05-.71,4.34-1.94l1,.98c-1.4,1.42-2.94,2.36-5.38,2.36-3.88,0-6.74-3.05-6.74-6.91Z" style="fill:#004d34;"/><path d="M213.09,62.85h-4.51v-1.4h10.56v1.4h-4.51v12.04h-1.53v-12.04Z" style="fill:#004d34;"/><path d="M222.24,61.44h1.52v13.44h-1.52v-13.44Z" style="fill:#004d34;"/><path d="M226.71,68.2v-.04c0-3.71,2.78-6.95,6.87-6.95s6.83,3.21,6.83,6.91t0,.04c0,3.7-2.78,6.95-6.87,6.95s-6.83-3.21-6.83-6.91Zm12.13,0v-.04c0-3.05-2.23-5.55-5.3-5.55s-5.26,2.46-5.26,5.51v.04c0,3.05,2.23,5.55,5.3,5.55s5.26-2.46,5.26-5.51Z" style="fill:#004d34;"/><path d="M243.3,61.44h1.42l8.46,10.77v-10.77h1.48v13.44h-1.21l-8.68-11.02v11.02h-1.48v-13.44Z" style="fill:#004d34;"/></g><g><path d="M137.6,36.59V13.9h6.93v22.41c0,7.32,3.77,11.26,9.97,11.26s9.91-3.72,9.91-10.98V13.9h6.93v22.35c0,11.77-6.64,17.68-16.95,17.68s-16.78-5.91-16.78-17.34Z" style="fill:#004d34;"/><path d="M178.39,33.72v-.11c0-11.2,8.39-20.38,20.33-20.38,7.26,0,11.65,2.53,15.43,6.14l-4.45,5.12c-3.15-2.93-6.53-4.9-11.04-4.9-7.54,0-13.01,6.2-13.01,13.91v.11c0,7.71,5.46,14.02,13.01,14.02,4.84,0,7.94-1.97,11.32-5.12l4.45,4.51c-4.11,4.28-8.61,6.98-15.99,6.98-11.48,0-20.04-8.95-20.04-20.27Z" style="fill:#004d34;"/><path d="M222.01,13.9h6.93V30.28h18.8V13.9h6.93V53.31h-6.93v-16.61h-18.8v16.61h-6.93V13.9Z" style="fill:#004d34;"/><path d="M130.01,24.82v-.11c0-7.04-5.8-10.81-14.58-10.81h-18.24V53.31h18.24c8.78,0,14.58-3.77,14.58-10.81v-.11c0-4.55-2.32-7.14-5.85-8.78,3.53-1.64,5.85-4.24,5.85-8.78Zm-26.01-4.78h11.49c4.85-.11,7.6,1.62,7.6,5.16v.11c0,3.32-2.88,5.34-8.11,5.2h-10.98v-10.47Zm19.09,21.73c0,3.55-2.87,5.41-7.6,5.41h-11.49v-10.81h10.98c5.46,0,8.11,1.97,8.11,5.29v.11Z" style="fill:#004d34;"/></g></g><path d="M37.55,0C16.82,0,0,16.82,0,37.56c0,12.56,6.17,23.68,15.65,30.5v-14.67l28.18-13.74c3.12-1.49,6.5-1.39,8.8,.57,3.42,2.92,3.15,8.86-.61,13.28-1.22,1.43-2.66,2.53-4.17,3.26l-28.27,13.79c5.34,2.92,11.46,4.58,17.98,4.58,20.75,0,37.56-16.81,37.56-37.56S58.3,0,37.55,0Zm14.46,28.89c-1.22,1.43-2.66,2.53-4.17,3.26L15.65,47.85V28.78l28.18-13.74c3.12-1.49,6.5-1.39,8.8,.57,3.42,2.92,3.15,8.86-.61,13.28Z" style="fill:#66b361;"/></g></g></g></svg>