<?xml version="1.0" encoding="UTF-8"?>
<svg xmlns="http://www.w3.org/2000/svg" xmlns:xlink="http://www.w3.org/1999/xlink" width="150px" height="48px" viewBox="0 0 150 48" version="1.1">
<g id="surface1">
<path style=" stroke:none;fill-rule:nonzero;fill:rgb(0%,0%,0%);fill-opacity:1;" d="M 17.890625 16.011719 L 20.601562 17.539062 C 19.984375 19.871094 18.753906 21.683594 16.90625 22.96875 C 15.058594 24.25 12.929688 24.886719 10.507812 24.886719 C 7.351562 24.886719 4.804688 23.855469 2.894531 21.789062 C 0.992188 19.722656 0.0273438 17.1875 0.0273438 14.148438 C 0.0273438 10.832031 0.992188 8.164062 2.894531 6.183594 C 4.828125 4.199219 7.332031 3.230469 10.425781 3.230469 C 13.152344 3.230469 15.449219 3.972656 17.316406 5.480469 L 17.316406 3.5625 L 20.027344 3.5625 L 20.027344 10.316406 L 17.316406 10.316406 C 16.726562 8.953125 15.796875 7.878906 14.550781 7.136719 C 13.296875 6.394531 11.984375 6 10.609375 6 C 8.539062 6 6.816406 6.765625 5.480469 8.265625 C 4.148438 9.773438 3.46875 11.695312 3.46875 13.988281 C 3.46875 16.359375 4.1875 18.28125 5.628906 19.789062 C 7.066406 21.296875 8.742188 22.039062 10.714844 22.039062 C 12.332031 22.039062 13.789062 21.523438 15.101562 20.46875 C 16.417969 19.441406 17.339844 17.949219 17.890625 16.011719 Z M 3.863281 47.433594 L 3.863281 39.816406 L 6.46875 39.816406 L 6.46875 41.671875 C 7.722656 43.960938 9.359375 45.097656 11.371094 45.097656 C 12.398438 45.097656 13.28125 44.785156 13.976562 44.148438 C 14.695312 43.511719 15.042969 42.6875 15.042969 41.652344 C 15.042969 40.660156 14.753906 39.9375 14.179688 39.507812 C 13.605469 39.070312 12.496094 38.636719 10.902344 38.203125 C 9.03125 37.707031 7.640625 37.234375 6.734375 36.78125 C 5.832031 36.328125 5.109375 35.683594 4.578125 34.859375 C 4.042969 34.035156 3.777344 33.042969 3.777344 31.90625 C 3.777344 30.15625 4.351562 28.726562 5.523438 27.695312 C 6.695312 26.644531 8.152344 26.128906 9.914062 26.128906 C 11.574219 26.128906 13.132812 26.664062 14.566406 27.757812 L 14.566406 26.355469 L 17.113281 26.355469 L 17.113281 32.738281 L 14.566406 32.738281 L 14.566406 31.269531 C 13.503906 29.640625 12.027344 28.832031 10.140625 28.832031 C 8.992188 28.832031 8.128906 29.097656 7.511719 29.617188 C 6.898438 30.15625 6.589844 30.769531 6.589844 31.511719 C 6.589844 32.070312 6.757812 32.570312 7.066406 33.003906 C 7.375 33.433594 7.761719 33.746094 8.253906 33.949219 C 8.726562 34.15625 9.6875 34.425781 11.082031 34.796875 C 12.929688 35.273438 14.257812 35.722656 15.082031 36.140625 C 15.902344 36.554688 16.621094 37.257812 17.234375 38.226562 C 17.828125 39.195312 18.136719 40.332031 18.136719 41.589844 C 18.136719 43.386719 17.503906 44.875 16.25 46.027344 C 15.003906 47.207031 13.441406 47.785156 11.597656 47.785156 C 9.6875 47.785156 7.988281 47.101562 6.46875 45.714844 L 6.46875 47.453125 Z M 24.929688 28.972656 L 24.929688 39.484375 C 24.929688 41.113281 25.007812 42.25 25.171875 42.871094 C 25.339844 43.488281 25.746094 44.027344 26.40625 44.460938 C 27.0625 44.890625 27.921875 45.117188 28.949219 45.117188 C 30.179688 45.117188 31.148438 44.929688 31.804688 44.558594 C 32.457031 44.1875 32.910156 43.671875 33.113281 43.035156 C 33.316406 42.394531 33.445312 41.257812 33.445312 39.652344 L 33.445312 28.972656 L 31.019531 28.972656 L 31.019531 26.355469 L 39.207031 26.355469 L 39.207031 28.972656 L 36.601562 28.972656 L 36.601562 39.960938 C 36.601562 41.445312 36.535156 42.519531 36.414062 43.179688 C 36.292969 43.839844 35.945312 44.542969 35.410156 45.285156 C 34.855469 46.003906 34.078125 46.609375 33.089844 47.042969 C 32.085938 47.472656 30.875 47.699219 29.441406 47.699219 C 27.863281 47.699219 26.546875 47.496094 25.503906 47.082031 C 24.457031 46.671875 23.65625 46.132812 23.125 45.449219 C 22.589844 44.769531 22.242188 44.027344 22.058594 43.261719 C 21.871094 42.476562 21.789062 41.28125 21.789062 39.652344 L 21.789062 28.972656 L 19.207031 28.972656 L 19.207031 26.355469 L 27.410156 26.355469 L 27.410156 28.972656 Z M 24.929688 28.972656 "/>
<path style=" stroke:none;fill-rule:nonzero;fill:rgb(10.980392%,45.882353%,73.72549%);fill-opacity:1;" d="M 34.179688 6.226562 L 26.628906 13.492188 C 25.460938 14.625 24.703125 15.449219 24.378906 16.011719 C 24.046875 16.570312 23.941406 17.230469 24.085938 18.011719 C 24.230469 18.796875 24.660156 19.5625 25.382812 20.328125 C 26.238281 21.234375 27.023438 21.789062 27.757812 22.015625 C 28.480469 22.242188 29.152344 22.203125 29.765625 21.910156 C 30.382812 21.628906 31.269531 20.925781 32.433594 19.8125 L 40.105469 12.4375 L 38.445312 10.6875 L 40.332031 8.871094 L 45.976562 14.8125 L 44.089844 16.632812 L 42.28125 14.730469 L 34.382812 22.304688 C 33.316406 23.339844 32.5 24.023438 31.949219 24.394531 C 31.375 24.765625 30.632812 24.992188 29.726562 25.113281 C 28.828125 25.21875 27.863281 25.050781 26.855469 24.636719 C 25.851562 24.207031 24.847656 23.484375 23.859375 22.433594 C 22.777344 21.273438 22.015625 20.183594 21.585938 19.125 C 21.15625 18.078125 20.988281 17.125 21.132812 16.277344 C 21.257812 15.40625 21.546875 14.664062 21.976562 13.988281 C 22.40625 13.324219 23.207031 12.4375 24.394531 11.300781 L 32.070312 3.933594 L 30.28125 2.054688 L 32.167969 0.238281 L 37.765625 6.207031 L 35.882812 8.015625 Z M 56.253906 16.09375 L 56.253906 18.136719 L 55.304688 18.136719 C 55.265625 17.746094 55.101562 17.457031 54.835938 17.246094 C 54.566406 17.042969 54.261719 16.941406 53.910156 16.941406 C 53.441406 16.941406 53.054688 17.101562 52.761719 17.433594 C 52.480469 17.761719 52.335938 18.214844 52.335938 18.753906 C 52.335938 19.273438 52.480469 19.707031 52.746094 20.09375 C 53.03125 20.488281 53.417969 20.675781 53.953125 20.675781 C 54.6875 20.675781 55.222656 20.328125 55.554688 19.625 L 56.417969 20.039062 C 55.941406 21.109375 55.101562 21.644531 53.910156 21.644531 C 53.070312 21.644531 52.390625 21.355469 51.921875 20.78125 C 51.429688 20.199219 51.203125 19.519531 51.203125 18.753906 C 51.203125 17.949219 51.46875 17.269531 52.003906 16.730469 C 52.539062 16.195312 53.152344 15.929688 53.832031 15.929688 C 54.421875 15.929688 54.914062 16.117188 55.328125 16.464844 L 55.328125 16.09375 Z M 57.113281 18.773438 C 57.113281 17.949219 57.382812 17.269531 57.933594 16.730469 C 58.464844 16.195312 59.144531 15.929688 59.921875 15.929688 C 60.683594 15.929688 61.359375 16.195312 61.894531 16.714844 C 62.445312 17.230469 62.710938 17.933594 62.710938 18.773438 C 62.710938 19.625 62.445312 20.304688 61.894531 20.839844 C 61.335938 21.378906 60.683594 21.628906 59.90625 21.628906 C 59.105469 21.628906 58.449219 21.355469 57.914062 20.820312 C 57.382812 20.304688 57.113281 19.625 57.113281 18.773438 Z M 58.222656 18.773438 C 58.222656 19.3125 58.386719 19.746094 58.714844 20.078125 C 59.039062 20.425781 59.453125 20.59375 59.921875 20.59375 C 60.398438 20.59375 60.804688 20.425781 61.132812 20.078125 C 61.460938 19.722656 61.628906 19.296875 61.628906 18.773438 C 61.628906 18.238281 61.460938 17.804688 61.132812 17.472656 C 60.804688 17.125 60.398438 16.964844 59.921875 16.964844 C 59.429688 16.964844 59.023438 17.125 58.714844 17.472656 C 58.386719 17.828125 58.222656 18.261719 58.222656 18.773438 Z M 65.359375 21.5625 L 63.617188 17.019531 L 62.671875 17.019531 L 62.671875 16.074219 L 65.359375 16.074219 L 65.359375 17.019531 L 64.660156 17.019531 L 65.8125 20.078125 L 66.960938 17.019531 L 66.222656 17.019531 L 66.222656 16.074219 L 68.828125 16.074219 L 68.828125 17.019531 L 68.003906 17.019531 L 66.304688 21.5625 Z M 74.589844 19.046875 L 70.097656 19.046875 C 70.160156 19.539062 70.363281 19.957031 70.671875 20.265625 C 71.003906 20.570312 71.410156 20.714844 71.902344 20.714844 C 72.640625 20.714844 73.214844 20.425781 73.648438 19.828125 L 74.570312 20.242188 C 74.261719 20.714844 73.875 21.070312 73.398438 21.296875 C 72.929688 21.523438 72.417969 21.644531 71.882812 21.644531 C 71.0625 21.644531 70.363281 21.394531 69.789062 20.882812 C 69.214844 20.367188 68.933594 19.667969 68.933594 18.796875 C 68.933594 17.972656 69.214844 17.289062 69.773438 16.753906 C 70.324219 16.21875 70.980469 15.949219 71.714844 15.949219 C 72.4375 15.949219 73.089844 16.21875 73.664062 16.730469 C 74.261719 17.246094 74.570312 18.011719 74.589844 19.046875 Z M 73.503906 18.28125 C 73.421875 17.910156 73.238281 17.558594 72.929688 17.246094 C 72.621094 16.941406 72.234375 16.792969 71.757812 16.792969 C 71.351562 16.792969 70.980469 16.941406 70.695312 17.207031 C 70.40625 17.472656 70.21875 17.84375 70.136719 18.28125 Z M 77.296875 16.09375 L 77.296875 16.753906 C 77.976562 16.261719 78.589844 16.011719 79.140625 16.011719 C 79.492188 16.011719 79.78125 16.09375 80.007812 16.261719 C 80.226562 16.421875 80.371094 16.632812 80.453125 16.859375 C 80.515625 17.101562 80.558594 17.457031 80.558594 17.910156 L 80.558594 20.554688 L 81.460938 20.554688 L 81.460938 21.5 L 79.511719 21.5 L 79.511719 17.949219 C 79.511719 17.539062 79.449219 17.269531 79.328125 17.148438 C 79.207031 17.019531 79.0625 16.964844 78.875 16.964844 C 78.40625 16.964844 77.890625 17.1875 77.296875 17.640625 L 77.296875 20.53125 L 78.21875 20.53125 L 78.21875 21.480469 L 75.308594 21.480469 L 75.308594 20.53125 L 76.253906 20.53125 L 76.253906 17.019531 L 75.308594 17.019531 L 75.308594 16.074219 L 77.296875 16.074219 Z M 81.8125 17.019531 L 81.8125 16.074219 L 82.507812 16.074219 L 82.507812 15.246094 L 83.558594 14.277344 L 83.558594 16.074219 L 84.539062 16.074219 L 84.539062 17.019531 L 83.558594 17.019531 L 83.558594 19.644531 C 83.558594 20.054688 83.574219 20.328125 83.613281 20.425781 C 83.65625 20.53125 83.777344 20.570312 83.964844 20.570312 C 84.171875 20.570312 84.351562 20.53125 84.539062 20.46875 L 84.539062 21.441406 C 84.269531 21.539062 84.003906 21.582031 83.738281 21.582031 C 83.410156 21.582031 83.164062 21.523438 82.960938 21.378906 C 82.757812 21.234375 82.632812 21.046875 82.589844 20.839844 C 82.546875 20.636719 82.507812 20.265625 82.507812 19.722656 L 82.507812 17.042969 L 81.8125 17.042969 Z M 86.203125 20.53125 L 86.203125 17.019531 L 85.136719 17.019531 L 85.136719 16.074219 L 87.042969 16.074219 L 87.042969 17.289062 C 87.164062 16.980469 87.328125 16.714844 87.53125 16.503906 C 87.738281 16.300781 87.964844 16.15625 88.191406 16.09375 C 88.414062 16.035156 88.742188 15.988281 89.15625 15.988281 L 89.421875 15.988281 L 89.421875 17.0625 L 89.214844 17.0625 C 88.679688 17.0625 88.289062 17.125 88.023438 17.230469 C 87.757812 17.335938 87.570312 17.539062 87.449219 17.828125 C 87.328125 18.117188 87.265625 18.609375 87.265625 19.351562 L 87.265625 20.554688 L 88.4375 20.554688 L 88.4375 21.5 L 85.152344 21.5 L 85.152344 20.554688 Z M 92.496094 21.394531 L 90.75 17.042969 L 89.867188 17.042969 L 89.867188 16.09375 L 92.515625 16.09375 L 92.515625 17.042969 L 91.882812 17.042969 L 93.03125 20.039062 L 94.160156 17.042969 L 93.460938 17.042969 L 93.460938 16.09375 L 96.046875 16.09375 L 96.046875 17.042969 L 95.246094 17.042969 L 92.601562 23.917969 L 90.835938 23.917969 L 90.835938 22.992188 L 91.882812 22.992188 Z M 105.171875 20.53125 L 105.171875 21.480469 L 103.207031 21.480469 L 103.207031 20.863281 C 102.589844 21.335938 101.992188 21.5625 101.441406 21.5625 C 101.09375 21.5625 100.785156 21.480469 100.5625 21.3125 C 100.335938 21.152344 100.167969 20.941406 100.085938 20.699219 C 100.003906 20.449219 99.964844 20.039062 99.964844 19.480469 L 99.964844 17.003906 L 99.203125 17.003906 L 99.203125 16.050781 L 101.007812 16.050781 L 101.007812 19.335938 C 101.007812 19.722656 101.03125 19.996094 101.046875 20.140625 C 101.070312 20.28125 101.136719 20.386719 101.234375 20.46875 C 101.339844 20.554688 101.484375 20.59375 101.644531 20.59375 C 102.140625 20.59375 102.648438 20.367188 103.207031 19.894531 L 103.207031 17.019531 L 102.261719 17.019531 L 102.261719 16.074219 L 104.25 16.074219 L 104.25 20.53125 Z M 107.574219 16.09375 L 107.574219 16.753906 C 108.253906 16.261719 108.867188 16.011719 109.417969 16.011719 C 109.765625 16.011719 110.058594 16.09375 110.285156 16.261719 C 110.511719 16.421875 110.648438 16.632812 110.730469 16.859375 C 110.792969 17.101562 110.835938 17.457031 110.835938 17.910156 L 110.835938 20.554688 L 111.738281 20.554688 L 111.738281 21.5 L 109.765625 21.5 L 109.765625 17.949219 C 109.765625 17.539062 109.710938 17.269531 109.585938 17.148438 C 109.460938 17.019531 109.320312 16.964844 109.136719 16.964844 C 108.660156 16.964844 108.148438 17.1875 107.558594 17.640625 L 107.558594 20.53125 L 108.480469 20.53125 L 108.480469 21.480469 L 105.5625 21.480469 L 105.5625 20.53125 L 106.507812 20.53125 L 106.507812 17.019531 L 105.5625 17.019531 L 105.5625 16.074219 L 107.574219 16.074219 Z M 112.945312 20.53125 L 112.945312 17.019531 L 112.128906 17.019531 L 112.128906 16.074219 L 113.996094 16.074219 L 113.996094 20.53125 L 114.816406 20.53125 L 114.816406 21.480469 L 112.105469 21.480469 L 112.105469 20.53125 Z M 112.808594 14.253906 C 112.808594 14.089844 112.867188 13.921875 112.988281 13.800781 C 113.113281 13.679688 113.253906 13.617188 113.441406 13.617188 C 113.601562 13.617188 113.769531 13.679688 113.890625 13.800781 C 114.015625 13.921875 114.078125 14.066406 114.078125 14.253906 C 114.078125 14.4375 114.015625 14.585938 113.890625 14.707031 C 113.769531 14.832031 113.625 14.890625 113.441406 14.890625 C 113.253906 14.890625 113.113281 14.832031 112.988281 14.707031 C 112.867188 14.566406 112.808594 14.421875 112.808594 14.253906 Z M 117.476562 21.5625 L 115.738281 17.019531 L 114.792969 17.019531 L 114.792969 16.074219 L 117.476562 16.074219 L 117.476562 17.019531 L 116.78125 17.019531 L 117.929688 20.078125 L 119.085938 17.019531 L 118.34375 17.019531 L 118.34375 16.074219 L 120.945312 16.074219 L 120.945312 17.019531 L 120.128906 17.019531 L 118.421875 21.5625 Z M 126.714844 19.046875 L 122.222656 19.046875 C 122.28125 19.539062 122.488281 19.957031 122.796875 20.265625 C 123.121094 20.570312 123.535156 20.714844 124.027344 20.714844 C 124.765625 20.714844 125.339844 20.425781 125.769531 19.828125 L 126.691406 20.242188 C 126.382812 20.714844 125.992188 21.070312 125.523438 21.296875 C 125.046875 21.523438 124.539062 21.644531 124.003906 21.644531 C 123.1875 21.644531 122.488281 21.394531 121.914062 20.882812 C 121.339844 20.367188 121.050781 19.667969 121.050781 18.796875 C 121.050781 17.972656 121.339844 17.289062 121.890625 16.753906 C 122.445312 16.21875 123.105469 15.949219 123.839844 15.949219 C 124.5625 15.949219 125.214844 16.21875 125.789062 16.730469 C 126.382812 17.246094 126.691406 18.011719 126.714844 19.046875 Z M 125.621094 18.28125 C 125.542969 17.910156 125.355469 17.558594 125.03125 17.246094 C 124.722656 16.941406 124.335938 16.792969 123.859375 16.792969 C 123.453125 16.792969 123.082031 16.941406 122.796875 17.207031 C 122.507812 17.472656 122.320312 17.84375 122.242188 18.28125 Z M 128.453125 20.53125 L 128.453125 17.019531 L 127.386719 17.019531 L 127.386719 16.074219 L 129.296875 16.074219 L 129.296875 17.289062 C 129.417969 16.980469 129.585938 16.714844 129.789062 16.503906 C 129.992188 16.300781 130.21875 16.15625 130.445312 16.09375 C 130.667969 16.035156 131 15.988281 131.40625 15.988281 L 131.679688 15.988281 L 131.679688 17.0625 L 131.46875 17.0625 C 130.9375 17.0625 130.546875 17.125 130.28125 17.230469 C 130.015625 17.335938 129.828125 17.539062 129.707031 17.828125 C 129.585938 18.117188 129.519531 18.609375 129.519531 19.351562 L 129.519531 20.554688 L 130.691406 20.554688 L 130.691406 21.5 L 127.410156 21.5 L 127.410156 20.554688 Z M 132.292969 21.480469 L 132.292969 19.625 L 133.234375 19.625 L 133.234375 19.8125 C 133.273438 20.054688 133.402344 20.265625 133.644531 20.425781 C 133.894531 20.59375 134.15625 20.675781 134.488281 20.675781 C 134.816406 20.675781 135.101562 20.613281 135.289062 20.488281 C 135.492188 20.367188 135.59375 20.199219 135.59375 19.996094 C 135.59375 19.789062 135.515625 19.644531 135.347656 19.539062 C 135.183594 19.441406 134.859375 19.351562 134.34375 19.273438 C 133.605469 19.148438 133.09375 18.941406 132.765625 18.652344 C 132.457031 18.359375 132.292969 18.011719 132.292969 17.558594 C 132.292969 17.101562 132.457031 16.730469 132.804688 16.421875 C 133.152344 16.117188 133.605469 15.972656 134.15625 15.972656 C 134.671875 15.972656 135.101562 16.074219 135.449219 16.277344 L 135.449219 16.050781 L 136.371094 16.050781 L 136.371094 17.84375 L 135.449219 17.84375 L 135.449219 17.519531 C 135.164062 17.085938 134.753906 16.859375 134.21875 16.859375 C 133.953125 16.859375 133.726562 16.917969 133.542969 17.042969 C 133.363281 17.164062 133.273438 17.335938 133.273438 17.519531 C 133.273438 17.722656 133.363281 17.867188 133.523438 17.933594 C 133.6875 18.011719 134.035156 18.09375 134.570312 18.175781 C 135.085938 18.261719 135.472656 18.359375 135.742188 18.464844 C 136.007812 18.570312 136.226562 18.753906 136.394531 19.003906 C 136.558594 19.253906 136.664062 19.5625 136.664062 19.894531 C 136.664062 20.386719 136.476562 20.796875 136.089844 21.085938 C 135.699219 21.378906 135.207031 21.523438 134.609375 21.523438 C 134.035156 21.523438 133.582031 21.394531 133.214844 21.128906 L 133.214844 21.441406 Z M 138.199219 20.53125 L 138.199219 17.019531 L 137.375 17.019531 L 137.375 16.074219 L 139.246094 16.074219 L 139.246094 20.53125 L 140.066406 20.53125 L 140.066406 21.480469 L 137.359375 21.480469 L 137.359375 20.53125 Z M 138.054688 14.253906 C 138.054688 14.089844 138.117188 13.921875 138.242188 13.800781 C 138.363281 13.679688 138.507812 13.617188 138.691406 13.617188 C 138.855469 13.617188 139.019531 13.679688 139.140625 13.800781 C 139.265625 13.921875 139.324219 14.066406 139.324219 14.253906 C 139.324219 14.4375 139.265625 14.585938 139.140625 14.707031 C 139.019531 14.832031 138.878906 14.890625 138.691406 14.890625 C 138.507812 14.890625 138.363281 14.832031 138.242188 14.707031 C 138.117188 14.566406 138.054688 14.421875 138.054688 14.253906 Z M 140.640625 17.019531 L 140.640625 16.074219 L 141.339844 16.074219 L 141.339844 15.246094 L 142.382812 14.277344 L 142.382812 16.074219 L 143.367188 16.074219 L 143.367188 17.019531 L 142.382812 17.019531 L 142.382812 19.644531 C 142.382812 20.054688 142.40625 20.328125 142.445312 20.425781 C 142.488281 20.53125 142.609375 20.570312 142.792969 20.570312 C 142.996094 20.570312 143.183594 20.53125 143.367188 20.46875 L 143.367188 21.441406 C 143.101562 21.539062 142.835938 21.582031 142.570312 21.582031 C 142.238281 21.582031 141.992188 21.523438 141.785156 21.378906 C 141.582031 21.234375 141.460938 21.046875 141.417969 20.839844 C 141.355469 20.636719 141.339844 20.265625 141.339844 19.722656 L 141.339844 17.042969 L 140.640625 17.042969 Z M 146.445312 21.394531 L 144.703125 17.042969 L 143.816406 17.042969 L 143.816406 16.09375 L 146.46875 16.09375 L 146.46875 17.042969 L 145.828125 17.042969 L 146.976562 20.039062 L 148.109375 17.042969 L 147.414062 17.042969 L 147.414062 16.09375 L 149.972656 16.09375 L 149.972656 17.042969 L 149.175781 17.042969 L 146.53125 23.917969 L 144.765625 23.917969 L 144.765625 22.992188 L 145.8125 22.992188 Z M 146.445312 21.394531 "/>
<path style=" stroke:none;fill-rule:nonzero;fill:rgb(10.980392%,45.882353%,73.72549%);fill-opacity:1;" d="M 51.265625 34.117188 L 51.265625 32.253906 L 52.210938 32.253906 L 52.210938 32.441406 C 52.253906 32.691406 52.375 32.898438 52.617188 33.0625 C 52.867188 33.230469 53.132812 33.3125 53.460938 33.3125 C 53.789062 33.3125 54.074219 33.246094 54.261719 33.125 C 54.464844 33.003906 54.566406 32.835938 54.566406 32.632812 C 54.566406 32.421875 54.488281 32.277344 54.324219 32.175781 C 54.15625 32.070312 53.832031 31.988281 53.316406 31.90625 C 52.578125 31.78125 52.066406 31.578125 51.738281 31.285156 C 51.429688 30.996094 51.265625 30.648438 51.265625 30.195312 C 51.265625 29.738281 51.429688 29.367188 51.777344 29.058594 C 52.125 28.746094 52.578125 28.601562 53.132812 28.601562 C 53.644531 28.601562 54.074219 28.703125 54.421875 28.914062 L 54.421875 28.6875 L 55.34375 28.6875 L 55.34375 30.480469 L 54.421875 30.480469 L 54.421875 30.171875 C 54.136719 29.738281 53.726562 29.511719 53.191406 29.511719 C 52.925781 29.511719 52.699219 29.574219 52.519531 29.695312 C 52.335938 29.824219 52.253906 29.988281 52.253906 30.171875 C 52.253906 30.382812 52.335938 30.527344 52.496094 30.585938 C 52.660156 30.664062 53.007812 30.753906 53.539062 30.835938 C 54.058594 30.914062 54.445312 31.019531 54.710938 31.125 C 54.980469 31.222656 55.207031 31.410156 55.367188 31.65625 C 55.554688 31.90625 55.636719 32.214844 55.636719 32.550781 C 55.636719 33.042969 55.449219 33.457031 55.0625 33.746094 C 54.671875 34.035156 54.179688 34.175781 53.582031 34.175781 C 53.007812 34.175781 52.558594 34.054688 52.1875 33.785156 L 52.1875 34.09375 Z M 56.3125 29.65625 L 56.3125 28.703125 L 57.011719 28.703125 L 57.011719 27.882812 L 58.058594 26.914062 L 58.058594 28.703125 L 59.039062 28.703125 L 59.039062 29.65625 L 58.058594 29.65625 L 58.058594 32.277344 C 58.058594 32.691406 58.078125 32.964844 58.117188 33.0625 C 58.160156 33.167969 58.28125 33.207031 58.464844 33.207031 C 58.675781 33.207031 58.855469 33.167969 59.039062 33.109375 L 59.039062 34.078125 C 58.773438 34.175781 58.507812 34.222656 58.238281 34.222656 C 57.914062 34.222656 57.664062 34.15625 57.460938 34.011719 C 57.257812 33.867188 57.136719 33.683594 57.089844 33.480469 C 57.050781 33.269531 57.011719 32.898438 57.011719 32.359375 L 57.011719 29.679688 Z M 65.625 33.167969 L 65.625 34.117188 L 63.660156 34.117188 L 63.660156 33.496094 C 63.042969 33.972656 62.445312 34.199219 61.894531 34.199219 C 61.546875 34.199219 61.238281 34.117188 61.011719 33.972656 C 60.785156 33.804688 60.617188 33.601562 60.539062 33.351562 C 60.457031 33.109375 60.414062 32.691406 60.414062 32.132812 L 60.414062 29.65625 L 59.65625 29.65625 L 59.65625 28.703125 L 61.460938 28.703125 L 61.460938 31.988281 C 61.460938 32.382812 61.484375 32.648438 61.5 32.792969 C 61.523438 32.941406 61.585938 33.042969 61.6875 33.148438 C 61.789062 33.230469 61.933594 33.269531 62.097656 33.269531 C 62.589844 33.269531 63.101562 33.042969 63.660156 32.570312 L 63.660156 29.640625 L 62.710938 29.640625 L 62.710938 28.6875 L 64.703125 28.6875 L 64.703125 33.148438 L 65.625 33.148438 Z M 72.742188 33.167969 L 72.742188 34.117188 L 70.734375 34.117188 L 70.734375 33.335938 C 70.21875 33.910156 69.585938 34.222656 68.828125 34.222656 C 68.125 34.222656 67.511719 33.972656 67 33.496094 C 66.464844 33.019531 66.222656 32.335938 66.222656 31.453125 C 66.222656 30.566406 66.484375 29.863281 67.015625 29.347656 C 67.550781 28.832031 68.164062 28.582031 68.851562 28.582031 C 69.5625 28.582031 70.203125 28.875 70.734375 29.453125 L 70.734375 27.285156 L 69.710938 27.285156 L 69.710938 26.332031 L 71.78125 26.332031 L 71.78125 33.148438 Z M 67.347656 31.410156 C 67.347656 32.011719 67.511719 32.464844 67.839844 32.777344 C 68.164062 33.085938 68.578125 33.246094 69.03125 33.246094 C 69.484375 33.246094 69.871094 33.085938 70.21875 32.753906 C 70.566406 32.421875 70.734375 31.949219 70.734375 31.351562 C 70.734375 30.753906 70.550781 30.292969 70.203125 29.988281 C 69.855469 29.679688 69.441406 29.535156 69.011719 29.535156 C 68.539062 29.535156 68.125 29.71875 67.816406 30.066406 C 67.511719 30.441406 67.347656 30.875 67.347656 31.410156 Z M 78.835938 31.679688 L 74.34375 31.679688 C 74.402344 32.175781 74.609375 32.59375 74.917969 32.898438 C 75.242188 33.207031 75.65625 33.351562 76.148438 33.351562 C 76.886719 33.351562 77.460938 33.0625 77.890625 32.464844 L 78.816406 32.875 C 78.503906 33.351562 78.117188 33.707031 77.644531 33.933594 C 77.175781 34.15625 76.660156 34.28125 76.125 34.28125 C 75.308594 34.28125 74.609375 34.035156 74.035156 33.519531 C 73.460938 33.003906 73.171875 32.296875 73.171875 31.429688 C 73.171875 30.609375 73.460938 29.921875 74.015625 29.390625 C 74.570312 28.851562 75.226562 28.582031 75.964844 28.582031 C 76.683594 28.582031 77.339844 28.851562 77.914062 29.367188 C 78.503906 29.863281 78.816406 30.648438 78.835938 31.679688 Z M 77.75 30.898438 C 77.667969 30.527344 77.484375 30.171875 77.175781 29.863281 C 76.867188 29.550781 76.480469 29.414062 76.003906 29.414062 C 75.597656 29.414062 75.226562 29.550781 74.9375 29.824219 C 74.652344 30.089844 74.464844 30.460938 74.386719 30.898438 Z M 81.542969 28.703125 L 81.542969 29.367188 C 82.222656 28.875 82.835938 28.625 83.390625 28.625 C 83.738281 28.625 84.027344 28.703125 84.253906 28.875 C 84.480469 29.035156 84.617188 29.246094 84.707031 29.46875 C 84.765625 29.71875 84.804688 30.066406 84.804688 30.527344 L 84.804688 33.167969 L 85.710938 33.167969 L 85.710938 34.117188 L 83.761719 34.117188 L 83.761719 30.585938 C 83.761719 30.171875 83.695312 29.90625 83.574219 29.785156 C 83.453125 29.65625 83.308594 29.597656 83.121094 29.597656 C 82.652344 29.597656 82.140625 29.824219 81.542969 30.277344 L 81.542969 33.167969 L 82.464844 33.167969 L 82.464844 34.117188 L 79.554688 34.117188 L 79.554688 33.167969 L 80.492188 33.167969 L 80.492188 29.65625 L 79.554688 29.65625 L 79.554688 28.703125 Z M 86.058594 29.65625 L 86.058594 28.703125 L 86.753906 28.703125 L 86.753906 27.882812 L 87.796875 26.914062 L 87.796875 28.703125 L 88.785156 28.703125 L 88.785156 29.65625 L 87.796875 29.65625 L 87.796875 32.277344 C 87.796875 32.691406 87.820312 32.964844 87.863281 33.0625 C 87.902344 33.167969 88.023438 33.207031 88.210938 33.207031 C 88.394531 33.207031 88.597656 33.167969 88.785156 33.109375 L 88.785156 34.078125 C 88.515625 34.175781 88.25 34.222656 87.984375 34.222656 C 87.660156 34.222656 87.410156 34.15625 87.207031 34.011719 C 86.996094 33.867188 86.875 33.683594 86.835938 33.480469 C 86.792969 33.269531 86.753906 32.898438 86.753906 32.359375 L 86.753906 29.679688 Z M 89.585938 34.117188 L 89.585938 32.253906 L 90.53125 32.253906 L 90.53125 32.441406 C 90.570312 32.691406 90.691406 32.898438 90.9375 33.0625 C 91.1875 33.230469 91.453125 33.3125 91.777344 33.3125 C 92.109375 33.3125 92.390625 33.246094 92.578125 33.125 C 92.78125 33.003906 92.886719 32.835938 92.886719 32.632812 C 92.886719 32.421875 92.804688 32.277344 92.640625 32.175781 C 92.472656 32.070312 92.148438 31.988281 91.632812 31.90625 C 90.894531 31.78125 90.386719 31.578125 90.054688 31.285156 C 89.746094 30.996094 89.585938 30.648438 89.585938 30.195312 C 89.585938 29.738281 89.746094 29.367188 90.09375 29.058594 C 90.441406 28.746094 90.894531 28.601562 91.453125 28.601562 C 91.964844 28.601562 92.390625 28.703125 92.742188 28.914062 L 92.742188 28.6875 L 93.664062 28.6875 L 93.664062 30.480469 L 92.742188 30.480469 L 92.742188 30.171875 C 92.457031 29.738281 92.042969 29.511719 91.511719 29.511719 C 91.242188 29.511719 91.015625 29.574219 90.835938 29.695312 C 90.652344 29.824219 90.570312 29.988281 90.570312 30.171875 C 90.570312 30.382812 90.652344 30.527344 90.816406 30.585938 C 90.976562 30.664062 91.324219 30.753906 91.859375 30.835938 C 92.375 30.914062 92.765625 31.019531 93.03125 31.125 C 93.296875 31.222656 93.523438 31.410156 93.6875 31.65625 C 93.871094 31.90625 93.953125 32.214844 93.953125 32.550781 C 93.953125 33.042969 93.765625 33.457031 93.378906 33.746094 C 92.988281 34.035156 92.496094 34.175781 91.898438 34.175781 C 91.324219 34.175781 90.878906 34.054688 90.507812 33.785156 L 90.507812 34.09375 Z M 95.269531 27.71875 L 95.269531 26.355469 L 96.621094 26.355469 L 96.621094 27.550781 C 96.621094 27.960938 96.582031 28.277344 96.515625 28.5 C 96.460938 28.726562 96.3125 28.914062 96.109375 29.035156 C 95.902344 29.179688 95.617188 29.269531 95.246094 29.269531 L 95.246094 28.6875 C 95.675781 28.625 95.902344 28.332031 95.902344 27.859375 L 95.902344 27.71875 Z M 105.746094 33.167969 L 105.746094 34.117188 L 103.78125 34.117188 L 103.78125 33.496094 C 103.164062 33.972656 102.566406 34.199219 102.015625 34.199219 C 101.667969 34.199219 101.355469 34.117188 101.136719 33.972656 C 100.910156 33.804688 100.742188 33.601562 100.660156 33.351562 C 100.578125 33.109375 100.539062 32.691406 100.539062 32.132812 L 100.539062 29.65625 L 99.777344 29.65625 L 99.777344 28.703125 L 101.582031 28.703125 L 101.582031 31.988281 C 101.582031 32.382812 101.605469 32.648438 101.621094 32.792969 C 101.644531 32.941406 101.710938 33.042969 101.808594 33.148438 C 101.914062 33.230469 102.058594 33.269531 102.21875 33.269531 C 102.714844 33.269531 103.222656 33.042969 103.78125 32.570312 L 103.78125 29.640625 L 102.835938 29.640625 L 102.835938 28.6875 L 104.824219 28.6875 L 104.824219 33.148438 L 105.746094 33.148438 Z M 108.148438 28.703125 L 108.148438 29.367188 C 108.828125 28.875 109.441406 28.625 109.992188 28.625 C 110.34375 28.625 110.632812 28.703125 110.859375 28.875 C 111.085938 29.035156 111.222656 29.246094 111.304688 29.46875 C 111.367188 29.71875 111.410156 30.066406 111.410156 30.527344 L 111.410156 33.167969 L 112.3125 33.167969 L 112.3125 34.117188 L 110.363281 34.117188 L 110.363281 30.585938 C 110.363281 30.171875 110.300781 29.90625 110.179688 29.785156 C 110.058594 29.65625 109.914062 29.597656 109.726562 29.597656 C 109.257812 29.597656 108.746094 29.824219 108.148438 30.277344 L 108.148438 33.167969 L 109.070312 33.167969 L 109.070312 34.117188 L 106.160156 34.117188 L 106.160156 33.167969 L 107.105469 33.167969 L 107.105469 29.65625 L 106.160156 29.65625 L 106.160156 28.703125 Z M 113.519531 33.167969 L 113.519531 29.65625 L 112.703125 29.65625 L 112.703125 28.703125 L 114.570312 28.703125 L 114.570312 33.167969 L 115.390625 33.167969 L 115.390625 34.117188 L 112.679688 34.117188 L 112.679688 33.167969 Z M 113.375 26.871094 C 113.375 26.703125 113.441406 26.539062 113.5625 26.417969 C 113.6875 26.292969 113.828125 26.234375 114.015625 26.234375 C 114.175781 26.234375 114.34375 26.292969 114.464844 26.417969 C 114.589844 26.539062 114.652344 26.6875 114.652344 26.871094 C 114.652344 27.058594 114.589844 27.203125 114.464844 27.324219 C 114.34375 27.445312 114.199219 27.511719 114.015625 27.511719 C 113.828125 27.511719 113.6875 27.445312 113.5625 27.324219 C 113.441406 27.203125 113.375 27.058594 113.375 26.871094 Z M 116.066406 31.410156 C 116.066406 30.585938 116.335938 29.90625 116.886719 29.367188 C 117.4375 28.832031 118.097656 28.558594 118.875 28.558594 C 119.636719 28.558594 120.3125 28.832031 120.847656 29.347656 C 121.398438 29.863281 121.667969 30.566406 121.667969 31.410156 C 121.667969 32.253906 121.398438 32.941406 120.847656 33.480469 C 120.292969 34.011719 119.636719 34.261719 118.851562 34.261719 C 118.050781 34.261719 117.394531 33.988281 116.863281 33.457031 C 116.335938 32.921875 116.066406 32.238281 116.066406 31.410156 Z M 117.171875 31.410156 C 117.171875 31.949219 117.339844 32.382812 117.664062 32.714844 C 117.992188 33.0625 118.40625 33.230469 118.875 33.230469 C 119.351562 33.230469 119.757812 33.0625 120.089844 32.714844 C 120.417969 32.359375 120.582031 31.925781 120.582031 31.410156 C 120.582031 30.875 120.417969 30.441406 120.089844 30.109375 C 119.757812 29.761719 119.351562 29.597656 118.875 29.597656 C 118.382812 29.597656 117.96875 29.761719 117.664062 30.109375 C 117.316406 30.460938 117.171875 30.898438 117.171875 31.410156 Z M 124.394531 28.703125 L 124.394531 29.367188 C 125.070312 28.875 125.6875 28.625 126.238281 28.625 C 126.589844 28.625 126.875 28.703125 127.101562 28.875 C 127.328125 29.035156 127.472656 29.246094 127.554688 29.46875 C 127.613281 29.71875 127.652344 30.066406 127.652344 30.527344 L 127.652344 33.167969 L 128.558594 33.167969 L 128.558594 34.117188 L 126.589844 34.117188 L 126.589844 30.585938 C 126.589844 30.171875 126.527344 29.90625 126.40625 29.785156 C 126.285156 29.65625 126.140625 29.597656 125.953125 29.597656 C 125.484375 29.597656 124.96875 29.824219 124.375 30.277344 L 124.375 33.167969 L 125.296875 33.167969 L 125.296875 34.117188 L 122.386719 34.117188 L 122.386719 33.167969 L 123.324219 33.167969 L 123.324219 29.65625 L 122.386719 29.65625 L 122.386719 28.703125 Z M 124.394531 28.703125 "/>
</g>
</svg>
