<svg width="249" height="52" viewBox="0 0 249 52" fill="none" xmlns="http://www.w3.org/2000/svg">
<path d="M0.310879 39L3.08053 19.2168H5.45451L3.00987 36.626H11.8841L11.5449 39H0.310879ZM17.3102 39.3674C16.0102 39.3674 14.8703 39.033 13.8906 38.3641C12.9203 37.6953 12.1949 36.8003 11.7144 35.6792C11.2434 34.5488 11.1021 33.3006 11.2905 31.9346C11.4318 30.8983 11.7474 29.9327 12.2373 29.0377C12.7366 28.1334 13.3583 27.342 14.1025 26.6638C14.8468 25.9761 15.6711 25.4391 16.5754 25.0528C17.4892 24.6666 18.4313 24.4735 19.4016 24.4735C20.4661 24.4735 21.4129 24.6902 22.2419 25.1235C23.0709 25.5474 23.7492 26.1409 24.2768 26.904C24.8043 27.6671 25.1576 28.5526 25.3366 29.5606C25.5156 30.5686 25.4779 31.6472 25.2235 32.7966H13.7069C13.6975 33.5973 13.8576 34.3133 14.1873 34.9444C14.517 35.5662 14.9739 36.0608 15.558 36.4282C16.1515 36.7956 16.8439 36.984 17.6353 36.9934C18.4831 36.9934 19.2839 36.7767 20.0375 36.3434C20.7911 35.9006 21.4317 35.2977 21.9593 34.5346L24.2909 35.0999C23.5467 36.3528 22.5481 37.3797 21.2951 38.1804C20.0516 38.9717 18.7233 39.3674 17.3102 39.3674ZM13.8906 30.9313H23.0898C23.1274 30.14 22.9767 29.4193 22.6376 28.7693C22.2984 28.1098 21.8227 27.5823 21.2104 27.1866C20.6074 26.7909 19.9103 26.5931 19.119 26.5931C18.3182 26.5931 17.5599 26.7862 16.8439 27.1725C16.1374 27.5587 15.5203 28.0816 14.9928 28.741C14.4747 29.391 14.1073 30.1211 13.8906 30.9313ZM33.4169 27.2431H30.2092L28.5418 39H26.1678L27.8353 27.2431H25.4047L25.7298 24.8691H28.1603L28.7679 20.4321H31.1419L30.5342 24.8691H33.742L33.4169 27.2431ZM32.7711 26.5931L34.6787 19.2168H37.0527L34.3537 26.5931H32.7711ZM38.9619 39.2685C38.2082 39.2402 37.4876 39.0989 36.7999 38.8446C36.1122 38.5808 35.5281 38.2275 35.0476 37.7847C34.5672 37.3326 34.2469 36.8144 34.0867 36.2304L36.2487 35.3542C36.343 35.6745 36.5502 35.976 36.8705 36.2586C37.2002 36.5412 37.5912 36.7673 38.0434 36.9369C38.505 37.1065 38.9807 37.1913 39.4706 37.1913C39.9887 37.1913 40.488 37.1112 40.9685 36.951C41.4489 36.7909 41.854 36.5554 42.1837 36.2445C42.5134 35.9242 42.7066 35.5427 42.7631 35.0999C42.8384 34.6289 42.7348 34.2615 42.4522 33.9977C42.1696 33.7245 41.8022 33.5125 41.35 33.3618C40.8978 33.2016 40.4362 33.0509 39.9652 32.9096C39.0325 32.6647 38.2082 32.3726 37.4923 32.0335C36.7763 31.6849 36.2346 31.2469 35.8672 30.7193C35.5092 30.1823 35.3868 29.4994 35.4998 28.6703C35.6223 27.7942 35.9708 27.0359 36.5455 26.3953C37.1296 25.7547 37.8408 25.2601 38.6793 24.9115C39.5177 24.563 40.3891 24.3887 41.2935 24.3887C42.4334 24.3887 43.4366 24.6336 44.3033 25.1235C45.1795 25.6134 45.7918 26.2775 46.1403 27.1159L44.0772 28.2323C43.9642 27.8931 43.7617 27.5964 43.4696 27.342C43.1776 27.0783 42.829 26.871 42.4239 26.7203C42.0283 26.5696 41.6091 26.4895 41.1663 26.4801C40.6105 26.4612 40.0829 26.5319 39.5836 26.692C39.0938 26.8522 38.684 27.0971 38.3542 27.4268C38.0245 27.7471 37.822 28.1475 37.7466 28.628C37.6807 29.099 37.7796 29.457 38.0434 29.7019C38.3166 29.9468 38.6887 30.1447 39.1597 30.2954C39.6402 30.4367 40.1583 30.6016 40.7141 30.79C41.5337 31.0632 42.2873 31.3788 42.975 31.7367C43.6722 32.0947 44.2138 32.5422 44.6001 33.0792C44.9863 33.6161 45.1182 34.2803 44.9958 35.0716C44.8639 35.9383 44.4965 36.6967 43.8935 37.3467C43.2906 37.9873 42.5511 38.4772 41.675 38.8163C40.7989 39.1554 39.8945 39.3062 38.9619 39.2685ZM234.969 39L237.739 19.2168H240.113L237.343 39H234.969ZM248.009 27.2431H244.801L243.134 39H240.76L242.427 27.2431H239.997L240.322 24.8691H242.752L243.36 20.4321H245.734L245.126 24.8691H248.334L248.009 27.2431Z" fill="#4484C5"/>
<path d="M49.8073 39L54.8199 3.19613H66.6607C69.1329 3.19613 71.3834 3.66499 73.4123 4.60272C75.4583 5.52339 77.1802 6.81062 78.5783 8.46442C79.9934 10.1012 81.0079 12.0022 81.6216 14.1675C82.2525 16.3157 82.3974 18.6259 82.0564 21.0981C81.7154 23.5702 80.9311 25.889 79.7036 28.0542C78.476 30.2025 76.9245 32.1035 75.0491 33.7573C73.1736 35.394 71.0851 36.6813 68.7834 37.619C66.4988 38.5397 64.1204 39 61.6482 39H49.8073ZM54.692 34.7035H62.2364C64.1118 34.7035 65.9191 34.354 67.6581 33.655C69.3972 32.9389 70.9828 31.9586 72.4149 30.714C73.8471 29.4694 75.032 28.0287 75.9697 26.3919C76.9075 24.7381 77.5042 22.9735 77.7599 21.0981C78.0157 19.2226 77.9048 17.4665 77.4275 15.8298C76.9501 14.176 76.1743 12.7268 75.1002 11.4822C74.0431 10.2376 72.7389 9.26574 71.1874 8.56671C69.6359 7.85064 67.9224 7.4926 66.047 7.4926H58.5281L54.692 34.7035ZM85.3699 13.4258H89.6664L86.086 39H81.7895L85.3699 13.4258ZM88.1575 9.25722C87.4755 9.25722 86.93 9.03557 86.5208 8.59229C86.1286 8.149 85.9837 7.5949 86.086 6.92997C86.1883 6.26504 86.4952 5.71093 87.0067 5.26765C87.5352 4.82436 88.1319 4.60272 88.7969 4.60272C89.4447 4.60272 89.9648 4.82436 90.3569 5.26765C90.7661 5.71093 90.928 6.26504 90.8428 6.92997C90.7405 7.5949 90.4336 8.149 89.9221 8.59229C89.4106 9.03557 88.8224 9.25722 88.1575 9.25722ZM97.5693 39.4859C96.2053 39.4348 94.901 39.179 93.6564 38.7187C92.4118 38.2413 91.3548 37.6019 90.4852 36.8006C89.6157 35.9822 89.036 35.0445 88.7462 33.9875L92.659 32.4019C92.8295 32.9815 93.2046 33.5271 93.7843 34.0386C94.381 34.5501 95.0886 34.9593 95.907 35.2662C96.7424 35.5731 97.6034 35.7265 98.49 35.7265C99.4277 35.7265 100.331 35.5816 101.201 35.2917C102.07 35.0019 102.803 34.5757 103.4 34.013C103.997 33.4334 104.346 32.7428 104.449 31.9415C104.585 31.0891 104.398 30.4241 103.886 29.9467C103.375 29.4523 102.71 29.0687 101.891 28.7959C101.073 28.5061 100.238 28.2333 99.3851 27.9775C97.6972 27.5342 96.2053 27.0057 94.9096 26.3919C93.6138 25.7611 92.6335 24.9683 91.9685 24.0135C91.3207 23.0417 91.099 21.8056 91.3036 20.3053C91.5253 18.7197 92.1561 17.3472 93.1961 16.1878C94.2532 15.0285 95.5404 14.1334 97.0578 13.5025C98.5752 12.8717 100.152 12.5563 101.789 12.5563C103.852 12.5563 105.668 12.9996 107.236 13.8861C108.822 14.7727 109.93 15.9747 110.561 17.4921L106.827 19.5125C106.623 18.8987 106.256 18.3616 105.727 17.9013C105.199 17.4239 104.568 17.0488 103.835 16.776C103.119 16.5032 102.36 16.3583 101.559 16.3413C100.553 16.3072 99.5982 16.435 98.6946 16.7249C97.808 17.0147 97.0663 17.458 96.4696 18.0547C95.8729 18.6344 95.5063 19.359 95.3699 20.2285C95.2506 21.081 95.4296 21.7289 95.907 22.1722C96.4014 22.6155 97.0749 22.9735 97.9273 23.2463C98.7968 23.502 99.7346 23.8004 100.74 24.1414C102.224 24.6358 103.588 25.207 104.832 25.8549C106.094 26.5027 107.074 27.3126 107.773 28.2844C108.472 29.2562 108.711 30.4582 108.489 31.8904C108.251 33.4589 107.586 34.8314 106.495 36.0078C105.404 37.1672 104.065 38.0538 102.48 38.6675C100.894 39.2813 99.2572 39.5541 97.5693 39.4859ZM112.221 51.7871H107.925L113.321 13.4258H117.617L117.003 17.799C118.077 16.2986 119.407 15.0881 120.993 14.1675C122.579 13.2297 124.369 12.7609 126.363 12.7609C128.222 12.7609 129.91 13.1104 131.427 13.8094C132.962 14.5085 134.257 15.4803 135.314 16.7249C136.389 17.9524 137.156 19.3761 137.616 20.9958C138.076 22.6155 138.179 24.3545 137.923 26.2129C137.667 28.0713 137.071 29.8189 136.133 31.4556C135.212 33.0924 134.044 34.533 132.629 35.7777C131.231 37.0052 129.671 37.9685 127.949 38.6675C126.227 39.3666 124.437 39.7161 122.579 39.7161C120.584 39.7161 118.921 39.2557 117.592 38.3351C116.279 37.3974 115.298 36.1783 114.651 34.678L112.221 51.7871ZM125.724 16.9295C124.053 16.9295 122.544 17.3472 121.198 18.1826C119.851 19.018 118.734 20.1348 117.847 21.5328C116.978 22.9309 116.424 24.4909 116.185 26.2129C115.946 27.9179 116.057 29.4779 116.517 30.893C116.995 32.3081 117.788 33.4334 118.896 34.2688C120.021 35.1042 121.419 35.5219 123.09 35.5219C124.744 35.5219 126.321 35.1127 127.821 34.2943C129.322 33.4589 130.592 32.3422 131.632 30.9441C132.672 29.529 133.311 27.952 133.55 26.2129C133.789 24.508 133.592 22.9565 132.962 21.5584C132.348 20.1433 131.41 19.018 130.148 18.1826C128.887 17.3472 127.412 16.9295 125.724 16.9295ZM162.268 13.4258H166.565L162.984 39H158.688L159.123 34.678C158.117 36.1613 156.838 37.3633 155.286 38.2839C153.752 39.2046 152.013 39.6649 150.069 39.6649C148.194 39.6649 146.48 39.3154 144.929 38.6164C143.394 37.9003 142.09 36.92 141.016 35.6754C139.942 34.4137 139.166 32.9645 138.689 31.3277C138.228 29.691 138.135 27.9264 138.407 26.0339C138.663 24.2096 139.243 22.4876 140.146 20.8679C141.067 19.2482 142.218 17.8331 143.599 16.6226C144.997 15.395 146.54 14.4403 148.228 13.7583C149.933 13.0592 151.706 12.7097 153.547 12.7097C155.559 12.7097 157.256 13.1871 158.637 14.1419C160.035 15.0796 161.1 16.2986 161.833 17.799L162.268 13.4258ZM150.555 35.4963C152.243 35.4963 153.76 35.0871 155.107 34.2688C156.471 33.4334 157.588 32.3081 158.458 30.893C159.344 29.4779 159.907 27.9179 160.145 26.2129C160.384 24.4739 160.256 22.9053 159.762 21.5073C159.284 20.0921 158.483 18.9754 157.358 18.157C156.25 17.3216 154.86 16.9039 153.189 16.9039C151.501 16.9039 149.907 17.3216 148.407 18.157C146.907 18.9925 145.653 20.1177 144.648 21.5328C143.642 22.9309 143.019 24.4909 142.781 26.2129C142.542 27.9349 142.738 29.5035 143.369 30.9186C144 32.3166 144.946 33.4334 146.208 34.2688C147.486 35.0871 148.935 35.4963 150.555 35.4963ZM182.202 17.7223H176.397L173.379 39H169.083L172.1 17.7223H167.702L168.29 13.4258H172.689L173.788 5.39552H178.085L176.985 13.4258H182.79L182.202 17.7223ZM199.579 32.2484L203.108 34.3199C201.71 35.9396 200.056 37.2354 198.146 38.2072C196.237 39.179 194.242 39.6649 192.162 39.6649C189.809 39.6649 187.746 39.0597 185.973 37.8492C184.217 36.6386 182.904 35.019 182.035 32.9901C181.182 30.9441 180.927 28.6851 181.268 26.2129C181.523 24.3375 182.094 22.5899 182.981 20.9702C183.885 19.3334 185.01 17.9013 186.357 16.6737C187.704 15.4291 189.196 14.4573 190.832 13.7583C192.486 13.0592 194.191 12.7097 195.947 12.7097C198.027 12.7097 199.886 13.1956 201.522 14.1675C203.176 15.1393 204.472 16.4436 205.41 18.0803L201.267 20.1518C200.585 19.1459 199.724 18.3702 198.684 17.8246C197.644 17.279 196.535 17.0062 195.359 17.0062C193.756 17.0062 192.256 17.4324 190.858 18.2849C189.46 19.1203 188.283 20.2371 187.329 21.6351C186.391 23.0332 185.803 24.5591 185.564 26.2129C185.325 27.8667 185.487 29.3926 186.05 30.7907C186.613 32.1717 187.474 33.2799 188.633 34.1153C189.809 34.9508 191.182 35.3685 192.75 35.3685C194.029 35.3685 195.265 35.0786 196.459 34.4989C197.652 33.9193 198.692 33.1691 199.579 32.2484ZM229.335 23.0929L227.136 39H222.839L224.911 24.0391C225.098 22.7433 224.953 21.5669 224.476 20.5099C223.999 19.4528 223.274 18.6174 222.302 18.0036C221.33 17.3728 220.197 17.0573 218.901 17.0573C217.605 17.0573 216.386 17.3728 215.244 18.0036C214.101 18.6174 213.138 19.4528 212.354 20.5099C211.587 21.5669 211.109 22.7433 210.922 24.0391L208.825 39H204.528L209.899 0.638715H214.195L211.97 16.6226C213.044 15.4291 214.315 14.4829 215.781 13.7838C217.264 13.0678 218.816 12.7097 220.435 12.7097C222.345 12.7097 224.016 13.1786 225.448 14.1163C226.897 15.037 227.971 16.2816 228.67 17.8501C229.386 19.4187 229.608 21.1663 229.335 23.0929Z" fill="#F04B29"/>
</svg>
