<svg width="269" height="59" viewBox="0 0 269 59" fill="none" xmlns="http://www.w3.org/2000/svg">
<path d="M10.3109 46L13.0805 26.2168H15.4545L13.0099 43.626H21.8841L21.5449 46H10.3109ZM27.3102 46.3674C26.0102 46.3674 24.8703 46.033 23.8906 45.3641C22.9203 44.6953 22.1949 43.8003 21.7144 42.6792C21.2434 41.5488 21.1021 40.3006 21.2905 38.9346C21.4318 37.8983 21.7474 36.9327 22.2373 36.0377C22.7366 35.1334 23.3583 34.342 24.1025 33.6638C24.8468 32.9761 25.6711 32.4391 26.5754 32.0528C27.4892 31.6666 28.4313 31.4735 29.4016 31.4735C30.4661 31.4735 31.4129 31.6902 32.2419 32.1235C33.0709 32.5474 33.7492 33.1409 34.2768 33.904C34.8043 34.6671 35.1576 35.5526 35.3366 36.5606C35.5156 37.5686 35.4779 38.6472 35.2235 39.7966H23.7069C23.6975 40.5973 23.8576 41.3133 24.1873 41.9444C24.517 42.5662 24.9739 43.0608 25.558 43.4282C26.1515 43.7956 26.8439 43.984 27.6353 43.9934C28.4831 43.9934 29.2839 43.7767 30.0375 43.3434C30.7911 42.9006 31.4317 42.2977 31.9593 41.5346L34.2909 42.0999C33.5467 43.3528 32.5481 44.3797 31.2951 45.1804C30.0516 45.9717 28.7233 46.3674 27.3102 46.3674ZM23.8906 37.9313H33.0898C33.1274 37.14 32.9767 36.4193 32.6376 35.7693C32.2984 35.1098 31.8227 34.5823 31.2104 34.1866C30.6074 33.7909 29.9103 33.5931 29.119 33.5931C28.3182 33.5931 27.5599 33.7862 26.8439 34.1725C26.1374 34.5587 25.5203 35.0816 24.9928 35.741C24.4747 36.391 24.1073 37.1211 23.8906 37.9313ZM43.4169 34.2431H40.2092L38.5418 46H36.1678L37.8353 34.2431H35.4047L35.7298 31.8691H38.1603L38.7679 27.4321H41.1419L40.5342 31.8691H43.742L43.4169 34.2431ZM42.7711 33.5931L44.6787 26.2168H47.0527L44.3537 33.5931H42.7711ZM48.9619 46.2685C48.2082 46.2402 47.4876 46.0989 46.7999 45.8446C46.1122 45.5808 45.5281 45.2275 45.0476 44.7847C44.5672 44.3326 44.2469 43.8144 44.0867 43.2304L46.2487 42.3542C46.343 42.6745 46.5502 42.976 46.8705 43.2586C47.2002 43.5412 47.5912 43.7673 48.0434 43.9369C48.505 44.1065 48.9807 44.1913 49.4706 44.1913C49.9887 44.1913 50.488 44.1112 50.9685 43.951C51.4489 43.7909 51.854 43.5554 52.1837 43.2445C52.5134 42.9242 52.7066 42.5427 52.7631 42.0999C52.8384 41.6289 52.7348 41.2615 52.4522 40.9977C52.1696 40.7245 51.8022 40.5125 51.35 40.3618C50.8978 40.2016 50.4362 40.0509 49.9652 39.9096C49.0325 39.6647 48.2082 39.3726 47.4923 39.0335C46.7763 38.6849 46.2346 38.2469 45.8672 37.7193C45.5092 37.1823 45.3868 36.4994 45.4998 35.6703C45.6223 34.7942 45.9708 34.0359 46.5455 33.3953C47.1296 32.7547 47.8408 32.2601 48.6793 31.9115C49.5177 31.563 50.3891 31.3887 51.2935 31.3887C52.4334 31.3887 53.4366 31.6336 54.3033 32.1235C55.1795 32.6134 55.7918 33.2775 56.1403 34.1159L54.0772 35.2323C53.9642 34.8931 53.7617 34.5964 53.4696 34.342C53.1776 34.0783 52.829 33.871 52.4239 33.7203C52.0283 33.5696 51.6091 33.4895 51.1663 33.4801C50.6105 33.4612 50.0829 33.5319 49.5836 33.692C49.0938 33.8522 48.684 34.0971 48.3542 34.4268C48.0245 34.7471 47.822 35.1475 47.7466 35.628C47.6807 36.099 47.7796 36.457 48.0434 36.7019C48.3166 36.9468 48.6887 37.1447 49.1597 37.2954C49.6402 37.4367 50.1583 37.6016 50.7141 37.79C51.5337 38.0632 52.2873 38.3788 52.975 38.7367C53.6722 39.0947 54.2138 39.5422 54.6001 40.0792C54.9863 40.6161 55.1182 41.2803 54.9958 42.0716C54.8639 42.9383 54.4965 43.6967 53.8935 44.3467C53.2906 44.9873 52.5511 45.4772 51.675 45.8163C50.7989 46.1554 49.8945 46.3062 48.9619 46.2685ZM244.969 46L247.739 26.2168H250.113L247.343 46H244.969ZM258.009 34.2431H254.801L253.134 46H250.76L252.427 34.2431H249.997L250.322 31.8691H252.752L253.36 27.4321H255.734L255.126 31.8691H258.334L258.009 34.2431Z" fill="#F04B29"/>
<path d="M59.8073 46L64.8199 10.1961H76.6607C79.1329 10.1961 81.3834 10.665 83.4123 11.6027C85.4583 12.5234 87.1802 13.8106 88.5783 15.4644C89.9934 17.1012 91.0079 19.0022 91.6216 21.1675C92.2525 23.3157 92.3974 25.6259 92.0564 28.0981C91.7154 30.5702 90.9311 32.889 89.7036 35.0542C88.476 37.2025 86.9245 39.1035 85.0491 40.7573C83.1736 42.394 81.0851 43.6813 78.7834 44.619C76.4988 45.5397 74.1204 46 71.6482 46H59.8073ZM64.692 41.7035H72.2364C74.1118 41.7035 75.9191 41.354 77.6581 40.655C79.3972 39.9389 80.9828 38.9586 82.4149 37.714C83.8471 36.4694 85.032 35.0287 85.9697 33.3919C86.9075 31.7381 87.5042 29.9735 87.7599 28.0981C88.0157 26.2226 87.9048 24.4665 87.4275 22.8298C86.9501 21.176 86.1743 19.7268 85.1002 18.4822C84.0431 17.2376 82.7389 16.2657 81.1874 15.5667C79.6359 14.8506 77.9224 14.4926 76.047 14.4926H68.5281L64.692 41.7035ZM95.3699 20.4258H99.6664L96.086 46H91.7895L95.3699 20.4258ZM98.1575 16.2572C97.4755 16.2572 96.93 16.0356 96.5208 15.5923C96.1286 15.149 95.9837 14.5949 96.086 13.93C96.1883 13.265 96.4952 12.7109 97.0067 12.2676C97.5352 11.8244 98.1319 11.6027 98.7969 11.6027C99.4447 11.6027 99.9648 11.8244 100.357 12.2676C100.766 12.7109 100.928 13.265 100.843 13.93C100.741 14.5949 100.434 15.149 99.9221 15.5923C99.4106 16.0356 98.8224 16.2572 98.1575 16.2572ZM107.569 46.4859C106.205 46.4348 104.901 46.179 103.656 45.7187C102.412 45.2413 101.355 44.6019 100.485 43.8006C99.6157 42.9822 99.036 42.0445 98.7462 40.9875L102.659 39.4019C102.83 39.9815 103.205 40.5271 103.784 41.0386C104.381 41.5501 105.089 41.9593 105.907 42.2662C106.742 42.5731 107.603 42.7265 108.49 42.7265C109.428 42.7265 110.331 42.5816 111.201 42.2917C112.07 42.0019 112.803 41.5757 113.4 41.013C113.997 40.4334 114.346 39.7428 114.449 38.9415C114.585 38.0891 114.398 37.4241 113.886 36.9467C113.375 36.4523 112.71 36.0687 111.891 35.7959C111.073 35.5061 110.238 35.2333 109.385 34.9775C107.697 34.5342 106.205 34.0057 104.91 33.3919C103.614 32.7611 102.633 31.9683 101.969 31.0135C101.321 30.0417 101.099 28.8056 101.304 27.3053C101.525 25.7197 102.156 24.3472 103.196 23.1878C104.253 22.0285 105.54 21.1334 107.058 20.5025C108.575 19.8717 110.152 19.5563 111.789 19.5563C113.852 19.5563 115.668 19.9996 117.236 20.8861C118.822 21.7727 119.93 22.9747 120.561 24.4921L116.827 26.5125C116.623 25.8987 116.256 25.3616 115.727 24.9013C115.199 24.4239 114.568 24.0488 113.835 23.776C113.119 23.5032 112.36 23.3583 111.559 23.3413C110.553 23.3072 109.598 23.435 108.695 23.7249C107.808 24.0147 107.066 24.458 106.47 25.0547C105.873 25.6344 105.506 26.359 105.37 27.2285C105.251 28.081 105.43 28.7289 105.907 29.1722C106.401 29.6155 107.075 29.9735 107.927 30.2463C108.797 30.502 109.735 30.8004 110.74 31.1414C112.224 31.6358 113.588 32.207 114.832 32.8549C116.094 33.5027 117.074 34.3126 117.773 35.2844C118.472 36.2562 118.711 37.4582 118.489 38.8904C118.251 40.4589 117.586 41.8314 116.495 43.0078C115.404 44.1672 114.065 45.0538 112.48 45.6675C110.894 46.2813 109.257 46.5541 107.569 46.4859ZM122.221 58.7871H117.925L123.321 20.4258H127.617L127.003 24.799C128.077 23.2986 129.407 22.0881 130.993 21.1675C132.579 20.2297 134.369 19.7609 136.363 19.7609C138.222 19.7609 139.91 20.1104 141.427 20.8094C142.962 21.5085 144.257 22.4803 145.314 23.7249C146.389 24.9524 147.156 26.3761 147.616 27.9958C148.076 29.6155 148.179 31.3545 147.923 33.2129C147.667 35.0713 147.071 36.8189 146.133 38.4556C145.212 40.0924 144.044 41.533 142.629 42.7777C141.231 44.0052 139.671 44.9685 137.949 45.6675C136.227 46.3666 134.437 46.7161 132.579 46.7161C130.584 46.7161 128.921 46.2557 127.592 45.3351C126.279 44.3974 125.298 43.1783 124.651 41.678L122.221 58.7871ZM135.724 23.9295C134.053 23.9295 132.544 24.3472 131.198 25.1826C129.851 26.018 128.734 27.1348 127.847 28.5328C126.978 29.9309 126.424 31.4909 126.185 33.2129C125.946 34.9179 126.057 36.4779 126.517 37.893C126.995 39.3081 127.788 40.4334 128.896 41.2688C130.021 42.1042 131.419 42.5219 133.09 42.5219C134.744 42.5219 136.321 42.1127 137.821 41.2943C139.322 40.4589 140.592 39.3422 141.632 37.9441C142.672 36.529 143.311 34.952 143.55 33.2129C143.789 31.508 143.592 29.9565 142.962 28.5584C142.348 27.1433 141.41 26.018 140.148 25.1826C138.887 24.3472 137.412 23.9295 135.724 23.9295ZM172.268 20.4258H176.565L172.984 46H168.688L169.123 41.678C168.117 43.1613 166.838 44.3633 165.286 45.2839C163.752 46.2046 162.013 46.6649 160.069 46.6649C158.194 46.6649 156.48 46.3154 154.929 45.6164C153.394 44.9003 152.09 43.92 151.016 42.6754C149.942 41.4137 149.166 39.9645 148.689 38.3277C148.228 36.691 148.135 34.9264 148.407 33.0339C148.663 31.2096 149.243 29.4876 150.146 27.8679C151.067 26.2482 152.218 24.8331 153.599 23.6226C154.997 22.395 156.54 21.4403 158.228 20.7583C159.933 20.0592 161.706 19.7097 163.547 19.7097C165.559 19.7097 167.256 20.1871 168.637 21.1419C170.035 22.0796 171.1 23.2986 171.833 24.799L172.268 20.4258ZM160.555 42.4963C162.243 42.4963 163.76 42.0871 165.107 41.2688C166.471 40.4334 167.588 39.3081 168.458 37.893C169.344 36.4779 169.907 34.9179 170.145 33.2129C170.384 31.4739 170.256 29.9053 169.762 28.5073C169.284 27.0921 168.483 25.9754 167.358 25.157C166.25 24.3216 164.86 23.9039 163.189 23.9039C161.501 23.9039 159.907 24.3216 158.407 25.157C156.907 25.9925 155.653 27.1177 154.648 28.5328C153.642 29.9309 153.019 31.4909 152.781 33.2129C152.542 34.9349 152.738 36.5035 153.369 37.9186C154 39.3166 154.946 40.4334 156.208 41.2688C157.486 42.0871 158.935 42.4963 160.555 42.4963ZM192.202 24.7223H186.397L183.379 46H179.083L182.1 24.7223H177.702L178.29 20.4258H182.689L183.788 12.3955H188.085L186.985 20.4258H192.79L192.202 24.7223ZM209.579 39.2484L213.108 41.3199C211.71 42.9396 210.056 44.2354 208.146 45.2072C206.237 46.179 204.242 46.6649 202.162 46.6649C199.809 46.6649 197.746 46.0597 195.973 44.8492C194.217 43.6386 192.904 42.019 192.035 39.9901C191.182 37.9441 190.927 35.6851 191.268 33.2129C191.523 31.3375 192.094 29.5899 192.981 27.9702C193.885 26.3334 195.01 24.9013 196.357 23.6737C197.704 22.4291 199.196 21.4573 200.832 20.7583C202.486 20.0592 204.191 19.7097 205.947 19.7097C208.027 19.7097 209.886 20.1956 211.522 21.1675C213.176 22.1393 214.472 23.4436 215.41 25.0803L211.267 27.1518C210.585 26.1459 209.724 25.3702 208.684 24.8246C207.644 24.279 206.535 24.0062 205.359 24.0062C203.756 24.0062 202.256 24.4324 200.858 25.2849C199.46 26.1203 198.283 27.2371 197.329 28.6351C196.391 30.0332 195.803 31.5591 195.564 33.2129C195.325 34.8667 195.487 36.3926 196.05 37.7907C196.613 39.1717 197.474 40.2799 198.633 41.1153C199.809 41.9508 201.182 42.3685 202.75 42.3685C204.029 42.3685 205.265 42.0786 206.459 41.4989C207.652 40.9193 208.692 40.1691 209.579 39.2484ZM239.335 30.0929L237.136 46H232.839L234.911 31.0391C235.098 29.7433 234.953 28.5669 234.476 27.5099C233.999 26.4528 233.274 25.6174 232.302 25.0036C231.33 24.3728 230.197 24.0573 228.901 24.0573C227.605 24.0573 226.386 24.3728 225.244 25.0036C224.101 25.6174 223.138 26.4528 222.354 27.5099C221.587 28.5669 221.109 29.7433 220.922 31.0391L218.825 46H214.528L219.899 7.63871H224.195L221.97 23.6226C223.044 22.4291 224.315 21.4829 225.781 20.7838C227.264 20.0678 228.816 19.7097 230.435 19.7097C232.345 19.7097 234.016 20.1786 235.448 21.1163C236.897 22.037 237.971 23.2816 238.67 24.8501C239.386 26.4187 239.608 28.1663 239.335 30.0929Z" fill="#4786C7"/>
</svg>
