<svg xmlns="http://www.w3.org/2000/svg" width="100" height="35" viewBox="0 0 100 35">
    <g fill="none" fill-rule="evenodd">
        <g>
            <g>
                <path fill="#003B70" d="M7.72 18.683c1.602 0 2.964.382 4.086 1.145 1.121.763 1.95 1.837 2.488 3.22.537 1.384.726 3.01.566 4.881l-10.722.001c.122.926.408 1.677.86 2.254.617.787 1.524 1.18 2.722 1.18.754 0 1.4-.167 1.937-.5.537-.334.947-.816 1.23-1.446l3.845 1.116c-.575 1.413-1.482 2.51-2.721 3.292C10.77 34.61 9.416 35 7.946 35c-1.565 0-2.943-.341-4.136-1.024-1.192-.682-2.125-1.622-2.8-2.82C.338 29.96 0 28.589 0 27.043c0-1.69.33-3.158.99-4.409.66-1.25 1.57-2.22 2.728-2.912 1.16-.692 2.493-1.038 4.002-1.038zm14.953.081c1.341 0 2.532.21 3.573.627 1.04.418 1.829 1.139 2.363 2.164.3.57.478 1.14.535 1.71.056.568.084 1.205.084 1.907v9.399H25.88v-1.892c-.603.72-1.243 1.265-1.92 1.628-.858.46-1.943.69-3.256.69-1.088 0-2.01-.211-2.764-.633-.755-.422-1.327-.987-1.716-1.695-.39-.707-.584-1.488-.584-2.342 0-.712.108-1.362.324-1.95.215-.59.565-1.11 1.048-1.56.483-.451 1.132-.829 1.948-1.132.562-.209 1.233-.394 2.011-.556.779-.161 1.66-.315 2.645-.462l1.838-.277c-.073-.633-.276-1.118-.615-1.453-.431-.428-1.153-.641-2.166-.641-.563 0-1.149.138-1.758.412-.61.276-1.036.765-1.28 1.467l-3.46-1.11c.384-1.272 1.106-2.307 2.166-3.105 1.06-.797 2.504-1.196 4.332-1.196zm13.672 0c1.19 0 2.246.186 3.165.555.919.37 1.662.898 2.23 1.581.567.684.916 1.49 1.047 2.42l-3.91.713c-.066-.57-.31-1.02-.731-1.353-.422-.332-.995-.527-1.716-.583-.704-.048-1.269.047-1.695.284-.427.238-.64.58-.64 1.025 0 .267.091.49.274.67.183.18.562.365 1.14.555.576.19 1.455.437 2.637.74 1.153.304 2.079.658 2.778 1.061.698.404 1.207.888 1.526 1.453.318.565.478 1.246.478 2.043 0 1.576-.563 2.815-1.688 3.717-1.125.902-2.682 1.353-4.67 1.353-1.913 0-3.458-.44-4.634-1.318-1.177-.878-1.893-2.119-2.146-3.723l3.91-.598c.16.721.514 1.286 1.063 1.694.548.408 1.244.612 2.088.612.694 0 1.229-.135 1.604-.405.375-.271.563-.648.563-1.133 0-.303-.076-.548-.225-.733-.15-.185-.486-.367-1.006-.548-.52-.18-1.33-.418-2.426-.712-1.238-.323-2.228-.683-2.968-1.082-.741-.4-1.276-.876-1.604-1.431-.328-.556-.492-1.227-.492-2.016 0-.986.248-1.843.745-2.57.497-.726 1.198-1.286 2.103-1.68.905-.394 1.972-.59 3.2-.59zm26.415 0c1.529 0 2.872.347 4.03 1.04 1.158.693 2.06 1.65 2.708 2.869.647 1.22.97 2.623.97 4.208 0 1.595-.325 3.002-.977 4.222-.652 1.22-1.557 2.174-2.714 2.862-1.159.688-2.497 1.033-4.017 1.033-1.528 0-2.87-.347-4.022-1.04-1.154-.693-2.052-1.65-2.694-2.869-.643-1.22-.964-2.622-.964-4.208 0-1.604.328-3.017.985-4.236.656-1.22 1.561-2.172 2.715-2.855 1.153-.684 2.48-1.026 3.98-1.026zm14.742 0c1.34 0 2.531.21 3.572.627 1.041.418 1.829 1.139 2.363 2.164.3.57.478 1.14.535 1.71.056.568.084 1.205.084 1.907v9.399H80.71v-1.892c-.604.72-1.244 1.265-1.92 1.628-.859.46-1.944.69-3.257.69-1.088 0-2.01-.211-2.764-.633-.755-.422-1.327-.987-1.716-1.695-.389-.707-.584-1.488-.584-2.342 0-.712.108-1.362.324-1.95.216-.59.565-1.11 1.048-1.56.483-.451 1.132-.829 1.948-1.132.563-.209 1.233-.394 2.012-.556.778-.161 1.66-.315 2.644-.462l1.839-.277c-.074-.633-.277-1.118-.616-1.453-.43-.428-1.153-.641-2.165-.641-.563 0-1.15.138-1.759.412-.61.276-1.036.765-1.28 1.467l-3.46-1.11c.384-1.272 1.107-2.307 2.166-3.105 1.06-.797 2.504-1.196 4.333-1.196zm-23.547-5.126v20.933H50.13V13.638h3.826zm39.806 5.098c1.19 0 2.162.204 2.912.612.75.408 1.334.925 1.751 1.552.417.627.715 1.28.893 1.958.178.679.286 1.298.324 1.859.037.56.056.968.056 1.224v8.63h-3.882v-7.263c0-.351-.02-.8-.057-1.346-.037-.545-.154-1.094-.35-1.644-.198-.55-.52-1.011-.964-1.381-.446-.371-1.076-.556-1.893-.556-.328 0-.68.053-1.054.157-.376.104-.727.306-1.055.605-.329.3-.598.738-.81 1.317-.21.58-.315 1.348-.315 2.307v7.803h-3.883V19.191h3.404v1.588c.352-.398.756-.753 1.217-1.06.98-.656 2.215-.983 3.706-.983zm-68.339 8.793c-.626.107-1.174.203-1.623.285-.704.128-1.271.244-1.702.348-.432.105-.812.219-1.14.342-.375.152-.677.316-.907.491-.23.176-.399.368-.506.577-.108.21-.162.442-.162.698 0 .351.086.653.26.904.174.252.42.444.739.577.318.133.698.2 1.139.2.703 0 1.296-.126 1.78-.378.482-.252.867-.539 1.153-.861.286-.323.48-.594.583-.812.197-.418.312-.905.345-1.46.02-.34.033-.64.041-.911zm54.828 0c-.626.107-1.174.203-1.623.285-.704.128-1.27.244-1.702.348-.432.105-.811.219-1.14.342-.375.152-.677.316-.907.491-.23.176-.398.368-.506.577-.108.21-.162.442-.162.698 0 .351.087.653.26.904.174.252.42.444.739.577.318.133.698.2 1.14.2.702 0 1.295-.126 1.779-.378.482-.252.866-.539 1.153-.861.286-.323.48-.594.583-.812.197-.418.312-.905.345-1.46.02-.34.033-.64.041-.911zM62.76 22.38c-.835 0-1.519.19-2.053.57-.535.38-.931.906-1.19 1.58-.257.675-.386 1.458-.386 2.35 0 1.376.307 2.47.922 3.282.614.812 1.516 1.218 2.707 1.218 1.229 0 2.145-.42 2.75-1.26.605-.84.908-1.92.908-3.24 0-1.367-.308-2.459-.922-3.276-.614-.816-1.526-1.224-2.736-1.224zm-54.87-.32c-1.311 0-2.275.403-2.892 1.21-.354.462-.607 1.05-.758 1.766h6.73c-.112-.837-.33-1.483-.656-1.938-.495-.692-1.303-1.038-2.425-1.038zM51.88 1.01l15.307 14.44c.534.54-11.3-7.713-11.3-7.713-4.538-3.116-8.106-2.983-12.075 0 0 0-2.438 1.703-5.051 3.512l-.543.375c-2.989 2.066-6.003 4.126-5.706 3.826l15.17-14.44c1.494-1.33 2.758-1.363 4.198 0z" transform="translate(-63 -32) translate(63 32)"/>
                <path fill="#D9261C" d="M47.92 21.32V35h-3.497V21.365l3.498-.045zm-1.784-6.472c1.465 0 2.652 1.268 2.652 2.832 0 1.563-1.187 2.83-2.652 2.83-1.464 0-2.651-1.267-2.651-2.83 0-1.564 1.187-2.832 2.651-2.832z" transform="translate(-63 -32) translate(63 32)"/>
            </g>
        </g>
    </g>
</svg>
