<svg width="138" height="111" viewBox="0 0 138 111" fill="none" xmlns="http://www.w3.org/2000/svg">
<path fill-rule="evenodd" clip-rule="evenodd" d="M136.542 110.44C105.659 110.44 66.4681 110.44 0.470321 110.44C0.235175 110.44 0 110.284 0 109.97V60.0407C0 59.7272 0.235175 59.492 0.470321 59.492C0.78385 59.492 0.940595 59.7272 0.940595 60.0407V109.5H5.95707V60.0407C5.95707 59.7272 6.19218 59.492 6.50571 59.492C6.74085 59.492 6.97603 59.7272 6.97603 60.0407V109.5H11.9925V60.0407C11.9925 59.7272 12.1492 59.492 12.4628 59.492C12.7763 59.492 12.933 59.7272 12.933 60.0407V109.5H17.9495V60.0407C17.9495 59.7272 18.1846 59.492 18.4198 59.492C18.7333 59.492 18.9685 59.7272 18.9685 60.0407V109.5H23.985V60.0407C23.985 59.7272 24.1417 59.492 24.4552 59.492C24.6904 59.492 24.9255 59.7272 24.9255 60.0407V109.5H29.942V60.0407C29.942 59.7272 30.1771 59.492 30.4122 59.492C30.7258 59.492 30.9609 59.7272 30.9609 60.0407V109.5H35.9774V60.0407C35.9774 59.7272 36.1342 59.492 36.4477 59.492C36.6828 59.492 36.918 59.7272 36.918 60.0407V109.5C40.4452 109.5 62.8625 109.5 65.9977 109.5V78.3821C65.9977 78.2253 66.05 78.0947 66.1545 77.9902L74.463 69.3682C74.5414 69.2898 74.6981 69.2114 74.8549 69.2114C75.0117 69.2637 75.1423 69.342 75.2468 69.4465L102.21 109.5C106.286 109.5 131.447 109.5 135.523 109.5L93.5098 49.851C93.4315 49.6159 93.4315 49.3807 93.5883 49.224L132.701 1.01896C114.595 1.01896 118.122 1.01896 100.016 1.01896L66.8599 42.4047C66.6248 42.7966 65.9977 42.5615 65.9977 42.0912V1.01896C55.4945 1.01896 47.578 1.01896 36.918 1.01896V50.4781C36.918 50.7132 36.6828 50.9484 36.4477 50.9484C36.1342 50.9484 35.9774 50.7132 35.9774 50.4781V1.01896H30.9609V50.4781C30.9609 50.7132 30.7258 50.9484 30.4122 50.9484C30.1771 50.9484 29.942 50.7132 29.942 50.4781V1.01896H24.9255V50.4781C24.9255 50.7132 24.6904 50.9484 24.4552 50.9484C24.1417 50.9484 23.985 50.7132 23.985 50.4781V1.01896H18.9685V50.4781C18.9685 50.7132 18.7333 50.9484 18.4198 50.9484C18.1846 50.9484 17.9495 50.7132 17.9495 50.4781V1.01896H12.933V50.4781C12.933 50.7132 12.7763 50.9484 12.4628 50.9484C12.1492 50.9484 11.9925 50.7132 11.9925 50.4781V1.01896H6.97603V50.4781C6.97603 50.7132 6.74085 50.9484 6.50571 50.9484C6.19218 50.9484 5.95707 50.7132 5.95707 50.4781V1.01896H0.940595V50.4781C0.940595 50.7132 0.78385 50.9484 0.470321 50.9484C0.235175 50.9484 0 50.7132 0 50.4781V0.470291C0 0.235145 0.235175 0 0.470321 0C19.9091 0 120.552 0 133.72 0C134.19 0 134.347 0.470293 134.112 0.783821L94.6072 49.5375L136.934 109.657C137.169 110.048 136.934 110.44 136.542 110.44ZM98.7615 1.01896C98.9966 1.01896 94.2153 1.01896 94.0585 1.01896L67.0167 34.8016V40.6803L98.7615 1.01896ZM67.0167 25.7877L86.769 1.01896H82.0661L67.0167 19.909V25.7877ZM67.0167 33.234L92.726 1.01896H88.0231L67.0167 27.3553V33.234ZM80.7336 1.01896H76.0306L67.0167 12.3844V18.263L80.7336 1.01896ZM74.6981 1.01896H69.9952L66.9383 4.85969V10.7383L74.6981 1.01896ZM68.6628 1.01896H66.8599V3.29205L68.6628 1.01896ZM71.798 73.444L96.0965 109.5C96.0181 109.5 100.643 109.5 100.956 109.5L74.6198 70.5439L71.798 73.444ZM68.2708 77.0496L90.1394 109.421H94.9208L71.0926 74.1495L68.2708 77.0496ZM66.8599 83.8688L84.104 109.421H88.8853L67.5654 77.755L66.8599 78.5389V83.8688ZM82.9283 109.421L66.8599 85.5932V92.726L78.147 109.421H82.9283ZM76.8929 109.421L66.8599 94.5288V101.662L72.1115 109.421H76.8929ZM70.9358 109.421L66.8599 103.386V109.421H70.9358Z" fill="#FC330A"/>
<path d="M65.7344 44.0301L99.8422 1.24023H99.2221H65.7344V44.0301Z" fill="#FC330A" stroke="#FC330A" stroke-width="1.24029"/>
<path d="M102.324 109.765L75.0375 69.4561L66.3555 78.7582V109.765H102.324Z" fill="#FC330A" stroke="#FC330A" stroke-width="1.24029"/>
</svg>
