<svg width="177" height="49" viewBox="0 0 177 49" fill="none" xmlns="http://www.w3.org/2000/svg">
<path d="M1.63584 28.854L5.04384 26.2639C7.04319 29.1721 9.45151 31.0351 12.9049 31.0351C15.9949 31.0351 18.0851 29.3993 18.0851 26.8546C18.0851 24.7189 16.8128 23.8101 13.6774 22.3561L10.3603 20.8111C5.99807 18.8117 3.36256 16.4943 3.36256 12.4956C3.36256 7.58808 7.63391 4.36184 12.8141 4.36184C17.04 4.36184 20.6297 6.49752 22.4928 9.72376L19.1302 12.3138C17.5398 9.95095 15.3587 8.67864 12.8141 8.67864C10.2694 8.67864 8.27007 9.95095 8.27007 12.3138C8.45183 14.6767 9.49695 15.0857 12.4505 16.5852L15.8131 18.1301C20.6752 20.3567 22.9926 22.7196 22.9926 26.6729C22.9926 31.8985 18.7213 35.3519 12.9504 35.3519C8.04287 35.3519 3.95328 32.8981 1.63584 28.854ZM41.8825 30.8079V34.8521C40.383 35.1701 39.0652 35.3519 37.9292 35.3519C32.7945 35.3519 29.7046 32.8073 29.7046 27.5817V16.6761H26.0694V12.541H29.7046V6.67928H34.5212V12.541H41.1555V16.6761H34.5212V27.1727C34.5212 30.0354 36.0207 31.0351 38.9289 31.0351C39.6105 31.0351 40.5647 30.9442 41.8825 30.8079ZM64.4406 21.3564V34.8521H59.9875V32.3529C58.3516 34.3068 55.8979 35.3519 52.8534 35.3519C48.1731 35.3519 45.0832 32.7618 45.0832 28.8994C45.0832 25.037 48.264 22.5378 53.3078 22.5378H59.624V21.0837C59.624 17.9938 57.8972 16.3125 54.8528 16.3125C52.3536 16.3125 50.536 17.4031 48.6729 19.6297L45.9011 16.8124C48.1277 13.5862 51.4448 12.0412 55.3072 12.0412C60.8054 12.0412 64.4406 15.3583 64.4406 21.3564ZM59.624 26.4002V25.9913H53.8985C51.3539 25.9913 49.9453 26.9001 49.9453 28.7177C49.9453 30.5807 51.5357 31.6713 53.8531 31.6713C57.0793 31.6713 59.624 29.4447 59.624 26.4002ZM76.67 8.45144V12.541H81.941V16.6761H76.67V34.8521H71.8988V16.6761H68.718V12.541H71.8988V8.04248C71.8988 2.81688 74.9433 0.272245 79.8508 0.272245C81.0777 0.272245 82.0773 0.408566 82.9407 0.681205V4.72536C82.2137 4.63448 81.5775 4.58904 81.0322 4.58904C78.1241 4.58904 76.67 5.58872 76.67 8.45144ZM89.9381 8.45144V12.541H95.2091V16.6761H89.9381V34.8521H85.1669V16.6761H81.9861V12.541H85.1669V8.04248C85.1669 2.81688 88.2114 0.272245 93.1189 0.272245C94.3458 0.272245 95.3454 0.408566 96.2088 0.681205V4.72536C95.4818 4.63448 94.8456 4.58904 94.3003 4.58904C91.3922 4.58904 89.9381 5.58872 89.9381 8.45144ZM103.206 8.45144V12.541H108.477V16.6761H103.206V34.8521H98.435V16.6761H95.2542V12.541H98.435V8.04248C98.435 2.81688 101.479 0.272245 106.387 0.272245C107.614 0.272245 108.614 0.408566 109.477 0.681205V4.72536C108.75 4.63448 108.114 4.58904 107.568 4.58904C104.66 4.58904 103.206 5.58872 103.206 8.45144ZM129.982 21.3564V34.8521H125.529V32.3529C123.893 34.3068 121.44 35.3519 118.395 35.3519C113.715 35.3519 110.625 32.7618 110.625 28.8994C110.625 25.037 113.806 22.5378 118.85 22.5378H125.166V21.0837C125.166 17.9938 123.439 16.3125 120.395 16.3125C117.895 16.3125 116.078 17.4031 114.215 19.6297L111.443 16.8124C113.669 13.5862 116.987 12.0412 120.849 12.0412C126.347 12.0412 129.982 15.3583 129.982 21.3564ZM125.166 26.4002V25.9913H119.44C116.896 25.9913 115.487 26.9001 115.487 28.7177C115.487 30.5807 117.077 31.6713 119.395 31.6713C122.621 31.6713 125.166 29.4447 125.166 26.4002ZM149.891 30.8079V34.8521C148.392 35.1701 147.074 35.3519 145.938 35.3519C140.803 35.3519 137.713 32.8073 137.713 27.5817V16.6761H134.078V12.541H137.713V6.67928H142.53V12.541H149.164V16.6761H142.53V27.1727C142.53 30.0354 144.029 31.0351 146.938 31.0351C147.619 31.0351 148.573 30.9442 149.891 30.8079ZM174.368 25.2642H157.737C158.328 28.8994 161.191 31.126 165.008 31.126C167.325 31.126 169.506 30.2626 171.506 28.4905L173.778 31.7621C171.233 34.1705 168.279 35.3519 164.871 35.3519C158.055 35.3519 152.875 30.3081 152.875 23.7193C152.739 17.3122 158.101 11.9049 164.417 12.0412C170.324 12.0412 174.732 16.4489 174.732 22.2652C174.732 23.2194 174.596 24.2191 174.368 25.2642ZM157.828 21.5381H169.961C169.915 18.1301 167.371 16.0853 164.235 16.0853C161.1 16.0853 158.555 18.221 157.828 21.5381Z" fill="#624185"/>
<path d="M7.45659 39.4077L4.40496 44.4628V48.1646H3.71503V44.4363L0.676666 39.4077H1.43294L4.07326 43.7994L6.70032 39.4077H7.45659ZM13.2994 44.9537C13.2596 43.1095 14.7986 41.5836 16.6164 41.6234C18.4473 41.6234 19.9333 43.1095 19.9333 44.9537C19.9731 46.7714 18.4208 48.337 16.6031 48.2972C14.7986 48.337 13.2596 46.7714 13.2994 44.9537ZM19.2434 44.967C19.2434 43.4279 18.0758 42.247 16.6164 42.247C15.1303 42.247 13.9893 43.4279 13.9893 44.967C13.9893 46.4795 15.1303 47.6736 16.6031 47.6736C18.0758 47.6736 19.2434 46.4795 19.2434 44.967ZM27.394 45.7365V41.7561H28.0574V45.7631C28.0574 46.9306 28.8534 47.6736 29.9149 47.6736C30.9631 47.6736 31.7591 46.9306 31.7591 45.7631V41.7561H32.4225V45.7365C32.4225 47.2889 31.3213 48.2972 29.9149 48.2972C28.4952 48.2972 27.394 47.2889 27.394 45.7365ZM43.5382 41.7561V42.3399H43.2065C42.1052 42.3399 41.0305 43.1095 41.0305 44.3965V48.1646H40.3671V41.7561H41.004V42.8441C41.4684 42.1011 42.2379 41.7163 43.1269 41.7163C43.2994 41.7163 43.4718 41.7561 43.5382 41.7561ZM59.9358 48.1646V39.4077H65.2828V40.0313H60.6257V43.4146H64.5V44.0382H60.6257V48.1646H59.9358ZM76.4844 44.1444V48.1646H75.8475V47.1562C75.3831 47.8859 74.5605 48.2972 73.5521 48.2972C72.9286 48.2972 72.4111 48.1513 71.9865 47.8461C71.562 47.541 71.3497 47.1031 71.3497 46.5591C71.3497 45.511 72.2386 44.8476 73.5787 44.8476H75.8077V44.1178C75.8077 42.8972 75.1178 42.247 74.0431 42.247C73.2337 42.247 72.6367 42.6185 72.0927 43.3217L71.6283 42.9502C72.2519 42.0613 73.0612 41.6234 74.0829 41.6234C75.5291 41.6234 76.4844 42.5124 76.4844 44.1444ZM75.8077 45.7763V45.4181H73.645C72.5969 45.4181 72.0396 45.8161 72.0396 46.5193C72.0396 47.3021 72.7561 47.7134 73.6185 47.7134C74.7993 47.7134 75.8077 46.8776 75.8077 45.7763ZM83.9341 44.9537C83.8943 43.136 85.4334 41.5836 87.2511 41.6234C88.3258 41.6234 89.2413 42.1276 89.8384 42.937L89.3607 43.3217C88.8167 42.6053 88.1135 42.247 87.2511 42.247C85.7651 42.247 84.6241 43.4544 84.6241 44.9537C84.6241 46.4795 85.7651 47.6736 87.2378 47.6736C88.1003 47.6736 88.8035 47.3154 89.3607 46.5989L89.8384 46.9837C89.2413 47.793 88.3125 48.2972 87.2378 48.2972C85.4334 48.337 83.8943 46.7714 83.9341 44.9537ZM97.3183 48.1646V41.7561H97.9817V48.1646H97.3183ZM97.0662 39.2883C97.0662 38.9699 97.3183 38.7045 97.65 38.7045C97.9684 38.7045 98.2338 38.9699 98.2338 39.2883C98.2338 39.6067 97.9684 39.8721 97.65 39.8721C97.3183 39.8721 97.0662 39.6067 97.0662 39.2883ZM106.026 48.1646V38.2136H106.69V48.1646H106.026ZM114.735 48.1646V41.7561H115.398V48.1646H114.735ZM114.482 39.2883C114.482 38.9699 114.735 38.7045 115.066 38.7045C115.385 38.7045 115.65 38.9699 115.65 39.2883C115.65 39.6067 115.385 39.8721 115.066 39.8721C114.735 39.8721 114.482 39.6067 114.482 39.2883ZM126.654 47.5808V48.1646C126.322 48.2574 125.99 48.2972 125.658 48.2972C124.451 48.2972 123.695 47.7002 123.695 46.3734V42.3665H122.58V41.7561H123.695V39.9384H124.371V41.7561H126.441V42.3665H124.371V46.3468C124.371 47.3154 124.902 47.6869 125.765 47.6869C126.017 47.6869 126.322 47.6471 126.654 47.5808ZM138.386 44.1444V48.1646H137.749V47.1562C137.285 47.8859 136.462 48.2972 135.454 48.2972C134.83 48.2972 134.313 48.1513 133.888 47.8461C133.464 47.541 133.251 47.1031 133.251 46.5591C133.251 45.511 134.14 44.8476 135.48 44.8476H137.709V44.1178C137.709 42.8972 137.02 42.247 135.945 42.247C135.135 42.247 134.538 42.6185 133.994 43.3217L133.53 42.9502C134.154 42.0613 134.963 41.6234 135.985 41.6234C137.431 41.6234 138.386 42.5124 138.386 44.1444ZM137.709 45.7763V45.4181H135.547C134.499 45.4181 133.941 45.8161 133.941 46.5193C133.941 47.3021 134.658 47.7134 135.52 47.7134C136.701 47.7134 137.709 46.8776 137.709 45.7763ZM149.538 47.5808V48.1646C149.206 48.2574 148.874 48.2972 148.543 48.2972C147.335 48.2972 146.579 47.7002 146.579 46.3734V42.3665H145.464V41.7561H146.579V39.9384H147.256V41.7561H149.325V42.3665H147.256V46.3468C147.256 47.3154 147.786 47.6869 148.649 47.6869C148.901 47.6869 149.206 47.6471 149.538 47.5808ZM156.099 44.9537C156.059 43.1095 157.598 41.5836 159.416 41.6234C161.247 41.6234 162.733 43.1095 162.733 44.9537C162.773 46.7714 161.22 48.337 159.403 48.2972C157.598 48.337 156.059 46.7714 156.099 44.9537ZM162.043 44.967C162.043 43.4279 160.875 42.247 159.416 42.247C157.93 42.247 156.789 43.4279 156.789 44.967C156.789 46.4795 157.93 47.6736 159.403 47.6736C160.875 47.6736 162.043 46.4795 162.043 44.967ZM173.457 41.7561V42.3399H173.126C172.024 42.3399 170.95 43.1095 170.95 44.3965V48.1646H170.286V41.7561H170.923V42.8441C171.388 42.1011 172.157 41.7163 173.046 41.7163C173.219 41.7163 173.391 41.7561 173.457 41.7561Z" fill="white"/>
</svg>
