<svg width="474" height="111" viewBox="0 0 474 111" fill="none" xmlns="http://www.w3.org/2000/svg">
<path fill-rule="evenodd" clip-rule="evenodd" d="M136.542 110.44C105.659 110.44 66.4681 110.44 0.470321 110.44C0.235175 110.44 0 110.284 0 109.97V60.0407C0 59.7272 0.235175 59.492 0.470321 59.492C0.78385 59.492 0.940595 59.7272 0.940595 60.0407V109.5H5.95707V60.0407C5.95707 59.7272 6.19218 59.492 6.50571 59.492C6.74085 59.492 6.97603 59.7272 6.97603 60.0407V109.5H11.9925V60.0407C11.9925 59.7272 12.1492 59.492 12.4628 59.492C12.7763 59.492 12.933 59.7272 12.933 60.0407V109.5H17.9495V60.0407C17.9495 59.7272 18.1846 59.492 18.4198 59.492C18.7333 59.492 18.9685 59.7272 18.9685 60.0407V109.5H23.985V60.0407C23.985 59.7272 24.1417 59.492 24.4552 59.492C24.6904 59.492 24.9255 59.7272 24.9255 60.0407V109.5H29.942V60.0407C29.942 59.7272 30.1771 59.492 30.4122 59.492C30.7258 59.492 30.9609 59.7272 30.9609 60.0407V109.5H35.9774V60.0407C35.9774 59.7272 36.1342 59.492 36.4477 59.492C36.6828 59.492 36.918 59.7272 36.918 60.0407V109.5C40.4452 109.5 62.8625 109.5 65.9977 109.5V78.3821C65.9977 78.2253 66.05 78.0947 66.1545 77.9902L74.463 69.3682C74.5414 69.2898 74.6981 69.2114 74.8549 69.2114C75.0117 69.2637 75.1423 69.342 75.2468 69.4465L102.21 109.5C106.286 109.5 131.447 109.5 135.523 109.5L93.5098 49.851C93.4315 49.6159 93.4315 49.3807 93.5883 49.224L132.701 1.01896C114.595 1.01896 118.122 1.01896 100.016 1.01896L66.8599 42.4047C66.6248 42.7966 65.9977 42.5615 65.9977 42.0912V1.01896C55.4945 1.01896 47.578 1.01896 36.918 1.01896V50.4781C36.918 50.7132 36.6828 50.9484 36.4477 50.9484C36.1342 50.9484 35.9774 50.7132 35.9774 50.4781V1.01896H30.9609V50.4781C30.9609 50.7132 30.7258 50.9484 30.4122 50.9484C30.1771 50.9484 29.942 50.7132 29.942 50.4781V1.01896H24.9255V50.4781C24.9255 50.7132 24.6904 50.9484 24.4552 50.9484C24.1417 50.9484 23.985 50.7132 23.985 50.4781V1.01896H18.9685V50.4781C18.9685 50.7132 18.7333 50.9484 18.4198 50.9484C18.1846 50.9484 17.9495 50.7132 17.9495 50.4781V1.01896H12.933V50.4781C12.933 50.7132 12.7763 50.9484 12.4628 50.9484C12.1492 50.9484 11.9925 50.7132 11.9925 50.4781V1.01896H6.97603V50.4781C6.97603 50.7132 6.74085 50.9484 6.50571 50.9484C6.19218 50.9484 5.95707 50.7132 5.95707 50.4781V1.01896H0.940595V50.4781C0.940595 50.7132 0.78385 50.9484 0.470321 50.9484C0.235175 50.9484 0 50.7132 0 50.4781V0.470291C0 0.235145 0.235175 0 0.470321 0C19.9091 0 120.552 0 133.72 0C134.19 0 134.347 0.470293 134.112 0.783821L94.6072 49.5375L136.934 109.657C137.169 110.048 136.934 110.44 136.542 110.44ZM98.7615 1.01896C98.9966 1.01896 94.2153 1.01896 94.0585 1.01896L67.0167 34.8016V40.6803L98.7615 1.01896ZM67.0167 25.7877L86.769 1.01896H82.0661L67.0167 19.909V25.7877ZM67.0167 33.234L92.726 1.01896H88.0231L67.0167 27.3553V33.234ZM80.7336 1.01896H76.0306L67.0167 12.3844V18.263L80.7336 1.01896ZM74.6981 1.01896H69.9952L66.9383 4.85969V10.7383L74.6981 1.01896ZM68.6628 1.01896H66.8599V3.29205L68.6628 1.01896ZM71.798 73.444L96.0965 109.5C96.0181 109.5 100.643 109.5 100.956 109.5L74.6198 70.5439L71.798 73.444ZM68.2708 77.0496L90.1394 109.421H94.9208L71.0926 74.1495L68.2708 77.0496ZM66.8599 83.8688L84.104 109.421H88.8853L67.5654 77.755L66.8599 78.5389V83.8688ZM82.9283 109.421L66.8599 85.5932V92.726L78.147 109.421H82.9283ZM76.8929 109.421L66.8599 94.5288V101.662L72.1115 109.421H76.8929ZM70.9358 109.421L66.8599 103.386V109.421H70.9358Z" fill="#FC330A"/>
<path d="M65.7344 44.0301L99.8422 1.24023H99.2221H65.7344V44.0301Z" fill="#FC330A" stroke="#FC330A" stroke-width="1.24029"/>
<path d="M102.324 109.765L75.0375 69.4561L66.3555 78.7582V109.765H102.324Z" fill="#FC330A" stroke="#FC330A" stroke-width="1.24029"/>
<path d="M193.451 102.44H182.334V94.6117C177.428 100.457 170.956 103.38 162.919 103.38C156.76 103.38 151.698 101.658 147.731 98.2129C143.869 94.6639 141.938 90.0711 141.938 84.4345C141.938 78.7978 144.026 74.5181 148.201 71.5954C152.376 68.6727 158.117 67.2114 165.424 67.2114H181.395V65.0193C181.395 57.295 177.063 53.4329 168.399 53.4329C162.971 53.4329 157.335 55.4161 151.489 59.3827L146.009 51.7106C153.211 46.0739 161.249 43.2556 170.121 43.2556C177.324 43.2556 183.013 45.0823 187.188 48.7357C191.363 52.2847 193.451 57.6604 193.451 64.8628V102.44ZM181.238 75.8229H167.46C158.587 75.8229 154.151 78.589 154.151 84.1213C154.151 86.9396 155.247 89.1317 157.439 90.6974C159.631 92.1588 162.71 92.8894 166.677 92.8894C170.748 92.8894 174.192 91.7934 177.011 89.6014C179.829 87.305 181.238 84.3301 181.238 80.6767V75.8229ZM200.859 73.0046C200.859 64.2365 203.625 57.0863 209.157 51.554C214.69 46.0217 221.474 43.2556 229.512 43.2556C237.236 43.2556 243.447 46.5436 248.144 53.1197V21.1787H260.513V102.44H248.144V93.6723C243.76 100.144 237.184 103.38 228.416 103.38C220.796 103.38 214.272 100.562 208.844 94.9249C203.521 89.1839 200.859 81.8771 200.859 73.0046ZM231.078 92.4197C235.984 92.4197 240.107 90.6452 243.447 87.0962C246.787 83.5472 248.457 79.0066 248.457 73.4743C248.457 68.0464 246.735 63.4536 243.29 59.6958C239.95 55.9381 235.827 54.0592 230.921 54.0592C226.015 54.0592 221.788 55.9381 218.239 59.6958C214.794 63.3492 213.072 67.942 213.072 73.4743C213.072 79.0066 214.846 83.5472 218.395 87.0962C221.944 90.6452 226.172 92.4197 231.078 92.4197ZM298.881 92.4197C304.204 92.4197 308.588 90.6452 312.033 87.0962C315.582 83.5472 317.356 78.9544 317.356 73.3177C317.356 67.6811 315.582 63.0883 312.033 59.5393C308.588 55.9903 304.204 54.2158 298.881 54.2158C293.557 54.2158 289.173 55.9903 285.729 59.5393C282.284 63.0883 280.562 67.6811 280.562 73.3177C280.562 78.9544 282.284 83.495 285.729 86.9396C289.173 90.593 293.557 92.4197 298.881 92.4197ZM298.881 103.38C290.113 103.38 282.806 100.509 276.96 94.7683C271.115 88.9229 268.192 81.7727 268.192 73.3177C268.192 64.8628 271.115 57.7648 276.96 52.0237C282.806 46.1783 290.113 43.2556 298.881 43.2556C307.649 43.2556 314.956 46.1783 320.801 52.0237C326.646 57.7648 329.569 64.8628 329.569 73.3177C329.569 81.4596 326.646 88.5576 320.801 94.6117C314.956 100.457 307.649 103.38 298.881 103.38ZM357.413 103.38C348.019 103.38 339.564 100.457 332.049 94.6117L337.998 85.0608C344.679 90.1755 351.255 92.7329 357.727 92.7329C360.441 92.7329 362.58 92.1066 364.146 90.854C365.816 89.497 366.651 87.8269 366.651 85.8436C366.651 82.9209 362.789 80.3114 355.065 78.0149C354.856 77.9106 354.595 77.8062 354.282 77.7018C354.073 77.5974 353.917 77.5452 353.812 77.5452C341.704 74.3094 335.65 68.8293 335.65 61.105C335.65 55.6771 337.685 51.3452 341.756 48.1094C345.931 44.8735 351.411 43.2556 358.196 43.2556C364.877 43.2556 371.244 45.2389 377.298 49.2054L372.758 58.2867C368.06 55.1552 362.894 53.5895 357.257 53.5895C350.681 53.5895 347.393 55.6771 347.393 59.8524C347.393 61.6269 348.019 62.9317 349.272 63.7667C350.629 64.4974 352.821 65.2281 355.848 65.9588C360.441 67.2114 364.303 68.464 367.434 69.7165C369.522 70.656 371.348 71.6476 372.914 72.6914C376.881 75.4054 378.864 79.5285 378.864 85.0608C378.864 90.4886 376.829 94.9249 372.758 98.3695C368.791 101.71 363.676 103.38 357.413 103.38ZM398.98 102.44H386.767V21.1787H398.98V54.6855C400.755 51.1365 403.416 48.3703 406.965 46.3871C410.514 44.2994 414.324 43.2556 418.395 43.2556C425.18 43.2556 430.556 45.2911 434.522 49.362C438.489 53.4329 440.472 59.2261 440.472 66.7416V102.44H428.103V70.4994C428.103 59.748 423.667 54.3723 414.794 54.3723C410.306 54.3723 406.548 55.8337 403.521 58.7564C400.494 61.5747 398.98 65.5934 398.98 70.8126V102.44Z" fill="white"/>
<path d="M449.717 95.0815C449.717 92.7851 450.5 90.854 452.066 89.2882C453.632 87.7225 455.563 86.9396 457.859 86.9396C460.155 86.9396 462.087 87.7225 463.652 89.2882C465.322 90.854 466.157 92.7851 466.157 95.0815C466.157 97.3779 465.322 99.3611 463.652 101.031C462.087 102.597 460.155 103.38 457.859 103.38C455.458 103.38 453.579 102.545 452.222 100.875C450.552 99.309 449.717 97.3779 449.717 95.0815Z" fill="#FC330A"/>
</svg>
