<svg width="16" height="20" viewBox="0 0 16 20" fill="none" xmlns="http://www.w3.org/2000/svg">
<path d="M1.33301 16.2498V3.74984C1.33301 3.1973 1.5525 2.6674 1.9432 2.2767C2.3339 1.886 2.86381 1.6665 3.41634 1.6665H13.833C14.054 1.6665 14.266 1.7543 14.4223 1.91058C14.5785 2.06686 14.6663 2.27882 14.6663 2.49984V17.4998C14.6663 17.7209 14.5785 17.9328 14.4223 18.0891C14.266 18.2454 14.054 18.3332 13.833 18.3332H3.41634C2.86381 18.3332 2.3339 18.1137 1.9432 17.723C1.5525 17.3323 1.33301 16.8024 1.33301 16.2498ZM1.33301 16.2498C1.33301 15.6973 1.5525 15.1674 1.9432 14.7767C2.3339 14.386 2.86381 14.1665 3.41634 14.1665H14.6663" stroke="black" stroke-width="1.5" stroke-linecap="round" stroke-linejoin="round"/>
</svg>
