<svg width="193" height="44" viewBox="0 0 193 44" fill="none" xmlns="http://www.w3.org/2000/svg">
<g opacity="0.8">
<path d="M0 2.0001H18.5714V20.5715H0V2.0001Z" fill="#F35325"/>
<path d="M20.5714 2.00005H39.1429V20.5715H20.5714V2.00005Z" fill="#81BC06"/>
<path d="M0 22.5715H18.5714V41.1429H0V22.5715Z" fill="#05A6F0"/>
<path d="M20.5715 22.5715H39.143V41.1429H20.5715V22.5715Z" fill="#FFBA08"/>
<path d="M54.9806 1.5455H59.5317L64.3386 13.2728H64.5431L69.3499 1.5455H73.9011V19H70.3215V7.63925H70.1766L65.6596 18.9148H63.2221L58.705 7.59664H58.5602V19H54.9806V1.5455Z" fill="white"/>
<path d="M76.3454 19V5.90914H79.976V19H76.3454ZM78.1692 4.22164C77.6295 4.22164 77.1664 4.04266 76.78 3.6847C76.3993 3.32107 76.209 2.88641 76.209 2.38073C76.209 1.88073 76.3993 1.45175 76.78 1.0938C77.1664 0.730158 77.6295 0.54834 78.1692 0.54834C78.709 0.54834 79.1692 0.730158 79.5499 1.0938C79.9363 1.45175 80.1295 1.88073 80.1295 2.38073C80.1295 2.88641 79.9363 3.32107 79.5499 3.6847C79.1692 4.04266 78.709 4.22164 78.1692 4.22164Z" fill="white"/>
<path d="M88.2712 19.2557C86.9303 19.2557 85.7769 18.9716 84.811 18.4035C83.8507 17.8296 83.1121 17.0341 82.5951 16.0171C82.0837 15 81.828 13.8296 81.828 12.5057C81.828 11.1648 82.0865 9.98868 82.6036 8.97732C83.1263 7.96027 83.8678 7.16766 84.828 6.59948C85.7882 6.02561 86.9303 5.73868 88.2542 5.73868C89.3962 5.73868 90.3962 5.94607 91.2542 6.36084C92.1121 6.77561 92.7911 7.358 93.2911 8.108C93.7911 8.858 94.0667 9.73868 94.1178 10.75H90.6917C90.5951 10.0966 90.3394 9.57107 89.9246 9.17334C89.5155 8.76993 88.9786 8.56823 88.3138 8.56823C87.7513 8.56823 87.2598 8.72164 86.8394 9.02845C86.4246 9.32959 86.1007 9.76993 85.8678 10.3495C85.6348 10.929 85.5184 11.6307 85.5184 12.4546C85.5184 13.2898 85.632 14 85.8593 14.5853C86.0922 15.1705 86.4189 15.6165 86.8394 15.9233C87.2598 16.2302 87.7513 16.3836 88.3138 16.3836C88.7286 16.3836 89.1007 16.2983 89.4303 16.1279C89.7655 15.9574 90.0411 15.7103 90.257 15.3864C90.4786 15.0569 90.6235 14.662 90.6917 14.2017H94.1178C94.061 15.2017 93.7882 16.0824 93.2996 16.8438C92.8167 17.5995 92.149 18.1904 91.2968 18.6165C90.4445 19.0427 89.436 19.2557 88.2712 19.2557Z" fill="white"/>
<path d="M95.9144 19V5.90914H99.4342V8.19323H99.5706C99.8092 7.38073 100.21 6.76709 100.772 6.35232C101.335 5.93186 101.983 5.72164 102.715 5.72164C102.897 5.72164 103.093 5.733 103.304 5.75573C103.514 5.77845 103.698 5.8097 103.858 5.84948V9.07107C103.687 9.01993 103.451 8.97448 103.15 8.9347C102.849 8.89493 102.573 8.87505 102.323 8.87505C101.789 8.87505 101.312 8.99152 100.892 9.22448C100.477 9.45175 100.147 9.76993 99.903 10.179C99.6644 10.5881 99.545 11.0597 99.545 11.5938V19H95.9144Z" fill="white"/>
<path d="M110.512 19.2557C109.188 19.2557 108.043 18.9745 107.077 18.412C106.117 17.8438 105.376 17.054 104.853 16.0427C104.33 15.0256 104.069 13.8466 104.069 12.5057C104.069 11.1535 104.33 9.97164 104.853 8.96027C105.376 7.94323 106.117 7.15345 107.077 6.59095C108.043 6.02277 109.188 5.73868 110.512 5.73868C111.836 5.73868 112.978 6.02277 113.938 6.59095C114.904 7.15345 115.648 7.94323 116.171 8.96027C116.694 9.97164 116.955 11.1535 116.955 12.5057C116.955 13.8466 116.694 15.0256 116.171 16.0427C115.648 17.054 114.904 17.8438 113.938 18.412C112.978 18.9745 111.836 19.2557 110.512 19.2557ZM110.529 16.4432C111.131 16.4432 111.634 16.2728 112.038 15.9319C112.441 15.5853 112.745 15.1137 112.95 14.5171C113.16 13.9205 113.265 13.2415 113.265 12.4802C113.265 11.7188 113.16 11.0398 112.95 10.4432C112.745 9.84664 112.441 9.37504 112.038 9.02845C111.634 8.68186 111.131 8.50857 110.529 8.50857C109.921 8.50857 109.41 8.68186 108.995 9.02845C108.586 9.37504 108.276 9.84664 108.066 10.4432C107.862 11.0398 107.759 11.7188 107.759 12.4802C107.759 13.2415 107.862 13.9205 108.066 14.5171C108.276 15.1137 108.586 15.5853 108.995 15.9319C109.41 16.2728 109.921 16.4432 110.529 16.4432Z" fill="white"/>
<path d="M129.68 9.64209L126.356 9.84664C126.299 9.56254 126.177 9.30686 125.99 9.07959C125.802 8.84664 125.555 8.66198 125.248 8.52561C124.947 8.38357 124.586 8.31255 124.166 8.31255C123.603 8.31255 123.129 8.43186 122.743 8.6705C122.356 8.90345 122.163 9.21595 122.163 9.608C122.163 9.9205 122.288 10.1847 122.538 10.4006C122.788 10.6165 123.217 10.7898 123.825 10.9205L126.194 11.3978C127.467 11.6591 128.416 12.0796 129.041 12.6591C129.666 13.2387 129.978 14 129.978 14.9432C129.978 15.8012 129.726 16.554 129.22 17.2017C128.72 17.8495 128.032 18.3552 127.157 18.7188C126.288 19.0768 125.285 19.2557 124.149 19.2557C122.416 19.2557 121.035 18.8949 120.007 18.1733C118.984 17.4461 118.385 16.4574 118.209 15.2074L121.78 15.0199C121.887 15.5483 122.149 15.9517 122.564 16.2302C122.978 16.5029 123.51 16.6392 124.157 16.6392C124.794 16.6392 125.305 16.5171 125.691 16.2728C126.084 16.0228 126.282 15.7018 126.288 15.3097C126.282 14.9802 126.143 14.7103 125.87 14.5C125.598 14.2841 125.177 14.1194 124.609 14.0057L122.342 13.554C121.064 13.2983 120.112 12.8552 119.487 12.2245C118.868 11.5938 118.558 10.7898 118.558 9.81255C118.558 8.97164 118.785 8.2472 119.24 7.63925C119.7 7.0313 120.345 6.56255 121.174 6.233C122.01 5.90345 122.987 5.73868 124.106 5.73868C125.76 5.73868 127.061 6.08811 128.01 6.78698C128.964 7.48584 129.521 8.43755 129.68 9.64209Z" fill="white"/>
<path d="M137.651 19.2557C136.328 19.2557 135.183 18.9745 134.217 18.412C133.256 17.8438 132.515 17.054 131.992 16.0427C131.47 15.0256 131.208 13.8466 131.208 12.5057C131.208 11.1535 131.47 9.97164 131.992 8.96027C132.515 7.94323 133.256 7.15345 134.217 6.59095C135.183 6.02277 136.328 5.73868 137.651 5.73868C138.975 5.73868 140.117 6.02277 141.078 6.59095C142.043 7.15345 142.788 7.94323 143.31 8.96027C143.833 9.97164 144.095 11.1535 144.095 12.5057C144.095 13.8466 143.833 15.0256 143.31 16.0427C142.788 17.054 142.043 17.8438 141.078 18.412C140.117 18.9745 138.975 19.2557 137.651 19.2557ZM137.668 16.4432C138.271 16.4432 138.774 16.2728 139.177 15.9319C139.58 15.5853 139.884 15.1137 140.089 14.5171C140.299 13.9205 140.404 13.2415 140.404 12.4802C140.404 11.7188 140.299 11.0398 140.089 10.4432C139.884 9.84664 139.58 9.37504 139.177 9.02845C138.774 8.68186 138.271 8.50857 137.668 8.50857C137.06 8.50857 136.549 8.68186 136.134 9.02845C135.725 9.37504 135.416 9.84664 135.205 10.4432C135.001 11.0398 134.899 11.7188 134.899 12.4802C134.899 13.2415 135.001 13.9205 135.205 14.5171C135.416 15.1137 135.725 15.5853 136.134 15.9319C136.549 16.2728 137.06 16.4432 137.668 16.4432Z" fill="white"/>
<path d="M152.967 5.90914V8.63641H144.888V5.90914H152.967ZM146.737 19V4.96311C146.737 4.01425 146.922 3.22732 147.291 2.60232C147.666 1.97732 148.177 1.50857 148.825 1.19607C149.473 0.883567 150.209 0.727317 151.032 0.727317C151.589 0.727317 152.098 0.769931 152.558 0.855159C153.024 0.940386 153.371 1.01709 153.598 1.08527L152.95 3.81255C152.808 3.76709 152.632 3.72448 152.422 3.6847C152.217 3.64493 152.007 3.62505 151.791 3.62505C151.257 3.62505 150.885 3.75005 150.675 4.00005C150.464 4.24436 150.359 4.58811 150.359 5.0313V19H146.737Z" fill="white"/>
<path d="M161.62 5.90914V8.63641H153.737V5.90914H161.62ZM155.526 2.77277H159.157V14.9773C159.157 15.3125 159.208 15.5739 159.311 15.7614C159.413 15.9432 159.555 16.0711 159.737 16.1449C159.924 16.2188 160.14 16.2557 160.384 16.2557C160.555 16.2557 160.725 16.2415 160.896 16.2131C161.066 16.179 161.197 16.1535 161.288 16.1364L161.859 18.8381C161.677 18.8949 161.421 18.9603 161.092 19.0341C160.762 19.1137 160.362 19.162 159.89 19.179C159.015 19.2131 158.248 19.0966 157.589 18.8296C156.936 18.5625 156.427 18.1478 156.063 17.5853C155.7 17.0228 155.521 16.3125 155.526 15.4546V2.77277Z" fill="white"/>
<path d="M61.7443 30.1819C61.6676 29.5341 61.3565 29.0313 60.8111 28.6733C60.2656 28.3154 59.5966 28.1364 58.804 28.1364C58.2244 28.1364 57.7173 28.2302 57.2827 28.4177C56.8523 28.6052 56.5156 28.863 56.2727 29.1911C56.0341 29.5192 55.9148 29.8921 55.9148 30.3097C55.9148 30.6591 55.9979 30.9596 56.1641 31.211C56.3345 31.4581 56.5518 31.6648 56.8161 31.831C57.0803 31.9929 57.3572 32.1272 57.647 32.2337C57.9368 32.336 58.2031 32.4191 58.446 32.483L59.7756 32.841C60.1165 32.9304 60.4957 33.054 60.9134 33.2117C61.3352 33.3694 61.7379 33.5846 62.1214 33.8573C62.5092 34.1258 62.8288 34.4709 63.0803 34.8928C63.3317 35.3147 63.4574 35.8324 63.4574 36.4461C63.4574 37.1535 63.272 37.7927 62.9013 38.3637C62.5348 38.9347 61.9979 39.3885 61.2905 39.7252C60.5874 40.0618 59.733 40.2302 58.7273 40.2302C57.7898 40.2302 56.978 40.0789 56.2919 39.7763C55.6101 39.4738 55.0732 39.0519 54.6811 38.5107C54.2933 37.9695 54.0739 37.341 54.0227 36.625H55.6591C55.7017 37.1194 55.8679 37.5285 56.1577 37.8523C56.4517 38.1719 56.8224 38.4106 57.2699 38.5682C57.7216 38.7216 58.2074 38.7983 58.7273 38.7983C59.3324 38.7983 59.8757 38.7003 60.3572 38.5043C60.8388 38.304 61.2202 38.027 61.5014 37.6733C61.7827 37.3154 61.9233 36.8978 61.9233 36.4205C61.9233 35.9858 61.8018 35.6321 61.5589 35.3594C61.3161 35.0867 60.9965 34.8651 60.6001 34.6946C60.2038 34.5242 59.7756 34.375 59.3153 34.2472L57.7045 33.787C56.6818 33.4929 55.8722 33.0732 55.2756 32.5277C54.679 31.9823 54.3807 31.2685 54.3807 30.3864C54.3807 29.6535 54.5788 29.0142 54.9751 28.4688C55.3757 27.9191 55.9126 27.4929 56.5859 27.1904C57.2635 26.8836 58.0199 26.7302 58.8551 26.7302C59.6989 26.7302 60.4489 26.8814 61.1051 27.184C61.7614 27.4823 62.2812 27.8914 62.6648 28.4113C63.0526 28.9312 63.2571 29.5214 63.2784 30.1819H61.7443Z" fill="white"/>
<path d="M69.4518 40.2046C68.5655 40.2046 67.7878 39.9937 67.1187 39.5718C66.454 39.1499 65.9341 38.5597 65.5591 37.8012C65.1883 37.0427 65.003 36.1563 65.003 35.1421C65.003 34.1194 65.1883 33.2266 65.5591 32.4638C65.9341 31.701 66.454 31.1087 67.1187 30.6868C67.7878 30.265 68.5655 30.054 69.4518 30.054C70.3382 30.054 71.1138 30.265 71.7785 30.6868C72.4476 31.1087 72.9675 31.701 73.3382 32.4638C73.7132 33.2266 73.9007 34.1194 73.9007 35.1421C73.9007 36.1563 73.7132 37.0427 73.3382 37.8012C72.9675 38.5597 72.4476 39.1499 71.7785 39.5718C71.1138 39.9937 70.3382 40.2046 69.4518 40.2046ZM69.4518 38.8495C70.1251 38.8495 70.6791 38.6769 71.1138 38.3317C71.5484 37.9866 71.8702 37.5327 72.079 36.9702C72.2878 36.4077 72.3922 35.7983 72.3922 35.1421C72.3922 34.4858 72.2878 33.8743 72.079 33.3076C71.8702 32.7408 71.5484 32.2827 71.1138 31.9333C70.6791 31.5839 70.1251 31.4091 69.4518 31.4091C68.7785 31.4091 68.2246 31.5839 67.7899 31.9333C67.3552 32.2827 67.0335 32.7408 66.8247 33.3076C66.6159 33.8743 66.5115 34.4858 66.5115 35.1421C66.5115 35.7983 66.6159 36.4077 66.8247 36.9702C67.0335 37.5327 67.3552 37.9866 67.7899 38.3317C68.2246 38.6769 68.7785 38.8495 69.4518 38.8495Z" fill="white"/>
<path d="M77.316 26.9091V40H75.8074V26.9091H77.316Z" fill="white"/>
<path d="M85.8704 35.9858V30.1819H87.3789V40H85.8704V38.3381H85.7681C85.538 38.8367 85.1801 39.2607 84.6943 39.6101C84.2085 39.9553 83.5948 40.1279 82.8534 40.1279C82.2397 40.1279 81.6943 39.9937 81.217 39.7252C80.7397 39.4525 80.3647 39.0434 80.092 38.4979C79.8193 37.9482 79.6829 37.2557 79.6829 36.4205V30.1819H81.1914V36.3182C81.1914 37.0341 81.3917 37.6052 81.7923 38.0313C82.1971 38.4574 82.7127 38.6705 83.3392 38.6705C83.7142 38.6705 84.0956 38.5746 84.4833 38.3829C84.8754 38.1911 85.2035 37.8971 85.4677 37.5008C85.7362 37.1044 85.8704 36.5995 85.8704 35.9858Z" fill="white"/>
<path d="M94.0158 30.1819V31.4603H88.9277V30.1819H94.0158ZM90.4107 27.8296H91.9192V37.1875C91.9192 37.6137 91.981 37.9333 92.1046 38.1464C92.2324 38.3552 92.3943 38.4958 92.5904 38.5682C92.7906 38.6364 93.0016 38.6705 93.2232 38.6705C93.3894 38.6705 93.5257 38.662 93.6323 38.6449C93.7388 38.6236 93.824 38.6066 93.8879 38.5938L94.1948 39.9489C94.0925 39.9873 93.9497 40.0256 93.7665 40.064C93.5833 40.1066 93.351 40.1279 93.0698 40.1279C92.6436 40.1279 92.226 40.0363 91.8169 39.853C91.4121 39.6698 91.0755 39.3907 90.807 39.0157C90.5428 38.6407 90.4107 38.1677 90.4107 37.5966V27.8296Z" fill="white"/>
<path d="M95.889 40V30.1819H97.3975V40H95.889ZM96.656 28.5455C96.362 28.5455 96.1084 28.4454 95.8954 28.2451C95.6865 28.0448 95.5821 27.804 95.5821 27.5228C95.5821 27.2415 95.6865 27.0008 95.8954 26.8005C96.1084 26.6002 96.362 26.5 96.656 26.5C96.95 26.5 97.2015 26.6002 97.4103 26.8005C97.6233 27.0008 97.7299 27.2415 97.7299 27.5228C97.7299 27.804 97.6233 28.0448 97.4103 28.2451C97.2015 28.4454 96.95 28.5455 96.656 28.5455Z" fill="white"/>
<path d="M103.753 40.2046C102.867 40.2046 102.089 39.9937 101.42 39.5718C100.755 39.1499 100.235 38.5597 99.8603 37.8012C99.4896 37.0427 99.3042 36.1563 99.3042 35.1421C99.3042 34.1194 99.4896 33.2266 99.8603 32.4638C100.235 31.701 100.755 31.1087 101.42 30.6868C102.089 30.265 102.867 30.054 103.753 30.054C104.639 30.054 105.415 30.265 106.08 30.6868C106.749 31.1087 107.269 31.701 107.639 32.4638C108.014 33.2266 108.202 34.1194 108.202 35.1421C108.202 36.1563 108.014 37.0427 107.639 37.8012C107.269 38.5597 106.749 39.1499 106.08 39.5718C105.415 39.9937 104.639 40.2046 103.753 40.2046ZM103.753 38.8495C104.426 38.8495 104.98 38.6769 105.415 38.3317C105.85 37.9866 106.171 37.5327 106.38 36.9702C106.589 36.4077 106.693 35.7983 106.693 35.1421C106.693 34.4858 106.589 33.8743 106.38 33.3076C106.171 32.7408 105.85 32.2827 105.415 31.9333C104.98 31.5839 104.426 31.4091 103.753 31.4091C103.08 31.4091 102.526 31.5839 102.091 31.9333C101.656 32.2827 101.335 32.7408 101.126 33.3076C100.917 33.8743 100.813 34.4858 100.813 35.1421C100.813 35.7983 100.917 36.4077 101.126 36.9702C101.335 37.5327 101.656 37.9866 102.091 38.3317C102.526 38.6769 103.08 38.8495 103.753 38.8495Z" fill="white"/>
<path d="M111.617 34.0938V40H110.109V30.1819H111.566V31.716H111.694C111.924 31.2174 112.273 30.8168 112.742 30.5142C113.211 30.2074 113.816 30.054 114.558 30.054C115.222 30.054 115.804 30.1904 116.303 30.4631C116.801 30.7316 117.189 31.1407 117.466 31.6904C117.743 32.2358 117.881 32.9262 117.881 33.7614V40H116.373V33.8637C116.373 33.0924 116.173 32.4915 115.772 32.0611C115.371 31.6265 114.822 31.4091 114.123 31.4091C113.641 31.4091 113.211 31.5135 112.832 31.7223C112.457 31.9312 112.161 32.2358 111.943 32.6364C111.726 33.037 111.617 33.5228 111.617 34.0938Z" fill="white"/>
<path d="M127.197 32.3807L125.841 32.7642C125.756 32.5384 125.63 32.3189 125.464 32.1059C125.302 31.8885 125.081 31.7096 124.8 31.5689C124.518 31.4283 124.158 31.358 123.719 31.358C123.118 31.358 122.618 31.4965 122.217 31.7735C121.821 32.0462 121.623 32.3935 121.623 32.8154C121.623 33.1904 121.759 33.4866 122.032 33.7039C122.304 33.9212 122.731 34.1023 123.31 34.2472L124.768 34.6052C125.645 34.8182 126.3 35.1442 126.73 35.5831C127.16 36.0178 127.376 36.5782 127.376 37.2642C127.376 37.8267 127.214 38.3296 126.89 38.7728C126.57 39.216 126.123 39.5654 125.547 39.8211C124.972 40.0767 124.303 40.2046 123.54 40.2046C122.539 40.2046 121.71 39.9873 121.054 39.5526C120.398 39.1179 119.982 38.483 119.807 37.6478L121.239 37.2898C121.375 37.8182 121.633 38.2145 122.013 38.4787C122.396 38.7429 122.897 38.875 123.515 38.875C124.218 38.875 124.776 38.7259 125.189 38.4276C125.607 38.125 125.816 37.7628 125.816 37.341C125.816 37 125.697 36.7145 125.458 36.4844C125.219 36.25 124.853 36.0753 124.358 35.9603L122.722 35.5767C121.823 35.3637 121.162 35.0334 120.741 34.586C120.323 34.1343 120.114 33.5696 120.114 32.8921C120.114 32.3381 120.27 31.8481 120.581 31.4219C120.896 30.9958 121.324 30.6613 121.866 30.4184C122.411 30.1755 123.029 30.054 123.719 30.054C124.691 30.054 125.454 30.2671 126.008 30.6932C126.566 31.1194 126.962 31.6819 127.197 32.3807Z" fill="white"/>
<path d="M133.917 43.6819V30.1819H135.374V31.7415H135.553C135.664 31.5711 135.817 31.3537 136.013 31.0895C136.214 30.8211 136.499 30.5824 136.87 30.3736C137.245 30.1606 137.752 30.054 138.391 30.054C139.218 30.054 139.947 30.2607 140.577 30.6741C141.208 31.0874 141.7 31.6733 142.054 32.4319C142.408 33.1904 142.584 34.0853 142.584 35.1165C142.584 36.1563 142.408 37.0576 142.054 37.8204C141.7 38.5789 141.21 39.167 140.584 39.5846C139.957 39.9979 139.235 40.2046 138.417 40.2046C137.786 40.2046 137.281 40.1002 136.902 39.8914C136.523 39.6783 136.231 39.4375 136.026 39.1691C135.822 38.8964 135.664 38.6705 135.553 38.4915H135.425V43.6819H133.917ZM135.4 35.091C135.4 35.8324 135.508 36.4865 135.726 37.0533C135.943 37.6158 136.261 38.0569 136.678 38.3765C137.096 38.6918 137.607 38.8495 138.212 38.8495C138.843 38.8495 139.369 38.6833 139.791 38.3509C140.217 38.0143 140.537 37.5625 140.75 36.9958C140.967 36.4248 141.076 35.7898 141.076 35.091C141.076 34.4006 140.969 33.7785 140.756 33.2245C140.547 32.6662 140.23 32.2252 139.804 31.9013C139.382 31.5732 138.851 31.4091 138.212 31.4091C137.599 31.4091 137.083 31.5647 136.665 31.8758C136.248 32.1826 135.932 32.613 135.719 33.1669C135.506 33.7167 135.4 34.358 135.4 35.091Z" fill="white"/>
<path d="M147.379 40.2302C146.757 40.2302 146.192 40.113 145.685 39.8786C145.178 39.64 144.775 39.2969 144.477 38.8495C144.178 38.3978 144.029 37.8523 144.029 37.2131C144.029 36.6506 144.14 36.1946 144.362 35.8452C144.583 35.4915 144.879 35.2145 145.25 35.0142C145.621 34.814 146.03 34.6648 146.477 34.5668C146.929 34.4645 147.383 34.3836 147.839 34.3239C148.436 34.2472 148.919 34.1897 149.29 34.1513C149.665 34.1087 149.938 34.0384 150.108 33.9404C150.283 33.8424 150.37 33.6719 150.37 33.429V33.3779C150.37 32.7472 150.198 32.2571 149.852 31.9077C149.512 31.5583 148.994 31.3836 148.299 31.3836C147.579 31.3836 147.014 31.5412 146.605 31.8566C146.196 32.1719 145.909 32.5086 145.742 32.8665L144.311 32.3552C144.566 31.7586 144.907 31.2941 145.333 30.9617C145.764 30.625 146.232 30.3907 146.74 30.2586C147.251 30.1222 147.754 30.054 148.248 30.054C148.563 30.054 148.926 30.0924 149.335 30.1691C149.748 30.2415 150.146 30.3928 150.53 30.6229C150.918 30.853 151.24 31.2003 151.495 31.6648C151.751 32.1293 151.879 32.7515 151.879 33.5313V40H150.37V38.6705H150.294C150.191 38.8836 150.021 39.1116 149.782 39.3545C149.543 39.5973 149.226 39.804 148.83 39.9745C148.433 40.1449 147.95 40.2302 147.379 40.2302ZM147.609 38.875C148.205 38.875 148.708 38.7579 149.117 38.5235C149.531 38.2891 149.842 37.9865 150.051 37.6158C150.264 37.2451 150.37 36.8552 150.37 36.4461V35.0654C150.306 35.1421 150.166 35.2124 149.948 35.2763C149.735 35.336 149.488 35.3892 149.207 35.4361C148.93 35.4787 148.659 35.5171 148.395 35.5512C148.135 35.581 147.924 35.6066 147.762 35.6279C147.37 35.679 147.004 35.7621 146.663 35.8772C146.326 35.988 146.053 36.1563 145.845 36.3821C145.64 36.6037 145.538 36.9063 145.538 37.2898C145.538 37.814 145.732 38.2103 146.119 38.4787C146.512 38.7429 147.008 38.875 147.609 38.875Z" fill="white"/>
<path d="M154.236 40V30.1819H155.693V31.6648H155.796C155.975 31.179 156.299 30.7848 156.767 30.4823C157.236 30.1797 157.765 30.0285 158.353 30.0285C158.463 30.0285 158.602 30.0306 158.768 30.0348C158.934 30.0391 159.06 30.0455 159.145 30.054V31.5881C159.094 31.5753 158.977 31.5562 158.794 31.5306C158.615 31.5008 158.425 31.4858 158.225 31.4858C157.747 31.4858 157.321 31.586 156.946 31.7863C156.576 31.9823 156.282 32.255 156.064 32.6044C155.851 32.9496 155.745 33.3438 155.745 33.787V40H154.236Z" fill="white"/>
<path d="M165.422 30.1819V31.4603H160.334V30.1819H165.422ZM161.817 27.8296H163.326V37.1875C163.326 37.6137 163.388 37.9333 163.511 38.1464C163.639 38.3552 163.801 38.4958 163.997 38.5682C164.197 38.6364 164.408 38.6705 164.63 38.6705C164.796 38.6705 164.932 38.662 165.039 38.6449C165.146 38.6236 165.231 38.6066 165.295 38.5938L165.601 39.9489C165.499 39.9873 165.356 40.0256 165.173 40.064C164.99 40.1066 164.758 40.1279 164.476 40.1279C164.05 40.1279 163.633 40.0363 163.224 39.853C162.819 39.6698 162.482 39.3907 162.214 39.0157C161.949 38.6407 161.817 38.1677 161.817 37.5966V27.8296Z" fill="white"/>
<path d="M168.804 34.0938V40H167.296V30.1819H168.753V31.716H168.881C169.111 31.2174 169.46 30.8168 169.929 30.5142C170.398 30.2074 171.003 30.054 171.745 30.054C172.409 30.054 172.991 30.1904 173.49 30.4631C173.988 30.7316 174.376 31.1407 174.653 31.6904C174.93 32.2358 175.068 32.9262 175.068 33.7614V40H173.56V33.8637C173.56 33.0924 173.36 32.4915 172.959 32.0611C172.558 31.6265 172.009 31.4091 171.31 31.4091C170.828 31.4091 170.398 31.5135 170.019 31.7223C169.644 31.9312 169.348 32.2358 169.13 32.6364C168.913 33.037 168.804 33.5228 168.804 34.0938Z" fill="white"/>
<path d="M181.545 40.2046C180.599 40.2046 179.783 39.9958 179.097 39.5782C178.415 39.1563 177.889 38.5682 177.518 37.814C177.152 37.0554 176.969 36.1733 176.969 35.1677C176.969 34.162 177.152 33.2756 177.518 32.5086C177.889 31.7373 178.405 31.1364 179.065 30.706C179.73 30.2714 180.506 30.054 181.392 30.054C181.903 30.054 182.408 30.1392 182.907 30.3097C183.406 30.4802 183.859 30.7571 184.268 31.1407C184.678 31.5199 185.004 32.0228 185.246 32.6492C185.489 33.2756 185.611 34.0469 185.611 34.9631V35.6023H178.043V34.2983H184.077C184.077 33.7444 183.966 33.25 183.744 32.8154C183.527 32.3807 183.216 32.0377 182.811 31.7863C182.41 31.5348 181.937 31.4091 181.392 31.4091C180.791 31.4091 180.271 31.5583 179.832 31.8566C179.398 32.1506 179.063 32.5341 178.829 33.0071C178.594 33.4802 178.477 33.9873 178.477 34.5285V35.3978C178.477 36.1393 178.605 36.7678 178.861 37.2834C179.121 37.7948 179.481 38.1847 179.941 38.4532C180.401 38.7174 180.936 38.8495 181.545 38.8495C181.942 38.8495 182.3 38.7941 182.619 38.6833C182.943 38.5682 183.222 38.3978 183.457 38.1719C183.691 37.9418 183.872 37.6563 184 37.3154L185.457 37.7245C185.304 38.2188 185.046 38.6535 184.684 39.0285C184.322 39.3992 183.874 39.689 183.342 39.8978C182.809 40.1023 182.21 40.2046 181.545 40.2046Z" fill="white"/>
<path d="M187.51 40V30.1819H188.967V31.6648H189.069C189.248 31.179 189.572 30.7848 190.041 30.4823C190.51 30.1797 191.038 30.0285 191.626 30.0285C191.737 30.0285 191.875 30.0306 192.041 30.0348C192.208 30.0391 192.333 30.0455 192.419 30.054V31.5881C192.367 31.5753 192.25 31.5562 192.067 31.5306C191.888 31.5008 191.698 31.4858 191.498 31.4858C191.021 31.4858 190.595 31.586 190.22 31.7863C189.849 31.9823 189.555 32.255 189.338 32.6044C189.125 32.9496 189.018 33.3438 189.018 33.787V40H187.51Z" fill="white"/>
</g>
</svg>
