<svg width="104" height="26" viewBox="0 0 104 26" fill="none" xmlns="http://www.w3.org/2000/svg">
<path d="M57.7853 0.417115C61.1626 0.412984 64.5335 0.409149 67.9111 0.406494C67.9126 1.91844 67.9138 3.4357 67.9153 4.94735C69.9021 4.94617 71.877 4.94351 73.8657 4.94204C73.8678 7.02248 73.8699 9.1041 73.8714 11.1875C71.8839 11.189 69.9081 11.1916 67.9222 11.1928C67.927 15.7165 67.9314 20.2123 67.9356 24.736C65.4369 24.9525 62.3779 25.1349 60.4209 24.5153C59.3801 24.1858 58.4992 23.235 58.1221 22.2473C57.791 21.3894 57.779 13.8606 57.776 11.2034C56.4176 11.2034 55.0317 11.2049 53.6744 11.2075C53.6717 9.12416 53.6702 7.04283 53.6678 4.9621C55.0248 4.96092 56.411 4.95945 57.7695 4.95797C57.7677 3.46461 57.7285 1.82138 57.7853 0.417115Z" fill="white"/>
<path d="M14.0758 4.79773C19.8034 4.36802 26.2183 6.16471 27.4312 10.2606C27.4695 10.4446 27.6188 11.253 27.6188 11.253C27.6188 11.253 27.6508 22.5106 27.6534 25.3898C24.3255 25.3939 20.9935 25.396 17.6674 25.4002C17.6653 23.5054 17.6635 21.6067 17.662 19.7131C14.8629 20.5442 8.88587 21.7528 12.6991 25.4059C10.2836 25.4083 3.89209 25.4297 2.76511 25.4151C1.30425 25.0883 0.442125 23.0715 0.793788 21.1391C1.11227 19.3812 2.21881 18.1472 3.53243 17.3805C6.7519 15.498 11.527 15.6026 15.6901 14.6022C16.2343 14.4706 16.7821 14.4101 17.1898 14.131C17.4386 13.9604 17.5406 13.7254 17.6034 13.3479C17.881 11.6478 16.1852 11.1442 14.5996 11.1618C14.1253 11.1659 13.4681 11.2411 13.0472 11.3726C12.7536 11.4612 12.3453 11.6544 12.116 11.8426C11.6343 12.232 11.3407 12.7867 11.3422 13.6688C8.13544 13.6718 4.92308 13.6753 1.71723 13.6783C1.83189 12.8159 1.98002 12.1044 2.23273 11.4343C2.68927 10.223 3.29601 9.26814 4.09266 8.40633C6.28292 6.03469 9.83243 5.11473 14.0758 4.79773Z" fill="white"/>
<path d="M48.3956 4.75005C49.5013 4.66743 50.4719 4.95434 51.255 5.22053C51.2571 7.33949 51.2592 9.45934 51.2613 11.5795C49.4653 11.5822 47.5205 11.4698 46.271 12.0055C45.5171 12.3261 44.7605 13.0745 44.4537 13.8484C44.0596 14.8332 44.1965 16.4351 44.1977 17.7895C44.2004 20.326 44.2024 22.8713 44.2057 25.4109C40.7918 25.4133 37.3755 25.4172 33.9642 25.4202C33.9577 18.692 33.9508 11.9665 33.944 5.23825C37.0629 5.23405 40.2718 5.23164 43.3935 5.22744C43.3946 6.01908 43.336 7.02012 43.4074 7.64683C44.4215 6.00796 45.9395 4.93391 48.3956 4.75005Z" fill="white"/>
<path d="M102.511 11.4922C101.526 9.32033 99.8693 7.48532 97.815 6.37958C95.4506 5.106 92.1017 4.24523 88.2768 4.52861C81.4503 5.02888 76.776 8.14397 75.6231 14.3106C75.1904 16.6167 75.4712 19.2832 76.1512 21.1342C76.4382 21.9178 77.7436 24.5941 78.3442 24.8019C79.2122 24.7552 83.9343 24.7959 85.7964 24.7951C85.7943 23.1382 85.7923 21.487 85.7908 19.8316C91.6941 19.8263 97.6043 19.821 103.51 19.8142C103.916 16.8031 103.476 13.6239 102.511 11.4922ZM85.4721 14.6114C85.5419 13.7131 85.6547 13.0758 85.9907 12.4916C86.5155 11.5723 87.45 10.9373 88.7518 10.8043C91.9579 10.4731 93.4065 11.9606 93.706 14.6032C90.9622 14.6047 88.2145 14.6088 85.4721 14.6114Z" fill="white"/>
</svg>
