<svg width="21" height="20" viewBox="0 0 21 20" fill="none" xmlns="http://www.w3.org/2000/svg">
<path d="M15.5001 6.66659V4.99992C15.5001 4.55789 15.3245 4.13397 15.0119 3.82141C14.6994 3.50885 14.2754 3.33325 13.8334 3.33325H3.83341C3.39139 3.33325 2.96746 3.50885 2.6549 3.82141C2.34234 4.13397 2.16675 4.55789 2.16675 4.99992V10.8333C2.16675 11.2753 2.34234 11.6992 2.6549 12.0118C2.96746 12.3243 3.39139 12.4999 3.83341 12.4999H10.5001" stroke="black" stroke-width="1.5" stroke-linecap="round" stroke-linejoin="round"/>
<path d="M8.83325 15.8334V12.5334V15.1584" stroke="black" stroke-width="1.5" stroke-linecap="round" stroke-linejoin="round"/>
<path d="M6.33325 15.8333H10.4999" stroke="black" stroke-width="1.5" stroke-linecap="round" stroke-linejoin="round"/>
<path d="M17.1666 10H15.4999C14.5794 10 13.8333 10.7462 13.8333 11.6667V16.6667C13.8333 17.5871 14.5794 18.3333 15.4999 18.3333H17.1666C18.0871 18.3333 18.8333 17.5871 18.8333 16.6667V11.6667C18.8333 10.7462 18.0871 10 17.1666 10Z" stroke="black" stroke-width="1.5" stroke-linecap="round" stroke-linejoin="round"/>
</svg>
