<svg width="32" height="28" viewBox="0 0 32 28" fill="none" xmlns="http://www.w3.org/2000/svg">
<path d="M12.7701 10.0759C12.7701 10.4888 12.7155 10.9001 12.6066 11.2983C12.4166 12.0708 11.9791 12.7602 11.3609 13.2608C11.0367 13.5226 10.671 13.728 10.2788 13.8681C9.92275 13.9939 9.55049 14.0675 9.17324 14.0862L8.04429 14.1565V17.871L5.26465 17.5439V6.55613L7.21114 6.416C7.87297 6.36919 8.5036 6.34578 9.16544 6.34578C10.1699 6.26869 11.159 6.62604 11.8827 7.32699C12.5198 8.09567 12.8378 9.07969 12.7701 10.0759ZM13.6497 3.26233H26.2392V20.8998H13.6653L13.6497 3.26233Z" fill="white"/>
<path d="M17.9145 0.567636C25.3276 0.558898 31.344 6.56258 31.3524 13.9766V13.9922C31.3568 21.4106 25.3473 27.428 17.9301 27.4324H17.9223C10.5048 27.4324 4.49219 21.4184 4.49219 14V13.9922C4.49656 6.57974 10.5033 0.572006 17.9145 0.567636Z" fill="#D35230"/>
<path d="M17.9135 0.567627C10.5017 0.580423 4.49619 6.58691 4.4834 14H17.9135V0.567627Z" fill="#ED6C47"/>
<path d="M17.9141 0.567627C25.3272 0.580423 31.3348 6.58566 31.352 14H17.9141V0.567627Z" fill="#FF8F6B"/>
<g opacity="0.05">
<path d="M7.08424 21.9585H16.3802C16.925 21.9975 17.398 21.5874 17.437 21.0425C17.438 21.0285 17.4386 21.0147 17.4392 21.0007V6.98441C17.4224 6.43856 16.9662 6.00975 16.4204 6.0266C16.4204 6.0266 16.4198 6.0266 16.4195 6.0266H7.07675C5.90661 7.5933 5.09594 9.39843 4.70215 11.314V16.6558C5.0922 18.5904 5.90567 20.4149 7.08455 21.9975V21.9585H7.08424Z" fill="black"/>
</g>
<g opacity="0.1">
<path d="M8.96198 23.9755H14.5521C15.3307 23.9755 15.8914 22.3636 15.8914 21.6395V9.81131C15.8384 9.11129 15.2542 8.57106 14.5521 8.57325H5.64533C3.28289 13.8866 4.63432 20.1187 8.98538 23.9758H8.96198V23.9755Z" fill="black"/>
</g>
<g opacity="0.2">
<path d="M8.09695 23.0881H14.5901C15.2726 23.07 15.8308 22.5385 15.8826 21.8578V8.92386C15.8296 8.22384 15.2454 7.68361 14.5433 7.6858H6.07244C3.38236 12.7242 4.19616 18.9164 8.09664 23.0884L8.09695 23.0881Z" fill="black"/>
</g>
<g opacity="0.1">
<path d="M7.35919 22.2621H16.0323C16.5799 22.2795 17.0389 21.8517 17.0602 21.3043V7.28798C17.0474 6.73621 16.5921 6.29803 16.0401 6.30677H6.89987C3.49835 11.1386 3.68526 17.6341 7.35919 22.2621Z" fill="black"/>
</g>
<g opacity="0.1">
<path d="M7.31854 22.5118H15.7894C16.3577 22.5118 16.8095 21.2582 16.8095 20.7208V7.70877C16.7927 7.16293 16.3364 6.73412 15.7907 6.75097C15.7907 6.75097 15.7901 6.75097 15.7898 6.75097H6.44702C3.27266 11.6333 3.62557 18.0096 7.31885 22.5118H7.31854Z" fill="black"/>
</g>
<g opacity="0.2">
<path d="M8.4576 23.5159H14.5539C15.25 23.514 15.8286 22.9794 15.8853 22.2856V9.32828C15.8323 8.62826 15.2482 8.08803 14.5461 8.09022H5.87298C3.31895 13.2466 4.36116 19.46 8.45791 23.5006V23.5162L8.4576 23.5159Z" fill="black"/>
</g>
<g opacity="0.3">
<path d="M7.03811 21.8416H14.5514C15.25 21.8394 15.8298 21.3005 15.8828 20.6036V7.98857C15.826 7.29167 15.2428 6.75581 14.5436 6.75831H6.6568C3.6447 11.3816 3.80571 17.3865 7.06152 21.8416H7.03811Z" fill="black"/>
</g>
<g opacity="0.3">
<path d="M6.9828 21.7714H14.5504C15.2534 21.7692 15.8366 21.2268 15.8896 20.5255V7.98857C15.8328 7.29167 15.2496 6.75581 14.5504 6.75831H6.65579C3.6596 11.3535 3.79564 17.3179 6.9984 21.7714H6.9828Z" fill="black"/>
</g>
<g opacity="0.3">
<path d="M7.51383 22.4724H14.521C15.2318 22.4868 15.83 21.9434 15.8833 21.2343V8.30788C15.8306 7.60661 15.2474 7.0642 14.544 7.06201H6.43917C3.48666 11.9053 3.91759 18.086 7.51351 22.4724H7.51383Z" fill="black"/>
</g>
<g opacity="0.2">
<path d="M7.77003 22.7604H14.5512C15.2486 22.7623 15.8297 22.2258 15.8827 21.5302V8.59622C15.8297 7.8962 15.2455 7.35598 14.5434 7.35816H6.26726C3.42022 12.2848 4.02432 18.4776 7.77003 22.7608V22.7604Z" fill="black"/>
</g>
<g opacity="0.1">
<path d="M7.10112 22.2154H15.6653C16.2335 22.2154 16.6854 21.281 16.6854 20.7513V8.19876C16.6685 7.65292 16.2123 7.22411 15.6666 7.24096C15.6666 7.24096 15.6659 7.24096 15.6656 7.24096H6.17499C3.35292 11.9426 3.72143 17.8976 7.10143 22.2154H7.10112Z" fill="black"/>
</g>
<g opacity="0.2">
<path d="M7.06139 21.8652H15.1039C15.6452 21.887 16.1018 21.4657 16.1233 20.9242C16.1233 20.9211 16.1233 20.9183 16.1236 20.9152V8.15226C16.1068 7.60641 15.6505 7.1776 15.1048 7.19445C15.1048 7.19445 15.1042 7.19445 15.1039 7.19445H6.39175C3.63365 11.7716 3.89794 17.5583 7.06139 21.8649V21.8652Z" fill="black"/>
</g>
<g opacity="0.3">
<path d="M6.70428 21.3511H15.1983C15.744 21.3686 16.2009 20.9401 16.2183 20.3942C16.2183 20.3939 16.2183 20.3936 16.2183 20.3933V7.70838C16.2183 7.14006 14.8404 6.8208 14.6613 6.65726C14.221 6.43755 13.7361 6.32301 13.2443 6.32239H6.86779C3.73243 10.823 3.66753 16.7833 6.70428 21.3511Z" fill="black"/>
</g>
<g opacity="0.1">
<path d="M7.87355 22.8775H15.5035C16.0496 22.8906 16.5027 22.4584 16.5158 21.9125C16.5158 21.9125 16.5158 21.9122 16.5158 21.9119V8.83751C16.4989 8.29853 16.0502 7.8744 15.5113 7.8875H5.98947C3.44136 12.7901 4.1915 18.7579 7.87355 22.8772V22.8775Z" fill="black"/>
</g>
<g opacity="0.1">
<path d="M6.27803 20.6582L13.8144 19.8795C14.3748 19.8795 15.8854 19.4201 15.8854 18.8905V6.8519C15.8813 6.30138 15.4317 5.85852 14.8812 5.86258C14.8759 5.86258 14.8706 5.86258 14.8653 5.86258H7.25096C3.95116 10.1385 3.56642 15.9865 6.27772 20.6578L6.27803 20.6582Z" fill="black"/>
</g>
<g opacity="0.15">
<path d="M6.41655 20.8843L13.8128 20.1056C14.3732 20.1056 15.8838 19.6462 15.8838 19.1166V8.21496C15.8838 7.67754 14.9261 6.0968 13.8752 6.0968H7.07058C3.85191 10.4305 3.58699 16.285 6.40095 20.8921L6.41655 20.8843Z" fill="black"/>
</g>
<path d="M1.92434 6.32227H14.716C15.4256 6.32227 16.0007 6.89745 16.0007 7.60714V20.401C16.0007 21.1063 15.429 21.678 14.7238 21.678C14.7213 21.678 14.7185 21.678 14.716 21.678H1.92434C1.22351 21.6824 0.651854 21.1175 0.647486 20.4166C0.647486 20.4113 0.647486 20.4063 0.647486 20.401V7.60714C0.643117 6.90182 1.21134 6.32663 1.91654 6.32227C1.91904 6.32227 1.92185 6.32227 1.92434 6.32227Z" fill="#C43E1C"/>
<path d="M8.35405 9.20349C9.30889 9.13452 10.2565 9.41103 11.0245 9.98216C11.6554 10.548 11.9937 11.371 11.9431 12.217C11.9559 12.7713 11.7952 13.3159 11.4838 13.7744C11.1705 14.2662 10.7252 14.6601 10.1991 14.9113C9.59222 15.1925 8.92914 15.3311 8.26044 15.3161H6.42316V18.789H4.54688V9.20318H8.35405V9.20349ZM6.39975 13.6963H8.01924C8.53254 13.7291 9.04053 13.5771 9.4518 13.2682C9.77944 13.0534 9.96448 12.6777 9.93452 12.2869C9.93452 11.2202 9.3195 10.7296 8.08164 10.7296H6.40007V13.6963H6.39975Z" fill="#F9F7F7"/>
</svg>
