<svg width="32" height="28" viewBox="0 0 32 28" fill="none" xmlns="http://www.w3.org/2000/svg">
<path d="M9.65848 0.967065H29.9533C30.6496 0.962826 31.2185 1.52151 31.227 2.21797V25.7898C31.2185 26.4848 30.6484 27.0413 29.9536 27.0329H9.65848C9.32212 27.0322 8.99877 26.9023 8.75535 26.6701C8.51739 26.4393 8.38357 26.1214 8.38478 25.7898V2.21797C8.38326 1.88397 8.51678 1.5639 8.75535 1.33013C9.00271 1.10393 9.32333 0.975241 9.65848 0.967065Z" fill="#41A5EE"/>
<path d="M31.227 20.5244H8.38477V25.7899C8.39324 26.4848 8.96334 27.0414 9.65817 27.0329H29.9533C30.6481 27.0414 31.2185 26.4851 31.227 25.7899V20.524V20.5244Z" fill="#103F91"/>
<path d="M8.38477 14.0079H31.2273V20.5244H8.38477V14.0079Z" fill="#185ABD"/>
<path d="M8.38477 7.49146H31.2273V14.0079H8.38477V7.49146Z" fill="#2B7CD3"/>
<g opacity="0.05">
<path d="M16.481 6.29498H9.85757C9.5975 6.29074 9.38314 6.49817 9.37891 6.75798V21.2659C9.39102 21.5223 9.60083 21.7252 9.85757 21.7291H16.481C16.9981 21.7291 17.4187 21.3122 17.4229 20.795V7.26003C17.4271 6.74829 17.016 6.33011 16.5043 6.32556C16.4965 6.32556 16.4889 6.32556 16.481 6.32556V6.29468V6.29498Z" fill="black"/>
</g>
<g opacity="0.1">
<path d="M14.7148 8.74215H8.38477V23.69H14.7148C15.3954 23.703 15.9598 23.1661 15.981 22.4854V9.90796C15.9437 9.24088 15.3827 8.72428 14.7148 8.74215Z" fill="black"/>
</g>
<g opacity="0.2">
<path d="M14.7148 7.88517H8.38477V22.8252H14.7148C15.3954 22.8382 15.9598 22.3013 15.981 21.6206V9.08187C15.9601 8.40267 15.3942 7.86791 14.7148 7.88517Z" fill="black"/>
</g>
<g opacity="0.1">
<path d="M16.103 6.58796H9.47958C9.22375 6.58372 9.01303 6.78751 9.00879 7.04338C9.00879 7.04611 9.00879 7.04853 9.00879 7.05125V21.5513C9.00879 21.8071 9.21618 22.0146 9.47201 22.0146C9.47473 22.0146 9.47716 22.0146 9.47988 22.0146H16.1033C16.6204 22.0188 17.0443 21.6052 17.0528 21.088V7.51455C17.0443 6.99735 16.6204 6.58372 16.1033 6.58796H16.103Z" fill="black"/>
</g>
<g opacity="0.1">
<path d="M16.0806 6.97376H9.46499C9.20492 6.96952 8.99057 7.17695 8.98633 7.43676V21.7902C8.98633 22.0461 9.19342 22.2535 9.44925 22.2538C9.45439 22.2538 9.45984 22.2538 9.46499 22.2538H16.0809C16.5965 22.2665 17.0252 21.8589 17.0379 21.3429C17.0379 21.3378 17.0379 21.3324 17.0379 21.3272V7.90036C17.0294 7.38013 16.601 6.96528 16.0809 6.97376H16.0806Z" fill="black"/>
</g>
<g opacity="0.2">
<path d="M14.7148 8.29423H8.38477V23.2342H14.7148C15.3942 23.2515 15.9598 22.7167 15.981 22.0375V9.49093C15.9601 8.81173 15.3942 8.27697 14.7148 8.29423Z" fill="black"/>
</g>
<g opacity="0.3">
<path d="M14.7148 6.98173H8.38477V21.6516H14.7148C15.3966 21.6773 15.9701 21.1456 15.9958 20.464C15.9967 20.4379 15.997 20.4116 15.9964 20.3856V8.17843C15.9755 7.4965 15.406 6.96053 14.7242 6.98143C14.7212 6.98143 14.7182 6.98143 14.7151 6.98173H14.7148Z" fill="black"/>
</g>
<g opacity="0.3">
<path d="M14.7148 6.98173H8.38477V21.5511H14.7148C15.387 21.5732 15.9549 21.0566 15.9964 20.3853V8.17843C15.9755 7.4965 15.406 6.96053 14.7242 6.98143C14.7212 6.98143 14.7182 6.98143 14.7151 6.98173H14.7148Z" fill="black"/>
</g>
<g opacity="0.3">
<path d="M14.7148 7.25973H8.38477V22.223H14.7148C15.3942 22.2403 15.9598 21.7055 15.981 21.0263V8.47944C15.9728 7.79722 15.413 7.25095 14.7309 7.25912C14.7254 7.25912 14.7203 7.25912 14.7148 7.25912V7.25973Z" fill="black"/>
</g>
<g opacity="0.2">
<path d="M14.7148 7.56073H8.38477V22.5086H14.7148C15.3954 22.5216 15.9598 21.9847 15.981 21.304V8.80376C15.9855 8.12153 15.436 7.56466 14.7539 7.56042C14.7409 7.56042 14.7279 7.56042 14.7148 7.56073Z" fill="black"/>
</g>
<g opacity="0.1">
<path d="M15.9332 7.39875H9.30972C9.04965 7.39451 8.83529 7.60193 8.83105 7.86174V21.4815C8.83529 21.7416 9.04965 21.949 9.30941 21.9448H15.9329C16.4488 21.949 16.8705 21.5342 16.8747 21.0182C16.8747 21.0155 16.8747 21.013 16.8747 21.0103V8.33291C16.8705 7.81571 16.45 7.39875 15.9329 7.39875H15.9332Z" fill="black"/>
</g>
<g opacity="0.2">
<path d="M15.1937 7.39864H8.57781C8.51907 7.38714 8.45882 7.38714 8.40039 7.39864V21.6207C8.45943 21.6285 8.51907 21.6285 8.57781 21.6207H15.1937C15.7138 21.6249 16.1389 21.2067 16.1431 20.6865V8.33281C16.1389 7.81258 15.7138 7.39441 15.1937 7.39864Z" fill="black"/>
</g>
<g opacity="0.3">
<path d="M13.5263 6.59564H8.71694C8.45839 6.59564 8.24676 6.80064 8.23828 7.05894V20.6708C8.24252 20.9309 8.45687 21.1383 8.71664 21.1341H15.3325C15.8496 21.1383 16.2735 20.7247 16.282 20.2075V7.9389C16.282 7.38294 15.0004 7.08952 14.8539 6.91965C14.443 6.70859 13.988 6.59746 13.526 6.59534L13.5263 6.59564Z" fill="black"/>
</g>
<g opacity="0.1">
<path d="M15.6102 8.07007H8.99429C8.73573 8.07007 8.5241 8.27507 8.51562 8.53337V22.1531C8.5241 22.4114 8.73573 22.6164 8.99429 22.6164H15.6102C16.1303 22.6206 16.5554 22.2025 16.5596 21.6822V9.00454C16.5554 8.48734 16.1348 8.07037 15.6177 8.07037H15.6102V8.07007Z" fill="black"/>
</g>
<g opacity="0.1">
<path d="M15.0142 6.13238H8.39831V18.3083H8.30566V20.2154C8.30566 20.4713 8.51305 20.6787 8.76888 20.6787C8.77161 20.6787 8.77403 20.6787 8.77676 20.6787L14.0723 19.7367C14.5973 19.7367 16.01 19.2888 16.01 18.7716V7.0511C15.9933 6.52967 15.5588 6.11936 15.0372 6.13238H15.0139H15.0142Z" fill="black"/>
</g>
<g opacity="0.15">
<path d="M15.0142 6.39491H8.39831V18.54H8.30566V20.4471C8.30566 20.7029 8.51305 20.9104 8.76888 20.9104C8.77161 20.9104 8.77403 20.9104 8.77676 20.9104L14.0723 19.9683C14.5973 19.9683 16.01 19.5205 16.01 19.0033V7.29819C15.9894 6.77827 15.5513 6.37372 15.0314 6.39431C15.0281 6.39431 15.0251 6.39431 15.0218 6.39461H15.0139L15.0142 6.39491Z" fill="black"/>
</g>
<path d="M2.0386 6.55715H14.7142C15.4063 6.55291 15.9718 7.10826 15.9803 7.80018V20.2078C15.9761 20.9027 15.4093 21.4629 14.7145 21.4587H2.0386C1.70436 21.4517 1.38465 21.3194 1.14305 21.088C0.905077 20.8573 0.771258 20.5394 0.772469 20.2078V7.79261C0.785185 7.10372 1.34953 6.55291 2.0386 6.55715Z" fill="#185ABD"/>
<path d="M12.2822 18.6634H10.5761L8.5767 12.2396L6.48464 18.6634H4.77103L2.86426 9.35205H4.57787L5.90577 15.8685L7.90518 9.53737H9.33329L11.2401 15.8685L12.568 9.35205H14.1892L12.2825 18.6634H12.2822Z" fill="white"/>
</svg>
