<svg width="38" height="34" viewBox="0 0 38 34" fill="none" xmlns="http://www.w3.org/2000/svg">
<path d="M35.4424 12.4336H26.5748C25.6345 12.4336 25.8505 13.233 25.8505 14.1735V22.7981C25.8505 25.9148 28.3767 28.4411 31.4926 28.4411C34.6084 28.4411 37.1346 25.9145 37.1346 22.7981V14.1735C37.1504 13.2283 36.3969 12.4494 35.4515 12.4336C35.4484 12.4336 35.4452 12.4336 35.4416 12.4336H35.4424Z" fill="#5059C9"/>
<path d="M31.4734 10.8157C33.5611 10.8157 35.2535 9.085 35.2535 6.95008C35.2535 4.81517 33.5611 3.08447 31.4734 3.08447C29.3857 3.08447 27.6934 4.81517 27.6934 6.95008C27.6934 9.085 29.3857 10.8157 31.4734 10.8157Z" fill="#5059C9"/>
<path d="M12.3949 12.4338H27.1305C28.0807 12.4441 28.8428 13.223 28.8326 14.1737V24.7266C28.8847 29.7929 24.8235 33.9433 19.758 34.0002C14.698 33.9433 10.6408 29.7969 10.6929 24.7361V14.1741C10.6771 13.2289 11.4306 12.45 12.3756 12.4342C12.3787 12.4342 12.3819 12.4342 12.3854 12.4342H12.3949V12.4338Z" fill="#7B83EB"/>
<path d="M19.757 10.8158C22.6809 10.8158 25.0511 8.39461 25.0511 5.40786C25.0511 2.42111 22.6809 -0.00012207 19.757 -0.00012207C16.8331 -0.00012207 14.4629 2.42111 14.4629 5.40786C14.4629 8.39461 16.8331 10.8158 19.757 10.8158Z" fill="#7B83EB"/>
<g opacity="0.1">
<path d="M12.3946 12.4337C11.4496 12.4389 10.6874 13.2095 10.6925 14.1546C10.6925 14.1578 10.6925 14.161 10.6925 14.1641V24.7166C10.6838 26.2191 11.042 27.7011 11.7363 29.0337H17.4818C18.3127 29.044 18.9947 28.3788 19.0053 27.5478V12.4333H12.3946V12.4337Z" fill="black"/>
</g>
<g opacity="0.2">
<path d="M12.3945 12.4336C11.4495 12.4387 10.6873 13.2093 10.6924 14.1545C10.6924 14.1577 10.6924 14.1608 10.6924 14.164V24.7165C10.6936 25.8173 10.8875 26.909 11.2662 27.9426H17.4821C18.313 27.9529 18.995 27.2878 19.0056 26.4567V12.4336H12.3949H12.3945Z" fill="black"/>
</g>
<g opacity="0.2">
<path d="M18.9764 10.7314C18.9081 9.95726 18.2581 9.3648 17.4813 9.36756H16.1836C16.9509 10.1002 17.9267 10.577 18.9764 10.7314Z" fill="black"/>
</g>
<g opacity="0.1">
<path d="M12.3945 12.4337C11.4495 12.4389 10.6873 13.2095 10.6924 14.1546C10.6924 14.1578 10.6924 14.161 10.6924 14.1641V24.7166C10.6944 25.4742 10.786 26.2286 10.9653 26.9644H19.1276C19.7611 26.9542 20.2662 26.432 20.2559 25.7985V12.4333H12.3945V12.4337Z" fill="black"/>
</g>
<g opacity="0.1">
<path d="M15.0088 7.74976C15.8547 9.59112 17.6847 10.7808 19.7106 10.8065C19.878 10.814 20.0458 10.7982 20.2089 10.7595V8.92559C20.2141 8.29561 19.7106 7.77898 19.0807 7.76871L15.0088 7.74976Z" fill="black"/>
</g>
<g opacity="0.1">
<path d="M15.2734 8.23865C16.209 9.82842 17.915 10.8048 19.7588 10.8064C19.9231 10.8139 20.0878 10.7981 20.2477 10.7594V9.42396C20.2528 8.79398 19.7493 8.27735 19.1194 8.26709H15.2734V8.23904V8.23865Z" fill="black"/>
</g>
<g opacity="0.1">
<path d="M12.3945 12.4338C11.4495 12.4389 10.6873 13.2095 10.6924 14.1547C10.6924 14.1578 10.6924 14.161 10.6924 14.1641V24.7167C10.6904 25.5844 10.8077 26.4482 11.0403 27.2844L18.9768 27.3879C19.6612 27.3334 20.2018 26.7847 20.2464 26.0995V12.3962L12.3945 12.4338Z" fill="black"/>
</g>
<g opacity="0.2">
<path d="M12.3945 12.4336C11.4495 12.4387 10.6873 13.2093 10.6924 14.1545C10.6924 14.1577 10.6924 14.1608 10.6924 14.164V24.7165C10.6968 26.012 10.9689 27.2929 11.4917 28.4786H17.5101C18.341 28.4838 19.019 27.8143 19.0242 26.9832V12.4336H12.3945Z" fill="black"/>
</g>
<g opacity="0.2">
<path d="M18.8354 10.7124C18.5681 10.2135 18.0472 9.90226 17.4813 9.90345H16.7949C17.407 10.3209 18.1037 10.597 18.8354 10.7124Z" fill="black"/>
</g>
<g opacity="0.3">
<path d="M12.3946 12.4337C11.4496 12.4389 10.6874 13.2095 10.6925 14.1546C10.6925 14.1578 10.6925 14.161 10.6925 14.1641V24.7166C10.6894 25.3004 10.7427 25.883 10.8524 26.4565H17.4913C18.3202 26.4565 18.9951 25.7902 19.0053 24.9611V12.4333H12.3946V12.4337Z" fill="black"/>
</g>
<g opacity="0.3">
<path d="M19.0042 10.7404V9.73397C18.994 8.9065 18.3175 8.24255 17.4902 8.24808H15.2803C16.0946 9.60324 17.4764 10.5188 19.0418 10.7404H19.0042Z" fill="black"/>
</g>
<g opacity="0.3">
<path d="M12.3945 12.4337C11.4495 12.4389 10.6873 13.2095 10.6924 14.1546C10.6924 14.1578 10.6924 14.161 10.6924 14.1641V24.7166C10.694 25.2657 10.7445 25.8131 10.8429 26.353H17.4911C18.3236 26.3582 19.004 25.6903 19.0147 24.8576V12.4333H12.3945V12.4337Z" fill="black"/>
</g>
<g opacity="0.3">
<path d="M19.0042 10.7404V9.73406C18.994 8.90303 18.312 8.23789 17.4811 8.24816H15.2803C16.0867 9.59384 17.4527 10.5082 19.0042 10.7404Z" fill="black"/>
</g>
<g opacity="0.3">
<path d="M12.3945 12.4336C11.4495 12.4387 10.6873 13.2093 10.6924 14.1545C10.6924 14.1577 10.6924 14.1608 10.6924 14.164V24.7165C10.6924 25.5617 10.8061 26.4034 11.0308 27.2183H17.4817C18.3106 27.2183 18.9855 26.5519 18.9958 25.7229V12.4336H12.3945Z" fill="black"/>
</g>
<g opacity="0.3">
<path d="M19.0055 10.7405V10.1196C18.9952 9.28541 18.316 8.61475 17.4819 8.61475H15.5449C16.3687 9.75662 17.6146 10.5221 19.0055 10.7405Z" fill="black"/>
</g>
<g opacity="0.2">
<path d="M12.3946 12.4338C11.4496 12.439 10.6874 13.2096 10.6925 14.1547C10.6925 14.1579 10.6925 14.1611 10.6925 14.1642V24.7167C10.687 25.6749 10.8359 26.6276 11.1344 27.5384H17.4818C18.3127 27.5487 18.9947 26.8836 19.005 26.0525C19.005 26.0494 19.005 26.0462 19.005 26.0431V12.4338H12.3942H12.3946Z" fill="black"/>
</g>
<g opacity="0.2">
<path d="M19.0058 10.7405V10.4585C18.9955 9.63099 18.319 8.96704 17.4917 8.97257H15.8086C16.6292 9.92485 17.7634 10.5517 19.0058 10.7409V10.7405Z" fill="black"/>
</g>
<g opacity="0.1">
<path d="M19.7578 10.8062H20.0493V9.95034C20.0544 9.32035 19.5509 8.80373 18.921 8.79346H15.6484C16.627 10.0751 18.1454 10.8292 19.7578 10.8343V10.8062Z" fill="black"/>
</g>
<g opacity="0.1">
<path d="M20.049 12.4336H12.3945C11.4495 12.4387 10.6873 13.2093 10.6924 14.1545C10.6924 14.1577 10.6924 14.1608 10.6924 14.164V24.7165C10.6924 25.4421 10.7773 26.1649 10.9463 26.8703H18.9207C19.549 26.8703 20.0584 26.3608 20.0584 25.7324L20.049 12.4336Z" fill="black"/>
</g>
<g opacity="0.2">
<path d="M12.3945 12.4336C11.4495 12.4387 10.6873 13.2093 10.6924 14.1545C10.6924 14.1577 10.6924 14.1608 10.6924 14.164V24.7165C10.6924 25.3097 10.7489 25.9022 10.8618 26.4848H18.046C18.6759 26.4797 19.1837 25.9674 19.1837 25.3374V12.4336H12.3945Z" fill="black"/>
</g>
<g opacity="0.2">
<path d="M19.1832 10.7498V9.95042C19.1883 9.3153 18.6805 8.79433 18.0455 8.78406H15.6191C16.4931 9.89393 17.7785 10.6029 19.1832 10.7498Z" fill="black"/>
</g>
<g opacity="0.3">
<path d="M19.305 10.7686V9.42368C19.305 8.74669 17.7724 8.3608 17.603 8.16332C17.1082 7.89039 16.5505 7.75096 15.9854 7.75886H14.9512C15.7564 9.47147 17.4186 10.6204 19.305 10.7686Z" fill="black"/>
</g>
<g opacity="0.3">
<path d="M12.3945 12.4337C11.4495 12.4389 10.6873 13.2095 10.6925 14.1546C10.6925 14.1578 10.6925 14.161 10.6925 14.1641V24.7166C10.6909 25.1002 10.713 25.4833 10.7584 25.864H18.2155C18.8438 25.8589 19.3492 25.345 19.3437 24.7166V12.4333H12.3945V12.4337Z" fill="black"/>
</g>
<g opacity="0.1">
<path d="M19.6744 10.7967C19.6796 10.1718 19.18 9.65956 18.5552 9.64929H16.4863C17.3934 10.4045 18.5315 10.8259 19.7119 10.8437L19.6744 10.7967Z" fill="black"/>
</g>
<g opacity="0.1">
<path d="M12.3946 12.4337C11.4496 12.4389 10.6874 13.2095 10.6926 14.1546C10.6926 14.1578 10.6926 14.161 10.6926 14.1641V24.7166C10.6859 25.7341 10.8509 26.7452 11.1815 27.7074H18.5445C19.1728 27.7023 19.6783 27.1884 19.6728 26.56V12.4523L12.3942 12.4333L12.3946 12.4337Z" fill="black"/>
</g>
<g opacity="0.1">
<path d="M12.3945 12.4336C11.4495 12.4387 10.6873 13.2093 10.6924 14.1545C10.6924 14.1577 10.6924 14.1608 10.6924 14.164V24.9424L16.6543 24.1335C17.2842 24.1335 18.9582 23.5786 18.9582 22.9391V12.4616L12.3945 12.4336Z" fill="black"/>
</g>
<g opacity="0.1">
<path d="M18.9671 10.7314V8.36118C18.9777 7.72764 18.4726 7.20549 17.8388 7.19482H14.7822C15.4153 9.05752 17.0249 10.4178 18.9667 10.731L18.9671 10.7314Z" fill="black"/>
</g>
<g opacity="0.15">
<path d="M18.9674 10.7313V8.64345C18.9725 8.01347 18.469 7.49684 17.8391 7.48657H14.877C15.5783 9.20984 17.1299 10.4406 18.9674 10.7313Z" fill="black"/>
</g>
<g opacity="0.15">
<path d="M12.3945 12.4336C11.4495 12.4387 10.6873 13.2093 10.6924 14.1545C10.6924 14.1577 10.6924 14.1608 10.6924 14.164V25.2244L16.6354 24.425C17.2653 24.425 18.9487 23.8606 18.9487 23.2306V12.4336H12.3945Z" fill="black"/>
</g>
<path d="M2.37933 7.72156H17.5004C18.3431 7.73183 19.0196 8.42106 19.0144 9.26393V24.726C19.0196 25.5689 18.3435 26.2581 17.5004 26.2683H2.37933C1.53818 26.2632 0.86013 25.5767 0.865263 24.7355C0.865263 24.7323 0.865263 24.7291 0.865263 24.726V9.26393C0.86013 8.42106 1.53621 7.73183 2.37933 7.72156Z" fill="#4B53BC"/>
<path d="M14.435 13.4871H11.0499V22.7887H8.82139V13.4871H5.42676V11.2018H14.4354V13.4871H14.435Z" fill="white"/>
</svg>
