<svg width="612" height="345" viewBox="0 0 612 345" fill="none" xmlns="http://www.w3.org/2000/svg">
<path d="M446.752 257.593C441.704 257.593 436.769 256.096 432.572 253.291C428.374 250.487 425.103 246.5 423.171 241.836C421.239 237.172 420.733 232.04 421.718 227.089C422.703 222.137 425.134 217.589 428.704 214.02C432.273 210.45 436.821 208.019 441.773 207.034C446.724 206.049 451.856 206.555 456.52 208.487C461.184 210.418 465.171 213.69 467.975 217.887C470.78 222.085 472.277 227.02 472.277 232.068C472.276 238.837 469.586 245.329 464.799 250.115C460.013 254.902 453.521 257.591 446.752 257.593ZM165.715 257.593C160.667 257.593 155.732 256.096 151.535 253.291C147.337 250.487 144.066 246.5 142.134 241.836C140.202 237.172 139.696 232.04 140.681 227.089C141.666 222.137 144.097 217.589 147.667 214.02C151.236 210.45 155.784 208.019 160.736 207.034C165.687 206.049 170.819 206.555 175.483 208.487C180.147 210.418 184.134 213.69 186.938 217.887C189.743 222.085 191.24 227.02 191.24 232.068C191.239 238.837 188.549 245.329 183.762 250.115C178.976 254.902 172.484 257.591 165.715 257.593ZM455.792 104.445L506.842 16.4382C507.53 15.2331 507.974 13.9039 508.148 12.5268C508.322 11.1496 508.221 9.75178 507.853 8.4135C507.485 7.07522 506.856 5.82289 506.002 4.72843C505.148 3.63398 504.087 2.71898 502.878 2.03599C501.67 1.35301 500.339 0.915499 498.961 0.748591C497.583 0.581683 496.185 0.688666 494.849 1.0634C493.512 1.43814 492.263 2.07324 491.173 2.93222C490.083 3.7912 489.173 4.85713 488.496 6.06879L436.915 95.1392C395.947 76.4184 351.408 66.803 306.367 66.9557C261.272 66.8453 216.674 76.3633 175.553 94.8733L123.706 5.80291C123.029 4.59126 122.119 3.52532 121.029 2.66634C119.938 1.80736 118.689 1.17226 117.353 0.797524C116.016 0.422788 114.619 0.3158 113.241 0.482708C111.863 0.649616 110.531 1.08713 109.323 1.77012C108.115 2.4531 107.053 3.3681 106.2 4.46255C105.346 5.557 104.717 6.80934 104.349 8.14762C103.98 9.4859 103.88 10.8838 104.054 12.2609C104.227 13.638 104.671 14.9673 105.36 16.1723L156.144 104.179C112.234 128.127 74.9911 162.647 47.7857 204.616C20.5803 246.585 4.27196 294.676 0.336914 344.536H611.067C607.251 294.745 591.046 246.699 563.927 204.767C536.809 162.835 499.637 128.349 455.792 104.445Z" fill="#3DDC84"/>
</svg>
