<svg width="180" height="40" viewBox="0 0 180 40" fill="none" xmlns="http://www.w3.org/2000/svg">
<path d="M7.50904 22.3483C10.3586 22.3483 12.8916 20.4485 13.8415 17.7573C14.3956 16.095 14.2373 14.2744 13.4457 12.6121C12.6542 11.029 11.3085 9.84167 9.56709 9.28758L4.65943 7.70447C3.78872 8.81265 3.15547 9.92083 2.52223 11.1873L8.37975 13.0871C9.80456 13.562 10.517 15.066 10.1212 16.4908C9.80456 17.5989 8.77553 18.3905 7.5882 18.3905C7.35073 18.3905 7.03411 18.3113 6.71748 18.2322L0.859958 16.3324C0.701646 17.5198 0.543335 18.628 0.543335 19.8945C0.543335 20.0528 0.543335 20.2902 0.543335 20.4485L5.45099 22.0317C6.16339 22.2691 6.79664 22.3483 7.50904 22.3483Z" fill="white"/>
<path d="M33.472 26.8597C32.2055 25.1183 30.2267 24.0892 28.0895 24.0892C26.6646 24.0892 25.319 24.5642 24.2108 25.3557C22.786 26.3848 21.8361 27.9679 21.5195 29.7093C21.2029 31.4507 21.6778 33.2713 22.7069 34.6961L25.7148 38.8914C27.0604 38.4956 28.2478 38.0206 29.5143 37.3082L25.9522 32.3214C25.5565 31.7673 25.319 31.0549 25.4773 30.3425C25.5565 29.6301 25.9522 28.9969 26.5063 28.6011C26.9813 28.2845 27.5354 28.047 28.0895 28.047C28.9602 28.047 29.7517 28.4428 30.2267 29.1552L33.7887 34.142C34.7385 33.1921 35.6884 32.1631 36.4008 30.9758L33.472 26.8597Z" fill="white"/>
<path d="M16.2958 25.3557C15.1876 24.485 13.8419 24.0892 12.4171 24.0892C10.2799 24.0892 8.30102 25.1183 7.03453 26.8597L4.02661 31.0549C4.81817 32.2423 5.68888 33.2713 6.63875 34.2212L10.2008 29.2344C10.6757 28.522 11.4673 28.1262 12.338 28.1262C12.8921 28.1262 13.4461 28.2845 13.9211 28.6803C15.1084 29.551 15.3459 31.2924 14.5543 32.4797L10.9923 37.4666C12.1797 38.0998 13.4461 38.6539 14.7918 39.0497L17.7997 34.8544C18.8287 33.4296 19.2245 31.609 18.9871 29.8676C18.6704 27.9679 17.7206 26.4639 16.2958 25.3557Z" fill="white"/>
<path d="M39.6467 16.3324L33.7892 18.2322C33.5517 18.3113 33.2351 18.3905 32.9185 18.3905C31.7312 18.3905 30.7021 17.6781 30.3855 16.4908C30.148 15.7784 30.2272 15.066 30.5438 14.4327C30.8604 13.7995 31.4145 13.3245 32.0478 13.0871L37.9053 11.1873C37.2721 9.92083 36.5597 8.81265 35.7681 7.70447L30.8604 9.28758C29.1982 9.84167 27.7734 11.029 26.9818 12.6121C26.1902 14.1952 26.0319 16.0158 26.586 17.7573C27.4567 20.5277 29.9897 22.3483 32.9185 22.3483C33.6309 22.3483 34.2641 22.2691 34.9765 22.0317L39.8842 20.4485C39.8842 20.2902 39.8842 20.0528 39.8842 19.8945C39.8842 18.628 39.805 17.5198 39.6467 16.3324Z" fill="white"/>
<path d="M26.8232 6.35872V1.13444C25.5567 0.659505 24.2902 0.342882 22.8654 0.18457V6.35872C22.8654 7.86268 21.6781 9.05002 20.1741 9.05002C18.7493 9.05002 17.4828 7.86268 17.4828 6.35872V0.18457C16.1372 0.342882 14.7915 0.738661 13.525 1.13444V6.35872C13.525 10.079 16.5329 13.087 20.1741 13.087C23.8944 13.087 26.8232 9.99988 26.8232 6.35872Z" fill="white"/>
<path d="M52.8654 9.68311H51.7572V31.6884H52.8654V9.68311Z" fill="white"/>
<path d="M75.0001 16.6489C75.0001 19.261 73.417 21.1608 70.4882 21.1608C67.4803 21.1608 65.8972 19.261 65.8972 16.6489V9.92065H68.2718V16.5697C68.2718 17.9154 69.2217 18.9444 70.4882 18.9444C71.7547 18.9444 72.6254 17.9154 72.6254 16.5697V9.92065H75.0001V16.6489Z" fill="white"/>
<path d="M77.9292 9.92065H81.1746L85.7657 17.5196H85.8448V9.92065H88.2195V20.8442H85.0532L80.3831 13.0869H80.3039V20.8442H77.9292V9.92065Z" fill="white"/>
<path d="M93.5219 9.92065H91.1472V20.8442H93.5219V9.92065Z" fill="white"/>
<path d="M98.5098 12.0579H95.4227V9.92065H104.051V12.0579H100.964V20.8442H98.5098V12.0579Z" fill="white"/>
<path d="M106.108 9.92065H113.469V12.137H108.483V14.1951H113.153V16.4114H108.483V18.6278H113.707V20.8442H106.108V9.92065Z" fill="white"/>
<path d="M118.773 18.6278H120.039C122.256 18.6278 123.918 17.7571 123.918 15.3032C123.918 13.166 122.177 12.137 120.198 12.137H118.773V18.6278ZM116.398 9.92065H119.96C123.443 9.92065 126.372 11.4246 126.372 15.4616C126.372 19.0236 123.522 20.9233 120.277 20.9233H116.398V9.92065Z" fill="white"/>
<path d="M141.095 12.7702C140.62 12.2161 139.908 11.8995 139.037 11.8995C137.217 11.8995 135.871 13.4034 135.871 15.4615C135.871 17.5195 137.217 19.0235 138.958 19.0235C139.908 19.0235 140.699 18.5486 141.174 17.8361L143.153 19.3401C142.283 20.6066 140.699 21.2398 139.195 21.2398C135.792 21.2398 133.338 19.0235 133.338 15.4615C133.338 11.8995 135.792 9.68311 139.195 9.68311C140.383 9.68311 141.966 10.0789 142.837 11.2662L141.095 12.7702Z" fill="white"/>
<path d="M149.802 13.0869L148.456 16.4906H151.148L149.802 13.0869ZM148.852 9.92065H150.831L155.581 20.8442H152.889L151.939 18.5486H147.744L146.873 20.8442H144.261L148.852 9.92065Z" fill="white"/>
<path d="M160.776 14.5908H162.359C163.23 14.5908 164.022 14.2742 164.022 13.2452C164.022 12.137 162.914 11.9787 161.964 11.9787H160.776V14.5908ZM158.402 9.92065H162.439C164.655 9.92065 166.555 10.6331 166.555 13.2452C166.555 15.8573 164.813 16.6489 162.518 16.6489H160.776V20.9233H158.402V9.92065Z" fill="white"/>
<path d="M174.154 12.6124C173.758 12.1375 173.045 11.9 172.412 11.9C171.7 11.9 170.829 12.2166 170.829 13.0082C170.829 14.9871 175.816 13.7206 175.816 17.5201C175.816 19.9739 173.837 21.1612 171.621 21.1612C170.275 21.1612 169.008 20.7655 167.979 19.8156L169.721 17.9158C170.196 18.5491 170.987 18.9449 171.779 18.9449C172.57 18.9449 173.441 18.5491 173.441 17.7575C173.441 15.7786 168.375 16.8077 168.375 13.1665C168.375 10.871 170.354 9.60449 172.491 9.60449C173.679 9.60449 174.866 9.92112 175.816 10.7918L174.154 12.6124Z" fill="white"/>
<path d="M69.4585 27.6519C69.1419 27.2561 68.667 27.0186 68.2712 27.0186C67.163 27.0186 66.4506 27.9685 66.4506 29.0767C66.4506 30.1849 67.2422 31.1347 68.2712 31.1347C68.9045 31.1347 69.3002 30.8973 69.696 30.4223L70.0918 30.7389C69.696 31.293 69.0628 31.6097 68.2712 31.6097C66.9256 31.6097 65.8174 30.5015 65.8174 28.9975C65.8174 27.5727 66.8464 26.3854 68.2712 26.3854C68.9045 26.3854 69.5377 26.6228 70.0126 27.1769L69.4585 27.6519Z" fill="white"/>
<path d="M76.425 26.7021H76.9791V31.0557H79.1955V31.5306H76.425V26.7021Z" fill="white"/>
<path d="M89.4065 29.1555C89.4065 28.0473 88.615 27.0974 87.5068 27.0974C86.3986 27.0974 85.6071 27.9681 85.6071 29.1555C85.6071 30.2637 86.3986 31.2135 87.5068 31.2135C88.615 31.1344 89.4065 30.2637 89.4065 29.1555ZM84.9738 29.1555C84.9738 27.6515 86.0028 26.5433 87.5068 26.5433C88.9316 26.5433 90.0398 27.6515 90.0398 29.1555C90.0398 30.6594 89.0108 31.7676 87.5068 31.7676C86.0028 31.7676 84.9738 30.5803 84.9738 29.1555Z" fill="white"/>
<path d="M98.748 27.4936C98.5897 27.1769 98.1939 27.0186 97.8773 27.0186C97.4023 27.0186 96.8483 27.2561 96.8483 27.8102C96.8483 28.2851 97.0857 28.4434 97.8773 28.6809C98.6688 28.9184 99.3021 29.1558 99.3021 30.1057C99.3021 31.0556 98.4314 31.5305 97.5607 31.5305C97.0066 31.5305 96.3733 31.3722 96.0567 30.8181L96.5316 30.4223C96.7691 30.7389 97.1649 30.9764 97.5607 30.9764C98.0356 30.9764 98.5897 30.6598 98.5897 30.1057C98.5897 29.4725 98.1939 29.3933 97.3232 29.1558C96.6108 28.9184 96.1359 28.6017 96.1359 27.8102C96.1359 26.8603 96.9274 26.3854 97.7981 26.3854C98.3522 26.3854 98.8272 26.5437 99.1438 26.9395L98.748 27.4936Z" fill="white"/>
<path d="M105.712 26.7021H108.72V27.1771H106.267V28.7602H108.562V29.3143H106.267V31.0557H108.879V31.5306H105.712V26.7021Z" fill="white"/>
<path d="M125.818 27.1771H124.235V31.5306H123.681V27.1771H122.019V26.7021H125.818V27.1771Z" fill="white"/>
<path d="M136.108 29.1555C136.108 28.0473 135.317 27.0974 134.208 27.0974C133.1 27.0974 132.309 27.9681 132.309 29.1555C132.309 30.2637 133.1 31.2135 134.208 31.2135C135.317 31.2135 136.108 30.2637 136.108 29.1555ZM131.675 29.1555C131.675 27.6515 132.704 26.5433 134.208 26.5433C135.712 26.5433 136.741 27.6515 136.741 29.1555C136.741 30.6594 135.712 31.7676 134.208 31.7676C132.704 31.7676 131.675 30.5803 131.675 29.1555Z" fill="white"/>
<path d="M151.623 29.4726L149.802 26.7021H150.594L151.94 28.8394L153.285 26.7021H153.998L152.177 29.4726V31.5306H151.623V29.4726Z" fill="white"/>
<path d="M165.209 29.1555C165.209 28.0473 164.417 27.0974 163.309 27.0974C162.201 27.0974 161.409 27.9681 161.409 29.1555C161.409 30.2637 162.201 31.2135 163.309 31.2135C164.417 31.1344 165.209 30.2637 165.209 29.1555ZM160.697 29.1555C160.697 27.6515 161.726 26.5433 163.23 26.5433C164.734 26.5433 165.763 27.6515 165.763 29.1555C165.763 30.6594 164.734 31.7676 163.23 31.7676C161.726 31.7676 160.697 30.5803 160.697 29.1555Z" fill="white"/>
<path d="M175.815 29.7101C175.815 30.7391 175.34 31.689 173.994 31.689C172.649 31.689 172.174 30.7391 172.174 29.7101V26.7021H172.728V29.6309C172.728 30.4225 173.045 31.1349 173.994 31.1349C174.944 31.1349 175.261 30.4225 175.261 29.6309V26.7021H175.815V29.7101Z" fill="white"/>
<path d="M177.795 10.633H177.953C178.111 10.633 178.27 10.633 178.27 10.3955C178.27 10.2372 178.111 10.2372 178.032 10.2372H177.795V10.633ZM177.557 10.0789H178.032C178.349 10.0789 178.428 10.158 178.428 10.3955C178.428 10.633 178.27 10.7121 178.111 10.7121L178.428 11.2662H178.19L177.874 10.7121H177.636V11.2662H177.478L177.557 10.0789ZM177.953 11.662C178.428 11.662 178.824 11.2662 178.824 10.7121C178.824 10.158 178.428 9.76226 177.953 9.76226C177.478 9.76226 177.082 10.158 177.082 10.7121C177.082 11.2662 177.478 11.662 177.953 11.662ZM177.953 9.68311C178.586 9.68311 179.061 10.158 179.061 10.7913C179.061 11.4245 178.586 11.8995 177.953 11.8995C177.32 11.8995 176.845 11.4245 176.845 10.7913C176.924 10.158 177.399 9.68311 177.953 9.68311Z" fill="white"/>
</svg>
