<svg width="130" height="29" viewBox="0 0 130 29" fill="none" xmlns="http://www.w3.org/2000/svg">
<path d="M90.5541 23.9877H96.0786L92.1029 17.1652C94.3031 16.2388 95.5523 14.4641 95.5523 12.1148C95.5523 8.61449 93.2547 6.31733 88.7052 6.31733H79.9826V23.9877H84.7804V17.8639H87.2055L90.5541 23.9877ZM90.7562 12.1148C90.7562 13.3649 89.9053 14.2658 88.1293 14.2658H84.7804V9.96546H88.1293C89.9053 9.96589 90.7562 10.8651 90.7562 12.1148ZM71.3841 11.2901V16.938C71.3841 19.4877 70.1357 20.3874 68.5106 20.3874C66.8876 20.3874 65.6121 19.4877 65.6121 16.9621V11.2901H60.7126V17.188C60.7126 21.8358 63.2878 24.3868 68.511 24.3868C73.7605 24.3868 76.2866 21.8358 76.2866 17.213V11.2901H71.3841ZM65.6125 6.31733H60.7138V9.64216H65.6125V6.31733ZM71.3841 9.64087H76.2849V6.31604H71.3841V9.64087ZM40.5166 18.0131L38.0414 6.31733H33.1665L37.6668 23.9877H42.8409L45.8653 12.4657L48.8892 23.9877H54.0646L58.5628 6.31733H53.6887L51.2135 18.0131L48.1392 6.31733H43.5905L40.5166 18.0131ZM124.86 12.6402H118.909V6.31733H114.011V23.9877H118.909V16.6414H124.86V23.9877H129.783V6.31733H124.86V12.6402ZM101.913 10.165V23.9877H106.812V10.165H111.36V6.31733H97.3645V10.165H101.913Z" fill="white"/>
<path d="M25.7838 11.7009H0.462463V0.8479H11.0008V5.11547H15.2464V0.8479H25.7838V11.7009Z" fill="white"/>
<path d="M15.2461 24.3086V28.5577C21.3069 27.4196 25.7836 22.1408 25.7836 16.2127V15.989H0.462219V16.2127C0.462219 22.1408 4.9423 27.4196 11.0005 28.5577V24.3086H15.2461Z" fill="white"/>
</svg>
