<svg width="81" height="33" viewBox="0 0 81 33" fill="none" xmlns="http://www.w3.org/2000/svg">
<path d="M18.783 6.71946L16.3549 9.45747C15.7968 10.091 15.2519 10.7333 14.6847 11.352C14.6011 11.4196 14.5483 11.518 14.5384 11.625C14.5284 11.732 14.562 11.8385 14.6317 11.9204C15.6674 13.6482 16.7011 15.3805 17.733 17.1171C17.7596 17.1615 17.7819 17.2145 17.8437 17.3475L16.3549 16.7034C14.9105 16.0786 13.4661 15.4628 12.0263 14.8247C11.9461 14.7747 11.8491 14.7592 11.7574 14.7818C11.6656 14.8043 11.5868 14.863 11.539 14.9445C10.1833 16.5041 8.81084 18.0459 7.44676 19.6051C7.32286 19.5388 7.37098 19.4368 7.38045 19.3436C7.56195 17.3941 7.73473 15.445 7.93859 13.4955C7.97163 13.3663 7.9513 13.2292 7.88216 13.1152C7.81301 13.0011 7.70089 12.9197 7.57104 12.8893C5.79875 12.136 4.03846 11.3782 2.29017 10.6158C2.18369 10.5715 2.03781 10.5669 1.98022 10.3941C3.7035 10.0088 5.42262 9.61888 7.14174 9.24225C8.35993 8.9808 8.36448 8.98989 8.47095 7.73608C8.63048 5.96391 8.79454 4.22282 8.95823 2.4552C9.13556 2.49082 9.15299 2.62798 9.21059 2.72536C10.1897 4.37362 11.1733 6.02189 12.1346 7.67848C12.184 7.80961 12.2844 7.91514 12.4129 7.97103C12.5414 8.02693 12.6871 8.02842 12.8167 7.97517C14.7351 7.53222 16.6577 7.0889 18.5761 6.66831C18.6491 6.64277 18.7303 6.66284 18.783 6.71946Z" fill="white"/>
<path d="M19.0123 15.4247C19.0123 14.7601 18.9813 14.1399 19.0123 13.5302C19.0477 13.3976 19.0256 13.2563 18.9514 13.1409C18.8772 13.0255 18.7577 12.9467 18.6224 12.9239C18.0342 12.729 17.4623 12.4875 16.9124 12.2017L18.0954 11.8607C19.1143 11.5727 19.1184 11.5727 19.1499 10.5315V9.27124H19.2738C19.6148 9.78504 19.9604 10.2992 20.2885 10.8217C20.3419 10.9524 20.4466 11.0554 20.5782 11.1065C20.7098 11.1576 20.8566 11.1523 20.9842 11.0919C21.5689 10.8881 22.1717 10.7463 22.8787 10.547C22.4358 11.1275 22.0451 11.6368 21.6336 12.1199C21.5284 12.198 21.4632 12.3187 21.4556 12.4495C21.4479 12.5804 21.4985 12.7079 21.5939 12.7978C21.9669 13.3103 22.2972 13.8526 22.5817 14.4191C22.0766 14.2331 21.576 14.047 21.066 13.8652C20.3128 13.5999 20.539 13.5241 20.0381 14.1399C19.6944 14.5612 19.3587 14.9909 19.0123 15.4247Z" fill="white"/>
<path d="M11.565 27.7511C10.8072 27.6578 10.1604 27.5995 9.52686 27.4809C9.23017 27.4278 9.11915 27.5207 9.00851 27.7734C8.75161 28.3626 8.45909 28.934 8.12224 29.6164C7.98053 28.8764 7.82972 28.2474 7.75015 27.6139C7.70582 27.2816 7.5463 27.2194 7.26742 27.1709C6.63816 27.1084 6.01366 27.0048 5.39787 26.861L6.59409 26.2142C7.39587 25.7713 7.39587 25.7713 7.24089 24.8585C7.20111 24.6281 7.15678 24.4155 7.11244 24.1673C7.06811 23.9191 7.02833 23.7244 6.95747 23.3962C7.35192 23.7596 7.66186 24.0476 7.96764 24.3401C8.71182 25.0532 8.71182 25.0532 9.61591 24.5705C9.99182 24.3531 10.3862 24.1693 10.7943 24.0211C10.5291 24.5837 10.276 25.1551 9.98345 25.7046C9.89937 25.8058 9.86463 25.9391 9.88865 26.0685C9.91266 26.1978 9.99294 26.3098 10.1077 26.3741C10.5814 26.7909 11.0243 27.2369 11.565 27.7511Z" fill="white"/>
<path d="M2.42174 24.7069C2.302 24.109 2.19136 23.6172 2.11596 23.1208C2.08034 22.8817 1.97879 22.8063 1.74387 22.784C1.24333 22.7396 0.746953 22.6703 0.139938 22.5801C0.667003 22.2921 1.09252 22.044 1.53547 21.8268C1.64075 21.7973 1.72826 21.7239 1.77574 21.6254C1.82322 21.5269 1.8261 21.4127 1.78365 21.3119C1.66165 20.8289 1.59179 20.3343 1.57525 19.8364C1.89501 20.1163 2.20006 20.4125 2.48918 20.7238C2.57317 20.8799 2.7273 20.9859 2.90311 21.0084C3.07891 21.031 3.25479 20.9673 3.37546 20.8375C3.73431 20.6022 4.12485 20.4193 4.5353 20.2941C4.35544 20.7311 4.15309 21.1585 3.92904 21.5745C3.86159 21.6684 3.83617 21.7861 3.85888 21.8995C3.88158 22.0129 3.95036 22.1117 4.04878 22.1724C4.40306 22.4915 4.73991 22.8238 5.16543 23.2269C4.5497 23.1511 4.04878 23.103 3.55279 23.0185C3.46934 22.9898 3.37765 22.9974 3.30011 23.0396C3.22257 23.0817 3.16632 23.1545 3.14508 23.2402C2.91773 23.6968 2.68735 24.1488 2.42174 24.7069Z" fill="white"/>
<path d="M21.0878 1.8811C21.3269 2.23993 21.6016 2.5855 21.8054 2.96668C21.8572 3.11508 21.9735 3.23197 22.1216 3.2845C22.2698 3.33702 22.4337 3.31949 22.5674 3.23685C22.9751 3.09059 23.401 2.99775 23.9315 2.85149C23.5503 3.33877 23.2495 3.73777 22.9213 4.12729C22.8516 4.19183 22.812 4.28254 22.812 4.37756C22.812 4.47257 22.8516 4.56328 22.9213 4.62783C23.2093 5.04463 23.484 5.46977 23.8076 5.97902C23.2536 5.77062 22.7929 5.61148 22.3412 5.41634C22.2443 5.35528 22.1262 5.33778 22.0158 5.36813C21.9054 5.39848 21.8128 5.47387 21.7607 5.57586C21.486 5.96576 21.1761 6.32459 20.8745 6.7232V5.29698C20.8745 4.9912 20.8388 4.82296 20.5111 4.72862C20.0469 4.58512 19.5903 4.41845 19.1428 4.22921C19.6196 4.03992 20.1117 3.89174 20.6138 3.78627C20.7192 3.77681 20.8158 3.7234 20.8799 3.63912C20.944 3.55484 20.9697 3.44747 20.9506 3.34332C20.9506 2.86059 20.9904 2.38202 21.0128 1.90346L21.0878 1.8811Z" fill="white"/>
<path d="M13.8171 4.65067C13.7945 4.32027 13.7945 3.98871 13.8171 3.65831C13.866 3.33926 13.7375 3.21536 13.4583 3.12783C13.1609 3.04213 12.8794 2.90893 12.6246 2.73338C12.8948 2.6576 13.1608 2.55605 13.4355 2.50604C13.5746 2.49978 13.7038 2.43278 13.7891 2.32277C13.8744 2.21276 13.9071 2.07086 13.8785 1.93464C13.8807 1.60885 13.9017 1.28346 13.9414 0.960083C14.2066 1.35453 14.4067 1.64212 14.5927 1.93919C14.6228 2.00774 14.6791 2.06136 14.7491 2.088C14.819 2.11465 14.8967 2.11209 14.9648 2.0809C15.3017 1.97026 15.6468 1.89145 16.0902 1.76186C15.82 2.11197 15.6161 2.38668 15.3945 2.64813C15.3236 2.71201 15.2831 2.80296 15.2831 2.8984C15.2831 2.99384 15.3236 3.08479 15.3945 3.14867C15.6029 3.41883 15.7711 3.71704 16.0148 4.08344C15.6116 3.93188 15.288 3.83109 14.9826 3.69354C14.894 3.6406 14.7873 3.62686 14.6882 3.6556C14.589 3.68434 14.5063 3.75298 14.4597 3.84511C14.2691 4.10997 14.0566 4.35361 13.8171 4.65067Z" fill="white"/>
<path d="M5.89856 16.6746C5.58788 16.6477 5.27879 16.6048 4.9725 16.5462C4.86924 16.5061 4.75357 16.5135 4.65627 16.5664C4.55896 16.6194 4.48989 16.7124 4.46741 16.8209C4.33549 17.1241 4.18724 17.42 4.02333 17.7072C3.89413 17.3924 3.81634 17.0588 3.79295 16.7193C3.74862 16.4624 3.64669 16.3382 3.37198 16.3249C3.09727 16.3116 2.75171 16.254 2.36636 16.2052C2.65494 15.986 2.97115 15.8059 3.30681 15.6694C3.39565 15.6413 3.46911 15.578 3.51012 15.4944C3.55113 15.4107 3.55612 15.3139 3.52393 15.2264C3.45762 14.8941 3.39548 14.5573 3.31553 14.1011C3.63912 14.4069 3.89147 14.624 4.12185 14.8631C4.1781 14.9417 4.26475 14.9932 4.36075 15.005C4.45674 15.0169 4.55329 14.9879 4.62694 14.9252C4.90165 14.7524 5.20288 14.6107 5.60604 14.3981C5.42871 14.7702 5.31807 15.0537 5.16309 15.3197C5.08139 15.413 5.04552 15.5379 5.06522 15.6604C5.08493 15.7828 5.15816 15.8902 5.26502 15.9532C5.49664 16.1456 5.71703 16.3512 5.92508 16.5689L5.89856 16.6746Z" fill="white"/>
<path d="M25.3925 12.1513V12.1293C24.9667 12.1314 24.5824 12.3852 24.4134 12.7761C23.2941 14.7404 22.1923 16.709 21.1082 18.6818C20.7493 19.3199 20.3814 19.9576 19.9961 20.64C19.7168 20.1395 19.4656 19.6962 19.225 19.2491C19.1497 19.1031 19.0237 18.9896 18.8707 18.93C16.6575 17.9774 14.4409 17.029 12.2621 16.0632C12.1084 15.9724 11.9102 16.0233 11.8192 16.1769C11.4914 16.5667 11.1546 16.9521 10.809 17.3242C10.6665 17.4739 10.5926 17.676 10.6051 17.8823V22.9393C10.6051 23.0529 10.5608 23.1829 10.6582 23.3114L12.1026 22.5183C12.1049 22.6761 12.0585 22.8308 11.9696 22.9612C11.5486 23.8471 11.136 24.7334 10.7025 25.6197C10.5788 25.8186 10.6312 26.0794 10.8223 26.215C11.5842 26.9148 12.3284 27.6328 13.0772 28.3505C13.1435 28.4126 13.281 28.4479 13.2367 28.5987L10.8931 28.2887C10.6938 28.2622 10.59 28.2887 10.5964 28.5237V31.4655C10.5964 31.9706 10.8238 32.2275 11.3186 32.2362C12.3951 32.2627 13.472 32.2362 14.5485 32.2362C14.7162 32.26 14.8862 32.2136 15.0187 32.108C15.1511 32.0023 15.2341 31.8469 15.2483 31.6781C15.2967 31.5057 15.3146 31.3262 15.3014 31.1476V21.6191C15.3014 21.482 15.2794 21.349 15.2703 21.2114C15.412 21.0917 15.4253 21.2512 15.4597 21.3134C15.6769 21.6809 15.9027 22.0534 16.0933 22.4255C16.8109 23.6793 17.5377 24.9331 18.2421 26.1956C18.4525 26.7316 19 27.0564 19.5713 26.9841C19.8747 26.9509 20.1807 26.9509 20.4841 26.9841C20.9656 27.0455 21.4303 26.7836 21.6273 26.34C22.6134 24.6046 23.5997 22.8704 24.5862 21.1375C24.7635 21.2262 24.657 21.3812 24.657 21.5009V31.3174C24.657 32.0085 24.8874 32.2389 25.574 32.2434H28.3518C29.1668 32.2434 29.3707 32.0309 29.3707 31.2022V13.1046C29.3947 12.9396 29.3732 12.7711 29.3085 12.6174C29.2244 12.2055 28.9319 12.1036 28.5598 12.121C27.4833 12.0854 26.4065 12.0721 25.33 12.121V12.143L25.3925 12.1513Z" fill="white"/>
<path d="M46.9085 28.6763C46.9366 28.4346 46.8085 28.2016 46.5894 28.0958C46.3682 27.956 46.1029 27.9038 45.8452 27.9495H36.302V24.246C36.302 24.1089 36.2755 23.9626 36.457 23.9183H40.1828C41.512 23.9183 44.5289 23.9448 44.6918 23.8739H44.8392C44.9911 23.8533 45.1285 23.7729 45.2209 23.6507C45.3134 23.5284 45.3533 23.3744 45.3318 23.2226C45.3761 22.3098 45.3716 21.4016 45.3318 20.4891C45.3571 20.3347 45.3185 20.1767 45.2249 20.0513C45.1313 19.926 44.9907 19.8441 44.8354 19.8245H44.7218C44.5477 19.7667 44.3597 19.7667 44.1856 19.8245H36.5365C36.3092 19.8245 36.2884 19.6874 36.2884 19.4968V17.0952C36.2884 16.475 36.2884 16.475 36.8863 16.475H45.4193C46.1813 16.475 46.3939 16.2578 46.3984 15.4871V13.1758C46.3984 12.3251 46.1946 12.1258 45.3439 12.1258H32.4962C32.3871 12.1192 32.2776 12.1192 32.1685 12.1258C31.699 12.1702 31.5129 12.3695 31.4728 12.87V31.4984C31.4282 31.7265 31.5332 31.9578 31.7342 32.0743C32.008 32.236 32.3322 32.29 32.6436 32.2259H45.957C46.0376 32.2676 46.1334 32.2676 46.2139 32.2259C46.4211 32.2515 46.6224 32.1458 46.719 31.9607C46.8266 31.852 46.8802 31.701 46.8653 31.5488C46.9126 30.5765 46.9172 29.6243 46.9085 28.6763Z" fill="white"/>
<path d="M63.176 12.1243H48.9983C48.3602 12.1243 48.112 12.3725 48.112 13.0105V15.456C48.112 16.2445 48.3068 16.4438 49.0824 16.4438H53.6812L53.7123 16.5856C53.7479 16.5856 53.7744 16.5098 53.801 16.5014C53.8275 16.4931 53.7479 16.5856 53.7123 16.5856V31.4942C53.6887 31.5666 53.7056 31.6461 53.7566 31.7026L53.7877 31.8162C53.8751 32.0762 54.1304 32.2415 54.4034 32.2149H57.8015C58.2445 32.2149 58.4396 31.9625 58.4881 31.5283V16.8337C58.4881 16.5014 58.5813 16.426 58.9049 16.4306H63.1714C63.8182 16.4306 64.0577 16.2002 64.0577 15.5443V12.9791C64.0619 12.3679 63.8182 12.1243 63.176 12.1243ZM63.836 15.9744C63.8114 15.9743 63.7877 15.9648 63.7697 15.9479C63.7478 15.9213 63.7697 15.8903 63.8008 15.8815C63.8319 15.8728 63.8451 15.8815 63.8671 15.9081C63.8891 15.9346 63.8538 15.9698 63.836 15.9744Z" fill="white"/>
<path d="M80.5732 12.8905V12.7802C80.5899 12.7936 80.5997 12.8139 80.5997 12.8353C80.5997 12.8568 80.5899 12.8771 80.5732 12.8905Z" fill="white"/>
<path d="M26.7583 7.30984V8.0222H28.1717V8.93499H26.7583V9.71479H28.3532V10.6719H25.5401V6.34741H28.3535V7.30984H26.7583Z" fill="white"/>
<path d="M30.156 6.34741V8.81526C30.1427 9.01629 30.2008 9.21556 30.3201 9.37794C30.5982 9.64641 31.0389 9.64641 31.317 9.37794C31.4415 9.21784 31.503 9.01764 31.4898 8.81526V6.34741H32.6947V8.81526C32.7069 9.17832 32.6212 9.53797 32.4466 9.8565C32.2878 10.1339 32.0505 10.358 31.7645 10.5007C31.4616 10.6497 31.1275 10.7241 30.79 10.7178C30.4556 10.726 30.1241 10.6531 29.8241 10.5052C29.5459 10.3626 29.3184 10.1377 29.1728 9.86105C29.0076 9.5378 28.9267 9.1781 28.9375 8.81526V6.34741H30.156Z" fill="white"/>
<path d="M35.6192 10.6717L34.7329 9.08026H34.609V10.6717H33.3995V6.34756H35.318C35.6233 6.33987 35.9265 6.40194 36.2042 6.52906C36.4344 6.63537 36.6274 6.80828 36.7582 7.02543C36.8835 7.24362 36.9478 7.49151 36.9443 7.74309C36.9505 8.02545 36.8617 8.30171 36.6919 8.52743C36.5071 8.75982 36.2498 8.92363 35.961 8.99274L36.9579 10.6717H35.6192ZM34.6136 8.2747H35.216C35.5528 8.2747 35.7211 8.12705 35.7211 7.83175C35.728 7.70634 35.6813 7.5839 35.5927 7.4949C35.489 7.40446 35.3532 7.35977 35.216 7.371H34.6136V8.2747Z" fill="white"/>
<path d="M40.7188 6.56395C41.0537 6.74989 41.331 7.02422 41.5206 7.35701C41.9108 8.06756 41.9108 8.92826 41.5206 9.63881C41.3282 9.97096 41.0496 10.245 40.7143 10.4319C40.0149 10.81 39.172 10.81 38.4727 10.4319C38.1351 10.2463 37.8548 9.97212 37.6618 9.63881C37.2657 8.92978 37.2657 8.06604 37.6618 7.35701C37.856 7.02467 38.1361 6.75073 38.4727 6.56395C39.1737 6.18588 40.0178 6.18588 40.7188 6.56395ZM38.8671 7.68931C38.6798 7.91657 38.585 8.20614 38.6019 8.50018C38.5876 8.78927 38.6822 9.0732 38.8671 9.2959C39.059 9.48829 39.3196 9.59642 39.5914 9.59642C39.8631 9.59642 40.1237 9.48829 40.3157 9.2959C40.5005 9.0732 40.5952 8.78927 40.5809 8.50018C40.5971 8.20686 40.5039 7.91796 40.3195 7.68931C39.9161 7.29304 39.2697 7.29304 38.8663 7.68931H38.8671Z" fill="white"/>
<path d="M47.4974 6.37V10.6718H46.2925V8.23082L45.4862 10.6721H44.4449L43.6386 8.23082V10.6721H42.42V6.37H43.9042L44.9807 9.1656L46.022 6.37H47.4974Z" fill="white"/>
<path d="M49.4459 7.3083V8.02141H50.8547V8.9342H49.4459V9.714H51.0408V10.6711H48.2277V6.347H51.0411V7.3083H49.4459ZM50.4826 5.50506L48.9363 6.11132V5.30576L50.4826 4.61462V5.50506Z" fill="white"/>
<path d="M54.9488 6.34741V7.30984H53.7704V10.6727H52.5609V7.30984H51.3958V6.34741H54.9488Z" fill="white"/>
<path d="M57.6298 10.6717L56.7439 9.08026H56.62V10.6717H55.4075V6.34756H57.3229C57.6283 6.33987 57.9314 6.40194 58.2092 6.52906C58.4386 6.63645 58.6313 6.80911 58.7631 7.02543C58.8884 7.24362 58.9527 7.49151 58.9492 7.74309C58.9559 8.02625 58.8653 8.30314 58.6923 8.52743C58.5085 8.75904 58.2528 8.92278 57.9655 8.99274L58.9579 10.6717H57.6298ZM56.6242 8.2747H57.2221C57.5588 8.2747 57.7272 8.12705 57.7272 7.83175C57.7353 7.70702 57.6903 7.58467 57.6033 7.4949C57.498 7.40416 57.3606 7.35952 57.2221 7.371H56.6242V8.2747Z" fill="white"/>
<path d="M62.729 6.56399C63.0638 6.74993 63.3412 7.02426 63.5308 7.35705C63.9223 8.0677 63.9205 8.92977 63.5262 9.63885C63.3366 9.97164 63.0593 10.246 62.7245 10.4319C62.0235 10.81 61.1793 10.81 60.4783 10.4319C60.142 10.2463 59.8631 9.97197 59.672 9.63885C59.2759 8.92982 59.2759 8.06609 59.672 7.35705C59.8644 7.0249 60.143 6.75089 60.4783 6.56399C61.1809 6.18586 62.0264 6.18586 62.729 6.56399ZM60.8773 7.68936C60.6899 7.91661 60.5952 8.20618 60.612 8.50022C60.5978 8.78931 60.6924 9.07324 60.8773 9.29594C61.0692 9.48833 61.3298 9.59646 61.6016 9.59646C61.8733 9.59646 62.1339 9.48833 62.3258 9.29594C62.5198 9.07322 62.6212 8.78472 62.6093 8.48961C62.6261 8.19557 62.5314 7.906 62.344 7.67875C61.9423 7.28302 61.2972 7.28302 60.8955 7.67875L60.8773 7.68936Z" fill="white"/>
<path d="M65.6441 9.22722V10.6716H64.4316V6.34712H66.2435C66.6811 6.31753 67.1131 6.45894 67.4484 6.74157C67.7313 7.01762 67.8829 7.40124 67.8652 7.79608C67.8694 8.05338 67.8052 8.30718 67.6792 8.53154C67.5487 8.7506 67.358 8.92751 67.1298 9.04118C66.853 9.17174 66.5494 9.23546 66.2435 9.22722H65.6441ZM66.6364 7.79608C66.6364 7.47703 66.4591 7.32206 66.106 7.32206H65.663V8.27919H66.106C66.4602 8.27919 66.6364 8.11929 66.6364 7.79608Z" fill="white"/>
<path d="M72.6298 6.56395C72.9647 6.74989 73.242 7.02422 73.4316 7.35701C73.8231 8.06766 73.8213 8.92973 73.427 9.63881C73.2374 9.9716 72.9601 10.2459 72.6253 10.4319C71.9259 10.81 71.083 10.81 70.3836 10.4319C70.0452 10.2476 69.7645 9.97305 69.5728 9.63881C69.1767 8.92978 69.1767 8.06604 69.5728 7.35701C69.7657 7.0237 70.0461 6.74947 70.3836 6.56395C71.0846 6.18588 71.9288 6.18588 72.6298 6.56395ZM70.7781 7.68931C70.5907 7.91657 70.496 8.20614 70.5128 8.50018C70.4986 8.78927 70.5932 9.0732 70.7781 9.2959C70.97 9.48829 71.2306 9.59642 71.5024 9.59642C71.7741 9.59642 72.0347 9.48829 72.2267 9.2959C72.4115 9.0732 72.5062 8.78927 72.4919 8.50018C72.508 8.20686 72.4149 7.91796 72.2304 7.68931C71.8271 7.29304 71.1806 7.29304 70.7773 7.68931H70.7781Z" fill="white"/>
<path d="M75.5435 9.76329H76.8993V10.6727H74.331V6.34741H75.5435V9.76329Z" fill="white"/>
<path d="M78.6409 7.30984V8.0222H80.0542V8.93499H78.6409V9.71479H80.2346V10.6719H77.4268V6.34741H80.2346V7.30984H78.6409Z" fill="white"/>
<path d="M63.8668 15.9081C63.8668 15.9345 63.8668 15.97 63.8358 15.9742C63.8103 15.9812 63.7833 15.9704 63.7697 15.9477C63.7477 15.9213 63.7697 15.8903 63.8006 15.8816C63.8316 15.8729 63.8445 15.899 63.8668 15.9081Z" fill="white"/>
<path d="M79.5655 12.7757C79.4814 12.2706 79.273 12.1244 78.6129 12.1244H66.5579C66.4605 12.1177 66.3628 12.1177 66.2654 12.1244C66.0743 12.1125 65.8875 12.1835 65.7526 12.3193C65.6177 12.455 65.5478 12.6424 65.561 12.8333C65.5433 13.7844 65.5433 14.737 65.561 15.6911C65.5459 15.8751 65.6096 16.0569 65.7364 16.1913C65.8631 16.3256 66.0409 16.3998 66.2256 16.3954C66.4055 16.4066 66.586 16.4066 66.7659 16.3954H73.8856L73.6818 16.6921C71.0264 20.3802 68.3696 24.0556 65.7114 27.7184C65.456 28.0119 65.3089 28.3841 65.2946 28.7729V31.6754C65.2726 32.0255 65.4719 32.1805 65.7872 32.2157C65.9506 32.2356 66.1152 32.2445 66.2798 32.2422H79.3272C79.4511 32.2489 79.5753 32.2489 79.6993 32.2422C79.8908 32.2433 80.0738 32.1627 80.2023 32.0207C80.3308 31.8786 80.3927 31.6886 80.3726 31.4981V28.7244C80.3726 28.2239 80.1642 28.0379 79.6326 27.9803H71.1878C70.9885 27.8029 71.2234 27.7188 71.2852 27.6301C73.8992 23.9888 76.5176 20.3482 79.1404 16.7084C79.3973 16.431 79.5533 16.0752 79.5833 15.6983C79.6322 14.768 79.5833 12.7875 79.5833 12.7875" fill="white"/>
</svg>
