<svg width="93" height="26" viewBox="0 0 93 26" fill="none" xmlns="http://www.w3.org/2000/svg">
<path d="M50.3668 18.8513C50.1966 18.8429 50.0307 18.9061 49.9092 19.0256C49.7983 19.1532 49.7404 19.3184 49.7471 19.4873C49.7402 19.655 49.7982 19.819 49.9092 19.9449C50.0302 20.0654 50.1962 20.1297 50.3668 20.1222C50.5378 20.1323 50.7048 20.0676 50.8243 19.9449C50.9375 19.8201 50.9969 19.6556 50.9894 19.4873C50.9967 19.3178 50.9374 19.1521 50.8243 19.0256C50.7042 18.904 50.5373 18.8404 50.3668 18.8513Z" fill="white"/>
<path d="M53.5526 18.8513C53.3824 18.8429 53.2165 18.9061 53.095 19.0256C52.9841 19.1532 52.9261 19.3184 52.9329 19.4873C52.926 19.655 52.984 19.819 53.095 19.9449C53.216 20.0654 53.382 20.1297 53.5526 20.1222C53.7236 20.1323 53.8906 20.0676 54.0101 19.9449C54.1233 19.8201 54.1827 19.6556 54.1752 19.4873C54.1825 19.3178 54.1232 19.1521 54.0101 19.0256C53.89 18.904 53.7231 18.8404 53.5526 18.8513Z" fill="white"/>
<path d="M48.8854 11.0313C48.3697 11.024 47.8736 11.2287 47.5132 11.5975C47.1527 11.9664 46.9596 12.4671 46.9788 12.9825C46.9788 14.0354 47.8324 14.889 48.8854 14.889C49.9383 14.889 50.7919 14.0354 50.7919 12.9825C50.8112 12.4671 50.618 11.9664 50.2576 11.5975C49.8972 11.2287 49.4011 11.024 48.8854 11.0313Z" fill="white"/>
<path d="M56.6657 18.8513C56.4955 18.843 56.3296 18.9061 56.2081 19.0256C56.0972 19.1532 56.0393 19.3184 56.046 19.4873C56.0391 19.655 56.0971 19.819 56.2081 19.9449C56.4682 20.1812 56.8654 20.1812 57.1255 19.9449C57.2365 19.819 57.2945 19.655 57.2876 19.4873C57.2944 19.3184 57.2364 19.1532 57.1255 19.0256C57.0035 18.9055 56.8366 18.8423 56.6657 18.8513Z" fill="white"/>
<path d="M61.018 18.7255C60.9404 18.7243 60.8633 18.7389 60.7915 18.7683C60.7295 18.7923 60.6725 18.8276 60.6233 18.8724C60.533 18.9595 60.4785 19.0773 60.4708 19.2026H61.4954C61.5012 19.0769 61.4534 18.9546 61.3638 18.8663C61.2743 18.7719 61.148 18.7206 61.018 18.7255Z" fill="white"/>
<path d="M43.1813 18.7255C43.1037 18.7243 43.0266 18.7389 42.9548 18.7682C42.8928 18.7923 42.8358 18.8276 42.7866 18.8723C42.7404 18.9145 42.7029 18.9655 42.6764 19.0222C42.6515 19.0793 42.6371 19.1404 42.6337 19.2025H43.6557C43.6612 19.075 43.6131 18.9509 43.5231 18.8603C43.4331 18.7697 43.3093 18.7208 43.1817 18.7255H43.1813Z" fill="white"/>
<path d="M27.7463 12.7405L26.5749 12.8549C25.6117 12.959 25.5228 13.465 25.5228 14.2657C25.5228 15.0665 25.5686 15.9538 26.5749 15.9538C27.2723 15.9538 27.7157 15.2442 27.7463 14.4583V12.7405Z" fill="white"/>
<path d="M28.7313 18.5728C28.6265 18.5748 28.523 18.5966 28.4262 18.6369C28.2199 18.7148 28.0506 18.8677 27.9523 19.0651C27.9055 19.1598 27.8824 19.2645 27.8851 19.3701H29.5183C29.527 19.1632 29.4521 18.9615 29.3105 18.8104C29.1603 18.6519 28.9494 18.5655 28.7313 18.5728Z" fill="white"/>
<path d="M40.9673 11.0313C40.4522 11.024 39.9566 11.2283 39.5963 11.5965C39.2359 11.9647 39.0424 12.4646 39.0608 12.9794C39.0608 14.0333 39.9151 14.8877 40.969 14.8877C42.023 14.8877 42.8773 14.0333 42.8773 12.9794C42.8957 12.4646 42.7022 11.9647 42.3418 11.5965C41.9815 11.2283 41.4859 11.024 40.9708 11.0313H40.9673Z" fill="white"/>
<path d="M68.0921 9.64893C67.2174 9.64893 67.0645 10.389 67.0645 11.753C67.0645 13.7713 67.4191 13.9916 68.0921 13.9916C68.7022 13.9916 69.135 13.8723 69.1533 11.8048C69.1369 9.86894 68.8982 9.64893 68.0921 9.64893Z" fill="white"/>
<path d="M36.4416 18.8514C36.3606 18.7644 36.2628 18.6948 36.1541 18.6466C35.9094 18.5485 35.6363 18.5485 35.3915 18.6466C35.2838 18.6948 35.187 18.7645 35.1071 18.8514C35.0277 18.9404 34.9664 19.044 34.9267 19.1564C34.8412 19.3999 34.8412 19.6652 34.9267 19.9087C35.0035 20.1364 35.172 20.3216 35.3915 20.4193C35.6363 20.5174 35.9094 20.5174 36.1541 20.4193C36.2623 20.3703 36.36 20.3008 36.4416 20.2145C36.5209 20.1249 36.583 20.0215 36.6251 19.9095C36.7106 19.666 36.7106 19.4006 36.6251 19.1572C36.5831 19.0449 36.5209 18.9412 36.4416 18.8514Z" fill="white"/>
<path d="M67.8917 21.1112C69.5919 21.1112 71.1057 19.9672 71.1057 18.7379C71.1057 17.7103 70.5521 17.5604 68.8671 17.5604H66.2246C65.7654 18.0112 65.5149 18.6331 65.5333 19.2763C65.5524 20.0847 66.3748 21.1112 67.8917 21.1112Z" fill="white"/>
<path d="M0.616898 0.715576V25.2581H92.3643V0.715576H0.616898ZM86.1226 16.2348C86.1226 15.8894 86.0952 15.5283 86.0952 15.1672H86.0681C85.6349 15.9522 84.7959 16.4255 83.9 16.3904C82.1906 16.3904 81.4291 15.3079 81.4291 13.7388V9.73733H82.5086V13.6396C82.5086 14.7252 82.9826 15.4043 83.998 15.4043C85.4016 15.4043 86.0132 14.392 86.0132 12.9056V9.73733H87.0927V14.6943C87.0927 15.3044 87.1476 15.8043 87.1476 16.2234H86.123L86.1226 16.2348ZM80.4373 12.9716V13.3201H75.1863C75.2332 14.4728 76.1734 15.3876 77.327 15.4028C78.1376 15.4416 78.9138 15.0718 79.3945 14.4179L80.2139 15.057C79.541 15.9648 78.4549 16.4711 77.327 16.4026C75.2839 16.4026 74.0363 14.8736 74.0363 12.9865C74.0363 10.9712 75.4521 9.57032 77.3697 9.57032C79.1893 9.58443 80.4373 10.8077 80.4373 12.9731V12.9716ZM72.4249 14.6535C72.7614 14.6535 73.0648 14.8563 73.1936 15.1672C73.3224 15.4781 73.2512 15.8359 73.0132 16.0739C72.7753 16.3118 72.4174 16.383 72.1065 16.2542C71.7956 16.1255 71.5929 15.8221 71.5929 15.4856C71.5946 15.0267 71.9661 14.6552 72.4249 14.6535ZM30.508 11.6671C30.508 10.2205 31.8079 9.56994 33.1196 9.56994C34.0035 9.51781 34.8607 9.88361 35.4345 10.5579L34.352 11.5337C34.0715 11.1072 33.5903 10.8562 33.08 10.8702C32.6457 10.8702 32.132 11.075 32.132 11.5615C32.132 12.7237 35.6366 11.7785 35.6366 14.3138C35.6366 15.8428 34.1625 16.3965 32.8352 16.3965C31.8845 16.4612 30.9554 16.0936 30.3063 15.396L31.3885 14.3798C31.7488 14.8665 32.3122 15.1616 32.9175 15.1805C33.3915 15.1805 34.0001 14.9479 34.0001 14.4343C34.013 13.0894 30.508 14.1445 30.508 11.6671ZM8.91989 16.4716C7.7318 16.5316 6.57968 16.0544 5.7821 15.1717L7.06673 13.9272C7.48911 14.5585 8.20037 14.9354 8.95993 14.9304C9.7458 14.9304 10.6377 14.4961 10.6377 13.6152C10.6377 11.5203 6.0902 12.7222 6.0902 9.29997C6.0902 7.32441 7.85184 6.40203 9.62264 6.40203C10.633 6.3648 11.6189 6.71868 12.3749 7.39L11.1303 8.70208C10.726 8.19364 10.1014 7.91127 9.45258 7.94366C8.6667 7.94366 7.88082 8.29523 7.88082 9.1669C7.88082 11.0875 12.4283 9.99281 12.4283 13.4025C12.4249 15.4722 10.8009 16.4716 8.91989 16.4716ZM17.1989 11.1135H15.4098V13.9546C15.4098 14.6028 15.6004 15.0097 16.3272 15.0097C16.6337 15.0236 16.9381 14.9539 17.208 14.808V16.175C16.7963 16.3277 16.3593 16.4003 15.9203 16.3889C14.2018 16.3889 13.798 15.6183 13.798 14.0923V11.1135H12.4462V9.73123H13.7888V7.54786H15.4098V9.73161H17.1989V11.1135ZM22.2878 11.2359C22.0321 11.1618 21.768 11.1207 21.5019 11.1135C21.049 11.082 20.6034 11.2405 20.2721 11.5509C19.9407 11.8613 19.7536 12.2956 19.7555 12.7497V16.2299H18.1315V9.73123H19.7555V10.7608H19.783C20.2271 9.82113 21.2959 9.35269 22.2878 9.66298V11.2359ZM22.4785 14.5998C22.4785 13.0555 23.9465 12.7005 25.2952 12.5968L26.748 12.4774V11.2267C26.748 10.3368 26.6012 9.78919 25.4896 9.78919C24.9852 9.78919 24.1257 9.90854 24.141 10.2327C24.141 10.4866 24.8963 10.4405 24.8963 11.1501C24.9074 11.3907 24.8151 11.6245 24.6428 11.7928C24.4704 11.9611 24.2344 12.0477 23.9942 12.0309C23.7325 12.0523 23.4746 11.9578 23.2886 11.7724C23.1027 11.5871 23.0074 11.3295 23.0279 11.0677C23.0279 10.2357 24.1105 9.51122 25.5937 9.51122C27.1228 9.51122 28.7071 9.92417 28.7071 11.6153V15.0375C28.7071 15.4951 28.7834 15.7776 29.0503 15.7776C29.4049 15.7776 29.567 15.3342 29.567 14.9487H29.8339C29.8339 15.8234 29.2238 16.4015 28.2496 16.4015C27.6121 16.4353 27.0207 16.0695 26.7663 15.484C26.3808 16.1936 25.3554 16.4015 24.7785 16.4015C23.6376 16.4015 22.4819 15.8817 22.4819 14.5941L22.4785 14.5998ZM28.8997 19.6308H26.8719C26.8812 19.7522 26.9113 19.8711 26.9607 19.9823C27.0073 20.0848 27.0718 20.178 27.1514 20.2576C27.2308 20.3355 27.3242 20.3977 27.4267 20.441C27.5328 20.487 27.6474 20.5098 27.763 20.5082C27.9297 20.5119 28.094 20.4684 28.237 20.3827C28.3607 20.3058 28.4651 20.2014 28.542 20.0777L28.8051 20.2946C28.6803 20.4628 28.5167 20.5982 28.3281 20.6893C28.1523 20.7691 27.9614 20.8098 27.7683 20.8086C27.5973 20.8098 27.4278 20.7765 27.27 20.7106C27.1211 20.6487 26.986 20.558 26.8723 20.4437C26.7601 20.3262 26.6718 20.188 26.6122 20.0369C26.5471 19.8768 26.5148 19.7052 26.5173 19.5324C26.5156 19.3589 26.5467 19.1867 26.6092 19.0249C26.6706 18.8756 26.7587 18.7387 26.8692 18.6211C26.9793 18.5081 27.1102 18.4174 27.2547 18.3541C27.3834 18.2915 27.5246 18.2591 27.6677 18.2592C27.8587 18.257 28.0485 18.2902 28.2274 18.3572C28.3654 18.4191 28.4892 18.5086 28.5912 18.6203C28.6924 18.7302 28.7695 18.8601 28.8173 19.0016C28.8696 19.152 28.8954 19.3103 28.8936 19.4695L28.8997 19.6308ZM31.1353 20.7469V20.3617C31.0493 20.4915 30.9311 20.5966 30.7921 20.6668C30.7192 20.7059 30.6426 20.7377 30.5633 20.7617C30.4845 20.7832 30.4033 20.7945 30.3216 20.7953C30.0678 20.8154 29.8176 20.725 29.6352 20.5474C29.4607 20.3597 29.3644 20.1124 29.366 19.8561V18.3282H29.7054V19.6769C29.7051 19.7968 29.7153 19.9165 29.7359 20.0346C29.7535 20.1277 29.79 20.2162 29.843 20.2946C29.8929 20.3666 29.9631 20.422 30.0448 20.4536C30.1419 20.4916 30.2455 20.5103 30.3498 20.5085C30.3982 20.5048 30.4462 20.4977 30.4936 20.4872C30.5853 20.4702 30.6715 20.4309 30.7445 20.3728C30.8441 20.3001 30.9249 20.2047 30.9801 20.0944C31.0572 19.934 31.0928 19.7567 31.0834 19.5789V18.3206H31.4228V20.4559C31.4226 20.551 31.4287 20.6461 31.4411 20.7404L31.1353 20.7469ZM33.3404 18.6275C33.2769 18.6093 33.2109 18.6011 33.1448 18.6031C33.0284 18.5996 32.9129 18.6247 32.8085 18.6763C32.7187 18.7242 32.6396 18.7897 32.5759 18.8689C32.5154 18.9436 32.4688 19.0286 32.4382 19.1198C32.4196 19.2021 32.4145 19.2868 32.423 19.3707V20.7343H32.0798V18.3091H32.418V18.7591C32.442 18.6921 32.476 18.6292 32.5191 18.5726C32.5662 18.5102 32.6218 18.4546 32.6842 18.4075C32.751 18.358 32.8253 18.3194 32.9042 18.2931C32.9967 18.2614 33.0939 18.2459 33.1917 18.2474C33.2774 18.2456 33.3628 18.2559 33.4456 18.2779L33.3404 18.6275ZM35.952 20.0384C35.8908 20.1894 35.8001 20.3267 35.6851 20.4422C35.569 20.5579 35.4306 20.6487 35.2782 20.7091C34.946 20.8397 34.5767 20.8397 34.2445 20.7091C34.0935 20.6479 33.9562 20.5572 33.8407 20.4422C33.7246 20.3276 33.6337 20.1901 33.5738 20.0384C33.5076 19.8785 33.4743 19.7069 33.4758 19.5339C33.4746 19.3599 33.5079 19.1874 33.5738 19.0264C33.6958 18.7209 33.9379 18.4789 34.2433 18.3568C34.5763 18.2304 34.9441 18.2304 35.2771 18.3568C35.4294 18.4172 35.5679 18.508 35.6839 18.6237C35.7976 18.7402 35.8882 18.8773 35.9508 19.0275C36.0157 19.1888 36.048 19.3613 36.0458 19.5351C36.0521 19.707 36.024 19.8786 35.963 20.0395L35.952 20.0384ZM40.4255 20.7411H39.6518V19.2792C39.6535 19.1726 39.6272 19.0674 39.5756 18.9741C39.5169 18.8859 39.414 18.8375 39.3086 18.8487C39.2321 18.8466 39.156 18.8612 39.0856 18.8914C39.0271 18.9192 38.9767 18.9613 38.9388 19.0138C38.9018 19.0684 38.8759 19.1296 38.8625 19.1942C38.8465 19.2654 38.8383 19.3381 38.8381 19.4111V20.7381H38.0652V19.2472C38.0623 19.1834 38.0495 19.1205 38.0271 19.0607C38.0081 19.0023 37.9731 18.9503 37.926 18.9109C37.8674 18.8665 37.7946 18.8448 37.7213 18.8498C37.6376 18.8468 37.5545 18.8646 37.4795 18.9017C37.4195 18.9361 37.3707 18.9871 37.3388 19.0485C37.3044 19.112 37.2826 19.1815 37.2747 19.2533C37.2622 19.3312 37.2561 19.41 37.2564 19.4889V20.7396H36.49V18.2302H37.2332V18.5734C37.2605 18.5204 37.2944 18.471 37.3342 18.4266C37.3829 18.3774 37.4373 18.3342 37.4963 18.2981C37.5626 18.2591 37.6334 18.2282 37.7072 18.2062C37.7914 18.1805 37.8791 18.1676 37.9672 18.1681C38.1295 18.1659 38.2899 18.2026 38.4351 18.2752C38.5731 18.3512 38.6808 18.4724 38.7401 18.6184C38.8133 18.4731 38.9269 18.3521 39.0673 18.2699C39.2126 18.1983 39.3733 18.1636 39.5351 18.1688C39.6826 18.1636 39.8293 18.193 39.9633 18.2546C40.0734 18.3063 40.1674 18.3866 40.2356 18.4872C40.3057 18.5922 40.3555 18.7094 40.3824 18.8327C40.4112 18.9726 40.4255 19.115 40.4251 19.2578L40.4255 20.7411ZM43.4317 19.7288H41.6342C41.6588 19.8666 41.73 19.9918 41.836 20.0834C42.0395 20.2399 42.3174 20.258 42.5395 20.1291C42.63 20.0722 42.7078 19.9973 42.7683 19.9091L43.3128 20.3068C43.188 20.4657 43.0264 20.5916 42.8418 20.6736C42.6583 20.7605 42.4577 20.8054 42.2546 20.8052C42.068 20.8055 41.8827 20.7734 41.7071 20.7102C41.5429 20.6519 41.392 20.5611 41.2636 20.4433C41.1335 20.3279 41.0295 20.1861 40.9586 20.0273C40.8119 19.6803 40.8119 19.2887 40.9586 18.9417C41.0295 18.783 41.1335 18.6411 41.2636 18.5257C41.3929 18.409 41.5434 18.3184 41.7071 18.2588C41.8829 18.1966 42.0682 18.1655 42.2546 18.1669C42.4212 18.1649 42.5865 18.1961 42.7408 18.2588C42.8836 18.3186 43.0111 18.4099 43.1137 18.5257C43.2189 18.6475 43.2989 18.7889 43.3494 18.9417C43.4067 19.1175 43.4346 19.3014 43.4321 19.4862L43.4317 19.7288ZM40.2947 16.3874C39.4003 16.4355 38.5482 16.0029 38.0591 15.2526H38.0316V16.2283H36.5026V5.99708H38.1262V10.5571H38.1643C38.7042 9.90078 39.5238 9.53989 40.3725 9.58481C42.2257 9.58481 43.5103 11.0742 43.5103 12.9949C43.5103 14.9155 42.2977 16.3874 40.2947 16.3874ZM45.5762 18.8338H44.8899V19.675C44.8864 19.7371 44.8864 19.7993 44.8899 19.8615C44.8939 19.9132 44.9095 19.9634 44.9356 20.0083C44.9615 20.0513 45 20.0855 45.0458 20.1063C45.1092 20.1304 45.1767 20.1418 45.2445 20.1398C45.2998 20.1382 45.3549 20.1331 45.4096 20.1246C45.4652 20.1215 45.5185 20.1012 45.5621 20.0666V20.7118C45.4747 20.7421 45.3846 20.7636 45.2929 20.7758H45.0176C44.8961 20.7765 44.7749 20.7621 44.6569 20.7331C44.5472 20.7107 44.4434 20.6659 44.3518 20.6016C44.2688 20.5406 44.2025 20.4595 44.1593 20.3659C44.1099 20.2554 44.086 20.1353 44.0891 20.0144V18.851H43.5934V18.2409H44.0891V17.487H44.8628V18.2302H45.5732L45.5762 18.8338ZM47.7752 18.8857C47.7222 18.869 47.668 18.8563 47.6132 18.8476C47.5572 18.8429 47.501 18.8429 47.445 18.8476C47.3248 18.8426 47.2049 18.8634 47.0934 18.9086C47.0117 18.9461 46.9426 19.0066 46.8948 19.0828C46.846 19.1645 46.8147 19.2554 46.8029 19.3497C46.7902 19.4624 46.7841 19.5757 46.7846 19.6891V20.7381H46.0079V18.2302H46.7968V18.634C46.8678 18.4942 46.9726 18.3744 47.1018 18.2855C47.2303 18.2037 47.381 18.1638 47.5331 18.1711H47.6677L47.7901 18.1925L47.7752 18.8857ZM44.3499 12.9823C44.3499 10.9362 45.9251 9.58443 47.8854 9.58443C49.8457 9.58443 51.4179 10.9514 51.4179 12.9975C51.4179 15.0436 49.8545 16.3893 47.8854 16.3893C45.9163 16.3893 44.3499 15.0249 44.3499 12.9823ZM50.6499 20.0163C50.5776 20.1743 50.4738 20.3158 50.3449 20.4323C50.2153 20.5501 50.0635 20.6408 49.8983 20.6992C49.5464 20.8254 49.1616 20.8254 48.8097 20.6992C48.2894 20.5211 47.9451 20.0257 47.9594 19.476C47.9555 19.2889 47.992 19.1031 48.0665 18.9314C48.1388 18.7734 48.2426 18.6319 48.3716 18.5154C48.5015 18.398 48.6532 18.3073 48.8181 18.2485C49.1707 18.1262 49.5542 18.1262 49.9067 18.2485C50.0713 18.308 50.2229 18.3986 50.3532 18.5154C50.4822 18.6319 50.586 18.7734 50.6583 18.9314C50.8008 19.2793 50.8008 19.6692 50.6583 20.017L50.6499 20.0163ZM53.867 19.9827C53.8176 20.1369 53.7409 20.2809 53.6405 20.4079C53.544 20.5347 53.4208 20.6388 53.2798 20.7129C53.1315 20.7897 52.9667 20.829 52.7997 20.8273C52.6456 20.8276 52.4926 20.8019 52.3471 20.751C52.2029 20.6987 52.0796 20.601 51.9955 20.4727V21.9217H51.2219V18.2302H51.9345V18.5608C51.9718 18.5129 52.0128 18.4679 52.0569 18.4262C52.1097 18.3752 52.1694 18.332 52.2342 18.2977C52.3043 18.2598 52.378 18.229 52.4543 18.2058C52.5354 18.1803 52.6201 18.1674 52.7052 18.1677C52.879 18.1649 53.0516 18.1972 53.2127 18.2626C53.3604 18.3244 53.4937 18.4161 53.6043 18.5318C53.7134 18.6511 53.7986 18.7903 53.8552 18.9417C53.914 19.1097 53.943 19.2866 53.941 19.4645C53.9457 19.6396 53.9208 19.8143 53.8674 19.9812L53.867 19.9827ZM56.9251 20.0407C56.8537 20.1992 56.7498 20.3409 56.62 20.4567C56.4921 20.5751 56.3411 20.6659 56.1766 20.7236C55.8247 20.8498 55.4398 20.8498 55.0879 20.7236C54.5686 20.5437 54.2241 20.0499 54.2346 19.5004C54.2317 19.313 54.2693 19.1273 54.3448 18.9558C54.4171 18.7978 54.5209 18.6563 54.6498 18.5398C54.7797 18.4224 54.9314 18.3317 55.0963 18.2729C55.4489 18.1506 55.8324 18.1506 56.185 18.2729C56.3489 18.3318 56.4997 18.4225 56.6284 18.5398C56.7582 18.6556 56.8621 18.7973 56.9335 18.9558C57.076 19.3037 57.076 19.6936 56.9335 20.0414L56.9251 20.0407ZM58.2402 20.7533H57.4635V17.0466H58.2402V20.7533ZM58.2402 16.2425H56.7112V15.1874H56.6837C56.3358 15.964 55.5423 16.4431 54.6929 16.3893C52.9465 16.3893 52.3257 15.166 52.3257 13.8326V9.73123H53.9497V13.0219C53.9497 13.7376 54.0016 14.9285 55.1394 14.9285C56.2098 14.9285 56.6288 14.1426 56.6288 13.277V9.73085H58.2528L58.2402 16.2425ZM61.2526 19.741H59.4528C59.4773 19.8788 59.5486 20.004 59.6545 20.0956C59.7613 20.1845 59.8969 20.2313 60.0358 20.2271C60.15 20.2314 60.2628 20.2015 60.3599 20.1413C60.4497 20.0835 60.5274 20.0088 60.5887 19.9213L61.1302 20.319C61.0073 20.4785 60.8464 20.6046 60.6623 20.6858C60.4777 20.7727 60.2761 20.8177 60.072 20.8174C59.8854 20.8175 59.7002 20.7854 59.5245 20.7224C59.3603 20.6641 59.2094 20.5733 59.081 20.4555C58.952 20.3391 58.8482 20.1975 58.776 20.0395C58.6334 19.6917 58.6334 19.3018 58.776 18.9539C58.8482 18.7959 58.952 18.6544 59.081 18.5379C59.2103 18.4212 59.3608 18.3306 59.5245 18.271C59.7004 18.2091 59.8856 18.178 60.072 18.1791C60.2396 18.1772 60.4058 18.2084 60.5612 18.271C60.7032 18.3308 60.8297 18.4221 60.9311 18.5379C61.0363 18.6598 61.1163 18.8011 61.1668 18.9539C61.2241 19.1297 61.252 19.3136 61.2495 19.4984L61.2526 19.741ZM63.4912 11.2481C63.2366 11.174 62.9735 11.1329 62.7084 11.1257C62.2552 11.0942 61.8093 11.2526 61.4775 11.563C61.1457 11.8733 60.9579 12.3076 60.959 12.7619V16.2318H59.3384V9.73123H60.9593V10.7608H60.9868C61.4309 9.82113 62.4997 9.35269 63.4916 9.66298L63.4912 11.2481ZM69.3325 10.1838C69.7893 10.6312 70.0499 11.2417 70.057 11.881C70.057 13.4806 68.5096 14.3062 67.0599 14.3062C66.8271 14.3104 66.5952 14.2763 66.3735 14.2051C66.193 14.1479 66.0059 14.1139 65.8168 14.1041C65.1778 14.1041 64.4529 14.5616 64.4529 14.9788C64.4529 15.396 65.0248 15.4497 65.447 15.4497H68.2423C69.8907 15.4162 70.6888 16.1563 70.6888 17.7894C70.6888 19.8447 69.1598 21.4256 66.817 21.4256C64.9455 21.4256 63.4805 20.4685 63.4805 19.2205C63.4805 18.4132 64.2573 17.7402 64.9295 17.5538V17.5202C64.223 17.3185 63.8348 16.6791 63.8348 15.8383C63.7766 14.8422 64.5252 13.9822 65.5198 13.9024V13.8642C64.6731 13.5366 64.117 12.7199 64.1223 11.812C64.1223 10.283 65.6361 9.36556 67.0492 9.36556C67.798 9.33712 68.5359 9.55109 69.1533 9.97565C69.4558 9.55057 69.9299 9.27994 70.4497 9.23553C70.651 9.23712 70.8497 9.27981 71.0339 9.36098C71.2885 9.44605 71.493 9.63835 71.5936 9.88719C71.6134 9.95367 71.6237 10.0226 71.6241 10.092C71.6236 10.1673 71.6134 10.2423 71.5936 10.315C71.5364 10.5943 71.332 10.8204 71.0598 10.9053C70.969 10.9351 70.874 10.9505 70.7784 10.951C70.5739 10.9577 70.3756 10.8805 70.2294 10.7372C70.0833 10.594 70.0021 10.3972 70.0047 10.1926C69.9768 9.87186 70.1629 9.57086 70.4623 9.4525V9.41894C69.8049 9.4952 69.652 9.86545 69.3493 10.1682L69.3325 10.1838Z" fill="white"/>
<path d="M78.3135 10.5695C77.2196 10.497 76.2685 11.3123 76.1728 12.4043H80.2585C80.2726 11.8939 80.0682 11.4018 79.6968 11.0514C79.3254 10.701 78.8222 10.5257 78.3135 10.5695Z" fill="white"/>
</svg>
