<svg width="20" height="20" viewBox="0 0 20 20" fill="none" xmlns="http://www.w3.org/2000/svg">
<path d="M3.33366 18.3332H16.667C17.109 18.3332 17.5329 18.1576 17.8455 17.845C18.1581 17.5325 18.3337 17.1085 18.3337 16.6665V3.33317C18.3337 2.89114 18.1581 2.46722 17.8455 2.15466C17.5329 1.8421 17.109 1.6665 16.667 1.6665H6.66699C6.22496 1.6665 5.80104 1.8421 5.48848 2.15466C5.17592 2.46722 5.00033 2.89114 5.00033 3.33317V16.6665C5.00033 17.1085 4.82473 17.5325 4.51217 17.845C4.19961 18.1576 3.77569 18.3332 3.33366 18.3332ZM3.33366 18.3332C2.89163 18.3332 2.46771 18.1576 2.15515 17.845C1.84259 17.5325 1.66699 17.1085 1.66699 16.6665V9.1665C1.66699 8.24984 2.41699 7.49984 3.33366 7.49984H5.00033" stroke="black" stroke-width="1.5" stroke-linecap="round" stroke-linejoin="round"/>
<path d="M14.9997 11.6665H8.33301" stroke="black" stroke-width="1.5" stroke-linecap="round" stroke-linejoin="round"/>
<path d="M12.4997 15H8.33301" stroke="black" stroke-width="1.5" stroke-linecap="round" stroke-linejoin="round"/>
<path d="M8.33301 5H14.9997V8.33333H8.33301V5Z" stroke="black" stroke-width="1.5" stroke-linecap="round" stroke-linejoin="round"/>
</svg>
