<svg width="36" height="36" viewBox="0 0 36 36" fill="none" xmlns="http://www.w3.org/2000/svg">
<path d="M13.7364 12.5835L21.2914 17.1464L25.8536 15.2573C26.7731 14.862 27.7633 14.6571 28.7644 14.655H29.257C27.7031 8.63283 21.5623 5.01091 15.5408 6.56508C12.8386 7.26269 10.4914 8.93898 8.95508 11.2694H9.07383C10.7189 11.2719 12.3318 11.7265 13.7364 12.5835Z" fill="#0364B8"/>
<path d="M13.7366 12.5834C12.3215 11.7172 10.6965 11.2534 9.03765 11.2417H8.9189C3.95527 11.2798 -0.0377833 15.335 0.000269734 20.299C0.0140692 22.1167 0.578582 23.8875 1.6194 25.3776L8.28036 22.5759L11.2824 21.3622L17.8794 18.6244L21.3192 17.1735L13.7366 12.583V12.5834Z" fill="#0078D4"/>
<path d="M29.1854 14.6368H28.6928C27.6955 14.6368 26.7086 14.8388 25.7912 15.2298L21.293 17.1282L22.5976 17.9132L26.8772 20.4502L28.702 21.5636L35.0891 25.3963C37.0127 21.8526 35.6996 17.4205 32.1569 15.4967C31.229 14.9927 30.2028 14.6962 29.1491 14.6276L29.1854 14.6368Z" fill="#1490DF"/>
<path d="M28.7375 21.5815L26.9126 20.459L22.6331 17.8948L21.3284 17.1097L17.8886 18.5606L11.2916 21.2984L8.32598 22.5397L1.66504 25.3507C3.34397 27.7701 6.10219 29.2126 9.04691 29.211H28.6919C31.3799 29.2126 33.8513 27.7367 35.1246 25.3691L28.7375 21.5819V21.5815Z" fill="#28A8EA"/>
</svg>
