<svg width="20" height="20" viewBox="0 0 20 20" fill="none" xmlns="http://www.w3.org/2000/svg">
<path d="M19.424 18.4512L14.3321 13.3593C15.4879 11.9843 16.1875 10.2131 16.1875 8.28038C16.1875 3.92086 12.6409 0.374023 8.28112 0.374023C3.9216 0.374883 0.374756 3.92152 0.374756 8.28104C0.374756 12.6406 3.92138 16.1874 8.28112 16.1874C10.2139 16.1874 11.985 15.4879 13.36 14.332L18.4519 19.4239C18.586 19.558 18.7622 19.625 18.9383 19.625C19.1145 19.625 19.2907 19.558 19.4247 19.4239C19.6937 19.1549 19.6937 18.7209 19.4247 18.452L19.424 18.4512ZM1.75006 8.28126C1.75006 4.68052 4.68046 1.7499 8.28142 1.7499C11.8824 1.7499 14.8128 4.6803 14.8128 8.28126C14.8128 11.8822 11.8824 14.8126 8.28142 14.8126C4.68046 14.8126 1.75006 11.8822 1.75006 8.28126Z" fill="black"/>
</svg>
