<svg width="32" height="28" viewBox="0 0 32 28" fill="none" xmlns="http://www.w3.org/2000/svg">
<path d="M16.1739 1.98206H26.1697V21.1174H16.1739V1.98206ZM13.468 6.17208L10.5014 12.1059L13.5467 18.1425L10.1542 17.9374L8.7261 14.5916L7.36896 17.7479L4.27637 17.5743L6.9981 12.1691L4.44188 6.75617L7.59763 6.56665L8.79671 9.65199L10.2011 6.41666L13.4674 6.17208H13.468Z" fill="white"/>
<path d="M9.65067 0.0569047H29.9504C30.2909 0.054961 30.617 0.194909 30.8499 0.443706C31.0877 0.698658 31.2201 1.03427 31.2208 1.38285V26.5544C31.2201 26.903 31.0877 27.2386 30.8499 27.4935C30.617 27.742 30.2912 27.8823 29.9504 27.8803H9.65067C8.94068 27.8674 8.37515 27.2813 8.38811 26.5709C8.38811 26.568 8.38811 26.5651 8.38811 26.5625V1.38252C8.37029 0.670798 8.93096 0.0782857 9.64257 0.0569047H9.65035H9.65067Z" fill="#21A366"/>
<path d="M8.38739 13.9685V26.594C8.35176 27.3034 8.89818 27.9073 9.60752 27.9429C9.61108 27.9429 9.61465 27.9432 9.61821 27.9436H29.9494C30.6639 27.9306 31.2327 27.341 31.2197 26.6264C31.2197 26.6234 31.2197 26.6209 31.2197 26.6179V13.9925L8.38739 13.9688V13.9685Z" fill="#185C37"/>
<path d="M8.3877 7.01672H31.22V13.9766H8.3877V7.01672Z" fill="#107C41"/>
<path d="M29.9496 0.0568624H19.8037V20.9279H31.2199V1.38248C31.2192 1.03391 31.0868 0.698291 30.849 0.44334C30.6161 0.194867 30.2903 0.0545948 29.9496 0.0565385V0.0568624Z" fill="#33C481"/>
<path d="M19.8037 7.01672H31.2277V13.9766H19.8037V7.01672Z" fill="#21A366"/>
<path d="M19.8037 13.9684H31.2277V20.9282H19.8037V13.9684Z" fill="#107C41"/>
<g opacity="0.05">
<path d="M16.466 5.7384H9.8309C9.56368 5.74683 9.35315 5.96841 9.35768 6.23567V21.7097C9.34894 21.9798 9.56044 22.206 9.83058 22.2147C9.83058 22.2147 9.8309 22.2147 9.83123 22.2147H16.4663C17.002 22.2017 17.426 21.757 17.4131 21.2211C17.4131 21.2211 17.4131 21.2208 17.4131 21.2205V6.73262C17.4264 6.1968 17.0027 5.75169 16.467 5.7384C16.467 5.7384 16.4666 5.7384 16.4663 5.7384H16.466Z" fill="black"/>
</g>
<g opacity="0.1">
<path d="M14.7226 8.34985H8.41113V24.3208H14.7226C15.4297 24.3166 16.0008 23.7419 16.0008 23.0347V9.6204C15.9923 8.91936 15.4236 8.35406 14.7226 8.34985Z" fill="black"/>
</g>
<g opacity="0.2">
<path d="M14.7226 7.427H8.41113V23.3824H14.7226C15.4268 23.3782 15.9965 22.8083 16.0008 22.1041V8.68978C15.9878 7.99165 15.4206 7.43154 14.7226 7.42733V7.427Z" fill="black"/>
</g>
<g opacity="0.1">
<path d="M16.0959 6.05408H9.4686C9.20463 6.0625 8.99506 6.27923 8.99538 6.54325V22.025C8.98664 22.2907 9.19491 22.5132 9.46051 22.522C9.4631 22.522 9.46601 22.522 9.4686 22.522H16.0959C16.6316 22.5135 17.0592 22.072 17.0508 21.5362C17.0508 21.5332 17.0508 21.5307 17.0508 21.5277V7.04052C17.0683 6.51344 16.6553 6.07222 16.1283 6.05473C16.1202 6.05473 16.1121 6.0544 16.104 6.0544H16.0962L16.0959 6.05408Z" fill="black"/>
</g>
<g opacity="0.1">
<path d="M16.0884 6.45618H9.45328C9.18314 6.4646 8.97131 6.69072 8.97973 6.96057C8.97973 6.96057 8.97973 6.9609 8.97973 6.96122V22.2774C8.97973 22.5431 9.18801 22.7621 9.45296 22.7747H16.088C16.6192 22.754 17.0329 22.3063 17.0121 21.775C17.0121 21.7688 17.0115 21.763 17.0112 21.7568V7.45039C17.029 6.9217 16.6166 6.47756 16.088 6.45618H16.0884Z" fill="black"/>
</g>
<g opacity="0.2">
<path d="M14.7226 7.86877H8.41113V23.8242H14.7226C15.4268 23.8199 15.9965 23.2501 16.0008 22.5458V9.13155C15.9878 8.43343 15.4206 7.87331 14.7226 7.8691V7.86877Z" fill="black"/>
</g>
<g opacity="0.3">
<path d="M14.7314 6.47241H8.41992V22.0805H14.7314C15.4343 22.0763 16.0018 21.5052 16.0018 20.8022V7.75073C16.0018 7.04775 15.4343 6.47662 14.7314 6.47241Z" fill="black"/>
</g>
<g opacity="0.3">
<path d="M14.7226 6.47217H8.41113V22.033H14.7226C15.4284 22.033 16.0008 21.4605 16.0008 20.7547V7.75049C16.0008 7.04459 15.4284 6.47217 14.7226 6.47217Z" fill="black"/>
</g>
<g opacity="0.3">
<path d="M14.7226 6.78784H8.41113V22.7432H14.7226C15.4242 22.7478 15.9962 22.1825 16.0008 21.4808C16.0008 21.4756 16.0008 21.4701 16.0008 21.4649V8.05061C15.9878 7.35249 15.4206 6.79238 14.7226 6.78817V6.78784Z" fill="black"/>
</g>
<g opacity="0.2">
<path d="M14.7226 7.08773H8.41113V23.0431H14.7226C15.431 23.0344 16.0008 22.4577 16.0008 21.7489V8.3343C15.9836 7.64072 15.4164 7.0874 14.7226 7.0874V7.08773Z" fill="black"/>
</g>
<g opacity="0.1">
<path d="M15.9284 6.96106H9.30105C9.03513 6.96106 8.81973 7.17616 8.81941 7.44213C8.81941 7.44731 8.81941 7.45282 8.81941 7.45833V21.9537C8.81487 22.2238 9.03027 22.4464 9.3004 22.4509H15.9277C16.4634 22.438 16.8874 21.9932 16.8745 21.4574C16.8745 21.4574 16.8745 21.457 16.8745 21.4567V7.91575C16.8703 7.39321 16.4502 6.96948 15.9277 6.96106H15.9284Z" fill="black"/>
</g>
<g opacity="0.2">
<path d="M15.1971 6.96115H8.57791C8.52155 6.94204 8.46066 6.94204 8.4043 6.96115V22.0801C8.46195 22.0875 8.52025 22.0875 8.57791 22.0801H15.213C15.7487 22.0671 16.1727 21.6223 16.1598 21.0865C16.1598 21.0865 16.1598 21.0862 16.1598 21.0859V7.91585C16.1772 7.38456 15.7607 6.93945 15.2295 6.92195C15.224 6.92195 15.2185 6.92195 15.213 6.92163L15.1971 6.96115Z" fill="black"/>
</g>
<g opacity="0.3">
<path d="M13.5315 6.06165H8.7031C8.4375 6.06586 8.22534 6.28485 8.22955 6.55049C8.22955 6.55308 8.22955 6.556 8.22955 6.55859V21.0776C8.22955 21.3416 8.43912 21.5583 8.70277 21.5667H15.3379C15.8707 21.5538 16.2934 21.1135 16.2846 20.5803V7.48996C16.2846 6.90619 14.9987 6.58256 14.8565 6.40115C14.4494 6.18054 13.994 6.06391 13.5311 6.06197L13.5315 6.06165Z" fill="black"/>
</g>
<g opacity="0.1">
<path d="M15.6144 7.63208H8.97934C8.71406 7.64471 8.5058 7.86371 8.50612 8.12935V22.6564C8.49738 22.9266 8.70888 23.1527 8.97901 23.1615C8.97901 23.1615 8.97934 23.1615 8.97966 23.1615H15.6148C16.1456 23.1443 16.566 22.7063 16.5615 22.175V8.62662C16.5748 8.09339 16.1557 7.64957 15.6225 7.6324H15.6148L15.6144 7.63208Z" fill="black"/>
</g>
<g opacity="0.1">
<path d="M15.0142 5.56482H8.38684V18.5609H8.29226V20.5966C8.28351 20.8622 8.49178 21.0848 8.75738 21.0936C8.75997 21.0936 8.76288 21.0936 8.76548 21.0936L14.0356 20.0757C14.5643 20.0757 15.9687 19.6024 15.9687 19.0578V6.55903C15.982 6.02321 15.558 5.5781 15.0223 5.56482C15.0193 5.56482 15.0167 5.56482 15.0138 5.56482H15.0142Z" fill="black"/>
</g>
<g opacity="0.15">
<path d="M15.0142 5.81702H8.38684V18.7975H8.29226V20.8255C8.28351 21.0911 8.49178 21.3137 8.75738 21.3224C8.75997 21.3224 8.76288 21.3224 8.76548 21.3224L14.0356 20.3123C14.5643 20.3123 15.9687 19.839 15.9687 19.2945V6.81123C15.982 6.27541 15.558 5.8303 15.0223 5.81702C15.0193 5.81702 15.0167 5.81702 15.0138 5.81702H15.0142Z" fill="black"/>
</g>
<path d="M2.04302 6.0144H14.7292C15.4463 6.03579 16.0128 6.63056 15.9995 7.3478V20.5965C16.0264 21.3141 15.4703 21.9196 14.7529 21.9539H2.04302C1.3285 21.941 0.759734 21.3514 0.77269 20.6367C0.77269 20.6338 0.77269 20.6312 0.77269 20.6283V7.34812C0.75941 6.63057 1.32591 6.03611 2.04302 6.01473V6.0144Z" fill="#107C41"/>
<path d="M4.23047 18.9394L7.22072 14.0629L4.47501 9.24963H6.68401L8.17525 12.3272C8.28116 12.5485 8.37607 12.7749 8.45931 13.0059C8.55389 12.7772 8.66434 12.5404 8.77479 12.3272L10.3528 9.27361H12.3804L9.59555 14.0633L12.4753 18.932H10.3136L8.57786 15.5784C8.49882 15.4323 8.42789 15.2823 8.36473 15.1288C8.31258 15.2804 8.24359 15.4261 8.1597 15.5628L6.3844 18.9482L4.23047 18.9404V18.9394Z" fill="white"/>
</svg>
